<?xml version="1.0" encoding="UTF-8" standalone="no"?><svg xmlns="http://www.w3.org/2000/svg" xmlns:xlink="http://www.w3.org/1999/xlink" contentStyleType="text/css" height="762px" preserveAspectRatio="none" style="width:1090px;height:762px;background:#FFFFFF;" version="1.1" viewBox="0 0 1090 762" width="1090px" zoomAndPan="magnify"><defs/><g><!--MD5=[ce8182edd4590e04a2102797ac389b3e]
class EncryptionMode--><g id="elem_EncryptionMode"><rect codeLine="2" fill="#F1F1F1" height="80.9766" id="EncryptionMode" rx="2.5" ry="2.5" style="stroke:#181818;stroke-width:0.5;" width="143" x="129" y="190"/><ellipse cx="144" cy="206" fill="#EB937F" rx="11" ry="11" style="stroke:#181818;stroke-width:1.0;"/><path d="M148.1143,212 L140.3945,212 L140.3945,199.6069 L148.1143,199.6069 L148.1143,201.7651 L142.8433,201.7651 L142.8433,204.438 L147.6162,204.438 L147.6162,206.5962 L142.8433,206.5962 L142.8433,209.8418 L148.1143,209.8418 Z " fill="#000000"/><text fill="#000000" font-family="sans-serif" font-size="14" lengthAdjust="spacing" textLength="111" x="158" y="211.291">EncryptionMode</text><line style="stroke:#181818;stroke-width:0.5;" x1="130" x2="271" y1="222" y2="222"/><text fill="#000000" font-family="sans-serif" font-size="14" lengthAdjust="spacing" textLength="69" x="135" y="239.5352">ACTIVATE</text><text fill="#000000" font-family="sans-serif" font-size="14" lengthAdjust="spacing" textLength="87" x="135" y="256.0234">DEACTIVATE</text><line style="stroke:#181818;stroke-width:0.5;" x1="130" x2="271" y1="262.9766" y2="262.9766"/></g><!--MD5=[587c29523c7e651cb28d7191d1daa746]
class AuthenticationMode--><g id="elem_AuthenticationMode"><rect codeLine="7" fill="#F1F1F1" height="80.9766" id="AuthenticationMode" rx="2.5" ry="2.5" style="stroke:#181818;stroke-width:0.5;" width="171" x="307" y="190"/><ellipse cx="322" cy="206" fill="#EB937F" rx="11" ry="11" style="stroke:#181818;stroke-width:1.0;"/><path d="M326.1143,212 L318.3945,212 L318.3945,199.6069 L326.1143,199.6069 L326.1143,201.7651 L320.8433,201.7651 L320.8433,204.438 L325.6162,204.438 L325.6162,206.5962 L320.8433,206.5962 L320.8433,209.8418 L326.1143,209.8418 Z " fill="#000000"/><text fill="#000000" font-family="sans-serif" font-size="14" lengthAdjust="spacing" textLength="139" x="336" y="211.291">AuthenticationMode</text><line style="stroke:#181818;stroke-width:0.5;" x1="308" x2="477" y1="222" y2="222"/><text fill="#000000" font-family="sans-serif" font-size="14" lengthAdjust="spacing" textLength="81" x="313" y="239.5352">REQUESTED</text><text fill="#000000" font-family="sans-serif" font-size="14" lengthAdjust="spacing" textLength="118" x="313" y="256.0234">NOT_REQUESTED</text><line style="stroke:#181818;stroke-width:0.5;" x1="308" x2="477" y1="262.9766" y2="262.9766"/></g><!--MD5=[92be3b4089a2693ac3db71f8eb03f488]
class CardTransactionManager--><g id="elem_CardTransactionManager"><rect codeLine="12" fill="#F1F1F1" height="208.8828" id="CardTransactionManager" rx="2.5" ry="2.5" style="stroke:#181818;stroke-width:0.5;" width="771" x="7" y="356"/><ellipse cx="301.25" cy="372" fill="#B4A7E5" rx="11" ry="11" style="stroke:#181818;stroke-width:1.0;"/><path d="M297.1777,367.7651 L297.1777,365.6069 L304.5571,365.6069 L304.5571,367.7651 L302.0918,367.7651 L302.0918,375.8418 L304.5571,375.8418 L304.5571,378 L297.1777,378 L297.1777,375.8418 L299.6431,375.8418 L299.6431,367.7651 Z " fill="#000000"/><text fill="#000000" font-family="sans-serif" font-size="14" font-style="italic" lengthAdjust="spacing" textLength="174" x="321.75" y="377.291">CardTransactionManager</text><line style="stroke:#181818;stroke-width:0.5;" x1="8" x2="777" y1="388" y2="388"/><ellipse cx="18" cy="401.7441" fill="#84BE84" rx="3" ry="3" style="stroke:#038048;stroke-width:1.0;"/><text fill="#000000" font-family="sans-serif" font-size="14" lengthAdjust="spacing" textLength="745" x="27" y="405.5352">CardTransactionManager prepareManageSession(EncryptionMode encMode, AuthenticationMode authMode)</text><text fill="#000000" font-family="sans-serif" font-size="14" lengthAdjust="spacing" textLength="4" x="27" y="422.0234"> </text><ellipse cx="18" cy="434.7207" fill="#84BE84" rx="3" ry="3" style="stroke:#038048;stroke-width:1.0;"/><text fill="#000000" font-family="sans-serif" font-size="14" lengthAdjust="spacing" textLength="572" x="27" y="438.5117">CardTransactionManager preparePreOpenSession(SessionAccessLevel accessLevel))</text><ellipse cx="18" cy="451.209" fill="#84BE84" rx="3" ry="3" style="stroke:#038048;stroke-width:1.0;"/><text fill="#000000" font-family="sans-serif" font-size="14" lengthAdjust="spacing" textLength="518" x="27" y="455">CardTransactionManager processOpening (SessionAccessLevel accessLevel)</text><text fill="#000000" font-family="sans-serif" font-size="14" lengthAdjust="spacing" textLength="4" x="27" y="471.4883"> </text><ellipse cx="18" cy="484.1855" fill="#84BE84" rx="3" ry="3" style="stroke:#038048;stroke-width:1.0;"/><text fill="#000000" font-family="sans-serif" font-size="14" lengthAdjust="spacing" textLength="448" x="27" y="487.9766">CardTransactionManager prepareGetData (ExtendedDataTag tag)</text><ellipse cx="18" cy="521.1621" fill="#84BE84" rx="3" ry="3" style="stroke:#038048;stroke-width:1.0;"/><text fill="#000000" font-family="sans-serif" font-size="14" lengthAdjust="spacing" textLength="378" x="27" y="524.9531">CardTransactionManager prepareReadCardPublicKey ()</text><ellipse cx="18" cy="537.6504" fill="#84BE84" rx="3" ry="3" style="stroke:#038048;stroke-width:1.0;"/><text fill="#000000" font-family="sans-serif" font-size="14" lengthAdjust="spacing" textLength="407" x="27" y="541.4414">CardTransactionManager prepareReadCardKeyCertificate ()</text><ellipse cx="18" cy="554.1387" fill="#84BE84" rx="3" ry="3" style="stroke:#038048;stroke-width:1.0;"/><text fill="#000000" font-family="sans-serif" font-size="14" lengthAdjust="spacing" textLength="498" x="27" y="557.9297">CardTransactionManager prepareReadCertificationAuthorityCertificate ()</text><line style="stroke:#181818;stroke-width:1.0;stroke-dasharray:1.0,2.0;" x1="8" x2="382.5" y1="503.1738" y2="503.1738"/><text fill="#000000" font-family="sans-serif" font-size="14" lengthAdjust="spacing" textLength="20" x="382.5" y="507.9648">OR</text><line style="stroke:#181818;stroke-width:1.0;stroke-dasharray:1.0,2.0;" x1="402.5" x2="777" y1="503.1738" y2="503.1738"/></g><!--MD5=[902430ab886935d86a17fe3ee56b883e]
class CardSecuritySetting--><g id="elem_CardSecuritySetting"><rect codeLine="28" fill="#F1F1F1" height="64.4883" id="CardSecuritySetting" rx="2.5" ry="2.5" style="stroke:#181818;stroke-width:0.5;" width="358" x="56.5" y="667"/><ellipse cx="158.25" cy="683" fill="#B4A7E5" rx="11" ry="11" style="stroke:#181818;stroke-width:1.0;"/><path d="M154.1777,678.7651 L154.1777,676.6069 L161.5571,676.6069 L161.5571,678.7651 L159.0918,678.7651 L159.0918,686.8418 L161.5571,686.8418 L161.5571,689 L154.1777,689 L154.1777,686.8418 L156.6431,686.8418 L156.6431,678.7651 Z " fill="#000000"/><ellipse cx="183.75" cy="682.5" fill="#84BE84" rx="3" ry="3" style="stroke:#038048;stroke-width:1.0;"/><text fill="#000000" font-family="sans-serif" font-size="14" font-style="italic" lengthAdjust="spacing" textLength="135" x="189.75" y="688.291">CardSecuritySetting</text><line style="stroke:#181818;stroke-width:0.5;" x1="57.5" x2="413.5" y1="699" y2="699"/><line style="stroke:#181818;stroke-width:0.5;" x1="57.5" x2="413.5" y1="707" y2="707"/><ellipse cx="67.5" cy="720.7441" fill="#84BE84" rx="3" ry="3" style="stroke:#038048;stroke-width:1.0;"/><text fill="#000000" font-family="sans-serif" font-size="14" lengthAdjust="spacing" textLength="332" x="76.5" y="724.5352">CardSecuritySetting enablePreOpeningSession ()</text></g><!--MD5=[725363c15b2fca4588eaca0d2be2b1de]
class SessionAccessLevel--><g id="elem_SessionAccessLevel"><rect codeLine="35" fill="#F1F1F1" height="113.9531" id="SessionAccessLevel" rx="2.5" ry="2.5" style="stroke:#181818;stroke-width:0.5;" width="199" x="450" y="642"/><ellipse cx="475.8" cy="658" fill="#EB937F" rx="11" ry="11" style="stroke:#181818;stroke-width:1.0;"/><path d="M479.9143,664 L472.1945,664 L472.1945,651.6069 L479.9143,651.6069 L479.9143,653.7651 L474.6433,653.7651 L474.6433,656.438 L479.4162,656.438 L479.4162,658.5962 L474.6433,658.5962 L474.6433,661.8418 L479.9143,661.8418 Z " fill="#000000"/><ellipse cx="497.2" cy="657.5" fill="#84BE84" rx="3" ry="3" style="stroke:#038048;stroke-width:1.0;"/><text fill="#000000" font-family="sans-serif" font-size="14" lengthAdjust="spacing" textLength="132" x="503.2" y="663.291">SessionAccessLevel</text><line style="stroke:#181818;stroke-width:0.5;" x1="451" x2="648" y1="674" y2="674"/><text fill="#000000" font-family="sans-serif" font-size="14" lengthAdjust="spacing" textLength="187" x="456" y="691.5352">SECURE_PERSONALIZATION</text><text fill="#000000" font-family="sans-serif" font-size="14" lengthAdjust="spacing" textLength="98" x="456" y="708.0234">SECURE_LOAD</text><text fill="#000000" font-family="sans-serif" font-size="14" lengthAdjust="spacing" textLength="99" x="456" y="724.5117">SECURE_DEBIT</text><text fill="#000000" font-family="sans-serif" font-size="14" lengthAdjust="spacing" textLength="61" x="456" y="741">FREE_PKI</text><line style="stroke:#181818;stroke-width:0.5;" x1="451" x2="648" y1="747.9531" y2="747.9531"/></g><!--MD5=[97e08845a712c8f45c07bef0bf0d44ef]
class GetDataTag--><g id="elem_GetDataTag"><rect codeLine="44" fill="#F1F1F1" height="113.9531" id="GetDataTag" rx="2.5" ry="2.5" style="stroke:#181818;stroke-width:0.5;" width="214" x="488.5" y="7"/><ellipse cx="545.75" cy="23" fill="#EB937F" rx="11" ry="11" style="stroke:#181818;stroke-width:1.0;"/><path d="M549.8643,29 L542.1445,29 L542.1445,16.6069 L549.8643,16.6069 L549.8643,18.7651 L544.5933,18.7651 L544.5933,21.438 L549.3662,21.438 L549.3662,23.5962 L544.5933,23.5962 L544.5933,26.8418 L549.8643,26.8418 Z " fill="#000000"/><ellipse cx="571.25" cy="22.5" fill="#84BE84" rx="3" ry="3" style="stroke:#038048;stroke-width:1.0;"/><text fill="#000000" font-family="sans-serif" font-size="14" lengthAdjust="spacing" textLength="80" x="577.25" y="28.291">GetDataTag</text><line style="stroke:#181818;stroke-width:0.5;" x1="489.5" x2="701.5" y1="39" y2="39"/><text fill="#000000" font-family="sans-serif" font-size="14" lengthAdjust="spacing" textLength="167" x="494.5" y="56.5352">FCP_FOR_CURRENT_FILE</text><text fill="#000000" font-family="sans-serif" font-size="14" lengthAdjust="spacing" textLength="154" x="494.5" y="73.0234">FCI_FOR_CURRENT_DF</text><text fill="#000000" font-family="sans-serif" font-size="14" lengthAdjust="spacing" textLength="51" x="494.5" y="89.5117">EF_LIST</text><text fill="#000000" font-family="sans-serif" font-size="14" lengthAdjust="spacing" textLength="202" x="494.5" y="106">TRACEABILITY_INFORMATION</text><line style="stroke:#181818;stroke-width:0.5;" x1="489.5" x2="701.5" y1="112.9531" y2="112.9531"/></g><!--MD5=[05906d2051a0297e46a9351d20586cc0]
class ExtendedDataTag--><g id="elem_ExtendedDataTag"><rect codeLine="51" fill="#F1F1F1" height="97.4648" id="ExtendedDataTag" rx="2.5" ry="2.5" style="stroke:#181818;stroke-width:0.5;" width="165" x="513" y="182"/><ellipse cx="528" cy="198" fill="#EB937F" rx="11" ry="11" style="stroke:#181818;stroke-width:1.0;"/><path d="M532.1143,204 L524.3945,204 L524.3945,191.6069 L532.1143,191.6069 L532.1143,193.7651 L526.8433,193.7651 L526.8433,196.438 L531.6162,196.438 L531.6162,198.5962 L526.8433,198.5962 L526.8433,201.8418 L532.1143,201.8418 Z " fill="#000000"/><ellipse cx="547" cy="197.5" fill="#84BE84" rx="3" ry="3" style="stroke:#038048;stroke-width:1.0;"/><text fill="#000000" font-family="sans-serif" font-size="14" lengthAdjust="spacing" textLength="122" x="553" y="203.291">ExtendedDataTag</text><line style="stroke:#181818;stroke-width:0.5;" x1="514" x2="677" y1="214" y2="214"/><text fill="#000000" font-family="sans-serif" font-size="14" lengthAdjust="spacing" textLength="72" x="519" y="231.5352">CARD_PUB</text><text fill="#000000" font-family="sans-serif" font-size="14" lengthAdjust="spacing" textLength="63" x="519" y="248.0234">CA_CERT</text><text fill="#000000" font-family="sans-serif" font-size="14" lengthAdjust="spacing" textLength="82" x="519" y="264.5117">CARD_CERT</text><line style="stroke:#181818;stroke-width:0.5;" x1="514" x2="677" y1="271.4648" y2="271.4648"/></g><!--MD5=[57d9060bfed72118962c04165c3e8b58]
class CalypsoCard--><g id="elem_CalypsoCard"><rect codeLine="59" fill="#F1F1F1" height="113.9531" id="CalypsoCard" rx="2.5" ry="2.5" style="stroke:#181818;stroke-width:0.5;" width="345" x="738" y="7"/><ellipse cx="862.75" cy="23" fill="#B4A7E5" rx="11" ry="11" style="stroke:#181818;stroke-width:1.0;"/><path d="M858.6777,18.7651 L858.6777,16.6069 L866.0571,16.6069 L866.0571,18.7651 L863.5918,18.7651 L863.5918,26.8418 L866.0571,26.8418 L866.0571,29 L858.6777,29 L858.6777,26.8418 L861.1431,26.8418 L861.1431,18.7651 Z " fill="#000000"/><text fill="#000000" font-family="sans-serif" font-size="14" font-style="italic" lengthAdjust="spacing" textLength="87" x="883.25" y="28.291">CalypsoCard</text><line style="stroke:#181818;stroke-width:0.5;" x1="739" x2="1082" y1="39" y2="39"/><line style="stroke:#181818;stroke-width:0.5;" x1="739" x2="1082" y1="47" y2="47"/><ellipse cx="749" cy="60.7441" fill="#84BE84" rx="3" ry="3" style="stroke:#038048;stroke-width:1.0;"/><text fill="#000000" font-family="sans-serif" font-size="14" lengthAdjust="spacing" textLength="197" x="758" y="64.5352">String getEccCardPublicKey()</text><text fill="#000000" font-family="sans-serif" font-size="14" lengthAdjust="spacing" textLength="4" x="758" y="81.0234"> </text><ellipse cx="749" cy="93.7207" fill="#84BE84" rx="3" ry="3" style="stroke:#038048;stroke-width:1.0;"/><text fill="#000000" font-family="sans-serif" font-size="14" lengthAdjust="spacing" textLength="228" x="758" y="97.5117">String getRsaCardKeyCertificate()</text><ellipse cx="749" cy="110.209" fill="#84BE84" rx="3" ry="3" style="stroke:#038048;stroke-width:1.0;"/><text fill="#000000" font-family="sans-serif" font-size="14" lengthAdjust="spacing" textLength="319" x="758" y="114">String getRsaCertificationAuthorityCertificate()</text></g><!--MD5=[5c55cd1e69ffe91f0f276a02a06c9512]
link EncryptionMode to CardTransactionManager--><g id="link_EncryptionMode_CardTransactionManager"><path codeLine="25" d="M233.94,271.21 C251.16,291.66 273.14,317.76 295.21,343.97 " fill="none" id="EncryptionMode-to-CardTransactionManager" style="stroke:#181818;stroke-width:1.0;"/><ellipse cx="299.8479" cy="349.4699" fill="#FFFFFF" rx="8" ry="8" style="stroke:#181818;stroke-width:1.0;"/><line style="stroke:#181818;stroke-width:1.0;" x1="294.6957" x2="305" y1="343.3498" y2="355.59"/><line style="stroke:#181818;stroke-width:1.0;" x1="305.9679" x2="293.7278" y1="344.3178" y2="354.6221"/></g><!--MD5=[454804486ec31856fae2667b8aa69f09]
link AuthenticationMode to CardTransactionManager--><g id="link_AuthenticationMode_CardTransactionManager"><path codeLine="26" d="M392.5,271.21 C392.5,290.75 392.5,315.43 392.5,340.44 " fill="none" id="AuthenticationMode-to-CardTransactionManager" style="stroke:#181818;stroke-width:1.0;"/><ellipse cx="392.5" cy="347.59" fill="#FFFFFF" rx="8" ry="8" style="stroke:#181818;stroke-width:1.0;"/><line style="stroke:#181818;stroke-width:1.0;" x1="392.5" x2="392.5" y1="339.59" y2="355.59"/><line style="stroke:#181818;stroke-width:1.0;" x1="400.5" x2="384.5" y1="347.59" y2="347.59"/></g><!--MD5=[52b5f30b2d37598ca0e4149af55964c4]
link CardTransactionManager to CardSecuritySetting--><g id="link_CardTransactionManager_CardSecuritySetting"><path codeLine="33" d="M323.64,565.23 C300.51,600.08 276.24,636.63 259.04,662.54 " fill="none" id="CardTransactionManager-to-CardSecuritySetting" style="stroke:#181818;stroke-width:1.0;stroke-dasharray:7.0,7.0;"/><polygon fill="#181818" points="256.13,666.93,264.4505,661.6603,258.9035,662.7697,257.7941,657.2227,256.13,666.93" style="stroke:#181818;stroke-width:1.0;"/><polygon fill="#000000" points="307.2654,599.4896,299.8142,605.3999,304.7113,608.6508,307.2654,599.4896" style="stroke:#000000;stroke-width:1.0;"/><text fill="#000000" font-family="sans-serif" font-size="13" lengthAdjust="spacing" textLength="47" x="313.5" y="608.5684">provide</text></g><!--MD5=[be5b16800d36d7ccb1231434ca772714]
link CardTransactionManager to SessionAccessLevel--><g id="link_CardTransactionManager_SessionAccessLevel"><path codeLine="42" d="M461.36,565.23 C477.74,589.9 494.68,615.42 509.28,637.42 " fill="none" id="CardTransactionManager-to-SessionAccessLevel" style="stroke:#181818;stroke-width:1.0;stroke-dasharray:7.0,7.0;"/><polygon fill="#181818" points="512.17,641.77,510.529,632.0588,509.4064,637.6032,503.8621,636.4805,512.17,641.77" style="stroke:#181818;stroke-width:1.0;"/><polygon fill="#000000" points="497.2652,607.821,494.7114,598.6597,489.8143,601.9105,497.2652,607.821" style="stroke:#000000;stroke-width:1.0;"/><text fill="#000000" font-family="sans-serif" font-size="13" lengthAdjust="spacing" textLength="22" x="503.5" y="608.5684">use</text></g><!--MD5=[d01a583fae69d4488f2838747e911647]
reverse link GetDataTag to ExtendedDataTag--><g id="link_GetDataTag_ExtendedDataTag"><path d="M595.5,141.6 C595.5,155.3 595.5,169.22 595.5,181.82 " fill="none" id="GetDataTag-backto-ExtendedDataTag" style="stroke:#181818;stroke-width:1.0;"/><polygon fill="none" points="588.5,141.15,595.5,121.15,602.5,141.15,588.5,141.15" style="stroke:#181818;stroke-width:1.0;"/></g><!--MD5=[0d4e5137b282c7c280a5a757636cea7b]
reverse link ExtendedDataTag to CardTransactionManager--><g id="link_ExtendedDataTag_CardTransactionManager"><path codeLine="57" d="M549.65,282.99 C530.45,304.56 507.4,330.45 484.95,355.66 " fill="none" id="ExtendedDataTag-backto-CardTransactionManager" style="stroke:#181818;stroke-width:1.0;stroke-dasharray:7.0,7.0;"/><polygon fill="#181818" points="553.19,279.02,544.2124,283.0701,549.8602,282.7499,550.1803,288.3977,553.19,279.02" style="stroke:#181818;stroke-width:1.0;"/><polygon fill="#000000" points="531.8248,313.9209,523.6152,318.7222,528.0052,322.6307,531.8248,313.9209" style="stroke:#000000;stroke-width:1.0;"/><text fill="#000000" font-family="sans-serif" font-size="13" lengthAdjust="spacing" textLength="22" x="537.5" y="322.5684">use</text></g><!--MD5=[bf93d30a9be0d6f0062e992ef1248f5c]
@startuml

enum EncryptionMode {
 ACTIVATE
 DEACTIVATE
}

enum AuthenticationMode {
 REQUESTED
 NOT_REQUESTED
}

Interface CardTransactionManager {
    +CardTransactionManager prepareManageSession(EncryptionMode encMode, AuthenticationMode authMode)

    +CardTransactionManager preparePreOpenSession(SessionAccessLevel accessLevel))
    +CardTransactionManager processOpening (SessionAccessLevel accessLevel)

    +CardTransactionManager prepareGetData (ExtendedDataTag tag)
    .. OR ..
    +CardTransactionManager prepareReadCardPublicKey ()
    +CardTransactionManager prepareReadCardKeyCertificate ()
    +CardTransactionManager prepareReadCertificationAuthorityCertificate ()
}

EncryptionMode -down-+ CardTransactionManager
AuthenticationMode -down-+ CardTransactionManager

+interface CardSecuritySetting {
            +CardSecuritySetting enablePreOpeningSession ()

}

CardTransactionManager ..> CardSecuritySetting : provide <

+enum SessionAccessLevel {
        SECURE_PERSONALIZATION
        SECURE_LOAD
        SECURE_DEBIT
        FREE_PKI
    }

CardTransactionManager ..> SessionAccessLevel : use >

+enum GetDataTag {
        FCP_FOR_CURRENT_FILE
        FCI_FOR_CURRENT_DF
        EF_LIST
        TRACEABILITY_INFORMATION
    }

    +enum ExtendedDataTag extends GetDataTag {
            CARD_PUB
            CA_CERT
            CARD_CERT
        }

    CardTransactionManager .up.> ExtendedDataTag : use >

Interface CalypsoCard {
    +String getEccCardPublicKey()

    +String getRsaCardKeyCertificate()
    +String getRsaCertificationAuthorityCertificate()
}

@enduml

PlantUML version 1.2022.7(Mon Aug 22 21:01:30 RET 2022)
(GPL source distribution)
Java Runtime: OpenJDK Runtime Environment
JVM: OpenJDK 64-Bit Server VM
Default Encoding: UTF-8
Language: fr
Country: FR
--></g></svg>