<?xml version="1.0" encoding="UTF-8" standalone="no"?><svg xmlns="http://www.w3.org/2000/svg" xmlns:xlink="http://www.w3.org/1999/xlink" contentStyleType="text/css" height="2908px" preserveAspectRatio="none" style="width:1523px;height:2908px;background:#FFFFFF;" version="1.1" viewBox="0 0 1523 2908" width="1523px" zoomAndPan="magnify"><defs/><g><rect fill="#FFD700" height="2722.9375" style="stroke:#181818;stroke-width:1.0;" width="10" x="68" y="93.6211"/><rect fill="#FFC0CB" height="51.291" style="stroke:#181818;stroke-width:1.0;" width="10" x="381" y="302.2402"/><rect fill="#FFC0CB" height="730.1484" style="stroke:#181818;stroke-width:1.0;" width="10" x="381" y="384.8223"/><rect fill="#FFC0CB" height="51.291" style="stroke:#181818;stroke-width:1.0;" width="10" x="381" y="1198.1348"/><rect fill="#FFC0CB" height="1489.5508" style="stroke:#181818;stroke-width:1.0;" width="10" x="381" y="1318.0078"/><rect fill="#ADD8E6" height="286.9102" style="stroke:#181818;stroke-width:1.0;" width="10" x="678" y="693.0234"/><rect fill="#ADD8E6" height="362.9102" style="stroke:#181818;stroke-width:1.0;" width="10" x="678" y="2069.9922"/><rect fill="#ADD8E6" height="2307.9902" style="stroke:#181818;stroke-width:1.0;" width="10" x="1056" y="93.6211"/><rect fill="#90EE90" height="176.4551" style="stroke:#181818;stroke-width:1.0;" width="10" x="1144.5" y="450.6953"/><rect fill="#90EE90" height="275.0371" style="stroke:#181818;stroke-width:1.0;" width="10" x="1144.5" y="1383.8809"/><rect fill="#90EE90" height="235.0371" style="stroke:#181818;stroke-width:1.0;" width="10" x="1144.5" y="1769.082"/><rect fill="#90EE90" height="156.4551" style="stroke:#181818;stroke-width:1.0;" width="10" x="1144.5" y="2498.7754"/><rect fill="#90EE90" height="2722.9375" style="stroke:#181818;stroke-width:1.0;" width="10" x="1472.5" y="93.6211"/><rect fill="none" height="241.6191" style="stroke:#000000;stroke-width:1.5;" width="477.5" x="623" y="708.0234"/><rect fill="none" height="127.1641" style="stroke:#000000;stroke-width:1.5;" width="426.5" x="1090.5" y="1784.082"/><rect fill="none" height="164.4551" style="stroke:#000000;stroke-width:1.5;" width="682.5" x="418" y="2084.9922"/><line style="stroke:#181818;stroke-width:0.5;stroke-dasharray:5.0,5.0;" x1="73" x2="73" y1="83.6211" y2="2825.5586"/><line style="stroke:#181818;stroke-width:0.5;stroke-dasharray:5.0,5.0;" x1="386" x2="386" y1="83.6211" y2="2825.5586"/><line style="stroke:#181818;stroke-width:0.5;stroke-dasharray:5.0,5.0;" x1="683" x2="683" y1="83.6211" y2="2825.5586"/><line style="stroke:#181818;stroke-width:0.5;stroke-dasharray:5.0,5.0;" x1="1060.5" x2="1060.5" y1="83.6211" y2="2825.5586"/><line style="stroke:#181818;stroke-width:0.5;stroke-dasharray:5.0,5.0;" x1="1149.5" x2="1149.5" y1="83.6211" y2="2825.5586"/><line style="stroke:#181818;stroke-width:0.5;stroke-dasharray:5.0,5.0;" x1="1477" x2="1477" y1="83.6211" y2="2825.5586"/><text fill="#000000" font-family="sans-serif" font-size="14" lengthAdjust="spacing" textLength="130" x="5" y="80.1074">Ticketing Application</text><ellipse cx="73" cy="13.5" fill="#FFD700" rx="8" ry="8" style="stroke:#181818;stroke-width:0.5;"/><path d="M73,21.5 L73,48.5 M60,29.5 L86,29.5 M73,48.5 L60,63.5 M73,48.5 L86,63.5 " fill="none" style="stroke:#181818;stroke-width:0.5;"/><text fill="#000000" font-family="sans-serif" font-size="14" lengthAdjust="spacing" textLength="130" x="5" y="2839.666">Ticketing Application</text><ellipse cx="73" cy="2851.6797" fill="#FFD700" rx="8" ry="8" style="stroke:#181818;stroke-width:0.5;"/><path d="M73,2859.6797 L73,2886.6797 M60,2867.6797 L86,2867.6797 M73,2886.6797 L60,2901.6797 M73,2886.6797 L86,2901.6797 " fill="none" style="stroke:#181818;stroke-width:0.5;"/><rect fill="#FFC0CB" height="32.6211" rx="2.5" ry="2.5" style="stroke:#181818;stroke-width:0.5;" width="90" x="341" y="50"/><text fill="#000000" font-family="sans-serif" font-size="14" lengthAdjust="spacing" textLength="76" x="348" y="72.1074">Calypso API</text><rect fill="#FFC0CB" height="32.6211" rx="2.5" ry="2.5" style="stroke:#181818;stroke-width:0.5;" width="90" x="341" y="2824.5586"/><text fill="#000000" font-family="sans-serif" font-size="14" lengthAdjust="spacing" textLength="76" x="348" y="2846.666">Calypso API</text><rect fill="#ADD8E6" height="51.2422" rx="2.5" ry="2.5" style="stroke:#181818;stroke-width:0.5;" width="100" x="633" y="31.3789"/><text fill="#000000" font-family="sans-serif" font-size="14" lengthAdjust="spacing" textLength="86" x="640" y="53.4863">Calypso Card</text><text fill="#000000" font-family="sans-serif" font-size="14" lengthAdjust="spacing" textLength="47" x="659.5" y="72.1074">Reader</text><rect fill="#ADD8E6" height="51.2422" rx="2.5" ry="2.5" style="stroke:#181818;stroke-width:0.5;" width="100" x="633" y="2824.5586"/><text fill="#000000" font-family="sans-serif" font-size="14" lengthAdjust="spacing" textLength="86" x="640" y="2846.666">Calypso Card</text><text fill="#000000" font-family="sans-serif" font-size="14" lengthAdjust="spacing" textLength="47" x="659.5" y="2865.2871">Reader</text><text fill="#000000" font-family="sans-serif" font-size="14" lengthAdjust="spacing" textLength="53" x="1031.5" y="61.4863">selected</text><text fill="#000000" font-family="sans-serif" font-size="14" font-weight="bold" lengthAdjust="spacing" textLength="33" x="1041.5" y="80.1074">Card</text><path d="M1040.5,18.3789 L1040.5,42.3789 M1040.5,30.3789 L1057.5,30.3789 " fill="none" style="stroke:#181818;stroke-width:0.5;"/><ellipse cx="1069.5" cy="30.3789" fill="#ADD8E6" rx="12" ry="12" style="stroke:#181818;stroke-width:0.5;"/><text fill="#000000" font-family="sans-serif" font-size="14" lengthAdjust="spacing" textLength="53" x="1031.5" y="2839.666">selected</text><text fill="#000000" font-family="sans-serif" font-size="14" font-weight="bold" lengthAdjust="spacing" textLength="33" x="1041.5" y="2858.2871">Card</text><path d="M1040.5,2865.8008 L1040.5,2889.8008 M1040.5,2877.8008 L1057.5,2877.8008 " fill="none" style="stroke:#181818;stroke-width:0.5;"/><ellipse cx="1069.5" cy="2877.8008" fill="#ADD8E6" rx="12" ry="12" style="stroke:#181818;stroke-width:0.5;"/><rect fill="#90EE90" height="51.2422" rx="2.5" ry="2.5" style="stroke:#181818;stroke-width:0.5;" width="98" x="1100.5" y="31.3789"/><text fill="#000000" font-family="sans-serif" font-size="14" lengthAdjust="spacing" textLength="84" x="1107.5" y="53.4863">Calypso SAM</text><text fill="#000000" font-family="sans-serif" font-size="14" lengthAdjust="spacing" textLength="47" x="1126" y="72.1074">Reader</text><rect fill="#90EE90" height="51.2422" rx="2.5" ry="2.5" style="stroke:#181818;stroke-width:0.5;" width="98" x="1100.5" y="2824.5586"/><text fill="#000000" font-family="sans-serif" font-size="14" lengthAdjust="spacing" textLength="84" x="1107.5" y="2846.666">Calypso SAM</text><text fill="#000000" font-family="sans-serif" font-size="14" lengthAdjust="spacing" textLength="47" x="1126" y="2865.2871">Reader</text><text fill="#000000" font-family="sans-serif" font-size="14" lengthAdjust="spacing" textLength="53" x="1448" y="61.4863">selected</text><text fill="#000000" font-family="sans-serif" font-size="14" font-weight="bold" lengthAdjust="spacing" textLength="31" x="1459" y="80.1074">SAM</text><path d="M1457,18.3789 L1457,42.3789 M1457,30.3789 L1474,30.3789 " fill="none" style="stroke:#181818;stroke-width:0.5;"/><ellipse cx="1486" cy="30.3789" fill="#90EE90" rx="12" ry="12" style="stroke:#181818;stroke-width:0.5;"/><text fill="#000000" font-family="sans-serif" font-size="14" lengthAdjust="spacing" textLength="53" x="1448" y="2839.666">selected</text><text fill="#000000" font-family="sans-serif" font-size="14" font-weight="bold" lengthAdjust="spacing" textLength="31" x="1459" y="2858.2871">SAM</text><path d="M1457,2865.8008 L1457,2889.8008 M1457,2877.8008 L1474,2877.8008 " fill="none" style="stroke:#181818;stroke-width:0.5;"/><ellipse cx="1486" cy="2877.8008" fill="#90EE90" rx="12" ry="12" style="stroke:#181818;stroke-width:0.5;"/><rect fill="#FFD700" height="2722.9375" style="stroke:#181818;stroke-width:1.0;" width="10" x="68" y="93.6211"/><rect fill="#FFC0CB" height="51.291" style="stroke:#181818;stroke-width:1.0;" width="10" x="381" y="302.2402"/><rect fill="#FFC0CB" height="730.1484" style="stroke:#181818;stroke-width:1.0;" width="10" x="381" y="384.8223"/><rect fill="#FFC0CB" height="51.291" style="stroke:#181818;stroke-width:1.0;" width="10" x="381" y="1198.1348"/><rect fill="#FFC0CB" height="1489.5508" style="stroke:#181818;stroke-width:1.0;" width="10" x="381" y="1318.0078"/><rect fill="#ADD8E6" height="286.9102" style="stroke:#181818;stroke-width:1.0;" width="10" x="678" y="693.0234"/><rect fill="#ADD8E6" height="362.9102" style="stroke:#181818;stroke-width:1.0;" width="10" x="678" y="2069.9922"/><rect fill="#ADD8E6" height="2307.9902" style="stroke:#181818;stroke-width:1.0;" width="10" x="1056" y="93.6211"/><rect fill="#90EE90" height="176.4551" style="stroke:#181818;stroke-width:1.0;" width="10" x="1144.5" y="450.6953"/><rect fill="#90EE90" height="275.0371" style="stroke:#181818;stroke-width:1.0;" width="10" x="1144.5" y="1383.8809"/><rect fill="#90EE90" height="235.0371" style="stroke:#181818;stroke-width:1.0;" width="10" x="1144.5" y="1769.082"/><rect fill="#90EE90" height="156.4551" style="stroke:#181818;stroke-width:1.0;" width="10" x="1144.5" y="2498.7754"/><rect fill="#90EE90" height="2722.9375" style="stroke:#181818;stroke-width:1.0;" width="10" x="1472.5" y="93.6211"/><line style="stroke:#181818;stroke-width:1.0;" x1="78" x2="120" y1="151.4941" y2="151.4941"/><line style="stroke:#181818;stroke-width:1.0;" x1="120" x2="120" y1="151.4941" y2="164.4941"/><line style="stroke:#181818;stroke-width:1.0;" x1="79" x2="120" y1="164.4941" y2="164.4941"/><polygon fill="#181818" points="89,160.4941,79,164.4941,89,168.4941,85,164.4941" style="stroke:#181818;stroke-width:1.0;"/><text fill="#000000" font-family="sans-serif" font-size="13" font-weight="bold" lengthAdjust="spacing" textLength="66" x="85" y="111.6494">instantiate</text><text fill="#000000" font-family="sans-serif" font-size="13" lengthAdjust="spacing" textLength="148" x="155" y="111.6494">Calypso card transaction:</text><text fill="#000000" font-family="sans-serif" font-size="13" lengthAdjust="spacing" textLength="138" x="117" y="128.9404">- Calypso card resource</text><text fill="#000000" font-family="sans-serif" font-size="13" lengthAdjust="spacing" textLength="142" x="117" y="146.2314">- Calypso SAM resource</text><path d="M232,177.4941 L232,204.4941 L540,204.4941 L540,187.4941 L530,177.4941 L232,177.4941 " fill="#FEFFDD" style="stroke:#181818;stroke-width:0.5;"/><path d="M530,177.4941 L530,187.4941 L540,187.4941 L530,177.4941 " fill="#FEFFDD" style="stroke:#181818;stroke-width:0.5;"/><text fill="#000000" font-family="sans-serif" font-size="13" lengthAdjust="spacing" textLength="287" x="238" y="196.5225">SV balance already read when selecting the card.</text><polygon fill="#181818" points="369,298.2402,379,302.2402,369,306.2402,373,302.2402" style="stroke:#181818;stroke-width:1.0;"/><line style="stroke:#181818;stroke-width:1.0;" x1="78" x2="375" y1="302.2402" y2="302.2402"/><text fill="#FF0000" font-family="sans-serif" font-size="13" font-weight="bold" lengthAdjust="spacing" textLength="50" x="85" y="227.8135">prepare</text><text fill="#000000" font-family="sans-serif" font-size="13" lengthAdjust="spacing" textLength="97" x="139" y="227.8135">card transaction:</text><text fill="#000000" font-family="sans-serif" font-size="13" lengthAdjust="spacing" textLength="252" x="117" y="245.1045">- open secure session (DEBIT access level)</text><text fill="#000000" font-family="sans-serif" font-size="13" lengthAdjust="spacing" textLength="126" x="117" y="262.3955">- read environment file</text><text fill="#000000" font-family="sans-serif" font-size="13" lengthAdjust="spacing" textLength="102" x="117" y="279.6865">- read contract #1</text><text fill="#000000" font-family="sans-serif" font-size="13" lengthAdjust="spacing" textLength="4" x="117" y="296.9775">-</text><text fill="#000000" font-family="sans-serif" font-size="13" font-weight="bold" lengthAdjust="spacing" textLength="102" x="125" y="296.9775">SV Get for Debit</text><path d="M153,315.2402 L153,342.2402 L618,342.2402 L618,325.2402 L608,315.2402 L153,315.2402 " fill="#FEFFDD" style="stroke:#181818;stroke-width:0.5;"/><path d="M608,315.2402 L608,325.2402 L618,325.2402 L608,315.2402 " fill="#FEFFDD" style="stroke:#181818;stroke-width:0.5;"/><text fill="#000000" font-family="sans-serif" font-size="13" lengthAdjust="spacing" textLength="163" x="159" y="334.2686">SV Get for Debit prepared in</text><text fill="#000000" font-family="sans-serif" font-size="13" font-weight="bold" lengthAdjust="spacing" textLength="22" x="326" y="334.2686">last</text><text fill="#000000" font-family="sans-serif" font-size="13" lengthAdjust="spacing" textLength="251" x="352" y="334.2686">position of a card command set to process.</text><polygon fill="#181818" points="89,349.5313,79,353.5313,89,357.5313,85,353.5313" style="stroke:#181818;stroke-width:1.0;"/><line style="stroke:#181818;stroke-width:1.0;stroke-dasharray:2.0,2.0;" x1="83" x2="385" y1="353.5313" y2="353.5313"/><polygon fill="#181818" points="369,380.8223,379,384.8223,369,388.8223,373,384.8223" style="stroke:#181818;stroke-width:1.0;"/><line style="stroke:#181818;stroke-width:1.0;" x1="78" x2="375" y1="384.8223" y2="384.8223"/><text fill="#FF0000" font-family="sans-serif" font-size="13" font-weight="bold" lengthAdjust="spacing" textLength="48" x="85" y="379.5596">process</text><text fill="#000000" font-family="sans-serif" font-size="13" lengthAdjust="spacing" textLength="185" x="137" y="379.5596">commands (keep channel open)</text><polygon fill="#00FF00" points="1132.5,446.6953,1142.5,450.6953,1132.5,454.6953,1136.5,450.6953" style="stroke:#00FF00;stroke-width:1.0;"/><line style="stroke:#00FF00;stroke-width:1.0;" x1="391" x2="1138.5" y1="450.6953" y2="450.6953"/><text fill="#008000" font-family="sans-serif" font-size="13" font-weight="bold" lengthAdjust="spacing" textLength="47" x="398" y="410.8506">SAM #1</text><text fill="#000000" font-family="sans-serif" font-size="13" lengthAdjust="spacing" textLength="123" x="398" y="428.1416">transmit card request</text><text fill="#000000" font-family="sans-serif" font-size="13" lengthAdjust="spacing" textLength="65" x="430" y="445.4326">- APDU list</text><path d="M920,463.6953 L920,490.6953 L1379,490.6953 L1379,473.6953 L1369,463.6953 L920,463.6953 " fill="#FEFFDD" style="stroke:#181818;stroke-width:0.5;"/><path d="M1369,463.6953 L1369,473.6953 L1379,473.6953 L1369,463.6953 " fill="#FEFFDD" style="stroke:#181818;stroke-width:0.5;"/><text fill="#000000" font-family="sans-serif" font-size="13" font-weight="bold" lengthAdjust="spacing" textLength="104" x="926" y="482.7236">Same diversifier</text><text fill="#000000" font-family="sans-serif" font-size="13" lengthAdjust="spacing" textLength="330" x="1034" y="482.7236">for the Stored Value transaction and the Secure Session.</text><polygon fill="#181818" points="1460.5,515.2773,1470.5,519.2773,1460.5,523.2773,1464.5,519.2773" style="stroke:#181818;stroke-width:1.0;"/><line style="stroke:#181818;stroke-width:1.0;" x1="1154.5" x2="1466.5" y1="519.2773" y2="519.2773"/><text fill="#000000" font-family="sans-serif" font-size="13" lengthAdjust="spacing" textLength="164" x="1161.5" y="514.0146">select diversifier (card serial)</text><polygon fill="#181818" points="1165.5,529.2773,1155.5,533.2773,1165.5,537.2773,1161.5,533.2773" style="stroke:#181818;stroke-width:1.0;"/><line style="stroke:#181818;stroke-width:1.0;stroke-dasharray:2.0,2.0;" x1="1159.5" x2="1471.5" y1="533.2773" y2="533.2773"/><polygon fill="#181818" points="1460.5,560.5684,1470.5,564.5684,1460.5,568.5684,1464.5,564.5684" style="stroke:#181818;stroke-width:1.0;"/><line style="stroke:#181818;stroke-width:1.0;" x1="1154.5" x2="1466.5" y1="564.5684" y2="564.5684"/><text fill="#000000" font-family="sans-serif" font-size="13" lengthAdjust="spacing" textLength="77" x="1161.5" y="559.3057">get challenge</text><polygon fill="#181818" points="1165.5,591.8594,1155.5,595.8594,1165.5,599.8594,1161.5,595.8594" style="stroke:#181818;stroke-width:1.0;"/><line style="stroke:#181818;stroke-width:1.0;stroke-dasharray:2.0,2.0;" x1="1159.5" x2="1471.5" y1="595.8594" y2="595.8594"/><text fill="#000000" font-family="sans-serif" font-size="13" lengthAdjust="spacing" textLength="147" x="1171.5" y="590.5967">[Session SAM challenge]</text><polygon fill="#00FF00" points="402,623.1504,392,627.1504,402,631.1504,398,627.1504" style="stroke:#00FF00;stroke-width:1.0;"/><line style="stroke:#00FF00;stroke-width:1.0;stroke-dasharray:2.0,2.0;" x1="396" x2="1148.5" y1="627.1504" y2="627.1504"/><text fill="#000000" font-family="sans-serif" font-size="13" lengthAdjust="spacing" textLength="147" x="408" y="621.8877">[Session SAM challenge]</text><polygon fill="#0000FF" points="666,689.0234,676,693.0234,666,697.0234,670,693.0234" style="stroke:#0000FF;stroke-width:1.0;"/><line style="stroke:#0000FF;stroke-width:1.0;" x1="391" x2="672" y1="693.0234" y2="693.0234"/><text fill="#0000FF" font-family="sans-serif" font-size="13" font-weight="bold" lengthAdjust="spacing" textLength="48" x="398" y="653.1787">Card #2</text><text fill="#000000" font-family="sans-serif" font-size="13" lengthAdjust="spacing" textLength="123" x="398" y="670.4697">transmit card request</text><text fill="#000000" font-family="sans-serif" font-size="13" lengthAdjust="spacing" textLength="65" x="430" y="687.7607">- APDU list</text><path d="M623,708.0234 L903,708.0234 L903,717.3145 L893,727.3145 L623,727.3145 L623,708.0234 " fill="#EEEEEE" style="stroke:#000000;stroke-width:1.5;"/><rect fill="none" height="241.6191" style="stroke:#000000;stroke-width:1.5;" width="477.5" x="623" y="708.0234"/><text fill="#000000" font-family="sans-serif" font-size="13" font-weight="bold" lengthAdjust="spacing" textLength="235" x="638" y="723.0518">Card APDU commands inside session</text><polygon fill="#181818" points="1044,781.1875,1054,785.1875,1044,789.1875,1048,785.1875" style="stroke:#181818;stroke-width:1.0;"/><line style="stroke:#181818;stroke-width:1.0;" x1="688" x2="1050" y1="785.1875" y2="785.1875"/><text fill="#000000" font-family="sans-serif" font-size="13" lengthAdjust="spacing" textLength="214" x="695" y="745.3428">open secure session (card debit key,</text><text fill="#000000" font-family="sans-serif" font-size="13" lengthAdjust="spacing" textLength="143" x="727" y="762.6338">Session SAM challenge,</text><text fill="#000000" font-family="sans-serif" font-size="13" lengthAdjust="spacing" textLength="141" x="727" y="779.9248">SFI environment to read)</text><polygon fill="#181818" points="699,812.4785,689,816.4785,699,820.4785,695,816.4785" style="stroke:#181818;stroke-width:1.0;"/><line style="stroke:#181818;stroke-width:1.0;stroke-dasharray:2.0,2.0;" x1="693" x2="1055" y1="816.4785" y2="816.4785"/><text fill="#000000" font-family="sans-serif" font-size="13" lengthAdjust="spacing" textLength="207" x="705" y="811.2158">[card challenge &amp; environment data]</text><polygon fill="#181818" points="1044,843.7695,1054,847.7695,1044,851.7695,1048,847.7695" style="stroke:#181818;stroke-width:1.0;"/><line style="stroke:#181818;stroke-width:1.0;" x1="688" x2="1050" y1="847.7695" y2="847.7695"/><text fill="#000000" font-family="sans-serif" font-size="13" lengthAdjust="spacing" textLength="142" x="695" y="842.5068">read record (contract #1)</text><polygon fill="#181818" points="699,875.0605,689,879.0605,699,883.0605,695,879.0605" style="stroke:#181818;stroke-width:1.0;"/><line style="stroke:#181818;stroke-width:1.0;stroke-dasharray:2.0,2.0;" x1="693" x2="1055" y1="879.0605" y2="879.0605"/><text fill="#000000" font-family="sans-serif" font-size="13" lengthAdjust="spacing" textLength="102" x="705" y="873.7979">[contract #1 data]</text><polygon fill="#181818" points="1044,906.3516,1054,910.3516,1044,914.3516,1048,910.3516" style="stroke:#181818;stroke-width:1.0;"/><line style="stroke:#181818;stroke-width:1.0;" x1="688" x2="1050" y1="910.3516" y2="910.3516"/><text fill="#000000" font-family="sans-serif" font-size="13" lengthAdjust="spacing" textLength="103" x="695" y="905.0889">SV Get (for Debit)</text><polygon fill="#181818" points="699,937.6426,689,941.6426,699,945.6426,695,941.6426" style="stroke:#181818;stroke-width:1.0;"/><line style="stroke:#181818;stroke-width:1.0;stroke-dasharray:2.0,2.0;" x1="693" x2="1055" y1="941.6426" y2="941.6426"/><text fill="#000000" font-family="sans-serif" font-size="13" lengthAdjust="spacing" textLength="114" x="705" y="936.3799">[SV card challenge]</text><polygon fill="#0000FF" points="402,975.9336,392,979.9336,402,983.9336,398,979.9336" style="stroke:#0000FF;stroke-width:1.0;"/><line style="stroke:#0000FF;stroke-width:1.0;stroke-dasharray:2.0,2.0;" x1="396" x2="682" y1="979.9336" y2="979.9336"/><text fill="#000000" font-family="sans-serif" font-size="13" lengthAdjust="spacing" textLength="114" x="408" y="974.6709">[SV card challenge]</text><polygon fill="#181818" points="89,1110.9707,79,1114.9707,89,1118.9707,85,1114.9707" style="stroke:#181818;stroke-width:1.0;"/><line style="stroke:#181818;stroke-width:1.0;stroke-dasharray:2.0,2.0;" x1="83" x2="385" y1="1114.9707" y2="1114.9707"/><text fill="#000000" font-family="sans-serif" font-size="13" lengthAdjust="spacing" textLength="123" x="95" y="1005.9619">[Calypso card image:</text><text fill="#000000" font-family="sans-serif" font-size="13" lengthAdjust="spacing" textLength="205" x="127" y="1023.2529">- identification data with SV support</text><text fill="#000000" font-family="sans-serif" font-size="13" lengthAdjust="spacing" textLength="164" x="127" y="1040.5439">- environment data (updated)</text><text fill="#000000" font-family="sans-serif" font-size="13" lengthAdjust="spacing" textLength="105" x="127" y="1057.835">- contract list data</text><text fill="#000000" font-family="sans-serif" font-size="13" lengthAdjust="spacing" textLength="102" x="127" y="1075.126">- contract #1 data</text><text fill="#000000" font-family="sans-serif" font-size="13" lengthAdjust="spacing" textLength="89" x="127" y="1092.417">- SV Debit data</text><text fill="#000000" font-family="sans-serif" font-size="13" lengthAdjust="spacing" textLength="83" x="127" y="1109.708">- SV balance]]</text><polygon fill="#181818" points="369,1194.1348,379,1198.1348,369,1202.1348,373,1198.1348" style="stroke:#181818;stroke-width:1.0;"/><line style="stroke:#181818;stroke-width:1.0;" x1="78" x2="375" y1="1198.1348" y2="1198.1348"/><text fill="#FF0000" font-family="sans-serif" font-size="13" font-weight="bold" lengthAdjust="spacing" textLength="50" x="85" y="1140.999">prepare</text><text fill="#000000" font-family="sans-serif" font-size="13" lengthAdjust="spacing" textLength="4" x="135" y="1140.999">:</text><text fill="#000000" font-family="sans-serif" font-size="13" lengthAdjust="spacing" textLength="163" x="117" y="1158.29">- SV Debit (specific amount)</text><text fill="#000000" font-family="sans-serif" font-size="13" lengthAdjust="spacing" textLength="161" x="117" y="1175.5811">- append event record (data)</text><text fill="#000000" font-family="sans-serif" font-size="13" lengthAdjust="spacing" textLength="203" x="117" y="1192.8721">- close secure session (not ratified)</text><path d="M174,1211.1348 L174,1238.1348 L597,1238.1348 L597,1221.1348 L587,1211.1348 L174,1211.1348 " fill="#FEFFDD" style="stroke:#181818;stroke-width:0.5;"/><path d="M587,1211.1348 L587,1221.1348 L597,1221.1348 L587,1211.1348 " fill="#FEFFDD" style="stroke:#181818;stroke-width:0.5;"/><text fill="#000000" font-family="sans-serif" font-size="13" lengthAdjust="spacing" textLength="120" x="180" y="1230.1631">SV Debit prepared in</text><text fill="#000000" font-family="sans-serif" font-size="13" font-weight="bold" lengthAdjust="spacing" textLength="23" x="304" y="1230.1631">first</text><text fill="#000000" font-family="sans-serif" font-size="13" lengthAdjust="spacing" textLength="251" x="331" y="1230.1631">position of a card command set to process.</text><polygon fill="#181818" points="89,1245.4258,79,1249.4258,89,1253.4258,85,1249.4258" style="stroke:#181818;stroke-width:1.0;"/><line style="stroke:#181818;stroke-width:1.0;stroke-dasharray:2.0,2.0;" x1="83" x2="385" y1="1249.4258" y2="1249.4258"/><path d="M155,1262.4258 L155,1289.4258 L616,1289.4258 L616,1272.4258 L606,1262.4258 L155,1262.4258 " fill="#FEFFDD" style="stroke:#181818;stroke-width:0.5;"/><path d="M606,1262.4258 L606,1272.4258 L616,1272.4258 L606,1262.4258 " fill="#FEFFDD" style="stroke:#181818;stroke-width:0.5;"/><text fill="#000000" font-family="sans-serif" font-size="13" lengthAdjust="spacing" textLength="440" x="161" y="1281.4541">At the session closure, any data secure processing should be unnecessary.</text><polygon fill="#181818" points="369,1314.0078,379,1318.0078,369,1322.0078,373,1318.0078" style="stroke:#181818;stroke-width:1.0;"/><line style="stroke:#181818;stroke-width:1.0;" x1="78" x2="375" y1="1318.0078" y2="1318.0078"/><text fill="#FF0000" font-family="sans-serif" font-size="13" font-weight="bold" lengthAdjust="spacing" textLength="48" x="85" y="1312.7451">process</text><text fill="#000000" font-family="sans-serif" font-size="13" lengthAdjust="spacing" textLength="185" x="137" y="1312.7451">commands (close channel after)</text><polygon fill="#00FF00" points="1132.5,1379.8809,1142.5,1383.8809,1132.5,1387.8809,1136.5,1383.8809" style="stroke:#00FF00;stroke-width:1.0;"/><line style="stroke:#00FF00;stroke-width:1.0;" x1="391" x2="1138.5" y1="1383.8809" y2="1383.8809"/><text fill="#008000" font-family="sans-serif" font-size="13" font-weight="bold" lengthAdjust="spacing" textLength="47" x="398" y="1344.0361">SAM #2</text><text fill="#000000" font-family="sans-serif" font-size="13" lengthAdjust="spacing" textLength="123" x="398" y="1361.3271">transmit card request</text><text fill="#000000" font-family="sans-serif" font-size="13" lengthAdjust="spacing" textLength="65" x="430" y="1378.6182">- APDU list</text><polygon fill="#181818" points="1460.5,1411.1719,1470.5,1415.1719,1460.5,1419.1719,1464.5,1415.1719" style="stroke:#181818;stroke-width:1.0;"/><line style="stroke:#181818;stroke-width:1.0;" x1="1154.5" x2="1466.5" y1="1415.1719" y2="1415.1719"/><text fill="#000000" font-family="sans-serif" font-size="13" lengthAdjust="spacing" textLength="142" x="1161.5" y="1409.9092">digest init (opening data)</text><polygon fill="#181818" points="1165.5,1425.1719,1155.5,1429.1719,1165.5,1433.1719,1161.5,1429.1719" style="stroke:#181818;stroke-width:1.0;"/><line style="stroke:#181818;stroke-width:1.0;stroke-dasharray:2.0,2.0;" x1="1159.5" x2="1471.5" y1="1429.1719" y2="1429.1719"/><polygon fill="#181818" points="1460.5,1456.4629,1470.5,1460.4629,1460.5,1464.4629,1464.5,1460.4629" style="stroke:#181818;stroke-width:1.0;"/><line style="stroke:#181818;stroke-width:1.0;" x1="1154.5" x2="1466.5" y1="1460.4629" y2="1460.4629"/><text fill="#000000" font-family="sans-serif" font-size="13" lengthAdjust="spacing" textLength="188" x="1161.5" y="1455.2002">digest update (read environment)</text><polygon fill="#181818" points="1165.5,1470.4629,1155.5,1474.4629,1165.5,1478.4629,1161.5,1474.4629" style="stroke:#181818;stroke-width:1.0;"/><line style="stroke:#181818;stroke-width:1.0;stroke-dasharray:2.0,2.0;" x1="1159.5" x2="1471.5" y1="1474.4629" y2="1474.4629"/><polygon fill="#181818" points="1460.5,1501.7539,1470.5,1505.7539,1460.5,1509.7539,1464.5,1505.7539" style="stroke:#181818;stroke-width:1.0;"/><line style="stroke:#181818;stroke-width:1.0;" x1="1154.5" x2="1466.5" y1="1505.7539" y2="1505.7539"/><text fill="#000000" font-family="sans-serif" font-size="13" lengthAdjust="spacing" textLength="166" x="1161.5" y="1500.4912">digest update (read contract)</text><polygon fill="#181818" points="1165.5,1515.7539,1155.5,1519.7539,1165.5,1523.7539,1161.5,1519.7539" style="stroke:#181818;stroke-width:1.0;"/><line style="stroke:#181818;stroke-width:1.0;stroke-dasharray:2.0,2.0;" x1="1159.5" x2="1471.5" y1="1519.7539" y2="1519.7539"/><polygon fill="#181818" points="1460.5,1547.0449,1470.5,1551.0449,1460.5,1555.0449,1464.5,1551.0449" style="stroke:#181818;stroke-width:1.0;"/><line style="stroke:#181818;stroke-width:1.0;" x1="1154.5" x2="1466.5" y1="1551.0449" y2="1551.0449"/><text fill="#000000" font-family="sans-serif" font-size="13" lengthAdjust="spacing" textLength="185" x="1161.5" y="1545.7822">digest update (SV Get for Debit)</text><polygon fill="#181818" points="1165.5,1561.0449,1155.5,1565.0449,1165.5,1569.0449,1161.5,1565.0449" style="stroke:#181818;stroke-width:1.0;"/><line style="stroke:#181818;stroke-width:1.0;stroke-dasharray:2.0,2.0;" x1="1159.5" x2="1471.5" y1="1565.0449" y2="1565.0449"/><polygon fill="#181818" points="1460.5,1592.3359,1470.5,1596.3359,1460.5,1600.3359,1464.5,1596.3359" style="stroke:#181818;stroke-width:1.0;"/><line style="stroke:#181818;stroke-width:1.0;" x1="1154.5" x2="1466.5" y1="1596.3359" y2="1596.3359"/><text fill="#000000" font-family="sans-serif" font-size="13" lengthAdjust="spacing" textLength="294" x="1161.5" y="1591.0732">SV prepare Load (SV card challenge, load amount)</text><polygon fill="#181818" points="1165.5,1623.627,1155.5,1627.627,1165.5,1631.627,1161.5,1627.627" style="stroke:#181818;stroke-width:1.0;"/><line style="stroke:#181818;stroke-width:1.0;stroke-dasharray:2.0,2.0;" x1="1159.5" x2="1471.5" y1="1627.627" y2="1627.627"/><text fill="#000000" font-family="sans-serif" font-size="13" lengthAdjust="spacing" textLength="237" x="1171.5" y="1622.3643">[SV SAM challenge, SV SAM certificate]</text><polygon fill="#00FF00" points="402,1654.918,392,1658.918,402,1662.918,398,1658.918" style="stroke:#00FF00;stroke-width:1.0;"/><line style="stroke:#00FF00;stroke-width:1.0;stroke-dasharray:2.0,2.0;" x1="396" x2="1148.5" y1="1658.918" y2="1658.918"/><text fill="#000000" font-family="sans-serif" font-size="13" lengthAdjust="spacing" textLength="119" x="408" y="1653.6553">[SV SAM certificate]</text><line style="stroke:#181818;stroke-width:1.0;" x1="391" x2="433" y1="1690.209" y2="1690.209"/><line style="stroke:#181818;stroke-width:1.0;" x1="433" x2="433" y1="1690.209" y2="1703.209"/><line style="stroke:#181818;stroke-width:1.0;" x1="392" x2="433" y1="1703.209" y2="1703.209"/><polygon fill="#181818" points="402,1699.209,392,1703.209,402,1707.209,398,1703.209" style="stroke:#181818;stroke-width:1.0;"/><text fill="#000000" font-family="sans-serif" font-size="13" lengthAdjust="spacing" textLength="214" x="398" y="1684.9463">anticipates the future card responses</text><polygon fill="#00FF00" points="1132.5,1765.082,1142.5,1769.082,1132.5,1773.082,1136.5,1769.082" style="stroke:#00FF00;stroke-width:1.0;"/><line style="stroke:#00FF00;stroke-width:1.0;" x1="391" x2="1138.5" y1="1769.082" y2="1769.082"/><text fill="#008000" font-family="sans-serif" font-size="13" font-weight="bold" lengthAdjust="spacing" textLength="47" x="398" y="1729.2373">SAM #3</text><text fill="#000000" font-family="sans-serif" font-size="13" lengthAdjust="spacing" textLength="123" x="398" y="1746.5283">transmit card request</text><text fill="#000000" font-family="sans-serif" font-size="13" lengthAdjust="spacing" textLength="65" x="430" y="1763.8193">- APDU list</text><path d="M1090.5,1784.082 L1347.5,1784.082 L1347.5,1793.373 L1337.5,1803.373 L1090.5,1803.373 L1090.5,1784.082 " fill="#EEEEEE" style="stroke:#000000;stroke-width:1.5;"/><rect fill="none" height="127.1641" style="stroke:#000000;stroke-width:1.5;" width="426.5" x="1090.5" y="1784.082"/><text fill="#FF0000" font-family="sans-serif" font-size="13" font-weight="bold" lengthAdjust="spacing" textLength="71" x="1105.5" y="1799.1104">anticipated</text><text fill="#000000" font-family="sans-serif" font-size="13" font-weight="bold" lengthAdjust="spacing" textLength="137" x="1180.5" y="1799.1104">Card APDU responses</text><polygon fill="#181818" points="1460.5,1839.9551,1470.5,1843.9551,1460.5,1847.9551,1464.5,1843.9551" style="stroke:#181818;stroke-width:1.0;"/><line style="stroke:#181818;stroke-width:1.0;" x1="1154.5" x2="1466.5" y1="1843.9551" y2="1843.9551"/><text fill="#000000" font-family="sans-serif" font-size="13" lengthAdjust="spacing" textLength="233" x="1161.5" y="1821.4014">digest update (SV Debit specific amount</text><text fill="#FF0000" font-family="sans-serif" font-size="13" font-weight="bold" lengthAdjust="spacing" textLength="117" x="1161.5" y="1838.6924">without postponed</text><text fill="#000000" font-family="sans-serif" font-size="13" lengthAdjust="spacing" textLength="111" x="1282.5" y="1838.6924">SV card certificate)</text><polygon fill="#181818" points="1165.5,1853.9551,1155.5,1857.9551,1165.5,1861.9551,1161.5,1857.9551" style="stroke:#181818;stroke-width:1.0;"/><line style="stroke:#181818;stroke-width:1.0;stroke-dasharray:2.0,2.0;" x1="1159.5" x2="1471.5" y1="1857.9551" y2="1857.9551"/><polygon fill="#181818" points="1460.5,1885.2461,1470.5,1889.2461,1460.5,1893.2461,1464.5,1889.2461" style="stroke:#181818;stroke-width:1.0;"/><line style="stroke:#181818;stroke-width:1.0;" x1="1154.5" x2="1466.5" y1="1889.2461" y2="1889.2461"/><text fill="#000000" font-family="sans-serif" font-size="13" lengthAdjust="spacing" textLength="203" x="1161.5" y="1883.9834">digest update (update event record)</text><polygon fill="#181818" points="1165.5,1899.2461,1155.5,1903.2461,1165.5,1907.2461,1161.5,1903.2461" style="stroke:#181818;stroke-width:1.0;"/><line style="stroke:#181818;stroke-width:1.0;stroke-dasharray:2.0,2.0;" x1="1159.5" x2="1471.5" y1="1903.2461" y2="1903.2461"/><polygon fill="#181818" points="1460.5,1937.5371,1470.5,1941.5371,1460.5,1945.5371,1464.5,1941.5371" style="stroke:#181818;stroke-width:1.0;"/><line style="stroke:#181818;stroke-width:1.0;" x1="1154.5" x2="1466.5" y1="1941.5371" y2="1941.5371"/><text fill="#000000" font-family="sans-serif" font-size="13" lengthAdjust="spacing" textLength="70" x="1161.5" y="1936.2744">digest close</text><polygon fill="#181818" points="1165.5,1968.8281,1155.5,1972.8281,1165.5,1976.8281,1161.5,1972.8281" style="stroke:#181818;stroke-width:1.0;"/><line style="stroke:#181818;stroke-width:1.0;stroke-dasharray:2.0,2.0;" x1="1159.5" x2="1471.5" y1="1972.8281" y2="1972.8281"/><text fill="#000000" font-family="sans-serif" font-size="13" lengthAdjust="spacing" textLength="148" x="1171.5" y="1967.5654">[Session SAM certificate]</text><polygon fill="#00FF00" points="402,2000.1191,392,2004.1191,402,2008.1191,398,2004.1191" style="stroke:#00FF00;stroke-width:1.0;"/><line style="stroke:#00FF00;stroke-width:1.0;stroke-dasharray:2.0,2.0;" x1="396" x2="1148.5" y1="2004.1191" y2="2004.1191"/><text fill="#000000" font-family="sans-serif" font-size="13" lengthAdjust="spacing" textLength="148" x="408" y="1998.8564">[Session SAM certificate]</text><polygon fill="#0000FF" points="666,2065.9922,676,2069.9922,666,2073.9922,670,2069.9922" style="stroke:#0000FF;stroke-width:1.0;"/><line style="stroke:#0000FF;stroke-width:1.0;" x1="391" x2="672" y1="2069.9922" y2="2069.9922"/><text fill="#0000FF" font-family="sans-serif" font-size="13" font-weight="bold" lengthAdjust="spacing" textLength="48" x="398" y="2030.1475">Card #3</text><text fill="#000000" font-family="sans-serif" font-size="13" lengthAdjust="spacing" textLength="123" x="398" y="2047.4385">transmit card request</text><text fill="#000000" font-family="sans-serif" font-size="13" lengthAdjust="spacing" textLength="65" x="430" y="2064.7295">- APDU list</text><path d="M418,2084.9922 L698,2084.9922 L698,2094.2832 L688,2104.2832 L418,2104.2832 L418,2084.9922 " fill="#EEEEEE" style="stroke:#000000;stroke-width:1.5;"/><rect fill="none" height="164.4551" style="stroke:#000000;stroke-width:1.5;" width="682.5" x="418" y="2084.9922"/><text fill="#000000" font-family="sans-serif" font-size="13" font-weight="bold" lengthAdjust="spacing" textLength="235" x="433" y="2100.0205">Card APDU commands inside session</text><path d="M428,2109.2832 L428,2136.2832 L937,2136.2832 L937,2119.2832 L927,2109.2832 L428,2109.2832 " fill="#FEFFDD" style="stroke:#181818;stroke-width:0.5;"/><path d="M927,2109.2832 L927,2119.2832 L937,2119.2832 L927,2109.2832 " fill="#FEFFDD" style="stroke:#181818;stroke-width:0.5;"/><text fill="#000000" font-family="sans-serif" font-size="13" lengthAdjust="spacing" textLength="95" x="434" y="2128.3115">SV Debit follows</text><text fill="#000000" font-family="sans-serif" font-size="13" font-weight="bold" lengthAdjust="spacing" textLength="55" x="533" y="2128.3115">directely</text><text fill="#000000" font-family="sans-serif" font-size="13" lengthAdjust="spacing" textLength="330" x="592" y="2128.3115">a previously transmitted SV Get for Debit card command.</text><polygon fill="#181818" points="1044,2160.8652,1054,2164.8652,1044,2168.8652,1048,2164.8652" style="stroke:#181818;stroke-width:1.0;"/><line style="stroke:#181818;stroke-width:1.0;" x1="688" x2="1050" y1="2164.8652" y2="2164.8652"/><text fill="#000000" font-family="sans-serif" font-size="13" lengthAdjust="spacing" textLength="344" x="695" y="2159.6025">SV Debit (amount, SV SAM challenge, SV SAM certificate)</text><polygon fill="#181818" points="699,2192.1563,689,2196.1563,699,2200.1563,695,2196.1563" style="stroke:#181818;stroke-width:1.0;"/><line style="stroke:#181818;stroke-width:1.0;stroke-dasharray:2.0,2.0;" x1="693" x2="1055" y1="2196.1563" y2="2196.1563"/><text fill="#000000" font-family="sans-serif" font-size="13" lengthAdjust="spacing" textLength="4" x="705" y="2190.8936">[</text><text fill="#FF0000" font-family="sans-serif" font-size="13" font-weight="bold" lengthAdjust="spacing" textLength="48" x="709" y="2190.8936">missing</text><text fill="#000000" font-family="sans-serif" font-size="13" lengthAdjust="spacing" textLength="111" x="761" y="2190.8936">SV card certificate]</text><polygon fill="#181818" points="1044,2223.4473,1054,2227.4473,1044,2231.4473,1048,2227.4473" style="stroke:#181818;stroke-width:1.0;"/><line style="stroke:#181818;stroke-width:1.0;" x1="688" x2="1050" y1="2227.4473" y2="2227.4473"/><text fill="#000000" font-family="sans-serif" font-size="13" lengthAdjust="spacing" textLength="154" x="695" y="2222.1846">update record (event, data)</text><polygon fill="#181818" points="699,2237.4473,689,2241.4473,699,2245.4473,695,2241.4473" style="stroke:#181818;stroke-width:1.0;"/><line style="stroke:#181818;stroke-width:1.0;stroke-dasharray:2.0,2.0;" x1="693" x2="1055" y1="2241.4473" y2="2241.4473"/><polygon fill="#181818" points="1044,2275.7383,1054,2279.7383,1044,2283.7383,1048,2279.7383" style="stroke:#181818;stroke-width:1.0;"/><line style="stroke:#181818;stroke-width:1.0;" x1="688" x2="1050" y1="2279.7383" y2="2279.7383"/><text fill="#000000" font-family="sans-serif" font-size="13" lengthAdjust="spacing" textLength="275" x="695" y="2274.4756">close secure session (Session SAM certificate)</text><polygon fill="#181818" points="699,2307.0293,689,2311.0293,699,2315.0293,695,2311.0293" style="stroke:#181818;stroke-width:1.0;"/><line style="stroke:#181818;stroke-width:1.0;stroke-dasharray:2.0,2.0;" x1="693" x2="1055" y1="2311.0293" y2="2311.0293"/><text fill="#000000" font-family="sans-serif" font-size="13" lengthAdjust="spacing" textLength="263" x="705" y="2305.7666">[Session Card certificate, SV Card certificate]</text><polygon fill="#181818" points="1044,2338.3203,1054,2342.3203,1044,2346.3203,1048,2342.3203" style="stroke:#181818;stroke-width:1.0;"/><line style="stroke:#181818;stroke-width:1.0;" x1="688" x2="1050" y1="2342.3203" y2="2342.3203"/><text fill="#000000" font-family="sans-serif" font-size="13" lengthAdjust="spacing" textLength="120" x="695" y="2337.0576">ratification command</text><polygon fill="#181818" points="699,2352.3203,689,2356.3203,699,2360.3203,695,2356.3203" style="stroke:#181818;stroke-width:1.0;"/><line style="stroke:#181818;stroke-width:1.0;stroke-dasharray:2.0,2.0;" x1="693" x2="1055" y1="2356.3203" y2="2356.3203"/><polygon fill="#181818" points="1044,2383.6113,1054,2387.6113,1044,2391.6113,1048,2387.6113" style="stroke:#181818;stroke-width:1.0;"/><line style="stroke:#181818;stroke-width:1.0;" x1="688" x2="1050" y1="2387.6113" y2="2387.6113"/><text fill="#000000" font-family="sans-serif" font-size="13" lengthAdjust="spacing" textLength="109" x="695" y="2382.3486">close card channel</text><polygon fill="#181818" points="699,2397.6113,689,2401.6113,699,2405.6113,695,2401.6113" style="stroke:#181818;stroke-width:1.0;"/><line style="stroke:#181818;stroke-width:1.0;stroke-dasharray:2.0,2.0;" x1="693" x2="1060" y1="2401.6113" y2="2401.6113"/><polygon fill="#0000FF" points="402,2428.9023,392,2432.9023,402,2436.9023,398,2432.9023" style="stroke:#0000FF;stroke-width:1.0;"/><line style="stroke:#0000FF;stroke-width:1.0;stroke-dasharray:2.0,2.0;" x1="396" x2="682" y1="2432.9023" y2="2432.9023"/><text fill="#000000" font-family="sans-serif" font-size="13" lengthAdjust="spacing" textLength="263" x="408" y="2427.6396">[Session Card certificate, SV Card certificate]</text><polygon fill="#00FF00" points="1132.5,2494.7754,1142.5,2498.7754,1132.5,2502.7754,1136.5,2498.7754" style="stroke:#00FF00;stroke-width:1.0;"/><line style="stroke:#00FF00;stroke-width:1.0;" x1="391" x2="1138.5" y1="2498.7754" y2="2498.7754"/><text fill="#008000" font-family="sans-serif" font-size="13" font-weight="bold" lengthAdjust="spacing" textLength="47" x="398" y="2458.9307">SAM #4</text><text fill="#000000" font-family="sans-serif" font-size="13" lengthAdjust="spacing" textLength="123" x="398" y="2476.2217">transmit card request</text><text fill="#000000" font-family="sans-serif" font-size="13" lengthAdjust="spacing" textLength="65" x="430" y="2493.5127">- APDU list</text><polygon fill="#181818" points="1460.5,2526.0664,1470.5,2530.0664,1460.5,2534.0664,1464.5,2530.0664" style="stroke:#181818;stroke-width:1.0;"/><line style="stroke:#181818;stroke-width:1.0;" x1="1154.5" x2="1466.5" y1="2530.0664" y2="2530.0664"/><text fill="#000000" font-family="sans-serif" font-size="13" lengthAdjust="spacing" textLength="260" x="1161.5" y="2524.8037">digest authenticate (Session Card certificate)</text><polygon fill="#181818" points="1165.5,2557.3574,1155.5,2561.3574,1165.5,2565.3574,1161.5,2561.3574" style="stroke:#181818;stroke-width:1.0;"/><line style="stroke:#181818;stroke-width:1.0;stroke-dasharray:2.0,2.0;" x1="1159.5" x2="1471.5" y1="2561.3574" y2="2561.3574"/><text fill="#000000" font-family="sans-serif" font-size="13" lengthAdjust="spacing" textLength="178" x="1171.5" y="2556.0947">[session authentication status]</text><polygon fill="#181818" points="1460.5,2588.6484,1470.5,2592.6484,1460.5,2596.6484,1464.5,2592.6484" style="stroke:#181818;stroke-width:1.0;"/><line style="stroke:#181818;stroke-width:1.0;" x1="1154.5" x2="1466.5" y1="2592.6484" y2="2592.6484"/><text fill="#000000" font-family="sans-serif" font-size="13" lengthAdjust="spacing" textLength="180" x="1161.5" y="2587.3857">SV Check (SV Card certificate)</text><polygon fill="#181818" points="1165.5,2619.9395,1155.5,2623.9395,1165.5,2627.9395,1161.5,2623.9395" style="stroke:#181818;stroke-width:1.0;"/><line style="stroke:#181818;stroke-width:1.0;stroke-dasharray:2.0,2.0;" x1="1159.5" x2="1471.5" y1="2623.9395" y2="2623.9395"/><text fill="#000000" font-family="sans-serif" font-size="13" lengthAdjust="spacing" textLength="151" x="1171.5" y="2618.6768">[SV authentication status]</text><polygon fill="#00FF00" points="402,2651.2305,392,2655.2305,402,2659.2305,398,2655.2305" style="stroke:#00FF00;stroke-width:1.0;"/><line style="stroke:#00FF00;stroke-width:1.0;stroke-dasharray:2.0,2.0;" x1="396" x2="1148.5" y1="2655.2305" y2="2655.2305"/><text fill="#000000" font-family="sans-serif" font-size="13" lengthAdjust="spacing" textLength="135" x="408" y="2649.9678">[authentification status]</text><polygon fill="#181818" points="89,2803.5586,79,2807.5586,89,2811.5586,85,2807.5586" style="stroke:#181818;stroke-width:1.0;"/><line style="stroke:#181818;stroke-width:1.0;stroke-dasharray:2.0,2.0;" x1="83" x2="385" y1="2807.5586" y2="2807.5586"/><text fill="#000000" font-family="sans-serif" font-size="13" lengthAdjust="spacing" textLength="123" x="95" y="2681.2588">[Calypso card image:</text><text fill="#000000" font-family="sans-serif" font-size="13" lengthAdjust="spacing" textLength="205" x="127" y="2698.5498">- identification data with SV support</text><text fill="#000000" font-family="sans-serif" font-size="13" lengthAdjust="spacing" textLength="106" x="127" y="2715.8408">- environment data</text><text fill="#000000" font-family="sans-serif" font-size="13" lengthAdjust="spacing" textLength="105" x="127" y="2733.1318">- contract list data</text><text fill="#000000" font-family="sans-serif" font-size="13" lengthAdjust="spacing" textLength="102" x="127" y="2750.4229">- contract #1 data</text><text fill="#000000" font-family="sans-serif" font-size="13" lengthAdjust="spacing" textLength="156" x="127" y="2767.7139">- counter #1 data (updated)</text><text fill="#000000" font-family="sans-serif" font-size="13" lengthAdjust="spacing" textLength="118" x="127" y="2785.0049">- event #1 (updated)]</text><text fill="#000000" font-family="sans-serif" font-size="13" lengthAdjust="spacing" textLength="127" x="95" y="2802.2959">authentification status</text><!--SRC=[nLTRJ-Cu57xlhx10sYaLtULIbg5YaTeq7I7jQaV3B2z37qpYjXPfd8qTKF_zdcCx5wT92eZHyW32FlVp-Jidd-GJZnEQqWtn8YhbLAGXIpqHYPGSpa-zqScyroKo6qsyarb5H2gMCg6s2PiuWfEhcJURDmhUEeBJqUJIlsWKz5oBizdfzAnHq7S4_UdLkUjwJKFnmkCLMT98ibxbwavHnRepd0IAFtErRPBgVIBVMBXJCHeyhLAHnQ6MlhvEMNXp0_MT-JFVwwXl8UbVZhnphxVc8IFvOPakUFsQfKd4zZfEj9ZsFVAz-MMdxrBuipyQJMQv- -BSYU0nolRxHo6TptH-CPzsUiz5pqTNdsVJtBSzTJn_IHcBzxfUePJsFPbFvgUTlWlPCz_pBazpv_bnnJku_pkbyMf_waABcRRFp_ohpW1AOV_tI__iB8-WE7T3W0fiNrE0hSdVztn_N_vQzCmxzozEAkblQwvfe03z1zzvyCGKFgX9aaGye8gB-81GIMYIaCELYC8U-58yu0cD5JdmQBHDf22JhxTQBA099uS9Zv-QvJoQXW_nDqOXHgkGXkPVSXZnrLfD4NwFc2vDj-H0ieW5Ye7IO83AWq6XLbLeT7Ot-Sln9Ud6SMNmrkmBTAqhq7BaiLRy6TYbKfFYg1vNSR5h9Kc6D_1hJ0O37ai5aNCG70n87hwsfG0e4gs8UFmGFwYXUvqoAR8qOEuL15_Sz7gn0F_Y6TB6xlG8_DpTaqSQqJY09A8KQh8b-9kyh5bCJ1aG16fjClgrn-AGe1qRDneQa-kbW7872BK_aCe6WoHbq0b8uletlBjfoq4asa-GfL0P9YNSaFxCdzv-9pG8u814x9b5HqPQXyRYPvwAUCF0vP97h78LWAiKx9F3KtCAxRidNnW80gXdx96hmQ3Q8y2e1MbpRHnLOfCA2O_1Chmni4OI8JacHCIIK9Dc83OR2dMIeAq4g0dCf58xT37KJU-5p0bdRrcrgKfPZIj9-a-C9IHOqpXcaIxhKNEYnlcFmvEJ-VpaP75Jl0NNds563N-e9ZYinV8GwsPke2mMV_zcJ2fJzidNsJyaub8vi6zuSfMo5mAwzk2ORXW9ELn9lkGiXL9Z9n29Tq1Hq8Lx2W-hYYc2HTS21b1t1b1Lq1PUXfZus4AyweVqTJwIfPn6HwWm79P5sZ6mWXv3rQE8wP7XIe_93nk3Vec5tA9YfkX4tlKsbGfIod3ARgALnKt9ecuxzPGrn0b3eC3FMxlOJD8zd4g9fdIZLA0I-0mdZNtPkhEbYQ6ETjpC0JgSK3-x9xOzneWQws9kvhSEBS2ZGpuuAXmEXqvbVfXdcjiWlpZQ8LLqqHAhffcK1J1R8SQIRZfSbKATbYtRz0kwQJS9ecu22qGuOg4mwa32e6fNoU6UNBLNOITGSuOCtz0LiymDVOL1jRIhWKwDl72rnaHabYGYjJ2gbvRqimJ-ij2IUb4WX9gMg9tRmfbJi6x8s3coCsonU3EVkcDgN7FIbmaBC4b2Dx0TA1ios4HAWSa4zd8qO41vIf6GR0VIm40afLWpoFqjKwXf-Ynv-bF6JqC44wL9DSy3auEyZe5jjwQXDb7h2FS5kHPP5997HZAOHtWAUzKRbeVMAMSgcuyvkeJDzGFdtFk9iMMyrQT5o5TW1Jg8s4BUms9fuEmTD5RLl1tIhwz2xpEGlx4tQzTte_q6GCCYcFmfm7L_Xv2EIOGNzgKrpTBx6lUJ_8Ibbeg0rRfdQuD2ns2rQhYIupU5Ob8_XMMc4F3vufs861x7kn1t_j68CwDuzqsLAOJbkoedTfa5llZzpJUKL6F7XtZNBuu4aIdaAGKUgjuB09JDEChTEr1wHKZsRvMHcstXe6onfRbbtmhtUgIrQNtS7dV-V-rnrI5Hx0tEi5gAA18l4WPLo5FybewsCAmeKi0p5vcCjYIF612v-wbL7MILkT6wEjbnRN1Oya8NKxJlLxietd0zrpgnsxROMMZcQuA6wB4b_SO8TfOvQwXvgsZ1sL6lSNEqmbujTbqVRoUXXlsNLdO-svzTJwt1vuIFqxj1hRQGEaKetiRE2tjbCbtRxjj8U_J1fDt2HpI3MOEqRKYt9TkcGPc3es81_vMAgamkcaQpjsR1asRsrzW7iHRJdPIOwophMXsK-FE-GzxpzH4WlM3tJXi_PSpuWSlYVF4GjsHTNxt_0m00]--></g></svg>