<svg xmlns="http://www.w3.org/2000/svg" xmlns:xlink="http://www.w3.org/1999/xlink" contentStyleType="text/css" height="2413px" preserveAspectRatio="none" style="width:1503px;height:2413px;background:#FFFFFF;" version="1.1" viewBox="0 0 1503 2413" width="1503px" zoomAndPan="magnify"><defs/><g><rect fill="#FFD700" height="2231.707" style="stroke:#181818;stroke-width:1.0;" width="10" x="75.0166" y="91.4883"/><rect fill="#FFC0CB" height="49.3105" style="stroke:#181818;stroke-width:1.0;" width="10" x="401.6201" y="186.7305"/><rect fill="#FFC0CB" height="90.5527" style="stroke:#181818;stroke-width:1.0;" width="10" x="401.6201" y="631.3887"/><rect fill="#FFC0CB" height="14" style="stroke:#181818;stroke-width:1.0;" width="10" x="401.6201" y="882.8047"/><rect fill="#FFC0CB" height="636.0742" style="stroke:#181818;stroke-width:1.0;" width="10" x="401.6201" y="926.1152"/><rect fill="#FFC0CB" height="14" style="stroke:#181818;stroke-width:1.0;" width="10" x="401.6201" y="1591.5"/><rect fill="#FFC0CB" height="679.3848" style="stroke:#181818;stroke-width:1.0;" width="10" x="401.6201" y="1634.8105"/><rect fill="#FFC0CB" height="336.7266" style="stroke:#181818;stroke-width:1.0;" width="10" x="490.8213" y="265.3516"/><rect fill="#ADD8E6" height="232.1738" style="stroke:#181818;stroke-width:1.0;" width="10" x="690.7363" y="340.5938"/><rect fill="#ADD8E6" height="87.9316" style="stroke:#181818;stroke-width:1.0;" width="10" x="690.7363" y="986.0469"/><rect fill="#ADD8E6" height="87.9316" style="stroke:#181818;stroke-width:1.0;" width="10" x="690.7363" y="1383.7051"/><rect fill="#ADD8E6" height="87.9316" style="stroke:#181818;stroke-width:1.0;" width="10" x="690.7363" y="1694.7422"/><rect fill="#ADD8E6" height="131.2422" style="stroke:#181818;stroke-width:1.0;" width="10" x="690.7363" y="2092.4004"/><rect fill="#ADD8E6" height="1824.4277" style="stroke:#181818;stroke-width:1.0;" width="10" x="912.3032" y="369.9043"/><rect fill="#90EE90" height="189.8633" style="stroke:#181818;stroke-width:1.0;" width="10" x="997.3105" y="1133.9102"/><rect fill="#90EE90" height="189.8633" style="stroke:#181818;stroke-width:1.0;" width="10" x="997.3105" y="1842.6055"/><rect fill="#90EE90" height="2231.707" style="stroke:#181818;stroke-width:1.0;" width="10" x="1455.5562" y="91.4883"/><line style="stroke:#181818;stroke-width:0.5;stroke-dasharray:5.0,5.0;" x1="80" x2="80" y1="81.4883" y2="2332.1953"/><line style="stroke:#181818;stroke-width:0.5;stroke-dasharray:5.0,5.0;" x1="405.7109" x2="405.7109" y1="81.4883" y2="2332.1953"/><line style="stroke:#181818;stroke-width:0.5;stroke-dasharray:5.0,5.0;" x1="495.5293" x2="495.5293" y1="81.4883" y2="2332.1953"/><line style="stroke:#181818;stroke-width:0.5;stroke-dasharray:5.0,5.0;" x1="694.8789" x2="694.8789" y1="81.4883" y2="2332.1953"/><line style="stroke:#181818;stroke-width:0.5;stroke-dasharray:5.0,5.0;" x1="916.8032" x2="916.8032" y1="81.4883" y2="2332.1953"/><line style="stroke:#181818;stroke-width:0.5;stroke-dasharray:5.0,5.0;" x1="1001.8032" x2="1001.8032" y1="81.4883" y2="2332.1953"/><line style="stroke:#181818;stroke-width:0.5;stroke-dasharray:5.0,5.0;" x1="1459.6553" x2="1459.6553" y1="81.4883" y2="2332.1953"/><text fill="#000000" font-family="sans-serif" font-size="14" lengthAdjust="spacing" textLength="144.0332" x="5" y="78.5352">Ticketing Application</text><ellipse cx="80.0166" cy="13.5" fill="#FFD700" rx="8" ry="8" style="stroke:#181818;stroke-width:0.5;"/><path d="M80.0166,21.5 L80.0166,48.5 M67.0166,29.5 L93.0166,29.5 M80.0166,48.5 L67.0166,63.5 M80.0166,48.5 L93.0166,63.5 " fill="none" style="stroke:#181818;stroke-width:0.5;"/><text fill="#000000" font-family="sans-serif" font-size="14" lengthAdjust="spacing" textLength="144.0332" x="5" y="2344.7305">Ticketing Application</text><ellipse cx="80.0166" cy="2356.1836" fill="#FFD700" rx="8" ry="8" style="stroke:#181818;stroke-width:0.5;"/><path d="M80.0166,2364.1836 L80.0166,2391.1836 M67.0166,2372.1836 L93.0166,2372.1836 M80.0166,2391.1836 L67.0166,2406.1836 M80.0166,2391.1836 L93.0166,2406.1836 " fill="none" style="stroke:#181818;stroke-width:0.5;"/><rect fill="#FFC0CB" height="46.9766" rx="2.5" ry="2.5" style="stroke:#181818;stroke-width:0.5;" width="71.8184" x="370.7109" y="33.5117"/><text fill="#000000" font-family="sans-serif" font-size="14" lengthAdjust="spacing" textLength="53.3271" x="379.9565" y="54.0469">Calypso</text><text fill="#000000" font-family="sans-serif" font-size="14" lengthAdjust="spacing" textLength="57.8184" x="377.7109" y="70.5352">Card API</text><rect fill="#FFC0CB" height="46.9766" rx="2.5" ry="2.5" style="stroke:#181818;stroke-width:0.5;" width="71.8184" x="370.7109" y="2331.1953"/><text fill="#000000" font-family="sans-serif" font-size="14" lengthAdjust="spacing" textLength="53.3271" x="379.9565" y="2351.7305">Calypso</text><text fill="#000000" font-family="sans-serif" font-size="14" lengthAdjust="spacing" textLength="57.8184" x="377.7109" y="2368.2188">Card API</text><rect fill="#FFC0CB" height="30.4883" rx="2.5" ry="2.5" style="stroke:#181818;stroke-width:0.5;" width="86.584" x="452.5293" y="50"/><text fill="#000000" font-family="sans-serif" font-size="14" lengthAdjust="spacing" textLength="72.584" x="459.5293" y="70.5352">Reader API</text><rect fill="#FFC0CB" height="30.4883" rx="2.5" ry="2.5" style="stroke:#181818;stroke-width:0.5;" width="86.584" x="452.5293" y="2331.1953"/><text fill="#000000" font-family="sans-serif" font-size="14" lengthAdjust="spacing" textLength="72.584" x="459.5293" y="2351.7305">Reader API</text><rect fill="#ADD8E6" height="46.9766" rx="2.5" ry="2.5" style="stroke:#181818;stroke-width:0.5;" width="103.7148" x="643.8789" y="33.5117"/><text fill="#000000" font-family="sans-serif" font-size="14" lengthAdjust="spacing" textLength="89.7148" x="650.8789" y="54.0469">Calypso Card</text><text fill="#000000" font-family="sans-serif" font-size="14" lengthAdjust="spacing" textLength="46.7236" x="672.3745" y="70.5352">Reader</text><rect fill="#ADD8E6" height="46.9766" rx="2.5" ry="2.5" style="stroke:#181818;stroke-width:0.5;" width="103.7148" x="643.8789" y="2331.1953"/><text fill="#000000" font-family="sans-serif" font-size="14" lengthAdjust="spacing" textLength="89.7148" x="650.8789" y="2351.7305">Calypso Card</text><text fill="#000000" font-family="sans-serif" font-size="14" lengthAdjust="spacing" textLength="46.7236" x="672.3745" y="2368.2188">Reader</text><text fill="#000000" font-family="sans-serif" font-size="14" font-weight="bold" lengthAdjust="spacing" textLength="33.8447" x="897.3809" y="78.5352">Card</text><path d="M896.8032,37 L896.8032,61 M896.8032,49 L913.8032,49 " fill="none" style="stroke:#181818;stroke-width:0.5;"/><ellipse cx="925.8032" cy="49" fill="#ADD8E6" rx="12" ry="12" style="stroke:#181818;stroke-width:0.5;"/><text fill="#000000" font-family="sans-serif" font-size="14" font-weight="bold" lengthAdjust="spacing" textLength="33.8447" x="897.3809" y="2344.7305">Card</text><path d="M896.8032,2351.6836 L896.8032,2375.6836 M896.8032,2363.6836 L913.8032,2363.6836 " fill="none" style="stroke:#181818;stroke-width:0.5;"/><ellipse cx="925.8032" cy="2363.6836" fill="#ADD8E6" rx="12" ry="12" style="stroke:#181818;stroke-width:0.5;"/><rect fill="#90EE90" height="46.9766" rx="2.5" ry="2.5" style="stroke:#181818;stroke-width:0.5;" width="101.0146" x="951.8032" y="33.5117"/><text fill="#000000" font-family="sans-serif" font-size="14" lengthAdjust="spacing" textLength="87.0146" x="958.8032" y="54.0469">Calypso SAM</text><text fill="#000000" font-family="sans-serif" font-size="14" lengthAdjust="spacing" textLength="46.7236" x="978.9487" y="70.5352">Reader</text><rect fill="#90EE90" height="46.9766" rx="2.5" ry="2.5" style="stroke:#181818;stroke-width:0.5;" width="101.0146" x="951.8032" y="2331.1953"/><text fill="#000000" font-family="sans-serif" font-size="14" lengthAdjust="spacing" textLength="87.0146" x="958.8032" y="2351.7305">Calypso SAM</text><text fill="#000000" font-family="sans-serif" font-size="14" lengthAdjust="spacing" textLength="46.7236" x="978.9487" y="2368.2188">Reader</text><text fill="#000000" font-family="sans-serif" font-size="14" lengthAdjust="spacing" textLength="55.8018" x="1429.6553" y="62.0469">selected</text><text fill="#000000" font-family="sans-serif" font-size="14" font-weight="bold" lengthAdjust="spacing" textLength="31.0146" x="1442.0488" y="78.5352">SAM</text><path d="M1440.0562,20.5117 L1440.0562,44.5117 M1440.0562,32.5117 L1457.0562,32.5117 " fill="none" style="stroke:#181818;stroke-width:0.5;"/><ellipse cx="1469.0562" cy="32.5117" fill="#90EE90" rx="12" ry="12" style="stroke:#181818;stroke-width:0.5;"/><text fill="#000000" font-family="sans-serif" font-size="14" lengthAdjust="spacing" textLength="55.8018" x="1429.6553" y="2344.7305">selected</text><text fill="#000000" font-family="sans-serif" font-size="14" font-weight="bold" lengthAdjust="spacing" textLength="31.0146" x="1442.0488" y="2361.2188">SAM</text><path d="M1440.0562,2368.1719 L1440.0562,2392.1719 M1440.0562,2380.1719 L1457.0562,2380.1719 " fill="none" style="stroke:#181818;stroke-width:0.5;"/><ellipse cx="1469.0562" cy="2380.1719" fill="#90EE90" rx="12" ry="12" style="stroke:#181818;stroke-width:0.5;"/><rect fill="#FFD700" height="2231.707" style="stroke:#181818;stroke-width:1.0;" width="10" x="75.0166" y="91.4883"/><rect fill="#FFC0CB" height="49.3105" style="stroke:#181818;stroke-width:1.0;" width="10" x="401.6201" y="186.7305"/><rect fill="#FFC0CB" height="90.5527" style="stroke:#181818;stroke-width:1.0;" width="10" x="401.6201" y="631.3887"/><rect fill="#FFC0CB" height="14" style="stroke:#181818;stroke-width:1.0;" width="10" x="401.6201" y="882.8047"/><rect fill="#FFC0CB" height="636.0742" style="stroke:#181818;stroke-width:1.0;" width="10" x="401.6201" y="926.1152"/><rect fill="#FFC0CB" height="14" style="stroke:#181818;stroke-width:1.0;" width="10" x="401.6201" y="1591.5"/><rect fill="#FFC0CB" height="679.3848" style="stroke:#181818;stroke-width:1.0;" width="10" x="401.6201" y="1634.8105"/><rect fill="#FFC0CB" height="336.7266" style="stroke:#181818;stroke-width:1.0;" width="10" x="490.8213" y="265.3516"/><rect fill="#ADD8E6" height="232.1738" style="stroke:#181818;stroke-width:1.0;" width="10" x="690.7363" y="340.5938"/><rect fill="#ADD8E6" height="87.9316" style="stroke:#181818;stroke-width:1.0;" width="10" x="690.7363" y="986.0469"/><rect fill="#ADD8E6" height="87.9316" style="stroke:#181818;stroke-width:1.0;" width="10" x="690.7363" y="1383.7051"/><rect fill="#ADD8E6" height="87.9316" style="stroke:#181818;stroke-width:1.0;" width="10" x="690.7363" y="1694.7422"/><rect fill="#ADD8E6" height="131.2422" style="stroke:#181818;stroke-width:1.0;" width="10" x="690.7363" y="2092.4004"/><rect fill="#ADD8E6" height="1824.4277" style="stroke:#181818;stroke-width:1.0;" width="10" x="912.3032" y="369.9043"/><rect fill="#90EE90" height="189.8633" style="stroke:#181818;stroke-width:1.0;" width="10" x="997.3105" y="1133.9102"/><rect fill="#90EE90" height="189.8633" style="stroke:#181818;stroke-width:1.0;" width="10" x="997.3105" y="1842.6055"/><rect fill="#90EE90" height="2231.707" style="stroke:#181818;stroke-width:1.0;" width="10" x="1455.5562" y="91.4883"/><rect fill="#EEEEEE" height="3" style="stroke:#EEEEEE;stroke-width:1.0;" width="1496.457" x="0" y="112.1436"/><line style="stroke:#000000;stroke-width:1.0;" x1="0" x2="1496.457" y1="112.1436" y2="112.1436"/><line style="stroke:#000000;stroke-width:1.0;" x1="0" x2="1496.457" y1="115.1436" y2="115.1436"/><rect fill="#EEEEEE" height="23.3105" style="stroke:#000000;stroke-width:2.0;" width="221.3208" x="637.5681" y="101.4883"/><text fill="#000000" font-family="sans-serif" font-size="13" font-weight="bold" lengthAdjust="spacing" textLength="203.0361" x="643.5681" y="118.0566">Card selection &amp; identification</text><polygon fill="#181818" points="389.6201,182.7305,399.6201,186.7305,389.6201,190.7305,393.6201,186.7305" style="stroke:#181818;stroke-width:1.0;"/><line style="stroke:#181818;stroke-width:1.0;" x1="85.0166" x2="395.6201" y1="186.7305" y2="186.7305"/><text fill="#FF0000" font-family="sans-serif" font-size="13" font-weight="bold" lengthAdjust="spacing" textLength="51.9238" x="92.0166" y="151.3672">prepare</text><text fill="#000000" font-family="sans-serif" font-size="13" lengthAdjust="spacing" textLength="148.7192" x="148.0537" y="151.3672">card selection scenario:</text><text fill="#000000" font-family="sans-serif" font-size="13" lengthAdjust="spacing" textLength="138.7852" x="124.9229" y="166.6777">- filter by specific AID</text><text fill="#000000" font-family="sans-serif" font-size="13" lengthAdjust="spacing" textLength="144.7139" x="124.9229" y="181.9883">- Select File current DF</text><path d="M200,199.7305 L200,224.7305 L612,224.7305 L612,209.7305 L602,199.7305 L200,199.7305 " fill="#FEFFDD" style="stroke:#181818;stroke-width:0.5;"/><path d="M602,199.7305 L602,209.7305 L612,209.7305 L602,199.7305 " fill="#FEFFDD" style="stroke:#181818;stroke-width:0.5;"/><text fill="#000000" font-family="sans-serif" font-size="13" lengthAdjust="spacing" textLength="391.752" x="206" y="217.2988">Recover the card keyset information through the DF selection.</text><polygon fill="#181818" points="96.0166,232.041,86.0166,236.041,96.0166,240.041,92.0166,236.041" style="stroke:#181818;stroke-width:1.0;"/><line style="stroke:#181818;stroke-width:1.0;stroke-dasharray:2.0,2.0;" x1="90.0166" x2="405.6201" y1="236.041" y2="236.041"/><polygon fill="#181818" points="478.8213,261.3516,488.8213,265.3516,478.8213,269.3516,482.8213,265.3516" style="stroke:#181818;stroke-width:1.0;"/><line style="stroke:#181818;stroke-width:1.0;" x1="85.0166" x2="484.8213" y1="265.3516" y2="265.3516"/><text fill="#FF0000" font-family="sans-serif" font-size="13" font-weight="bold" lengthAdjust="spacing" textLength="52.0635" x="92.0166" y="260.6094">process</text><text fill="#000000" font-family="sans-serif" font-size="13" lengthAdjust="spacing" textLength="194.9111" x="148.1934" y="260.6094">explicit card selection scenario</text><polygon fill="#0000FF" points="678.7363,336.5938,688.7363,340.5938,678.7363,344.5938,682.7363,340.5938" style="stroke:#0000FF;stroke-width:1.0;"/><line style="stroke:#0000FF;stroke-width:1.0;" x1="500.8213" x2="684.7363" y1="340.5938" y2="340.5938"/><text fill="#0000FF" font-family="sans-serif" font-size="13" font-weight="bold" lengthAdjust="spacing" textLength="52.8633" x="507.8213" y="289.9199">Card #1</text><text fill="#000000" font-family="sans-serif" font-size="13" lengthAdjust="spacing" textLength="164.7852" x="507.8213" y="305.2305">transmit selection request</text><text fill="#000000" font-family="sans-serif" font-size="13" lengthAdjust="spacing" textLength="92.7837" x="540.7275" y="320.541">- card selector</text><text fill="#000000" font-family="sans-serif" font-size="13" lengthAdjust="spacing" textLength="69.6528" x="540.7275" y="335.8516">- APDU list</text><polygon fill="#181818" points="900.3032,365.9043,910.3032,369.9043,900.3032,373.9043,904.3032,369.9043" style="stroke:#181818;stroke-width:1.0;"/><line style="stroke:#181818;stroke-width:1.0;" x1="700.7363" x2="906.3032" y1="369.9043" y2="369.9043"/><text fill="#000000" font-family="sans-serif" font-size="13" lengthAdjust="spacing" textLength="116.0859" x="707.7363" y="365.1621">open card channel</text><polygon fill="#181818" points="711.7363,379.9043,701.7363,383.9043,711.7363,387.9043,707.7363,383.9043" style="stroke:#181818;stroke-width:1.0;"/><line style="stroke:#181818;stroke-width:1.0;stroke-dasharray:2.0,2.0;" x1="705.7363" x2="911.3032" y1="383.9043" y2="383.9043"/><polygon fill="#181818" points="900.3032,409.2148,910.3032,413.2148,900.3032,417.2148,904.3032,413.2148" style="stroke:#181818;stroke-width:1.0;"/><line style="stroke:#181818;stroke-width:1.0;" x1="700.7363" x2="906.3032" y1="413.2148" y2="413.2148"/><text fill="#000000" font-family="sans-serif" font-size="13" lengthAdjust="spacing" textLength="141.7622" x="707.7363" y="408.4727">select application (aid)</text><polygon fill="#181818" points="711.7363,438.5254,701.7363,442.5254,711.7363,446.5254,707.7363,442.5254" style="stroke:#181818;stroke-width:1.0;"/><line style="stroke:#181818;stroke-width:1.0;stroke-dasharray:2.0,2.0;" x1="705.7363" x2="911.3032" y1="442.5254" y2="442.5254"/><text fill="#000000" font-family="sans-serif" font-size="13" lengthAdjust="spacing" textLength="59.6172" x="717.7363" y="437.7832">[card FCI]</text><line style="stroke:#181818;stroke-width:1.0;" x1="700.7363" x2="742.7363" y1="471.8359" y2="471.8359"/><line style="stroke:#181818;stroke-width:1.0;" x1="742.7363" x2="742.7363" y1="471.8359" y2="484.8359"/><line style="stroke:#181818;stroke-width:1.0;" x1="701.7363" x2="742.7363" y1="484.8359" y2="484.8359"/><polygon fill="#181818" points="711.7363,480.8359,701.7363,484.8359,711.7363,488.8359,707.7363,484.8359" style="stroke:#181818;stroke-width:1.0;"/><text fill="#000000" font-family="sans-serif" font-size="13" lengthAdjust="spacing" textLength="162.5889" x="707.7363" y="467.0938">checks invalidation status</text><polygon fill="#181818" points="900.3032,510.1465,910.3032,514.1465,900.3032,518.1465,904.3032,514.1465" style="stroke:#181818;stroke-width:1.0;"/><line style="stroke:#181818;stroke-width:1.0;" x1="700.7363" x2="906.3032" y1="514.1465" y2="514.1465"/><text fill="#000000" font-family="sans-serif" font-size="13" lengthAdjust="spacing" textLength="141.5337" x="707.7363" y="509.4043">Select File (current DF)</text><polygon fill="#181818" points="711.7363,539.457,701.7363,543.457,711.7363,547.457,707.7363,543.457" style="stroke:#181818;stroke-width:1.0;"/><line style="stroke:#181818;stroke-width:1.0;stroke-dasharray:2.0,2.0;" x1="705.7363" x2="911.3032" y1="543.457" y2="543.457"/><text fill="#000000" font-family="sans-serif" font-size="13" lengthAdjust="spacing" textLength="170.0601" x="717.7363" y="538.7148">[KIF/KVC for key #1 #2 #3]</text><polygon fill="#0000FF" points="511.8213,568.7676,501.8213,572.7676,511.8213,576.7676,507.8213,572.7676" style="stroke:#0000FF;stroke-width:1.0;"/><line style="stroke:#0000FF;stroke-width:1.0;stroke-dasharray:2.0,2.0;" x1="505.8213" x2="694.7363" y1="572.7676" y2="572.7676"/><text fill="#000000" font-family="sans-serif" font-size="13" lengthAdjust="spacing" textLength="165.915" x="517.8213" y="568.0254">receive selection response</text><polygon fill="#181818" points="96.0166,598.0781,86.0166,602.0781,96.0166,606.0781,92.0166,602.0781" style="stroke:#181818;stroke-width:1.0;"/><line style="stroke:#181818;stroke-width:1.0;stroke-dasharray:2.0,2.0;" x1="90.0166" x2="494.8213" y1="602.0781" y2="602.0781"/><text fill="#000000" font-family="sans-serif" font-size="13" lengthAdjust="spacing" textLength="205.1816" x="102.0166" y="597.3359">selected active SmartCard image</text><polygon fill="#181818" points="389.6201,627.3887,399.6201,631.3887,389.6201,635.3887,393.6201,631.3887" style="stroke:#181818;stroke-width:1.0;"/><line style="stroke:#181818;stroke-width:1.0;" x1="85.0166" x2="395.6201" y1="631.3887" y2="631.3887"/><text fill="#000000" font-family="sans-serif" font-size="13" font-weight="bold" lengthAdjust="spacing" textLength="27.1807" x="92.0166" y="626.6465">cast</text><text fill="#000000" font-family="sans-serif" font-size="13" lengthAdjust="spacing" textLength="80.9707" x="123.3105" y="626.6465">Calypso card</text><polygon fill="#181818" points="96.0166,717.9414,86.0166,721.9414,96.0166,725.9414,92.0166,721.9414" style="stroke:#181818;stroke-width:1.0;"/><line style="stroke:#181818;stroke-width:1.0;stroke-dasharray:2.0,2.0;" x1="90.0166" x2="405.6201" y1="721.9414" y2="721.9414"/><text fill="#000000" font-family="sans-serif" font-size="13" lengthAdjust="spacing" textLength="131.8472" x="102.0166" y="655.957">[Calypso card image:</text><text fill="#000000" font-family="sans-serif" font-size="13" lengthAdjust="spacing" textLength="234.876" x="134.9229" y="671.2676">- identification data with PIN support</text><text fill="#000000" font-family="sans-serif" font-size="13" lengthAdjust="spacing" textLength="117.0508" x="134.9229" y="686.5781">- key #1 reference</text><text fill="#000000" font-family="sans-serif" font-size="13" lengthAdjust="spacing" textLength="117.0508" x="134.9229" y="701.8887">- key #2 reference</text><text fill="#000000" font-family="sans-serif" font-size="13" lengthAdjust="spacing" textLength="121.2783" x="134.9229" y="717.1992">- key #3 reference]</text><rect fill="#EEEEEE" height="3" style="stroke:#EEEEEE;stroke-width:1.0;" width="1496.457" x="0" y="750.5967"/><line style="stroke:#000000;stroke-width:1.0;" x1="0" x2="1496.457" y1="750.5967" y2="750.5967"/><line style="stroke:#000000;stroke-width:1.0;" x1="0" x2="1496.457" y1="753.5967" y2="753.5967"/><rect fill="#EEEEEE" height="23.3105" style="stroke:#000000;stroke-width:2.0;" width="177.8394" x="659.3088" y="739.9414"/><text fill="#000000" font-family="sans-serif" font-size="13" font-weight="bold" lengthAdjust="spacing" textLength="159.5547" x="665.3088" y="756.5098">Card secure transaction</text><line style="stroke:#181818;stroke-width:1.0;" x1="85.0166" x2="127.0166" y1="825.1836" y2="825.1836"/><line style="stroke:#181818;stroke-width:1.0;" x1="127.0166" x2="127.0166" y1="825.1836" y2="838.1836"/><line style="stroke:#181818;stroke-width:1.0;" x1="86.0166" x2="127.0166" y1="838.1836" y2="838.1836"/><polygon fill="#181818" points="96.0166,834.1836,86.0166,838.1836,96.0166,842.1836,92.0166,838.1836" style="stroke:#181818;stroke-width:1.0;"/><text fill="#000000" font-family="sans-serif" font-size="13" font-weight="bold" lengthAdjust="spacing" textLength="71.5889" x="92.0166" y="789.8203">instantiate</text><text fill="#000000" font-family="sans-serif" font-size="13" lengthAdjust="spacing" textLength="159.7642" x="167.7188" y="789.8203">Calypso card transaction:</text><text fill="#000000" font-family="sans-serif" font-size="13" lengthAdjust="spacing" textLength="151.1821" x="124.9229" y="805.1309">- Calypso card resource</text><text fill="#000000" font-family="sans-serif" font-size="13" lengthAdjust="spacing" textLength="151.0107" x="124.9229" y="820.4414">- Calypso SAM resource</text><polygon fill="#181818" points="389.6201,878.8047,399.6201,882.8047,389.6201,886.8047,393.6201,882.8047" style="stroke:#181818;stroke-width:1.0;"/><line style="stroke:#181818;stroke-width:1.0;" x1="85.0166" x2="395.6201" y1="882.8047" y2="882.8047"/><text fill="#FF0000" font-family="sans-serif" font-size="13" font-weight="bold" lengthAdjust="spacing" textLength="51.9238" x="92.0166" y="862.752">prepare</text><text fill="#000000" font-family="sans-serif" font-size="13" lengthAdjust="spacing" textLength="241.5664" x="148.0537" y="862.752">Change Key (current key #x reference,</text><text fill="#000000" font-family="sans-serif" font-size="13" lengthAdjust="spacing" textLength="138.8359" x="223.6416" y="878.0625">new key #x reference)</text><polygon fill="#181818" points="96.0166,892.8047,86.0166,896.8047,96.0166,900.8047,92.0166,896.8047" style="stroke:#181818;stroke-width:1.0;"/><line style="stroke:#181818;stroke-width:1.0;stroke-dasharray:2.0,2.0;" x1="90.0166" x2="405.6201" y1="896.8047" y2="896.8047"/><polygon fill="#181818" points="389.6201,922.1152,399.6201,926.1152,389.6201,930.1152,393.6201,926.1152" style="stroke:#181818;stroke-width:1.0;"/><line style="stroke:#181818;stroke-width:1.0;" x1="85.0166" x2="395.6201" y1="926.1152" y2="926.1152"/><text fill="#FF0000" font-family="sans-serif" font-size="13" font-weight="bold" lengthAdjust="spacing" textLength="52.0635" x="92.0166" y="921.373">process</text><text fill="#000000" font-family="sans-serif" font-size="13" lengthAdjust="spacing" textLength="200.5542" x="148.1934" y="921.373">commands (keep channel open)</text><polygon fill="#0000FF" points="678.7363,982.0469,688.7363,986.0469,678.7363,990.0469,682.7363,986.0469" style="stroke:#0000FF;stroke-width:1.0;"/><line style="stroke:#0000FF;stroke-width:1.0;" x1="411.6201" x2="684.7363" y1="986.0469" y2="986.0469"/><text fill="#0000FF" font-family="sans-serif" font-size="13" font-weight="bold" lengthAdjust="spacing" textLength="52.8633" x="418.6201" y="950.6836">Card #2</text><text fill="#000000" font-family="sans-serif" font-size="13" lengthAdjust="spacing" textLength="135.9224" x="418.6201" y="965.9941">transmit card request</text><text fill="#000000" font-family="sans-serif" font-size="13" lengthAdjust="spacing" textLength="69.6528" x="451.5264" y="981.3047">- APDU list</text><polygon fill="#181818" points="900.3032,1011.3574,910.3032,1015.3574,900.3032,1019.3574,904.3032,1015.3574" style="stroke:#181818;stroke-width:1.0;"/><line style="stroke:#181818;stroke-width:1.0;" x1="700.7363" x2="906.3032" y1="1015.3574" y2="1015.3574"/><text fill="#000000" font-family="sans-serif" font-size="13" lengthAdjust="spacing" textLength="88.0293" x="707.7363" y="1010.6152">Get Challenge</text><polygon fill="#181818" points="711.7363,1040.668,701.7363,1044.668,711.7363,1048.668,707.7363,1044.668" style="stroke:#181818;stroke-width:1.0;"/><line style="stroke:#181818;stroke-width:1.0;stroke-dasharray:2.0,2.0;" x1="705.7363" x2="911.3032" y1="1044.668" y2="1044.668"/><text fill="#000000" font-family="sans-serif" font-size="13" lengthAdjust="spacing" textLength="102.3242" x="717.7363" y="1039.9258">[Card challenge]</text><polygon fill="#0000FF" points="422.6201,1069.9785,412.6201,1073.9785,422.6201,1077.9785,418.6201,1073.9785" style="stroke:#0000FF;stroke-width:1.0;"/><line style="stroke:#0000FF;stroke-width:1.0;stroke-dasharray:2.0,2.0;" x1="416.6201" x2="694.7363" y1="1073.9785" y2="1073.9785"/><text fill="#000000" font-family="sans-serif" font-size="13" lengthAdjust="spacing" textLength="102.3242" x="428.6201" y="1069.2363">[Card challenge]</text><polygon fill="#00FF00" points="985.3105,1129.9102,995.3105,1133.9102,985.3105,1137.9102,989.3105,1133.9102" style="stroke:#00FF00;stroke-width:1.0;"/><line style="stroke:#00FF00;stroke-width:1.0;" x1="411.6201" x2="991.3105" y1="1133.9102" y2="1133.9102"/><text fill="#008000" font-family="sans-serif" font-size="13" font-weight="bold" lengthAdjust="spacing" textLength="50.2354" x="418.6201" y="1098.5469">SAM #1</text><text fill="#000000" font-family="sans-serif" font-size="13" lengthAdjust="spacing" textLength="135.9224" x="418.6201" y="1113.8574">transmit card request</text><text fill="#000000" font-family="sans-serif" font-size="13" lengthAdjust="spacing" textLength="69.6528" x="451.5264" y="1129.168">- APDU list</text><polygon fill="#181818" points="1443.5562,1159.2207,1453.5562,1163.2207,1443.5562,1167.2207,1447.5562,1163.2207" style="stroke:#181818;stroke-width:1.0;"/><line style="stroke:#181818;stroke-width:1.0;" x1="1007.3105" x2="1449.5562" y1="1163.2207" y2="1163.2207"/><text fill="#000000" font-family="sans-serif" font-size="13" lengthAdjust="spacing" textLength="181.124" x="1014.3105" y="1158.4785">select diversifier (card serial)</text><polygon fill="#181818" points="1018.3105,1173.2207,1008.3105,1177.2207,1018.3105,1181.2207,1014.3105,1177.2207" style="stroke:#181818;stroke-width:1.0;"/><line style="stroke:#181818;stroke-width:1.0;stroke-dasharray:2.0,2.0;" x1="1012.3105" x2="1454.5562" y1="1177.2207" y2="1177.2207"/><polygon fill="#181818" points="1443.5562,1202.5313,1453.5562,1206.5313,1443.5562,1210.5313,1447.5562,1206.5313" style="stroke:#181818;stroke-width:1.0;"/><line style="stroke:#181818;stroke-width:1.0;" x1="1007.3105" x2="1449.5562" y1="1206.5313" y2="1206.5313"/><text fill="#000000" font-family="sans-serif" font-size="13" lengthAdjust="spacing" textLength="187.1099" x="1014.3105" y="1201.7891">Give Random (card challenge)</text><polygon fill="#181818" points="1018.3105,1231.8418,1008.3105,1235.8418,1018.3105,1239.8418,1014.3105,1235.8418" style="stroke:#181818;stroke-width:1.0;"/><line style="stroke:#181818;stroke-width:1.0;stroke-dasharray:2.0,2.0;" x1="1012.3105" x2="1454.5562" y1="1235.8418" y2="1235.8418"/><text fill="#000000" font-family="sans-serif" font-size="13" lengthAdjust="spacing" textLength="21.436" x="1024.3105" y="1231.0996">ack</text><polygon fill="#181818" points="1443.5562,1261.1523,1453.5562,1265.1523,1443.5562,1269.1523,1447.5562,1265.1523" style="stroke:#181818;stroke-width:1.0;"/><line style="stroke:#181818;stroke-width:1.0;" x1="1007.3105" x2="1449.5562" y1="1265.1523" y2="1265.1523"/><text fill="#000000" font-family="sans-serif" font-size="13" lengthAdjust="spacing" textLength="424.2456" x="1014.3105" y="1260.4102">Card Generate Key (new key reference, old ciphering key reference)</text><polygon fill="#181818" points="1018.3105,1290.4629,1008.3105,1294.4629,1018.3105,1298.4629,1014.3105,1294.4629" style="stroke:#181818;stroke-width:1.0;"/><line style="stroke:#181818;stroke-width:1.0;stroke-dasharray:2.0,2.0;" x1="1012.3105" x2="1454.5562" y1="1294.4629" y2="1294.4629"/><text fill="#000000" font-family="sans-serif" font-size="13" lengthAdjust="spacing" textLength="109.1606" x="1024.3105" y="1289.7207">[ciphered key #x]</text><polygon fill="#00FF00" points="422.6201,1319.7734,412.6201,1323.7734,422.6201,1327.7734,418.6201,1323.7734" style="stroke:#00FF00;stroke-width:1.0;"/><line style="stroke:#00FF00;stroke-width:1.0;stroke-dasharray:2.0,2.0;" x1="416.6201" x2="1001.3105" y1="1323.7734" y2="1323.7734"/><text fill="#000000" font-family="sans-serif" font-size="13" lengthAdjust="spacing" textLength="109.1606" x="428.6201" y="1319.0313">[ciphered key #x]</text><polygon fill="#0000FF" points="678.7363,1379.7051,688.7363,1383.7051,678.7363,1387.7051,682.7363,1383.7051" style="stroke:#0000FF;stroke-width:1.0;"/><line style="stroke:#0000FF;stroke-width:1.0;" x1="411.6201" x2="684.7363" y1="1383.7051" y2="1383.7051"/><text fill="#0000FF" font-family="sans-serif" font-size="13" font-weight="bold" lengthAdjust="spacing" textLength="52.8633" x="418.6201" y="1348.3418">Card #3</text><text fill="#000000" font-family="sans-serif" font-size="13" lengthAdjust="spacing" textLength="135.9224" x="418.6201" y="1363.6523">transmit card request</text><text fill="#000000" font-family="sans-serif" font-size="13" lengthAdjust="spacing" textLength="69.6528" x="451.5264" y="1378.9629">- APDU list</text><polygon fill="#181818" points="900.3032,1409.0156,910.3032,1413.0156,900.3032,1417.0156,904.3032,1413.0156" style="stroke:#181818;stroke-width:1.0;"/><line style="stroke:#181818;stroke-width:1.0;" x1="700.7363" x2="906.3032" y1="1413.0156" y2="1413.0156"/><text fill="#000000" font-family="sans-serif" font-size="13" lengthAdjust="spacing" textLength="187.5669" x="707.7363" y="1408.2734">Change Key (ciphered key #x)</text><polygon fill="#181818" points="711.7363,1438.3262,701.7363,1442.3262,711.7363,1446.3262,707.7363,1442.3262" style="stroke:#181818;stroke-width:1.0;"/><line style="stroke:#181818;stroke-width:1.0;stroke-dasharray:2.0,2.0;" x1="705.7363" x2="911.3032" y1="1442.3262" y2="1442.3262"/><text fill="#000000" font-family="sans-serif" font-size="13" lengthAdjust="spacing" textLength="21.436" x="717.7363" y="1437.584">ack</text><polygon fill="#0000FF" points="422.6201,1467.6367,412.6201,1471.6367,422.6201,1475.6367,418.6201,1471.6367" style="stroke:#0000FF;stroke-width:1.0;"/><line style="stroke:#0000FF;stroke-width:1.0;stroke-dasharray:2.0,2.0;" x1="416.6201" x2="694.7363" y1="1471.6367" y2="1471.6367"/><text fill="#000000" font-family="sans-serif" font-size="13" lengthAdjust="spacing" textLength="21.436" x="428.6201" y="1466.8945">ack</text><polygon fill="#181818" points="96.0166,1558.1895,86.0166,1562.1895,96.0166,1566.1895,92.0166,1562.1895" style="stroke:#181818;stroke-width:1.0;"/><line style="stroke:#181818;stroke-width:1.0;stroke-dasharray:2.0,2.0;" x1="90.0166" x2="405.6201" y1="1562.1895" y2="1562.1895"/><text fill="#000000" font-family="sans-serif" font-size="13" lengthAdjust="spacing" textLength="131.8472" x="102.0166" y="1496.2051">[Calypso card image:</text><text fill="#000000" font-family="sans-serif" font-size="13" lengthAdjust="spacing" textLength="234.876" x="134.9229" y="1511.5156">- identification data with PIN support</text><text fill="#000000" font-family="sans-serif" font-size="13" lengthAdjust="spacing" textLength="181.5176" x="134.9229" y="1526.8262">- key #1 reference (updated)</text><text fill="#000000" font-family="sans-serif" font-size="13" lengthAdjust="spacing" textLength="117.0508" x="134.9229" y="1542.1367">- key #2 reference</text><text fill="#000000" font-family="sans-serif" font-size="13" lengthAdjust="spacing" textLength="121.2783" x="134.9229" y="1557.4473">- key #3 reference]</text><polygon fill="#181818" points="389.6201,1587.5,399.6201,1591.5,389.6201,1595.5,393.6201,1591.5" style="stroke:#181818;stroke-width:1.0;"/><line style="stroke:#181818;stroke-width:1.0;" x1="85.0166" x2="395.6201" y1="1591.5" y2="1591.5"/><text fill="#FF0000" font-family="sans-serif" font-size="13" font-weight="bold" lengthAdjust="spacing" textLength="51.9238" x="92.0166" y="1586.7578">prepare</text><text fill="#000000" font-family="sans-serif" font-size="13" lengthAdjust="spacing" textLength="171.939" x="148.0537" y="1586.7578">Change PIN (new PIN value)</text><polygon fill="#181818" points="96.0166,1601.5,86.0166,1605.5,96.0166,1609.5,92.0166,1605.5" style="stroke:#181818;stroke-width:1.0;"/><line style="stroke:#181818;stroke-width:1.0;stroke-dasharray:2.0,2.0;" x1="90.0166" x2="405.6201" y1="1605.5" y2="1605.5"/><polygon fill="#181818" points="389.6201,1630.8105,399.6201,1634.8105,389.6201,1638.8105,393.6201,1634.8105" style="stroke:#181818;stroke-width:1.0;"/><line style="stroke:#181818;stroke-width:1.0;" x1="85.0166" x2="395.6201" y1="1634.8105" y2="1634.8105"/><text fill="#FF0000" font-family="sans-serif" font-size="13" font-weight="bold" lengthAdjust="spacing" textLength="52.0635" x="92.0166" y="1630.0684">process</text><text fill="#000000" font-family="sans-serif" font-size="13" lengthAdjust="spacing" textLength="200.4653" x="148.1934" y="1630.0684">commands (close channel after)</text><polygon fill="#0000FF" points="678.7363,1690.7422,688.7363,1694.7422,678.7363,1698.7422,682.7363,1694.7422" style="stroke:#0000FF;stroke-width:1.0;"/><line style="stroke:#0000FF;stroke-width:1.0;" x1="411.6201" x2="684.7363" y1="1694.7422" y2="1694.7422"/><text fill="#0000FF" font-family="sans-serif" font-size="13" font-weight="bold" lengthAdjust="spacing" textLength="52.8633" x="418.6201" y="1659.3789">Card #4</text><text fill="#000000" font-family="sans-serif" font-size="13" lengthAdjust="spacing" textLength="135.9224" x="418.6201" y="1674.6895">transmit card request</text><text fill="#000000" font-family="sans-serif" font-size="13" lengthAdjust="spacing" textLength="69.6528" x="451.5264" y="1690">- APDU list</text><polygon fill="#181818" points="900.3032,1720.0527,910.3032,1724.0527,900.3032,1728.0527,904.3032,1724.0527" style="stroke:#181818;stroke-width:1.0;"/><line style="stroke:#181818;stroke-width:1.0;" x1="700.7363" x2="906.3032" y1="1724.0527" y2="1724.0527"/><text fill="#000000" font-family="sans-serif" font-size="13" lengthAdjust="spacing" textLength="88.0293" x="707.7363" y="1719.3105">Get Challenge</text><polygon fill="#181818" points="711.7363,1749.3633,701.7363,1753.3633,711.7363,1757.3633,707.7363,1753.3633" style="stroke:#181818;stroke-width:1.0;"/><line style="stroke:#181818;stroke-width:1.0;stroke-dasharray:2.0,2.0;" x1="705.7363" x2="911.3032" y1="1753.3633" y2="1753.3633"/><text fill="#000000" font-family="sans-serif" font-size="13" lengthAdjust="spacing" textLength="102.3242" x="717.7363" y="1748.6211">[Card challenge]</text><polygon fill="#0000FF" points="422.6201,1778.6738,412.6201,1782.6738,422.6201,1786.6738,418.6201,1782.6738" style="stroke:#0000FF;stroke-width:1.0;"/><line style="stroke:#0000FF;stroke-width:1.0;stroke-dasharray:2.0,2.0;" x1="416.6201" x2="694.7363" y1="1782.6738" y2="1782.6738"/><text fill="#000000" font-family="sans-serif" font-size="13" lengthAdjust="spacing" textLength="102.3242" x="428.6201" y="1777.9316">[Card challenge]</text><polygon fill="#00FF00" points="985.3105,1838.6055,995.3105,1842.6055,985.3105,1846.6055,989.3105,1842.6055" style="stroke:#00FF00;stroke-width:1.0;"/><line style="stroke:#00FF00;stroke-width:1.0;" x1="411.6201" x2="991.3105" y1="1842.6055" y2="1842.6055"/><text fill="#008000" font-family="sans-serif" font-size="13" font-weight="bold" lengthAdjust="spacing" textLength="50.2354" x="418.6201" y="1807.2422">SAM #2</text><text fill="#000000" font-family="sans-serif" font-size="13" lengthAdjust="spacing" textLength="135.9224" x="418.6201" y="1822.5527">transmit card request</text><text fill="#000000" font-family="sans-serif" font-size="13" lengthAdjust="spacing" textLength="69.6528" x="451.5264" y="1837.8633">- APDU list</text><polygon fill="#181818" points="1443.5562,1867.916,1453.5562,1871.916,1443.5562,1875.916,1447.5562,1871.916" style="stroke:#181818;stroke-width:1.0;"/><line style="stroke:#181818;stroke-width:1.0;" x1="1007.3105" x2="1449.5562" y1="1871.916" y2="1871.916"/><text fill="#000000" font-family="sans-serif" font-size="13" lengthAdjust="spacing" textLength="181.124" x="1014.3105" y="1867.1738">select diversifier (card serial)</text><polygon fill="#181818" points="1018.3105,1881.916,1008.3105,1885.916,1018.3105,1889.916,1014.3105,1885.916" style="stroke:#181818;stroke-width:1.0;"/><line style="stroke:#181818;stroke-width:1.0;stroke-dasharray:2.0,2.0;" x1="1012.3105" x2="1454.5562" y1="1885.916" y2="1885.916"/><polygon fill="#181818" points="1443.5562,1911.2266,1453.5562,1915.2266,1443.5562,1919.2266,1447.5562,1915.2266" style="stroke:#181818;stroke-width:1.0;"/><line style="stroke:#181818;stroke-width:1.0;" x1="1007.3105" x2="1449.5562" y1="1915.2266" y2="1915.2266"/><text fill="#000000" font-family="sans-serif" font-size="13" lengthAdjust="spacing" textLength="187.1099" x="1014.3105" y="1910.4844">Give Random (card challenge)</text><polygon fill="#181818" points="1018.3105,1940.5371,1008.3105,1944.5371,1018.3105,1948.5371,1014.3105,1944.5371" style="stroke:#181818;stroke-width:1.0;"/><line style="stroke:#181818;stroke-width:1.0;stroke-dasharray:2.0,2.0;" x1="1012.3105" x2="1454.5562" y1="1944.5371" y2="1944.5371"/><text fill="#000000" font-family="sans-serif" font-size="13" lengthAdjust="spacing" textLength="21.436" x="1024.3105" y="1939.7949">ack</text><polygon fill="#181818" points="1443.5562,1969.8477,1453.5562,1973.8477,1443.5562,1977.8477,1447.5562,1973.8477" style="stroke:#181818;stroke-width:1.0;"/><line style="stroke:#181818;stroke-width:1.0;" x1="1007.3105" x2="1449.5562" y1="1973.8477" y2="1973.8477"/><text fill="#000000" font-family="sans-serif" font-size="13" lengthAdjust="spacing" textLength="353.9644" x="1014.3105" y="1969.1055">Card Cipher PIN (new plain PIN, ciphering key reference)</text><polygon fill="#181818" points="1018.3105,1999.1582,1008.3105,2003.1582,1018.3105,2007.1582,1014.3105,2003.1582" style="stroke:#181818;stroke-width:1.0;"/><line style="stroke:#181818;stroke-width:1.0;stroke-dasharray:2.0,2.0;" x1="1012.3105" x2="1454.5562" y1="2003.1582" y2="2003.1582"/><text fill="#000000" font-family="sans-serif" font-size="13" lengthAdjust="spacing" textLength="87.7563" x="1024.3105" y="1998.416">[ciphered PIN]</text><polygon fill="#00FF00" points="422.6201,2028.4688,412.6201,2032.4688,422.6201,2036.4688,418.6201,2032.4688" style="stroke:#00FF00;stroke-width:1.0;"/><line style="stroke:#00FF00;stroke-width:1.0;stroke-dasharray:2.0,2.0;" x1="416.6201" x2="1001.3105" y1="2032.4688" y2="2032.4688"/><text fill="#000000" font-family="sans-serif" font-size="13" lengthAdjust="spacing" textLength="87.7563" x="428.6201" y="2027.7266">[ciphered PIN]</text><polygon fill="#0000FF" points="678.7363,2088.4004,688.7363,2092.4004,678.7363,2096.4004,682.7363,2092.4004" style="stroke:#0000FF;stroke-width:1.0;"/><line style="stroke:#0000FF;stroke-width:1.0;" x1="411.6201" x2="684.7363" y1="2092.4004" y2="2092.4004"/><text fill="#0000FF" font-family="sans-serif" font-size="13" font-weight="bold" lengthAdjust="spacing" textLength="52.8633" x="418.6201" y="2057.0371">Card #5</text><text fill="#000000" font-family="sans-serif" font-size="13" lengthAdjust="spacing" textLength="135.9224" x="418.6201" y="2072.3477">transmit card request</text><text fill="#000000" font-family="sans-serif" font-size="13" lengthAdjust="spacing" textLength="69.6528" x="451.5264" y="2087.6582">- APDU list</text><polygon fill="#181818" points="900.3032,2117.7109,910.3032,2121.7109,900.3032,2125.7109,904.3032,2121.7109" style="stroke:#181818;stroke-width:1.0;"/><line style="stroke:#181818;stroke-width:1.0;" x1="700.7363" x2="906.3032" y1="2121.7109" y2="2121.7109"/><text fill="#000000" font-family="sans-serif" font-size="13" lengthAdjust="spacing" textLength="164.1758" x="707.7363" y="2116.9688">Change PIN (ciphered PIN)</text><polygon fill="#181818" points="711.7363,2147.0215,701.7363,2151.0215,711.7363,2155.0215,707.7363,2151.0215" style="stroke:#181818;stroke-width:1.0;"/><line style="stroke:#181818;stroke-width:1.0;stroke-dasharray:2.0,2.0;" x1="705.7363" x2="911.3032" y1="2151.0215" y2="2151.0215"/><text fill="#000000" font-family="sans-serif" font-size="13" lengthAdjust="spacing" textLength="21.436" x="717.7363" y="2146.2793">ack</text><polygon fill="#181818" points="900.3032,2176.332,910.3032,2180.332,900.3032,2184.332,904.3032,2180.332" style="stroke:#181818;stroke-width:1.0;"/><line style="stroke:#181818;stroke-width:1.0;" x1="700.7363" x2="906.3032" y1="2180.332" y2="2180.332"/><text fill="#000000" font-family="sans-serif" font-size="13" lengthAdjust="spacing" textLength="116.8794" x="707.7363" y="2175.5898">close card channel</text><polygon fill="#181818" points="711.7363,2190.332,701.7363,2194.332,711.7363,2198.332,707.7363,2194.332" style="stroke:#181818;stroke-width:1.0;"/><line style="stroke:#181818;stroke-width:1.0;stroke-dasharray:2.0,2.0;" x1="705.7363" x2="916.3032" y1="2194.332" y2="2194.332"/><polygon fill="#0000FF" points="422.6201,2219.6426,412.6201,2223.6426,422.6201,2227.6426,418.6201,2223.6426" style="stroke:#0000FF;stroke-width:1.0;"/><line style="stroke:#0000FF;stroke-width:1.0;stroke-dasharray:2.0,2.0;" x1="416.6201" x2="694.7363" y1="2223.6426" y2="2223.6426"/><text fill="#000000" font-family="sans-serif" font-size="13" lengthAdjust="spacing" textLength="21.436" x="428.6201" y="2218.9004">ack</text><polygon fill="#181818" points="96.0166,2310.1953,86.0166,2314.1953,96.0166,2318.1953,92.0166,2314.1953" style="stroke:#181818;stroke-width:1.0;"/><line style="stroke:#181818;stroke-width:1.0;stroke-dasharray:2.0,2.0;" x1="90.0166" x2="405.6201" y1="2314.1953" y2="2314.1953"/><text fill="#000000" font-family="sans-serif" font-size="13" lengthAdjust="spacing" textLength="131.8472" x="102.0166" y="2248.2109">[Calypso card image:</text><text fill="#000000" font-family="sans-serif" font-size="13" lengthAdjust="spacing" textLength="234.876" x="134.9229" y="2263.5215">- identification data with PIN support</text><text fill="#000000" font-family="sans-serif" font-size="13" lengthAdjust="spacing" textLength="181.5176" x="134.9229" y="2278.832">- key #1 reference (updated)</text><text fill="#000000" font-family="sans-serif" font-size="13" lengthAdjust="spacing" textLength="117.0508" x="134.9229" y="2294.1426">- key #2 reference</text><text fill="#000000" font-family="sans-serif" font-size="13" lengthAdjust="spacing" textLength="121.2783" x="134.9229" y="2309.4531">- key #3 reference]</text><!--SRC=[xLTRJoCt57wVNs61r8NHfWiXb0L1fCbS45grHT3s1NZmpfmaLYQUMTjXD_- -n_PScKc0xRPQjGqF4Flp-SxritaZ5updLD0byLCgvIGJ2GW_IpD1TgD3VtGGETiWmSZp3u86H2eGaAbr3buBw9q6VX3r0gzQmCd8EmcFUu5-ss8G74w6lS2m1GmdfqTjwZbDii-CpyYKfXASnjQjeWgsH-Z5YZqojUv3EM_83IITZD5uCHFPYYS6VNuk81cFCRz168J-blnMoF1av1_vpfmbGCh5EbnalLw9F8LdYNC3CzoZq8zEjdBNuFVXQEG59NsrtlBWOxfwdb-3J3oJw3YQR6KleKUZq_V1fEGkLblCbmA0FqizqoZ3xKLUTBYLky8EGzy_EIp9o-K6EzB_AYYVFHzwPc2sxD4mFDtgG0qEVpe9XyFIWsgzxG9cOFsI1Anj_A4VXi_5Rw13_oWyFcY4ltv2JME5tR_p6uiNeFH0UNcUifWgbl4TGYMXUKvsPrcQECYbMCnooXNPyMcwpcLsptqg4k9TNnbmJ7D6TdF65stq3L3qhOA93R32AD4sxxazLDWLIM5ZDsMpkPheNlseSqF5ckouhZxYkXMu2UkbkFL-RZ58kcmHs9Qi6IIa42j0jrmNpnPKUAg5r-baZoX0ZRHLIntmnOM9b5ZRc73o0y52SSMcHGN8nGNQpFF1M6VsZ9nFCmmYrZM-q1hYkha0Z0zSz_oTtXlRw6kBCWPE1SlExlcz6f0fIx7uvEEQo1nYpKEygy3ktPf3968fa7Wb13f2K7Kh_qrnYxBn31UoHpIbLns2dnk8pOAQWtLY0Mi9YZ0-pSJIXgFcsC-pkS44KUtcZmxmX6YZZgCD3WPZZDf9e4LUf49iJ4KMWvHrAk2BRcMcDkMa3aqqGjD_3-vs3_0JHG_ZklNQd4R7RD-HtSEAz9uhd72vHDQQKC2d5KXbqznm9XDsoRiEVYSfawgPxBwET-hbWV7iZ6GvS6ipdbFE8MtRQ9xMtmU3HaGzvgnZkdrB5I1xb2NxtSDdvCuGHFxLGyTG2Odd42yazi0ZJLbYxKcyeLSILK-BMquA0S4CnDboINaYIRPIKYkM1En3_KjAF6YwhEjnisttwhxTh-1FlVvm5Rtxy8TFi2rrZsBrK2Vncdfmtc0NjdBSw0FRTG9YO8_GggtCCuvla5QpLXcsxMJQkKmk9CGWWTmkKPfC_6n9PoqJekvtE_gk6rEfN9UK2gP9-eSpRb3UDU6Mff229qg3nQ7aCrDpSdtr2v6hFCz4qR55aWHCyTxWCJHMXxshH_NgWzETubhtJ7dDmD2uhNV6UTTb7Bi5tSJ3Jq9l7YiYQcrZNRALADrgo7wruxnMMlsvlhl91monQZGJxvSwthUQp_vm-DpPtd-kOXiqBtwfvbKpjBS0o4jDC2gnWTkIlrBmXds2L-IzeNKl5xRDOe0jOBLWcmXSuaM3vKbJq2-vJPFl5p9fOTldtMQySsJ3b5SvZAA3WuTnzPfefz0-Fyq3OiETyQ8KzhzLd6fveFahAKzGQOJ4GKVyNd7v24RJVNrWCAXzxHYur1frWqN8biN9AX6TmsUeQOkE1PEzI-0WjDzcSCgfg2U6u2k9uFjiZcxX0xIrsSDpPw6G5CFrq8oyAa4vCbrqeu9rw5yr14VVsH2qzAaTziRRK5VDZa5p3gf4b6dKi6sj_pVUDcHlbICSaltNtJkl5T9-iTVkcPxLV-0ZPlLFIdYSPX8g3QTJVBf_In4V_I_YVrN4X_yL4VUDdjJZaAUKSVtrxLT9DnvygMuRwBSJxUFlKxHDOfinlq2nkyOAmMZ-DzZzf-z9z__xXV_9mfy0]--></g></svg>