<svg xmlns="http://www.w3.org/2000/svg" xmlns:xlink="http://www.w3.org/1999/xlink" contentStyleType="text/css" height="996px" preserveAspectRatio="none" style="width:768px;height:996px;background:#FFFFFF;" version="1.1" viewBox="0 0 768 996" width="768px" zoomAndPan="magnify"><defs/><g><rect fill="#FFD700" height="815.3164" style="stroke:#181818;stroke-width:1.0;" width="10" x="75.0166" y="91.4883"/><rect fill="#FFC0CB" height="44.6211" style="stroke:#181818;stroke-width:1.0;" width="10" x="381.0264" y="112.7988"/><rect fill="#FFC0CB" height="14" style="stroke:#181818;stroke-width:1.0;" width="10" x="381.0264" y="287.6621"/><rect fill="#FFC0CB" height="207.7949" style="stroke:#181818;stroke-width:1.0;" width="10" x="381.0264" y="330.9727"/><rect fill="#FFC0CB" height="14" style="stroke:#181818;stroke-width:1.0;" width="10" x="381.0264" y="603.3887"/><rect fill="#FFC0CB" height="251.1055" style="stroke:#181818;stroke-width:1.0;" width="10" x="381.0264" y="646.6992"/><rect fill="#ADD8E6" height="87.9316" style="stroke:#181818;stroke-width:1.0;" width="10" x="545.9487" y="390.9043"/><rect fill="#ADD8E6" height="131.2422" style="stroke:#181818;stroke-width:1.0;" width="10" x="545.9487" y="706.6309"/><rect fill="#ADD8E6" height="717.0742" style="stroke:#181818;stroke-width:1.0;" width="10" x="720.416" y="91.4883"/><line style="stroke:#181818;stroke-width:0.5;stroke-dasharray:5.0,5.0;" x1="80" x2="80" y1="81.4883" y2="915.8047"/><line style="stroke:#181818;stroke-width:0.5;stroke-dasharray:5.0,5.0;" x1="385.1172" x2="385.1172" y1="81.4883" y2="915.8047"/><line style="stroke:#181818;stroke-width:0.5;stroke-dasharray:5.0,5.0;" x1="550.0913" x2="550.0913" y1="81.4883" y2="915.8047"/><line style="stroke:#181818;stroke-width:0.5;stroke-dasharray:5.0,5.0;" x1="724.5151" x2="724.5151" y1="81.4883" y2="915.8047"/><text fill="#000000" font-family="sans-serif" font-size="14" lengthAdjust="spacing" textLength="144.0332" x="5" y="78.5352">Ticketing Application</text><ellipse cx="80.0166" cy="13.5" fill="#FFD700" rx="8" ry="8" style="stroke:#181818;stroke-width:0.5;"/><path d="M80.0166,21.5 L80.0166,48.5 M67.0166,29.5 L93.0166,29.5 M80.0166,48.5 L67.0166,63.5 M80.0166,48.5 L93.0166,63.5 " fill="none" style="stroke:#181818;stroke-width:0.5;"/><text fill="#000000" font-family="sans-serif" font-size="14" lengthAdjust="spacing" textLength="144.0332" x="5" y="928.3398">Ticketing Application</text><ellipse cx="80.0166" cy="939.793" fill="#FFD700" rx="8" ry="8" style="stroke:#181818;stroke-width:0.5;"/><path d="M80.0166,947.793 L80.0166,974.793 M67.0166,955.793 L93.0166,955.793 M80.0166,974.793 L67.0166,989.793 M80.0166,974.793 L93.0166,989.793 " fill="none" style="stroke:#181818;stroke-width:0.5;"/><rect fill="#FFC0CB" height="46.9766" rx="2.5" ry="2.5" style="stroke:#181818;stroke-width:0.5;" width="71.8184" x="350.1172" y="33.5117"/><text fill="#000000" font-family="sans-serif" font-size="14" lengthAdjust="spacing" textLength="53.3271" x="359.3628" y="54.0469">Calypso</text><text fill="#000000" font-family="sans-serif" font-size="14" lengthAdjust="spacing" textLength="57.8184" x="357.1172" y="70.5352">Card API</text><rect fill="#FFC0CB" height="46.9766" rx="2.5" ry="2.5" style="stroke:#181818;stroke-width:0.5;" width="71.8184" x="350.1172" y="914.8047"/><text fill="#000000" font-family="sans-serif" font-size="14" lengthAdjust="spacing" textLength="53.3271" x="359.3628" y="935.3398">Calypso</text><text fill="#000000" font-family="sans-serif" font-size="14" lengthAdjust="spacing" textLength="57.8184" x="357.1172" y="951.8281">Card API</text><rect fill="#ADD8E6" height="46.9766" rx="2.5" ry="2.5" style="stroke:#181818;stroke-width:0.5;" width="103.7148" x="499.0913" y="33.5117"/><text fill="#000000" font-family="sans-serif" font-size="14" lengthAdjust="spacing" textLength="89.7148" x="506.0913" y="54.0469">Calypso Card</text><text fill="#000000" font-family="sans-serif" font-size="14" lengthAdjust="spacing" textLength="46.7236" x="527.5869" y="70.5352">Reader</text><rect fill="#ADD8E6" height="46.9766" rx="2.5" ry="2.5" style="stroke:#181818;stroke-width:0.5;" width="103.7148" x="499.0913" y="914.8047"/><text fill="#000000" font-family="sans-serif" font-size="14" lengthAdjust="spacing" textLength="89.7148" x="506.0913" y="935.3398">Calypso Card</text><text fill="#000000" font-family="sans-serif" font-size="14" lengthAdjust="spacing" textLength="46.7236" x="527.5869" y="951.8281">Reader</text><text fill="#000000" font-family="sans-serif" font-size="14" lengthAdjust="spacing" textLength="55.8018" x="694.5151" y="62.0469">selected</text><text fill="#000000" font-family="sans-serif" font-size="14" font-weight="bold" lengthAdjust="spacing" textLength="33.8447" x="705.4937" y="78.5352">Card</text><path d="M704.916,20.5117 L704.916,44.5117 M704.916,32.5117 L721.916,32.5117 " fill="none" style="stroke:#181818;stroke-width:0.5;"/><ellipse cx="733.916" cy="32.5117" fill="#ADD8E6" rx="12" ry="12" style="stroke:#181818;stroke-width:0.5;"/><text fill="#000000" font-family="sans-serif" font-size="14" lengthAdjust="spacing" textLength="55.8018" x="694.5151" y="928.3398">selected</text><text fill="#000000" font-family="sans-serif" font-size="14" font-weight="bold" lengthAdjust="spacing" textLength="33.8447" x="705.4937" y="944.8281">Card</text><path d="M704.916,951.7813 L704.916,975.7813 M704.916,963.7813 L721.916,963.7813 " fill="none" style="stroke:#181818;stroke-width:0.5;"/><ellipse cx="733.916" cy="963.7813" fill="#ADD8E6" rx="12" ry="12" style="stroke:#181818;stroke-width:0.5;"/><rect fill="#FFD700" height="815.3164" style="stroke:#181818;stroke-width:1.0;" width="10" x="75.0166" y="91.4883"/><rect fill="#FFC0CB" height="44.6211" style="stroke:#181818;stroke-width:1.0;" width="10" x="381.0264" y="112.7988"/><rect fill="#FFC0CB" height="14" style="stroke:#181818;stroke-width:1.0;" width="10" x="381.0264" y="287.6621"/><rect fill="#FFC0CB" height="207.7949" style="stroke:#181818;stroke-width:1.0;" width="10" x="381.0264" y="330.9727"/><rect fill="#FFC0CB" height="14" style="stroke:#181818;stroke-width:1.0;" width="10" x="381.0264" y="603.3887"/><rect fill="#FFC0CB" height="251.1055" style="stroke:#181818;stroke-width:1.0;" width="10" x="381.0264" y="646.6992"/><rect fill="#ADD8E6" height="87.9316" style="stroke:#181818;stroke-width:1.0;" width="10" x="545.9487" y="390.9043"/><rect fill="#ADD8E6" height="131.2422" style="stroke:#181818;stroke-width:1.0;" width="10" x="545.9487" y="706.6309"/><rect fill="#ADD8E6" height="717.0742" style="stroke:#181818;stroke-width:1.0;" width="10" x="720.416" y="91.4883"/><polygon fill="#181818" points="369.0264,108.7988,379.0264,112.7988,369.0264,116.7988,373.0264,112.7988" style="stroke:#181818;stroke-width:1.0;"/><line style="stroke:#181818;stroke-width:1.0;" x1="85.0166" x2="375.0264" y1="112.7988" y2="112.7988"/><text fill="#000000" font-family="sans-serif" font-size="13" font-weight="bold" lengthAdjust="spacing" textLength="27.1807" x="92.0166" y="108.0566">cast</text><text fill="#000000" font-family="sans-serif" font-size="13" lengthAdjust="spacing" textLength="80.9707" x="123.3105" y="108.0566">Calypso card</text><polygon fill="#181818" points="96.0166,153.4199,86.0166,157.4199,96.0166,161.4199,92.0166,157.4199" style="stroke:#181818;stroke-width:1.0;"/><line style="stroke:#181818;stroke-width:1.0;stroke-dasharray:2.0,2.0;" x1="90.0166" x2="385.0264" y1="157.4199" y2="157.4199"/><text fill="#000000" font-family="sans-serif" font-size="13" lengthAdjust="spacing" textLength="131.8472" x="102.0166" y="137.3672">[Calypso card image:</text><text fill="#000000" font-family="sans-serif" font-size="13" lengthAdjust="spacing" textLength="239.1035" x="134.9229" y="152.6777">- identification data with PIN support]</text><rect fill="#EEEEEE" height="3" style="stroke:#EEEEEE;stroke-width:1.0;" width="761.3169" x="0" y="186.0752"/><line style="stroke:#000000;stroke-width:1.0;" x1="0" x2="761.3169" y1="186.0752" y2="186.0752"/><line style="stroke:#000000;stroke-width:1.0;" x1="0" x2="761.3169" y1="189.0752" y2="189.0752"/><rect fill="#EEEEEE" height="23.3105" style="stroke:#000000;stroke-width:2.0;" width="177.8394" x="291.7388" y="175.4199"/><text fill="#000000" font-family="sans-serif" font-size="13" font-weight="bold" lengthAdjust="spacing" textLength="159.5547" x="297.7388" y="191.9883">Card secure transaction</text><line style="stroke:#181818;stroke-width:1.0;" x1="85.0166" x2="127.0166" y1="245.3516" y2="245.3516"/><line style="stroke:#181818;stroke-width:1.0;" x1="127.0166" x2="127.0166" y1="245.3516" y2="258.3516"/><line style="stroke:#181818;stroke-width:1.0;" x1="86.0166" x2="127.0166" y1="258.3516" y2="258.3516"/><polygon fill="#181818" points="96.0166,254.3516,86.0166,258.3516,96.0166,262.3516,92.0166,258.3516" style="stroke:#181818;stroke-width:1.0;"/><text fill="#000000" font-family="sans-serif" font-size="13" font-weight="bold" lengthAdjust="spacing" textLength="71.5889" x="92.0166" y="225.2988">instantiate</text><text fill="#000000" font-family="sans-serif" font-size="13" lengthAdjust="spacing" textLength="159.7642" x="167.7188" y="225.2988">Calypso card transaction:</text><text fill="#000000" font-family="sans-serif" font-size="13" lengthAdjust="spacing" textLength="151.1821" x="124.9229" y="240.6094">- Calypso card resource</text><polygon fill="#181818" points="369.0264,283.6621,379.0264,287.6621,369.0264,291.6621,373.0264,287.6621" style="stroke:#181818;stroke-width:1.0;"/><line style="stroke:#181818;stroke-width:1.0;" x1="85.0166" x2="375.0264" y1="287.6621" y2="287.6621"/><text fill="#FF0000" font-family="sans-serif" font-size="13" font-weight="bold" lengthAdjust="spacing" textLength="51.9238" x="92.0166" y="282.9199">prepare</text><text fill="#000000" font-family="sans-serif" font-size="13" lengthAdjust="spacing" textLength="143.7935" x="148.0537" y="282.9199">Verify PIN (current PIN)</text><polygon fill="#181818" points="96.0166,297.6621,86.0166,301.6621,96.0166,305.6621,92.0166,301.6621" style="stroke:#181818;stroke-width:1.0;"/><line style="stroke:#181818;stroke-width:1.0;stroke-dasharray:2.0,2.0;" x1="90.0166" x2="385.0264" y1="301.6621" y2="301.6621"/><polygon fill="#181818" points="369.0264,326.9727,379.0264,330.9727,369.0264,334.9727,373.0264,330.9727" style="stroke:#181818;stroke-width:1.0;"/><line style="stroke:#181818;stroke-width:1.0;" x1="85.0166" x2="375.0264" y1="330.9727" y2="330.9727"/><text fill="#FF0000" font-family="sans-serif" font-size="13" font-weight="bold" lengthAdjust="spacing" textLength="52.0635" x="92.0166" y="326.2305">process</text><text fill="#000000" font-family="sans-serif" font-size="13" lengthAdjust="spacing" textLength="200.5542" x="148.1934" y="326.2305">commands (keep channel open)</text><polygon fill="#0000FF" points="533.9487,386.9043,543.9487,390.9043,533.9487,394.9043,537.9487,390.9043" style="stroke:#0000FF;stroke-width:1.0;"/><line style="stroke:#0000FF;stroke-width:1.0;" x1="391.0264" x2="539.9487" y1="390.9043" y2="390.9043"/><text fill="#0000FF" font-family="sans-serif" font-size="13" font-weight="bold" lengthAdjust="spacing" textLength="52.8633" x="398.0264" y="355.541">Card #2</text><text fill="#000000" font-family="sans-serif" font-size="13" lengthAdjust="spacing" textLength="135.9224" x="398.0264" y="370.8516">transmit card request</text><text fill="#000000" font-family="sans-serif" font-size="13" lengthAdjust="spacing" textLength="69.6528" x="430.9326" y="386.1621">- APDU list</text><polygon fill="#181818" points="708.416,416.2148,718.416,420.2148,708.416,424.2148,712.416,420.2148" style="stroke:#181818;stroke-width:1.0;"/><line style="stroke:#181818;stroke-width:1.0;" x1="555.9487" x2="714.416" y1="420.2148" y2="420.2148"/><text fill="#000000" font-family="sans-serif" font-size="13" lengthAdjust="spacing" textLength="129.2002" x="562.9487" y="415.4727">Verify PIN (plain PIN)</text><polygon fill="#181818" points="566.9487,445.5254,556.9487,449.5254,566.9487,453.5254,562.9487,449.5254" style="stroke:#181818;stroke-width:1.0;"/><line style="stroke:#181818;stroke-width:1.0;stroke-dasharray:2.0,2.0;" x1="560.9487" x2="719.416" y1="449.5254" y2="449.5254"/><text fill="#000000" font-family="sans-serif" font-size="13" lengthAdjust="spacing" textLength="71.3286" x="572.9487" y="444.7832">[PIN status]</text><polygon fill="#0000FF" points="402.0264,474.8359,392.0264,478.8359,402.0264,482.8359,398.0264,478.8359" style="stroke:#0000FF;stroke-width:1.0;"/><line style="stroke:#0000FF;stroke-width:1.0;stroke-dasharray:2.0,2.0;" x1="396.0264" x2="549.9487" y1="478.8359" y2="478.8359"/><text fill="#000000" font-family="sans-serif" font-size="13" lengthAdjust="spacing" textLength="71.3286" x="408.0264" y="474.0938">[PIN status]</text><polygon fill="#181818" points="96.0166,534.7676,86.0166,538.7676,96.0166,542.7676,92.0166,538.7676" style="stroke:#181818;stroke-width:1.0;"/><line style="stroke:#181818;stroke-width:1.0;stroke-dasharray:2.0,2.0;" x1="90.0166" x2="385.0264" y1="538.7676" y2="538.7676"/><text fill="#000000" font-family="sans-serif" font-size="13" lengthAdjust="spacing" textLength="131.8472" x="102.0166" y="503.4043">[Calypso card image:</text><text fill="#000000" font-family="sans-serif" font-size="13" lengthAdjust="spacing" textLength="234.876" x="134.9229" y="518.7148">- identification data with PIN support</text><text fill="#000000" font-family="sans-serif" font-size="13" lengthAdjust="spacing" textLength="78.7363" x="134.9229" y="534.0254">- PIN status]</text><path d="M182,551.7676 L182,576.7676 L589,576.7676 L589,561.7676 L579,551.7676 L182,551.7676 " fill="#FEFFDD" style="stroke:#181818;stroke-width:0.5;"/><path d="M579,551.7676 L579,561.7676 L589,561.7676 L579,551.7676 " fill="#FEFFDD" style="stroke:#181818;stroke-width:0.5;"/><text fill="#000000" font-family="sans-serif" font-size="13" lengthAdjust="spacing" textLength="386.293" x="188" y="569.3359">The PIN could updated in plain after a successful verification.</text><polygon fill="#181818" points="369.0264,599.3887,379.0264,603.3887,369.0264,607.3887,373.0264,603.3887" style="stroke:#181818;stroke-width:1.0;"/><line style="stroke:#181818;stroke-width:1.0;" x1="85.0166" x2="375.0264" y1="603.3887" y2="603.3887"/><text fill="#FF0000" font-family="sans-serif" font-size="13" font-weight="bold" lengthAdjust="spacing" textLength="51.9238" x="92.0166" y="598.6465">prepare</text><text fill="#000000" font-family="sans-serif" font-size="13" lengthAdjust="spacing" textLength="134.8496" x="148.0537" y="598.6465">Change PIN (new PIN)</text><polygon fill="#181818" points="96.0166,613.3887,86.0166,617.3887,96.0166,621.3887,92.0166,617.3887" style="stroke:#181818;stroke-width:1.0;"/><line style="stroke:#181818;stroke-width:1.0;stroke-dasharray:2.0,2.0;" x1="90.0166" x2="385.0264" y1="617.3887" y2="617.3887"/><polygon fill="#181818" points="369.0264,642.6992,379.0264,646.6992,369.0264,650.6992,373.0264,646.6992" style="stroke:#181818;stroke-width:1.0;"/><line style="stroke:#181818;stroke-width:1.0;" x1="85.0166" x2="375.0264" y1="646.6992" y2="646.6992"/><text fill="#FF0000" font-family="sans-serif" font-size="13" font-weight="bold" lengthAdjust="spacing" textLength="52.0635" x="92.0166" y="641.957">process</text><text fill="#000000" font-family="sans-serif" font-size="13" lengthAdjust="spacing" textLength="200.4653" x="148.1934" y="641.957">commands (close channel after)</text><polygon fill="#0000FF" points="533.9487,702.6309,543.9487,706.6309,533.9487,710.6309,537.9487,706.6309" style="stroke:#0000FF;stroke-width:1.0;"/><line style="stroke:#0000FF;stroke-width:1.0;" x1="391.0264" x2="539.9487" y1="706.6309" y2="706.6309"/><text fill="#0000FF" font-family="sans-serif" font-size="13" font-weight="bold" lengthAdjust="spacing" textLength="52.8633" x="398.0264" y="671.2676">Card #3</text><text fill="#000000" font-family="sans-serif" font-size="13" lengthAdjust="spacing" textLength="135.9224" x="398.0264" y="686.5781">transmit card request</text><text fill="#000000" font-family="sans-serif" font-size="13" lengthAdjust="spacing" textLength="69.6528" x="430.9326" y="701.8887">- APDU list</text><polygon fill="#181818" points="708.416,731.9414,718.416,735.9414,708.416,739.9414,712.416,735.9414" style="stroke:#181818;stroke-width:1.0;"/><line style="stroke:#181818;stroke-width:1.0;" x1="555.9487" x2="714.416" y1="735.9414" y2="735.9414"/><text fill="#000000" font-family="sans-serif" font-size="13" lengthAdjust="spacing" textLength="140.4673" x="562.9487" y="731.1992">Change PIN (plain PIN)</text><polygon fill="#181818" points="566.9487,761.252,556.9487,765.252,566.9487,769.252,562.9487,765.252" style="stroke:#181818;stroke-width:1.0;"/><line style="stroke:#181818;stroke-width:1.0;stroke-dasharray:2.0,2.0;" x1="560.9487" x2="719.416" y1="765.252" y2="765.252"/><text fill="#000000" font-family="sans-serif" font-size="13" lengthAdjust="spacing" textLength="21.436" x="572.9487" y="760.5098">ack</text><polygon fill="#181818" points="708.416,790.5625,718.416,794.5625,708.416,798.5625,712.416,794.5625" style="stroke:#181818;stroke-width:1.0;"/><line style="stroke:#181818;stroke-width:1.0;" x1="555.9487" x2="714.416" y1="794.5625" y2="794.5625"/><text fill="#000000" font-family="sans-serif" font-size="13" lengthAdjust="spacing" textLength="116.8794" x="562.9487" y="789.8203">close card channel</text><polygon fill="#181818" points="566.9487,804.5625,556.9487,808.5625,566.9487,812.5625,562.9487,808.5625" style="stroke:#181818;stroke-width:1.0;"/><line style="stroke:#181818;stroke-width:1.0;stroke-dasharray:2.0,2.0;" x1="560.9487" x2="724.416" y1="808.5625" y2="808.5625"/><polygon fill="#0000FF" points="402.0264,833.873,392.0264,837.873,402.0264,841.873,398.0264,837.873" style="stroke:#0000FF;stroke-width:1.0;"/><line style="stroke:#0000FF;stroke-width:1.0;stroke-dasharray:2.0,2.0;" x1="396.0264" x2="549.9487" y1="837.873" y2="837.873"/><text fill="#000000" font-family="sans-serif" font-size="13" lengthAdjust="spacing" textLength="21.436" x="408.0264" y="833.1309">ack</text><polygon fill="#181818" points="96.0166,893.8047,86.0166,897.8047,96.0166,901.8047,92.0166,897.8047" style="stroke:#181818;stroke-width:1.0;"/><line style="stroke:#181818;stroke-width:1.0;stroke-dasharray:2.0,2.0;" x1="90.0166" x2="385.0264" y1="897.8047" y2="897.8047"/><text fill="#000000" font-family="sans-serif" font-size="13" lengthAdjust="spacing" textLength="131.8472" x="102.0166" y="862.4414">[Calypso card image:</text><text fill="#000000" font-family="sans-serif" font-size="13" lengthAdjust="spacing" textLength="234.876" x="134.9229" y="877.752">- identification data with PIN support</text><text fill="#000000" font-family="sans-serif" font-size="13" lengthAdjust="spacing" textLength="78.7363" x="134.9229" y="893.0625">- PIN status]</text><!--SRC=[pLNBRkCs5DthAoxYHQO2t2QEKq-2s82ino2RDfX7Dt4M78gs2SiaIr89_FUzf1wM4iTkWK4nMadKkVVSStWedPiD5ufeieMu8CRCfSwPZcKXDGoootXyaGN78CauYY-I3iHOffcqEyMY7Z2wIU8aEmYyxm7dusYINXy4nlsEIN8v7nq4fZrWEh-vwbElIIvVk5Z1aXI61PrNNoonxBZ2Y5h-pEtk42euXyyiV-COePkLbgN8FVhkJhDyDaD_apH9uoF-jiXqCewluc3DSmRDubukiZwKMXNi9B7oCCyzJkDiSfHx3_wOZiTHqj2twxq9lXVbQNu7ydhcsNKsFyhUGA_6Dn-JUSDTh_QOFsd6n4dgbKDvxYYBiikZt2rsbCRnvB8XRvOxx4Z_foPYTLgwzB1gsxDHUdDqW3qu_NsIZaRD1ErwVmHqOFTl3DXL-jCuJK_fzz1HV9LUNtJaxrvH4sen_MTVETqmwmvKf5J1AR5SYZCW1eXIC5Z98W-GotBA5H4Mpc9Ix9IH2n4JdKFqSE_1b2WE0yN5vY0Q77WXFZE2azO5EgyUOL3mrThENGY_Ez54x-3Ci89Hox0e35rn6BPbtG8dWp_ZmU-CkrzxYrPgE7Epta8OKc9i648peWDtIr5GhSZT3uSpBBw5nouS-9QisEr2BEmGq6bX-RAs479Y2RnmkuQ7-p_0b4f9RP-286SzZY2OJhqxO1WjDGEBEJ4EWZscqtfaJns6N1YBjd8iVZLujwoUf_TQCoDBJViMt2qbxX5rmPcw3rCOAirm-x3vtM_ktGp-OfelTrx21nnFeqJtyCifezxAFC4hAJDcpqlbTaj4Rk33XZ45T4s4O0L8nSGxt1Nvu-02honxckq3rYVqdw4gKtXAMiQ5y0vkkMqC-xjanbPMHW_9DoYuiVrelSrlSExEhOBwR61LAmJtpfr5Wp9nZmB0QzzZwCUzxTcj2i95PNO37WvxiXvzil2tLvgdu9o9t9dGjcojQ6plmNlxqzG4Fp3g5V9TIXS98V5MFgE5_jcf_BfcleRAiiYXLDYQ8RU0oWson2yO4EIWBY_Bie1dPrazoQy1cW2kxN_DURnsN-VAUC5U_kUCqq8QreRSY_oHAR_woLBUDVjqol5d-4wVsZOtHUtTuHxLsNYL-EDdnP7-34VarS8_]--></g></svg>