<?xml version="1.0" encoding="UTF-8" standalone="no"?><svg xmlns="http://www.w3.org/2000/svg" xmlns:xlink="http://www.w3.org/1999/xlink" contentStyleType="text/css" height="1060px" preserveAspectRatio="none" style="width:711px;height:1060px;background:#FFFFFF;" version="1.1" viewBox="0 0 711 1060" width="711px" zoomAndPan="magnify"><defs/><g><rect fill="#FFD700" height="874.7305" style="stroke:#181818;stroke-width:1.0;" width="10" x="68" y="93.6211"/><rect fill="#FFC0CB" height="48.582" style="stroke:#181818;stroke-width:1.0;" width="10" x="346" y="116.9121"/><rect fill="#FFC0CB" height="14" style="stroke:#181818;stroke-width:1.0;" width="10" x="346" y="303.6582"/><rect fill="#FFC0CB" height="225.6191" style="stroke:#181818;stroke-width:1.0;" width="10" x="346" y="348.9492"/><rect fill="#FFC0CB" height="14" style="stroke:#181818;stroke-width:1.0;" width="10" x="346" y="643.1504"/><rect fill="#FFC0CB" height="270.9102" style="stroke:#181818;stroke-width:1.0;" width="10" x="346" y="688.4414"/><rect fill="#ADD8E6" height="93.873" style="stroke:#181818;stroke-width:1.0;" width="10" x="498" y="414.8223"/><rect fill="#ADD8E6" height="139.1641" style="stroke:#181818;stroke-width:1.0;" width="10" x="498" y="754.3145"/><rect fill="#ADD8E6" height="768.5664" style="stroke:#181818;stroke-width:1.0;" width="10" x="665" y="93.6211"/><line style="stroke:#181818;stroke-width:0.5;stroke-dasharray:5.0,5.0;" x1="73" x2="73" y1="83.6211" y2="977.3516"/><line style="stroke:#181818;stroke-width:0.5;stroke-dasharray:5.0,5.0;" x1="351" x2="351" y1="83.6211" y2="977.3516"/><line style="stroke:#181818;stroke-width:0.5;stroke-dasharray:5.0,5.0;" x1="503" x2="503" y1="83.6211" y2="977.3516"/><line style="stroke:#181818;stroke-width:0.5;stroke-dasharray:5.0,5.0;" x1="669.5" x2="669.5" y1="83.6211" y2="977.3516"/><text fill="#000000" font-family="sans-serif" font-size="14" lengthAdjust="spacing" textLength="130" x="5" y="80.1074">Ticketing Application</text><ellipse cx="73" cy="13.5" fill="#FFD700" rx="8" ry="8" style="stroke:#181818;stroke-width:0.5;"/><path d="M73,21.5 L73,48.5 M60,29.5 L86,29.5 M73,48.5 L60,63.5 M73,48.5 L86,63.5 " fill="none" style="stroke:#181818;stroke-width:0.5;"/><text fill="#000000" font-family="sans-serif" font-size="14" lengthAdjust="spacing" textLength="130" x="5" y="991.459">Ticketing Application</text><ellipse cx="73" cy="1003.4727" fill="#FFD700" rx="8" ry="8" style="stroke:#181818;stroke-width:0.5;"/><path d="M73,1011.4727 L73,1038.4727 M60,1019.4727 L86,1019.4727 M73,1038.4727 L60,1053.4727 M73,1038.4727 L86,1053.4727 " fill="none" style="stroke:#181818;stroke-width:0.5;"/><rect fill="#FFC0CB" height="32.6211" rx="2.5" ry="2.5" style="stroke:#181818;stroke-width:0.5;" width="90" x="306" y="50"/><text fill="#000000" font-family="sans-serif" font-size="14" lengthAdjust="spacing" textLength="76" x="313" y="72.1074">Calypso API</text><rect fill="#FFC0CB" height="32.6211" rx="2.5" ry="2.5" style="stroke:#181818;stroke-width:0.5;" width="90" x="306" y="976.3516"/><text fill="#000000" font-family="sans-serif" font-size="14" lengthAdjust="spacing" textLength="76" x="313" y="998.459">Calypso API</text><rect fill="#ADD8E6" height="51.2422" rx="2.5" ry="2.5" style="stroke:#181818;stroke-width:0.5;" width="100" x="453" y="31.3789"/><text fill="#000000" font-family="sans-serif" font-size="14" lengthAdjust="spacing" textLength="86" x="460" y="53.4863">Calypso Card</text><text fill="#000000" font-family="sans-serif" font-size="14" lengthAdjust="spacing" textLength="47" x="479.5" y="72.1074">Reader</text><rect fill="#ADD8E6" height="51.2422" rx="2.5" ry="2.5" style="stroke:#181818;stroke-width:0.5;" width="100" x="453" y="976.3516"/><text fill="#000000" font-family="sans-serif" font-size="14" lengthAdjust="spacing" textLength="86" x="460" y="998.459">Calypso Card</text><text fill="#000000" font-family="sans-serif" font-size="14" lengthAdjust="spacing" textLength="47" x="479.5" y="1017.0801">Reader</text><text fill="#000000" font-family="sans-serif" font-size="14" lengthAdjust="spacing" textLength="53" x="640.5" y="61.4863">selected</text><text fill="#000000" font-family="sans-serif" font-size="14" font-weight="bold" lengthAdjust="spacing" textLength="33" x="650.5" y="80.1074">Card</text><path d="M649.5,18.3789 L649.5,42.3789 M649.5,30.3789 L666.5,30.3789 " fill="none" style="stroke:#181818;stroke-width:0.5;"/><ellipse cx="678.5" cy="30.3789" fill="#ADD8E6" rx="12" ry="12" style="stroke:#181818;stroke-width:0.5;"/><text fill="#000000" font-family="sans-serif" font-size="14" lengthAdjust="spacing" textLength="53" x="640.5" y="991.459">selected</text><text fill="#000000" font-family="sans-serif" font-size="14" font-weight="bold" lengthAdjust="spacing" textLength="33" x="650.5" y="1010.0801">Card</text><path d="M649.5,1017.5938 L649.5,1041.5938 M649.5,1029.5938 L666.5,1029.5938 " fill="none" style="stroke:#181818;stroke-width:0.5;"/><ellipse cx="678.5" cy="1029.5938" fill="#ADD8E6" rx="12" ry="12" style="stroke:#181818;stroke-width:0.5;"/><rect fill="#FFD700" height="874.7305" style="stroke:#181818;stroke-width:1.0;" width="10" x="68" y="93.6211"/><rect fill="#FFC0CB" height="48.582" style="stroke:#181818;stroke-width:1.0;" width="10" x="346" y="116.9121"/><rect fill="#FFC0CB" height="14" style="stroke:#181818;stroke-width:1.0;" width="10" x="346" y="303.6582"/><rect fill="#FFC0CB" height="225.6191" style="stroke:#181818;stroke-width:1.0;" width="10" x="346" y="348.9492"/><rect fill="#FFC0CB" height="14" style="stroke:#181818;stroke-width:1.0;" width="10" x="346" y="643.1504"/><rect fill="#FFC0CB" height="270.9102" style="stroke:#181818;stroke-width:1.0;" width="10" x="346" y="688.4414"/><rect fill="#ADD8E6" height="93.873" style="stroke:#181818;stroke-width:1.0;" width="10" x="498" y="414.8223"/><rect fill="#ADD8E6" height="139.1641" style="stroke:#181818;stroke-width:1.0;" width="10" x="498" y="754.3145"/><rect fill="#ADD8E6" height="768.5664" style="stroke:#181818;stroke-width:1.0;" width="10" x="665" y="93.6211"/><polygon fill="#181818" points="334,112.9121,344,116.9121,334,120.9121,338,116.9121" style="stroke:#181818;stroke-width:1.0;"/><line style="stroke:#181818;stroke-width:1.0;" x1="78" x2="340" y1="116.9121" y2="116.9121"/><text fill="#000000" font-family="sans-serif" font-size="13" font-weight="bold" lengthAdjust="spacing" textLength="25" x="85" y="111.6494">cast</text><text fill="#000000" font-family="sans-serif" font-size="13" lengthAdjust="spacing" textLength="76" x="114" y="111.6494">Calypso card</text><polygon fill="#181818" points="89,161.4941,79,165.4941,89,169.4941,85,165.4941" style="stroke:#181818;stroke-width:1.0;"/><line style="stroke:#181818;stroke-width:1.0;stroke-dasharray:2.0,2.0;" x1="83" x2="350" y1="165.4941" y2="165.4941"/><text fill="#000000" font-family="sans-serif" font-size="13" lengthAdjust="spacing" textLength="123" x="95" y="142.9404">[Calypso card image:</text><text fill="#000000" font-family="sans-serif" font-size="13" lengthAdjust="spacing" textLength="212" x="127" y="160.2314">- identification data with PIN support]</text><rect fill="#EEEEEE" height="3" style="stroke:#EEEEEE;stroke-width:1.0;" width="704.5" x="0" y="195.1396"/><line style="stroke:#000000;stroke-width:1.0;" x1="0" x2="704.5" y1="195.1396" y2="195.1396"/><line style="stroke:#000000;stroke-width:1.0;" x1="0" x2="704.5" y1="198.1396" y2="198.1396"/><rect fill="#EEEEEE" height="25.291" style="stroke:#000000;stroke-width:2.0;" width="168" x="268.25" y="183.4941"/><text fill="#000000" font-family="sans-serif" font-size="13" font-weight="bold" lengthAdjust="spacing" textLength="150" x="274.25" y="201.5225">Card secure transaction</text><line style="stroke:#181818;stroke-width:1.0;" x1="78" x2="120" y1="259.3672" y2="259.3672"/><line style="stroke:#181818;stroke-width:1.0;" x1="120" x2="120" y1="259.3672" y2="272.3672"/><line style="stroke:#181818;stroke-width:1.0;" x1="79" x2="120" y1="272.3672" y2="272.3672"/><polygon fill="#181818" points="89,268.3672,79,272.3672,89,276.3672,85,272.3672" style="stroke:#181818;stroke-width:1.0;"/><text fill="#000000" font-family="sans-serif" font-size="13" font-weight="bold" lengthAdjust="spacing" textLength="66" x="85" y="236.8135">instantiate</text><text fill="#000000" font-family="sans-serif" font-size="13" lengthAdjust="spacing" textLength="148" x="155" y="236.8135">Calypso card transaction:</text><text fill="#000000" font-family="sans-serif" font-size="13" lengthAdjust="spacing" textLength="138" x="117" y="254.1045">- Calypso card resource</text><polygon fill="#181818" points="334,299.6582,344,303.6582,334,307.6582,338,303.6582" style="stroke:#181818;stroke-width:1.0;"/><line style="stroke:#181818;stroke-width:1.0;" x1="78" x2="340" y1="303.6582" y2="303.6582"/><text fill="#FF0000" font-family="sans-serif" font-size="13" font-weight="bold" lengthAdjust="spacing" textLength="50" x="85" y="298.3955">prepare</text><text fill="#000000" font-family="sans-serif" font-size="13" lengthAdjust="spacing" textLength="135" x="139" y="298.3955">Verify PIN (current PIN)</text><polygon fill="#181818" points="89,313.6582,79,317.6582,89,321.6582,85,317.6582" style="stroke:#181818;stroke-width:1.0;"/><line style="stroke:#181818;stroke-width:1.0;stroke-dasharray:2.0,2.0;" x1="83" x2="350" y1="317.6582" y2="317.6582"/><polygon fill="#181818" points="334,344.9492,344,348.9492,334,352.9492,338,348.9492" style="stroke:#181818;stroke-width:1.0;"/><line style="stroke:#181818;stroke-width:1.0;" x1="78" x2="340" y1="348.9492" y2="348.9492"/><text fill="#FF0000" font-family="sans-serif" font-size="13" font-weight="bold" lengthAdjust="spacing" textLength="48" x="85" y="343.6865">process</text><text fill="#000000" font-family="sans-serif" font-size="13" lengthAdjust="spacing" textLength="185" x="137" y="343.6865">commands (keep channel open)</text><polygon fill="#0000FF" points="486,410.8223,496,414.8223,486,418.8223,490,414.8223" style="stroke:#0000FF;stroke-width:1.0;"/><line style="stroke:#0000FF;stroke-width:1.0;" x1="356" x2="492" y1="414.8223" y2="414.8223"/><text fill="#0000FF" font-family="sans-serif" font-size="13" font-weight="bold" lengthAdjust="spacing" textLength="48" x="363" y="374.9775">Card #2</text><text fill="#000000" font-family="sans-serif" font-size="13" lengthAdjust="spacing" textLength="123" x="363" y="392.2686">transmit card request</text><text fill="#000000" font-family="sans-serif" font-size="13" lengthAdjust="spacing" textLength="65" x="395" y="409.5596">- APDU list</text><polygon fill="#181818" points="653,442.1133,663,446.1133,653,450.1133,657,446.1133" style="stroke:#181818;stroke-width:1.0;"/><line style="stroke:#181818;stroke-width:1.0;" x1="508" x2="659" y1="446.1133" y2="446.1133"/><text fill="#000000" font-family="sans-serif" font-size="13" lengthAdjust="spacing" textLength="122" x="515" y="440.8506">Verify PIN (plain PIN)</text><polygon fill="#181818" points="519,473.4043,509,477.4043,519,481.4043,515,477.4043" style="stroke:#181818;stroke-width:1.0;"/><line style="stroke:#181818;stroke-width:1.0;stroke-dasharray:2.0,2.0;" x1="513" x2="664" y1="477.4043" y2="477.4043"/><text fill="#000000" font-family="sans-serif" font-size="13" lengthAdjust="spacing" textLength="69" x="525" y="472.1416">[PIN status]</text><polygon fill="#0000FF" points="367,504.6953,357,508.6953,367,512.6953,363,508.6953" style="stroke:#0000FF;stroke-width:1.0;"/><line style="stroke:#0000FF;stroke-width:1.0;stroke-dasharray:2.0,2.0;" x1="361" x2="502" y1="508.6953" y2="508.6953"/><text fill="#000000" font-family="sans-serif" font-size="13" lengthAdjust="spacing" textLength="69" x="373" y="503.4326">[PIN status]</text><polygon fill="#181818" points="89,570.5684,79,574.5684,89,578.5684,85,574.5684" style="stroke:#181818;stroke-width:1.0;"/><line style="stroke:#181818;stroke-width:1.0;stroke-dasharray:2.0,2.0;" x1="83" x2="350" y1="574.5684" y2="574.5684"/><text fill="#000000" font-family="sans-serif" font-size="13" lengthAdjust="spacing" textLength="123" x="95" y="534.7236">[Calypso card image:</text><text fill="#000000" font-family="sans-serif" font-size="13" lengthAdjust="spacing" textLength="208" x="127" y="552.0146">- identification data with PIN support</text><text fill="#000000" font-family="sans-serif" font-size="13" lengthAdjust="spacing" textLength="73" x="127" y="569.3057">- PIN status]</text><path d="M165,587.5684 L165,614.5684 L536,614.5684 L536,597.5684 L526,587.5684 L165,587.5684 " fill="#FEFFDD" style="stroke:#181818;stroke-width:0.5;"/><path d="M526,587.5684 L526,597.5684 L536,597.5684 L526,587.5684 " fill="#FEFFDD" style="stroke:#181818;stroke-width:0.5;"/><text fill="#000000" font-family="sans-serif" font-size="13" lengthAdjust="spacing" textLength="350" x="171" y="606.5967">The PIN could updated in plain after a successful verification.</text><polygon fill="#181818" points="334,639.1504,344,643.1504,334,647.1504,338,643.1504" style="stroke:#181818;stroke-width:1.0;"/><line style="stroke:#181818;stroke-width:1.0;" x1="78" x2="340" y1="643.1504" y2="643.1504"/><text fill="#FF0000" font-family="sans-serif" font-size="13" font-weight="bold" lengthAdjust="spacing" textLength="50" x="85" y="637.8877">prepare</text><text fill="#000000" font-family="sans-serif" font-size="13" lengthAdjust="spacing" textLength="129" x="139" y="637.8877">Change PIN (new PIN)</text><polygon fill="#181818" points="89,653.1504,79,657.1504,89,661.1504,85,657.1504" style="stroke:#181818;stroke-width:1.0;"/><line style="stroke:#181818;stroke-width:1.0;stroke-dasharray:2.0,2.0;" x1="83" x2="350" y1="657.1504" y2="657.1504"/><polygon fill="#181818" points="334,684.4414,344,688.4414,334,692.4414,338,688.4414" style="stroke:#181818;stroke-width:1.0;"/><line style="stroke:#181818;stroke-width:1.0;" x1="78" x2="340" y1="688.4414" y2="688.4414"/><text fill="#FF0000" font-family="sans-serif" font-size="13" font-weight="bold" lengthAdjust="spacing" textLength="48" x="85" y="683.1787">process</text><text fill="#000000" font-family="sans-serif" font-size="13" lengthAdjust="spacing" textLength="185" x="137" y="683.1787">commands (close channel after)</text><polygon fill="#0000FF" points="486,750.3145,496,754.3145,486,758.3145,490,754.3145" style="stroke:#0000FF;stroke-width:1.0;"/><line style="stroke:#0000FF;stroke-width:1.0;" x1="356" x2="492" y1="754.3145" y2="754.3145"/><text fill="#0000FF" font-family="sans-serif" font-size="13" font-weight="bold" lengthAdjust="spacing" textLength="48" x="363" y="714.4697">Card #3</text><text fill="#000000" font-family="sans-serif" font-size="13" lengthAdjust="spacing" textLength="123" x="363" y="731.7607">transmit card request</text><text fill="#000000" font-family="sans-serif" font-size="13" lengthAdjust="spacing" textLength="65" x="395" y="749.0518">- APDU list</text><polygon fill="#181818" points="653,781.6055,663,785.6055,653,789.6055,657,785.6055" style="stroke:#181818;stroke-width:1.0;"/><line style="stroke:#181818;stroke-width:1.0;" x1="508" x2="659" y1="785.6055" y2="785.6055"/><text fill="#000000" font-family="sans-serif" font-size="13" lengthAdjust="spacing" textLength="133" x="515" y="780.3428">Change PIN (plain PIN)</text><polygon fill="#181818" points="519,812.8965,509,816.8965,519,820.8965,515,816.8965" style="stroke:#181818;stroke-width:1.0;"/><line style="stroke:#181818;stroke-width:1.0;stroke-dasharray:2.0,2.0;" x1="513" x2="664" y1="816.8965" y2="816.8965"/><text fill="#000000" font-family="sans-serif" font-size="13" lengthAdjust="spacing" textLength="21" x="525" y="811.6338">ack</text><polygon fill="#181818" points="653,844.1875,663,848.1875,653,852.1875,657,848.1875" style="stroke:#181818;stroke-width:1.0;"/><line style="stroke:#181818;stroke-width:1.0;" x1="508" x2="659" y1="848.1875" y2="848.1875"/><text fill="#000000" font-family="sans-serif" font-size="13" lengthAdjust="spacing" textLength="109" x="515" y="842.9248">close card channel</text><polygon fill="#181818" points="519,858.1875,509,862.1875,519,866.1875,515,862.1875" style="stroke:#181818;stroke-width:1.0;"/><line style="stroke:#181818;stroke-width:1.0;stroke-dasharray:2.0,2.0;" x1="513" x2="669" y1="862.1875" y2="862.1875"/><polygon fill="#0000FF" points="367,889.4785,357,893.4785,367,897.4785,363,893.4785" style="stroke:#0000FF;stroke-width:1.0;"/><line style="stroke:#0000FF;stroke-width:1.0;stroke-dasharray:2.0,2.0;" x1="361" x2="502" y1="893.4785" y2="893.4785"/><text fill="#000000" font-family="sans-serif" font-size="13" lengthAdjust="spacing" textLength="21" x="373" y="888.2158">ack</text><polygon fill="#181818" points="89,955.3516,79,959.3516,89,963.3516,85,959.3516" style="stroke:#181818;stroke-width:1.0;"/><line style="stroke:#181818;stroke-width:1.0;stroke-dasharray:2.0,2.0;" x1="83" x2="350" y1="959.3516" y2="959.3516"/><text fill="#000000" font-family="sans-serif" font-size="13" lengthAdjust="spacing" textLength="123" x="95" y="919.5068">[Calypso card image:</text><text fill="#000000" font-family="sans-serif" font-size="13" lengthAdjust="spacing" textLength="208" x="127" y="936.7979">- identification data with PIN support</text><text fill="#000000" font-family="sans-serif" font-size="13" lengthAdjust="spacing" textLength="73" x="127" y="954.0889">- PIN status]</text><!--SRC=[pLNBRkCs5DthAuXuaQa0judjr9CWDY3hCSYc3URHJP85Xxgs2SiaIr89_FUzf1wM4iTkWK4nMadKkVVSStWedPiD5ufgkYLnGOrPI9s3ZcKXDHbab_7a8WkEGP9955ya7OYne47QdOAe1uokapZ93WBlUi3599gcLmU1SRzZabmkHWU1QG-OBgx7VUerpUKB5okof8M1eFFgYwKMZYkCcENFtEuEeO9pyXdoDuvHjbbfMOhSeszlDUJpEVgRf4aQ7_6tHQRJIJoEWpNFWJIBUxd8UbzgLS19OkLXddkInjdqAFSU_36TJAAaeM_NUnDyByhJ_0xazIoogsnnbBs1ZYVN7vD5mrslzfW_QG1nadhbK9uxogBiyYXtYnsbSJozRCYRvGuxql-fgLYTbYuzhDhsR9HU7nrW3qv_dwQZKJD1kzuV0HtO_Hi3TfN-D4xJK_ezT1IFqwkBZlpTAshABAR_x2jd6x3kG4LA5PnHowKu8zGGgXGPh6IH1yXbEUEA2alEObhib94akh_pC4OL9mF5nUOmBgOwVnIVWUACTO7EgqSoAFXgRHSkVj-TNAftvCn00Sm25eMXAmx3jgnRu0JmPppodK7tQs_HIWtdRjOR4eQC6Xk6f1dHWRkbAAXMvEw7mpaMtv27BfpmBLt1pQDuj4E27WlBbxLv9AUMaXTkr-J-xWzYIgMajaz1a4EF8mXcC-yECS1A3SHYGeo3O8_Ph1xPKuSX5yQYhHoBNmtUBQldwRtMO6IfMT-2swN4FM8kCZFtIGf3fG6t3vlV_kRUpSbVeFbovoLymF4qIdGFlvmowgtC4xoIWJ5xNYQtMofoGpvi01HXQoe454Gg4EzmL-GFWmkyiknflWzOdz1_WAfCuVbe6H-5Tt3BRMFOtoKOMraPtIVVIC6DxKVhRNw3StTYLRMXlgeLWdldJg51cRX70S5htsFenxtfsQqAoaLbTWCU3dko7dooy8TNcgVW74JkJ6XRjbOqjlVWlVrfQe8V6FKA-IwbYuIGU2kVqKB_x5H-NOElOR8iSb8gR0t8BKZb1btYjujGv60kByko8C_EidgINmCqWRYs_pNdyTfzbolZ1RpypnbdXJJGXjoB_94f7_zaAU-QVJhb-1jyfqzjcvkYzkvmZ-fil4hyyRFYI7-68_9guHy0]--></g></svg>