<?xml version="1.0" encoding="UTF-8" standalone="no"?>
<!-- Generator: Adobe Illustrator 24.2.2, SVG Export Plug-In . SVG Version: 6.00 Build 0) -->

<svg
   version="1.1"
   id="Layer_1"
   x="0px"
   y="0px"
   viewBox="0 0 218 49.000001"
   xml:space="preserve"
   width="218"
   height="49"
   xmlns:xlink="http://www.w3.org/1999/xlink"
   xmlns="http://www.w3.org/2000/svg"
   xmlns:svg="http://www.w3.org/2000/svg"><defs
   id="defs67"><linearGradient
     id="linearGradient1483"><stop
       style="stop-color:#00a0ff;stop-opacity:1;"
       offset="0"
       id="stop1479" /><stop
       style="stop-color:#00a0ff;stop-opacity:0;"
       offset="1"
       id="stop1481" /></linearGradient><linearGradient
     xlink:href="#linearGradient1483"
     id="linearGradient1485"
     x1="176.83051"
     y1="-9.6101971"
     x2="285.08948"
     y2="-9.6101971"
     gradientUnits="userSpaceOnUse" /><linearGradient
     xlink:href="#linearGradient1483"
     id="linearGradient1487"
     x1="177.42062"
     y1="10.464906"
     x2="285.65118"
     y2="10.464906"
     gradientUnits="userSpaceOnUse" /></defs> <style
   type="text/css"
   id="style2"> .st0{fill:#00A0FF;} </style>    <g
   id="g18329"
   transform="matrix(1.1025951,0,0,1.1092187,-0.73873872,-0.29948904)"><g
     id="g10"> <path
   d="m 12.52,0.27 c 3.21,0 8.44,1.38 8.44,4.78 V 6.91 H 18.84 V 5.66 c 0,-2.12 -3.66,-3.27 -6.26,-3.27 -5.01,0 -8.86,3.91 -8.86,9.37 0,5.39 3.82,9.72 8.95,9.72 4.65,0 7.38,-3.18 7.38,-3.18 l 1.28,1.64 c 0,0 -3.11,3.66 -8.7,3.66 C 6.02,23.6 1.37,18.34 1.37,11.76 1.39,5.24 6.17,0.27 12.52,0.27 Z"
   id="path4" /> <path
   d="m 33.61,13.27 h 0.9 v -0.19 c 0,-3.37 -1.22,-4.56 -4.17,-4.56 -0.8,0 -3.14,0.22 -3.14,1.41 v 1.03 H 25.11 V 9.42 c 0,-2.25 3.85,-2.73 5.26,-2.73 5.1,0 6.32,2.73 6.32,6.19 v 7.73 c 0,0.48 0.26,0.71 0.71,0.71 h 1.35 v 1.89 h -2.21 c -1.38,0 -1.93,-0.61 -1.93,-1.93 0,-0.71 0.03,-1.19 0.03,-1.19 h -0.06 c 0.03,0 -1.32,3.5 -5.36,3.5 -2.7,0 -5.49,-1.57 -5.49,-4.78 0,-5.35 7.09,-5.54 9.88,-5.54 z m -4.04,8.47 c 3.08,0 4.94,-3.21 4.94,-6 V 15 h -0.93 c -2.54,0 -7.61,0.06 -7.61,3.69 0,1.51 1.19,3.05 3.6,3.05 z"
   id="path6" /> <path
   d="M 42.18,3.25 C 42.18,2.8 41.92,2.54 41.47,2.54 H 40.12 V 0.66 h 2.28 c 1.38,0 1.96,0.58 1.96,1.96 v 18 c 0,0.48 0.26,0.71 0.71,0.71 h 1.35 v 1.89 h -2.28 c -1.38,0 -1.96,-0.58 -1.96,-1.96 z"
   id="path8" /> </g><g
     id="g14"> <path
   class="st0"
   d="m 50.97,28 c 1.41,0 2.37,-1.16 2.98,-2.63 L 54.91,23.16 49.24,9.7 C 48.98,9.12 48.7,8.96 48.12,8.96 H 47.8 V 7.07 h 1 c 1.44,0 1.89,0.32 2.47,1.77 l 4.14,10.08 c 0.32,0.8 0.58,1.73 0.58,1.73 h 0.06 c 0,0 0.22,-0.93 0.55,-1.73 L 60.58,8.84 c 0.54,-1.44 1.03,-1.77 2.5,-1.77 h 0.99 v 1.89 h -0.32 c -0.58,0 -0.9,0.16 -1.12,0.74 l -6.96,16.88 c -0.83,2.05 -2.47,3.37 -4.62,3.37 -2.25,0 -3.5,-1.57 -3.5,-1.57 l 1.03,-1.6 C 48.57,26.81 49.59,28 50.97,28 Z"
   id="path12"
   style="fill:#00a0ff;fill-opacity:1" /> </g><g
     id="g22"> <path
   d="m 67.37,9.67 c 0,-0.45 -0.26,-0.71 -0.71,-0.71 H 65.31 V 7.07 h 2.21 c 1.38,0 1.92,0.58 1.92,1.7 0,0.64 -0.03,1.09 -0.03,1.09 h 0.06 c 0,0 1.28,-3.18 5.55,-3.18 4.33,0 7.03,3.47 7.03,8.47 0,5.1 -3.05,8.44 -7.22,8.44 -3.95,0 -5.29,-3.05 -5.29,-3.05 h -0.06 c 0,0 0.06,0.58 0.06,1.41 v 7.67 H 67.36 V 9.67 Z m 7.25,12 c 2.86,0 5.2,-2.41 5.2,-6.51 0,-3.95 -2.09,-6.48 -5.1,-6.48 -2.7,0 -5.23,1.93 -5.23,6.51 0,3.24 1.76,6.48 5.13,6.48 z"
   id="path16" /> <path
   d="m 85.6,19.27 c 0,0 1.8,2.44 4.97,2.44 1.8,0 3.4,-0.87 3.4,-2.57 0,-3.53 -9.05,-2.89 -9.05,-8.09 0,-2.92 2.5,-4.36 5.74,-4.36 1.64,0 4.91,0.64 4.91,2.92 v 1.38 h -2.05 v -0.77 c 0,-1.19 -1.73,-1.64 -2.79,-1.64 -2.25,0 -3.59,0.77 -3.59,2.34 0,3.63 9.05,2.79 9.05,8.15 0,2.7 -2.44,4.52 -5.65,4.52 -4.2,0 -6.19,-2.82 -6.19,-2.82 z"
   id="path18" /> <path
   d="m 107.33,6.69 c 4.72,0 8.54,3.59 8.54,8.38 0,4.88 -3.82,8.54 -8.5,8.54 -4.72,0 -8.54,-3.66 -8.54,-8.54 -0.01,-4.79 3.81,-8.38 8.5,-8.38 z m 0.03,14.95 c 3.43,0 6.26,-2.82 6.26,-6.58 0,-3.66 -2.82,-6.39 -6.26,-6.39 -3.47,0 -6.29,2.73 -6.29,6.39 0,3.76 2.82,6.58 6.29,6.58 z"
   id="path20" /> </g><g
     id="g62"> <path
   d="m 0.67,43.52 h 0.51 c 0.17,0 0.26,-0.08 0.26,-0.26 v -7.3 h 0.75 l 4.23,5.91 c 0.28,0.41 0.67,1.09 0.67,1.09 h 0.02 c 0,0 -0.06,-0.65 -0.06,-1.09 v -5.19 c 0,-0.51 0.21,-0.72 0.72,-0.72 h 0.87 v 0.73 h -0.5 c -0.17,0 -0.26,0.08 -0.26,0.26 v 7.3 H 7.13 L 2.9,38.34 C 2.61,37.94 2.22,37.27 2.22,37.27 H 2.19 c 0,0 0.07,0.64 0.07,1.07 v 5.19 c 0,0.51 -0.21,0.72 -0.72,0.72 H 0.67 Z"
   id="path24" /> <path
   d="m 12.49,38.18 c 1.64,0 2.49,1.26 2.49,2.74 0,0.14 -0.02,0.4 -0.02,0.4 H 10.4 c 0.02,1.5 1.07,2.36 2.3,2.36 1.08,0 1.78,-0.73 1.78,-0.73 l 0.39,0.6 c 0,0 -0.86,0.85 -2.21,0.85 -1.76,0 -3.1,-1.27 -3.1,-3.1 0,-1.95 1.34,-3.12 2.93,-3.12 z m 1.66,2.5 c -0.05,-1.23 -0.8,-1.83 -1.67,-1.83 -0.98,0 -1.84,0.64 -2.04,1.83 z"
   id="path26" /> <path
   d="m 16.65,39 h -0.78 v -0.67 h 0.79 v -1.64 h 0.79 v 1.64 h 1.49 V 39 h -1.49 v 3.02 c 0,1.39 0.88,1.57 1.33,1.57 0.17,0 0.27,-0.02 0.27,-0.02 v 0.72 c 0,0 -0.14,0.02 -0.34,0.02 -0.68,0 -2.06,-0.22 -2.06,-2.21 z"
   id="path28" /> <path
   d="m 20.09,39.29 c -0.07,-0.21 -0.2,-0.27 -0.41,-0.27 h -0.15 v -0.7 h 0.41 c 0.57,0 0.75,0.11 0.93,0.66 l 1.21,3.76 c 0.09,0.28 0.18,0.64 0.18,0.64 h 0.02 c 0,0 0.09,-0.35 0.19,-0.64 l 1.45,-4.4 h 0.8 l 1.45,4.4 c 0.09,0.28 0.19,0.64 0.19,0.64 h 0.02 c 0,0 0.07,-0.34 0.17,-0.64 l 1.23,-3.76 c 0.18,-0.55 0.37,-0.66 0.93,-0.66 h 0.41 v 0.7 h -0.17 c -0.2,0 -0.34,0.06 -0.41,0.27 l -1.7,4.97 H 25.96 L 24.51,40.04 C 24.42,39.75 24.33,39.4 24.33,39.4 h -0.02 c 0,0 -0.08,0.34 -0.19,0.64 l -1.44,4.22 h -0.9 z"
   id="path30" /> <path
   d="m 32.72,38.18 c 1.73,0 3.14,1.32 3.14,3.08 0,1.79 -1.4,3.14 -3.13,3.14 -1.73,0 -3.14,-1.34 -3.14,-3.14 0.01,-1.76 1.41,-3.08 3.13,-3.08 z m 0.02,5.5 c 1.26,0 2.3,-1.04 2.3,-2.42 0,-1.34 -1.04,-2.35 -2.3,-2.35 -1.27,0 -2.31,1 -2.31,2.35 -0.01,1.38 1.03,2.42 2.31,2.42 z"
   id="path32" /> <path
   d="m 37.36,39.28 c 0,-0.17 -0.09,-0.26 -0.26,-0.26 h -0.5 v -0.7 h 0.83 c 0.5,0 0.72,0.2 0.72,0.67 v 0.4 c 0,0.25 -0.02,0.45 -0.02,0.45 h 0.02 c 0.28,-0.9 0.94,-1.58 1.88,-1.58 0.17,0 0.32,0.04 0.32,0.04 v 0.79 c 0,0 -0.14,-0.02 -0.29,-0.02 -0.84,0 -1.46,0.66 -1.72,1.53 -0.12,0.38 -0.17,0.78 -0.17,1.16 v 2.5 h -0.8 v -4.98 z"
   id="path34" /> <path
   d="m 41.47,36.92 c 0,-0.17 -0.09,-0.26 -0.26,-0.26 h -0.5 v -0.7 h 0.84 c 0.51,0 0.72,0.18 0.72,0.68 v 3.94 h 0.61 c 0.22,0 0.51,-0.07 0.67,-0.28 l 1.52,-1.98 h 0.98 l -1.71,2.17 c -0.29,0.37 -0.45,0.42 -0.45,0.42 v 0.02 c 0,0 0.18,0.08 0.37,0.44 l 1.07,1.92 c 0.11,0.2 0.22,0.26 0.54,0.26 h 0.32 v 0.7 h -0.55 c -0.59,0 -0.75,-0.09 -1.03,-0.59 L 43.43,41.54 C 43.3,41.3 43.02,41.28 42.8,41.28 h -0.54 v 2.97 h -0.8 v -7.33 z"
   id="path36" /> <path
   d="m 47.16,42.81 c 0,0 0.66,0.9 1.83,0.9 0.66,0 1.25,-0.32 1.25,-0.94 0,-1.3 -3.33,-1.06 -3.33,-2.97 0,-1.07 0.92,-1.6 2.11,-1.6 0.6,0 1.8,0.24 1.8,1.07 v 0.51 H 50.07 V 39.5 c 0,-0.44 -0.64,-0.6 -1.03,-0.6 -0.83,0 -1.32,0.28 -1.32,0.86 0,1.33 3.33,1.03 3.33,3 0,0.99 -0.9,1.66 -2.08,1.66 -1.54,0 -2.28,-1.04 -2.28,-1.04 z"
   id="path38" /> <path
   d="m 54.9,43.52 h 0.15 c 0.21,0 0.34,-0.04 0.42,-0.26 l 2.71,-7.3 h 0.88 l 2.71,7.3 c 0.08,0.22 0.2,0.26 0.42,0.26 h 0.14 v 0.73 h -0.38 c -0.59,0 -0.77,-0.12 -0.98,-0.68 l -0.72,-1.96 h -3.29 l -0.73,1.96 c -0.21,0.57 -0.38,0.68 -0.97,0.68 H 54.9 Z m 5.15,-2.63 -1.1,-2.96 c -0.14,-0.39 -0.32,-1.07 -0.32,-1.07 h -0.02 c 0,0 -0.18,0.68 -0.32,1.07 l -1.08,2.96 z"
   id="path40" /> <path
   d="m 63.31,42.81 c 0,0 0.66,0.9 1.83,0.9 0.66,0 1.25,-0.32 1.25,-0.94 0,-1.3 -3.33,-1.06 -3.33,-2.97 0,-1.07 0.92,-1.6 2.11,-1.6 0.6,0 1.8,0.24 1.8,1.07 v 0.51 H 66.22 V 39.5 c 0,-0.44 -0.64,-0.6 -1.03,-0.6 -0.83,0 -1.32,0.28 -1.32,0.86 0,1.33 3.33,1.03 3.33,3 0,0.99 -0.9,1.66 -2.08,1.66 -1.55,0 -2.28,-1.04 -2.28,-1.04 z"
   id="path42" /> <path
   d="m 68.5,42.81 c 0,0 0.66,0.9 1.83,0.9 0.66,0 1.25,-0.32 1.25,-0.94 0,-1.3 -3.33,-1.06 -3.33,-2.97 0,-1.07 0.92,-1.6 2.11,-1.6 0.6,0 1.8,0.24 1.8,1.07 v 0.51 H 71.41 V 39.5 c 0,-0.44 -0.64,-0.6 -1.03,-0.6 -0.83,0 -1.32,0.28 -1.32,0.86 0,1.33 3.33,1.03 3.33,3 0,0.99 -0.9,1.66 -2.08,1.66 -1.54,0 -2.28,-1.04 -2.28,-1.04 z"
   id="path44" /> <path
   d="m 76.49,38.18 c 1.73,0 3.14,1.32 3.14,3.08 0,1.79 -1.4,3.14 -3.13,3.14 -1.73,0 -3.14,-1.34 -3.14,-3.14 0,-1.76 1.41,-3.08 3.13,-3.08 z m 0.01,5.5 c 1.26,0 2.3,-1.04 2.3,-2.42 0,-1.34 -1.04,-2.35 -2.3,-2.35 -1.27,0 -2.31,1 -2.31,2.35 0,1.38 1.04,2.42 2.31,2.42 z"
   id="path46" /> <path
   d="m 83.7,38.18 c 0.67,0 2.11,0.28 2.11,1.26 v 0.53 h -0.75 v -0.34 c 0,-0.5 -0.86,-0.73 -1.36,-0.73 -1.27,0 -2.3,0.96 -2.3,2.39 0,1.46 1.07,2.37 2.32,2.37 1.21,0 1.91,-0.84 1.91,-0.84 l 0.38,0.6 c 0,0 -0.8,0.97 -2.32,0.97 -1.77,0 -3.11,-1.26 -3.11,-3.1 -0.01,-1.81 1.35,-3.11 3.12,-3.11 z"
   id="path48" /> <path
   d="m 87.42,39.28 c 0,-0.17 -0.09,-0.26 -0.26,-0.26 h -0.5 v -0.7 h 0.84 c 0.51,0 0.72,0.21 0.72,0.72 v 4.26 c 0,0.18 0.09,0.26 0.26,0.26 h 0.5 v 0.7 h -0.84 c -0.51,0 -0.72,-0.21 -0.72,-0.72 z m -0.03,-3.32 h 0.78 v 1.01 h -0.78 z"
   id="path50" /> <path
   d="m 93.4,40.6 h 0.33 v -0.07 c 0,-1.24 -0.45,-1.68 -1.53,-1.68 -0.29,0 -1.16,0.08 -1.16,0.52 v 0.38 h -0.77 v -0.57 c 0,-0.83 1.42,-1 1.93,-1 1.88,0 2.32,1 2.32,2.28 v 2.84 c 0,0.18 0.09,0.26 0.26,0.26 h 0.5 v 0.7 h -0.81 c -0.51,0 -0.71,-0.22 -0.71,-0.71 0,-0.26 0.01,-0.44 0.01,-0.44 h -0.02 c 0.01,0 -0.48,1.29 -1.97,1.29 -0.99,0 -2.02,-0.58 -2.02,-1.76 0.01,-1.97 2.61,-2.04 3.64,-2.04 z m -1.49,3.11 c 1.13,0 1.82,-1.18 1.82,-2.21 v -0.27 h -0.34 c -0.93,0 -2.8,0.02 -2.8,1.36 0,0.56 0.44,1.12 1.32,1.12 z"
   id="path52" /> <path
   d="m 96.63,39 h -0.78 v -0.67 h 0.79 v -1.64 h 0.79 v 1.64 h 1.49 V 39 h -1.49 v 3.02 c 0,1.39 0.88,1.57 1.33,1.57 0.17,0 0.27,-0.02 0.27,-0.02 v 0.72 c 0,0 -0.14,0.02 -0.34,0.02 -0.68,0 -2.06,-0.22 -2.06,-2.21 z"
   id="path54" /> <path
   d="m 100.57,39.28 c 0,-0.17 -0.09,-0.26 -0.26,-0.26 h -0.5 v -0.7 h 0.84 c 0.51,0 0.72,0.21 0.72,0.72 v 4.26 c 0,0.18 0.09,0.26 0.26,0.26 h 0.5 v 0.7 h -0.84 c -0.51,0 -0.72,-0.21 -0.72,-0.72 z m -0.02,-3.32 h 0.78 v 1.01 h -0.78 z"
   id="path56" /> <path
   d="m 106.05,38.18 c 1.73,0 3.14,1.32 3.14,3.08 0,1.79 -1.4,3.14 -3.13,3.14 -1.73,0 -3.14,-1.34 -3.14,-3.14 0,-1.76 1.41,-3.08 3.13,-3.08 z m 0.01,5.5 c 1.26,0 2.3,-1.04 2.3,-2.42 0,-1.34 -1.04,-2.35 -2.3,-2.35 -1.27,0 -2.31,1 -2.31,2.35 0,1.38 1.04,2.42 2.31,2.42 z"
   id="path58" /> <path
   d="m 110.69,39.28 c 0,-0.17 -0.09,-0.26 -0.26,-0.26 h -0.5 v -0.7 h 0.83 c 0.5,0 0.72,0.21 0.72,0.66 v 0.27 c 0,0.24 -0.02,0.42 -0.02,0.42 h 0.02 c 0.21,-0.54 0.97,-1.5 2.36,-1.5 1.47,0 1.99,0.84 1.99,2.3 v 2.82 c 0,0.18 0.09,0.26 0.26,0.26 h 0.5 v 0.7 h -0.84 c -0.51,0 -0.72,-0.21 -0.72,-0.72 v -2.84 c 0,-0.93 -0.14,-1.76 -1.29,-1.76 -1.01,0 -1.89,0.7 -2.16,1.67 -0.07,0.25 -0.09,0.52 -0.09,0.8 v 2.84 h -0.8 z"
   id="path60" /> </g></g> <g
   id="g8190"
   transform="matrix(0.70299321,0,0,0.70299321,9.3559018,22.922351)"><g
     id="text1524"
     style="font-weight:bold;font-size:14.7494px;line-height:10.975px;font-family:'Courier New';-inkscape-font-specification:'Courier New, Bold';letter-spacing:0px;word-spacing:0px;stroke-width:1.10621px" /><g
     id="text1524-1"
     style="font-weight:bold;font-size:16px;line-height:10px;font-family:'Open Sans';-inkscape-font-specification:'Open Sans, Bold';letter-spacing:0px;word-spacing:0px;stroke-width:1px" /><path
     id="rect92030"
     style="vector-effect:none;fill:#00a0ff;fill-rule:evenodd;stroke-width:0.219567;stop-color:#000000"
     d="m 177.71401,-32.606789 h 119.02025 v 5.522479 H 177.71401 Z" /><path
     id="rect92030-8"
     style="vector-effect:none;fill:#00a0ff;fill-rule:evenodd;stroke-width:0.219567;stop-color:#000000"
     d="m 177.71401,31.572685 h 119.02025 v 5.52248 H 177.71401 Z" /><g
     id="text6123"
     style="font-size:56.8996px;line-height:1.25;stroke-width:1.42249" /><g
     aria-label="TERMINAL"
     transform="scale(0.99676285,1.0032477)"
     id="text19958"
     style="font-weight:bold;font-size:20.3838px;line-height:1.25;-inkscape-font-specification:'sans-serif, Bold';fill:#00a0ff;stroke-width:0.509598"><path
       d="m 191.36945,-19.112819 h -4.62815 v 11.9535864 h -3.82197 V -19.112819 h -4.62815 v -2.866472 h 13.07827 z"
       id="path1513" /><path
       d="M 204.38801,-7.1592326 H 193.6686 V -21.979291 h 10.71941 v 2.866472 h -6.91735 v 2.557928 h 6.4197 v 2.866472 h -6.4197 v 3.662714 h 6.91735 z"
       id="path1515" /><path
       d="m 215.90367,-17.44071 q 0,-0.55737 -0.22892,-0.955491 -0.22892,-0.398121 -0.78629,-0.627041 -0.38817,-0.159248 -0.90573,-0.189107 -0.51755,-0.03981 -1.20431,-0.03981 h -1.38347 v 3.991164 h 1.17445 q 0.91568,0 1.53277,-0.08958 0.61709,-0.08958 1.03511,-0.408074 0.39813,-0.308544 0.57728,-0.676806 0.18911,-0.378215 0.18911,-1.005256 z m 5.96186,10.2814774 h -4.66797 l -4.04093,-5.4343534 h -1.76168 v 5.4343534 h -3.80206 V -21.979291 h 6.40975 q 1.3138,0 2.25934,0.149296 0.94553,0.149295 1.77164,0.646947 0.83605,0.497651 1.32375,1.293893 0.49765,0.786289 0.49765,1.980653 0,1.642249 -0.76638,2.677364 -0.75643,1.035115 -2.16976,1.721874 z"
       id="path1517" /><path
       d="m 239.07432,-7.1592326 h -3.80206 v -9.9231684 l -2.74704,6.439609 h -2.63755 l -2.74703,-6.439609 v 9.9231684 h -3.603 V -21.979291 h 4.43905 l 3.33426,7.434912 3.32432,-7.434912 h 4.43905 z"
       id="path1519" /><path
       d="m 250.86866,-7.1592326 h -8.67904 v -2.6275993 h 2.42853 v -9.5648591 h -2.42853 v -2.6276 h 8.67904 v 2.6276 h -2.42854 v 9.5648591 h 2.42854 z"
       id="path1521" /><path
       d="m 267.46035,-7.1592326 h -3.68262 l -6.29031,-10.1719944 v 10.1719944 h -3.50346 V -21.979291 h 4.56844 l 5.40449,8.489933 v -8.489933 h 3.50346 z"
       id="path1523" /><path
       d="m 284.93787,-7.1592326 h -3.95136 l -1.02516,-2.9958614 h -5.49407 l -1.02516,2.9958614 h -3.85182 l 5.47416,-14.8200584 h 4.39924 z m -5.90215,-5.7130374 -1.8214,-5.314917 -1.82141,5.314917 z"
       id="path1525" /><path
       d="M 297.75737,-7.1592326 H 287.06782 V -21.979291 h 3.82196 v 11.953586 h 6.86759 z"
       id="path1527" /></g><g
     aria-label="APIs"
     transform="scale(1.2199411,0.8197117)"
     id="text19958-7"
     style="font-size:47.5441px;line-height:0;-inkscape-font-specification:'sans-serif, Normal';fill:#00a0ff;stroke-width:1.1886"><path
       d="m 176.96793,31.93045 h -4.89835 l -3.38937,-9.63418 h -14.95039 l -3.38938,9.63418 h -4.66619 l 12.58247,-34.5669759 h 6.12873 z M 167.2641,18.349738 161.20501,1.3796507 155.12271,18.349738 Z"
       style="line-height:0.85"
       id="path1504" /><path
       d="m 204.8258,7.8101762 q 0,2.2982748 -0.81252,4.2715408 -0.78931,1.950051 -2.22863,3.389374 -1.78755,1.787547 -4.22511,2.692928 -2.43757,0.882166 -6.15195,0.882166 h -4.59655 V 31.93045 h -4.59655 V -2.6365259 h 9.37882 q 3.1108,0 5.26978,0.5339426 2.15899,0.5107276 3.83046,1.62504253 1.97326,1.32324893 3.04115,3.29651487 1.0911,1.9732659 1.0911,4.9912021 z m -4.78227,0.1160744 q 0,-1.7875467 -0.6268,-3.1107957 -0.6268,-1.3232489 -1.90362,-2.1589851 -1.11432,-0.7196617 -2.55364,-1.0214553 -1.41611,-0.3250085 -3.59831,-0.3250085 h -4.55012 v 13.812862 h 3.87689 q 2.78579,0 4.5269,-0.487513 1.74112,-0.510728 2.83222,-1.601828 1.0911,-1.114315 1.53218,-2.344704 0.4643,-1.2303894 0.4643,-2.7625724 z"
       style="line-height:0.85"
       id="path1506" /><path
       d="m 223.0727,31.93045 h -13.65035 v -3.528663 h 4.5269 V 0.89213794 h -4.5269 V -2.6365259 h 13.65035 v 3.52866384 h -4.5269 V 28.401787 h 4.5269 z"
       style="line-height:0.85"
       id="path1508" /><path
       d="m 243.28523,26.639505 q 0,2.586024 -2.3185,4.17628 -2.31851,1.575394 -6.34616,1.575394 -2.22934,0 -4.04252,-0.416142 -1.81319,-0.416142 -2.913,-0.921457 v -4.399213 h 0.49046 q 0.40128,0.282382 0.92145,0.624213 0.53504,0.326968 1.50109,0.713386 0.83228,0.34183 1.8875,0.594488 1.05521,0.237795 2.25905,0.237795 1.5754,0 2.33337,-0.341831 0.75797,-0.356692 0.75797,-1.040354 0,-0.60935 -0.44587,-0.87687 -0.44586,-0.282382 -1.69429,-0.53504 -0.59449,-0.13376 -1.61998,-0.282382 -1.01063,-0.163484 -1.84291,-0.386417 -2.27392,-0.594488 -3.37372,-1.842914 -1.09981,-1.263287 -1.09981,-3.135925 0,-2.407678 2.27392,-3.997934 2.28878,-1.605118 6.24213,-1.605118 1.87264,0 3.58179,0.386417 1.72402,0.371555 2.69006,0.802559 v 4.220867 h -0.46073 q -1.18898,-0.817421 -2.71978,-1.322736 -1.51595,-0.520178 -3.07648,-0.520178 -1.29301,0 -2.18474,0.356693 -0.87687,0.356693 -0.87687,1.01063 0,0.594489 0.40128,0.906595 0.40128,0.312106 1.8875,0.624213 0.81742,0.163484 1.75374,0.326968 0.95118,0.148622 1.90236,0.386418 2.11043,0.549901 3.12106,1.738878 1.01063,1.174114 1.01063,2.942717 z"
       style="font-weight:bold;font-size:30.4378px;-inkscape-font-specification:'sans-serif, Bold'"
       id="path1510" /></g></g></svg>
