<?xml version="1.0" encoding="UTF-8" standalone="no"?>
<!-- Generator: Adobe Illustrator 24.2.2, SVG Export Plug-In . SVG Version: 6.00 Build 0) -->

<svg
   version="1.1"
   id="Layer_1"
   x="0px"
   y="0px"
   viewBox="0 0 197.66173 44.150002"
   xml:space="preserve"
   sodipodi:docname="logo.svg"
   inkscape:version="1.1.1 (3bf5ae0d25, 2021-09-20)"
   width="197.66173"
   height="44.150002"
   inkscape:export-filename="C:\CNA\dev_soft\calypsonet-terminal-api-website\assets\images\logo.png"
   inkscape:export-xdpi="106"
   inkscape:export-ydpi="106"
   xmlns:inkscape="http://www.inkscape.org/namespaces/inkscape"
   xmlns:sodipodi="http://sodipodi.sourceforge.net/DTD/sodipodi-0.dtd"
   xmlns:xlink="http://www.w3.org/1999/xlink"
   xmlns="http://www.w3.org/2000/svg"
   xmlns:svg="http://www.w3.org/2000/svg"><defs
   id="defs67"><linearGradient
     inkscape:collect="always"
     id="linearGradient1483"><stop
       style="stop-color:#00a0ff;stop-opacity:1;"
       offset="0"
       id="stop1479" /><stop
       style="stop-color:#00a0ff;stop-opacity:0;"
       offset="1"
       id="stop1481" /></linearGradient><linearGradient
     inkscape:collect="always"
     xlink:href="#linearGradient1483"
     id="linearGradient1485"
     x1="176.83051"
     y1="-9.6101971"
     x2="285.08948"
     y2="-9.6101971"
     gradientUnits="userSpaceOnUse" /><linearGradient
     inkscape:collect="always"
     xlink:href="#linearGradient1483"
     id="linearGradient1487"
     x1="177.42062"
     y1="10.464906"
     x2="285.65118"
     y2="10.464906"
     gradientUnits="userSpaceOnUse" /></defs><sodipodi:namedview
   id="namedview65"
   pagecolor="#ffffff"
   bordercolor="#666666"
   borderopacity="1.0"
   inkscape:pageshadow="2"
   inkscape:pageopacity="0.0"
   inkscape:pagecheckerboard="true"
   showgrid="false"
   inkscape:zoom="4.6452991"
   inkscape:cx="105.16007"
   inkscape:cy="0.86108556"
   inkscape:window-width="1920"
   inkscape:window-height="1018"
   inkscape:window-x="-6"
   inkscape:window-y="-6"
   inkscape:window-maximized="1"
   inkscape:current-layer="text65104-1"
   fit-margin-top="0"
   fit-margin-left="0"
   fit-margin-right="0"
   fit-margin-bottom="0" /> <style
   type="text/css"
   id="style2"> .st0{fill:#00A0FF;} </style>    <g
   id="g18329"
   transform="translate(-0.67,-0.26999999)"><g
     id="g10"> <path
   d="m 12.52,0.27 c 3.21,0 8.44,1.38 8.44,4.78 V 6.91 H 18.84 V 5.66 c 0,-2.12 -3.66,-3.27 -6.26,-3.27 -5.01,0 -8.86,3.91 -8.86,9.37 0,5.39 3.82,9.72 8.95,9.72 4.65,0 7.38,-3.18 7.38,-3.18 l 1.28,1.64 c 0,0 -3.11,3.66 -8.7,3.66 C 6.02,23.6 1.37,18.34 1.37,11.76 1.39,5.24 6.17,0.27 12.52,0.27 Z"
   id="path4" /> <path
   d="m 33.61,13.27 h 0.9 v -0.19 c 0,-3.37 -1.22,-4.56 -4.17,-4.56 -0.8,0 -3.14,0.22 -3.14,1.41 v 1.03 H 25.11 V 9.42 c 0,-2.25 3.85,-2.73 5.26,-2.73 5.1,0 6.32,2.73 6.32,6.19 v 7.73 c 0,0.48 0.26,0.71 0.71,0.71 h 1.35 v 1.89 h -2.21 c -1.38,0 -1.93,-0.61 -1.93,-1.93 0,-0.71 0.03,-1.19 0.03,-1.19 h -0.06 c 0.03,0 -1.32,3.5 -5.36,3.5 -2.7,0 -5.49,-1.57 -5.49,-4.78 0,-5.35 7.09,-5.54 9.88,-5.54 z m -4.04,8.47 c 3.08,0 4.94,-3.21 4.94,-6 V 15 h -0.93 c -2.54,0 -7.61,0.06 -7.61,3.69 0,1.51 1.19,3.05 3.6,3.05 z"
   id="path6" /> <path
   d="M 42.18,3.25 C 42.18,2.8 41.92,2.54 41.47,2.54 H 40.12 V 0.66 h 2.28 c 1.38,0 1.96,0.58 1.96,1.96 v 18 c 0,0.48 0.26,0.71 0.71,0.71 h 1.35 v 1.89 h -2.28 c -1.38,0 -1.96,-0.58 -1.96,-1.96 z"
   id="path8" /> </g><g
     id="g14"> <path
   class="st0"
   d="m 50.97,28 c 1.41,0 2.37,-1.16 2.98,-2.63 L 54.91,23.16 49.24,9.7 C 48.98,9.12 48.7,8.96 48.12,8.96 H 47.8 V 7.07 h 1 c 1.44,0 1.89,0.32 2.47,1.77 l 4.14,10.08 c 0.32,0.8 0.58,1.73 0.58,1.73 h 0.06 c 0,0 0.22,-0.93 0.55,-1.73 L 60.58,8.84 c 0.54,-1.44 1.03,-1.77 2.5,-1.77 h 0.99 v 1.89 h -0.32 c -0.58,0 -0.9,0.16 -1.12,0.74 l -6.96,16.88 c -0.83,2.05 -2.47,3.37 -4.62,3.37 -2.25,0 -3.5,-1.57 -3.5,-1.57 l 1.03,-1.6 C 48.57,26.81 49.59,28 50.97,28 Z"
   id="path12"
   style="fill:#00a0ff;fill-opacity:1" /> </g><g
     id="g22"> <path
   d="m 67.37,9.67 c 0,-0.45 -0.26,-0.71 -0.71,-0.71 H 65.31 V 7.07 h 2.21 c 1.38,0 1.92,0.58 1.92,1.7 0,0.64 -0.03,1.09 -0.03,1.09 h 0.06 c 0,0 1.28,-3.18 5.55,-3.18 4.33,0 7.03,3.47 7.03,8.47 0,5.1 -3.05,8.44 -7.22,8.44 -3.95,0 -5.29,-3.05 -5.29,-3.05 h -0.06 c 0,0 0.06,0.58 0.06,1.41 v 7.67 H 67.36 V 9.67 Z m 7.25,12 c 2.86,0 5.2,-2.41 5.2,-6.51 0,-3.95 -2.09,-6.48 -5.1,-6.48 -2.7,0 -5.23,1.93 -5.23,6.51 0,3.24 1.76,6.48 5.13,6.48 z"
   id="path16" /> <path
   d="m 85.6,19.27 c 0,0 1.8,2.44 4.97,2.44 1.8,0 3.4,-0.87 3.4,-2.57 0,-3.53 -9.05,-2.89 -9.05,-8.09 0,-2.92 2.5,-4.36 5.74,-4.36 1.64,0 4.91,0.64 4.91,2.92 v 1.38 h -2.05 v -0.77 c 0,-1.19 -1.73,-1.64 -2.79,-1.64 -2.25,0 -3.59,0.77 -3.59,2.34 0,3.63 9.05,2.79 9.05,8.15 0,2.7 -2.44,4.52 -5.65,4.52 -4.2,0 -6.19,-2.82 -6.19,-2.82 z"
   id="path18" /> <path
   d="m 107.33,6.69 c 4.72,0 8.54,3.59 8.54,8.38 0,4.88 -3.82,8.54 -8.5,8.54 -4.72,0 -8.54,-3.66 -8.54,-8.54 -0.01,-4.79 3.81,-8.38 8.5,-8.38 z m 0.03,14.95 c 3.43,0 6.26,-2.82 6.26,-6.58 0,-3.66 -2.82,-6.39 -6.26,-6.39 -3.47,0 -6.29,2.73 -6.29,6.39 0,3.76 2.82,6.58 6.29,6.58 z"
   id="path20" /> </g><g
     id="g62"> <path
   d="m 0.67,43.52 h 0.51 c 0.17,0 0.26,-0.08 0.26,-0.26 v -7.3 h 0.75 l 4.23,5.91 c 0.28,0.41 0.67,1.09 0.67,1.09 h 0.02 c 0,0 -0.06,-0.65 -0.06,-1.09 v -5.19 c 0,-0.51 0.21,-0.72 0.72,-0.72 h 0.87 v 0.73 h -0.5 c -0.17,0 -0.26,0.08 -0.26,0.26 v 7.3 H 7.13 L 2.9,38.34 C 2.61,37.94 2.22,37.27 2.22,37.27 H 2.19 c 0,0 0.07,0.64 0.07,1.07 v 5.19 c 0,0.51 -0.21,0.72 -0.72,0.72 H 0.67 Z"
   id="path24" /> <path
   d="m 12.49,38.18 c 1.64,0 2.49,1.26 2.49,2.74 0,0.14 -0.02,0.4 -0.02,0.4 H 10.4 c 0.02,1.5 1.07,2.36 2.3,2.36 1.08,0 1.78,-0.73 1.78,-0.73 l 0.39,0.6 c 0,0 -0.86,0.85 -2.21,0.85 -1.76,0 -3.1,-1.27 -3.1,-3.1 0,-1.95 1.34,-3.12 2.93,-3.12 z m 1.66,2.5 c -0.05,-1.23 -0.8,-1.83 -1.67,-1.83 -0.98,0 -1.84,0.64 -2.04,1.83 z"
   id="path26" /> <path
   d="m 16.65,39 h -0.78 v -0.67 h 0.79 v -1.64 h 0.79 v 1.64 h 1.49 V 39 h -1.49 v 3.02 c 0,1.39 0.88,1.57 1.33,1.57 0.17,0 0.27,-0.02 0.27,-0.02 v 0.72 c 0,0 -0.14,0.02 -0.34,0.02 -0.68,0 -2.06,-0.22 -2.06,-2.21 z"
   id="path28" /> <path
   d="m 20.09,39.29 c -0.07,-0.21 -0.2,-0.27 -0.41,-0.27 h -0.15 v -0.7 h 0.41 c 0.57,0 0.75,0.11 0.93,0.66 l 1.21,3.76 c 0.09,0.28 0.18,0.64 0.18,0.64 h 0.02 c 0,0 0.09,-0.35 0.19,-0.64 l 1.45,-4.4 h 0.8 l 1.45,4.4 c 0.09,0.28 0.19,0.64 0.19,0.64 h 0.02 c 0,0 0.07,-0.34 0.17,-0.64 l 1.23,-3.76 c 0.18,-0.55 0.37,-0.66 0.93,-0.66 h 0.41 v 0.7 h -0.17 c -0.2,0 -0.34,0.06 -0.41,0.27 l -1.7,4.97 H 25.96 L 24.51,40.04 C 24.42,39.75 24.33,39.4 24.33,39.4 h -0.02 c 0,0 -0.08,0.34 -0.19,0.64 l -1.44,4.22 h -0.9 z"
   id="path30" /> <path
   d="m 32.72,38.18 c 1.73,0 3.14,1.32 3.14,3.08 0,1.79 -1.4,3.14 -3.13,3.14 -1.73,0 -3.14,-1.34 -3.14,-3.14 0.01,-1.76 1.41,-3.08 3.13,-3.08 z m 0.02,5.5 c 1.26,0 2.3,-1.04 2.3,-2.42 0,-1.34 -1.04,-2.35 -2.3,-2.35 -1.27,0 -2.31,1 -2.31,2.35 -0.01,1.38 1.03,2.42 2.31,2.42 z"
   id="path32" /> <path
   d="m 37.36,39.28 c 0,-0.17 -0.09,-0.26 -0.26,-0.26 h -0.5 v -0.7 h 0.83 c 0.5,0 0.72,0.2 0.72,0.67 v 0.4 c 0,0.25 -0.02,0.45 -0.02,0.45 h 0.02 c 0.28,-0.9 0.94,-1.58 1.88,-1.58 0.17,0 0.32,0.04 0.32,0.04 v 0.79 c 0,0 -0.14,-0.02 -0.29,-0.02 -0.84,0 -1.46,0.66 -1.72,1.53 -0.12,0.38 -0.17,0.78 -0.17,1.16 v 2.5 h -0.8 v -4.98 z"
   id="path34" /> <path
   d="m 41.47,36.92 c 0,-0.17 -0.09,-0.26 -0.26,-0.26 h -0.5 v -0.7 h 0.84 c 0.51,0 0.72,0.18 0.72,0.68 v 3.94 h 0.61 c 0.22,0 0.51,-0.07 0.67,-0.28 l 1.52,-1.98 h 0.98 l -1.71,2.17 c -0.29,0.37 -0.45,0.42 -0.45,0.42 v 0.02 c 0,0 0.18,0.08 0.37,0.44 l 1.07,1.92 c 0.11,0.2 0.22,0.26 0.54,0.26 h 0.32 v 0.7 h -0.55 c -0.59,0 -0.75,-0.09 -1.03,-0.59 L 43.43,41.54 C 43.3,41.3 43.02,41.28 42.8,41.28 h -0.54 v 2.97 h -0.8 v -7.33 z"
   id="path36" /> <path
   d="m 47.16,42.81 c 0,0 0.66,0.9 1.83,0.9 0.66,0 1.25,-0.32 1.25,-0.94 0,-1.3 -3.33,-1.06 -3.33,-2.97 0,-1.07 0.92,-1.6 2.11,-1.6 0.6,0 1.8,0.24 1.8,1.07 v 0.51 H 50.07 V 39.5 c 0,-0.44 -0.64,-0.6 -1.03,-0.6 -0.83,0 -1.32,0.28 -1.32,0.86 0,1.33 3.33,1.03 3.33,3 0,0.99 -0.9,1.66 -2.08,1.66 -1.54,0 -2.28,-1.04 -2.28,-1.04 z"
   id="path38" /> <path
   d="m 54.9,43.52 h 0.15 c 0.21,0 0.34,-0.04 0.42,-0.26 l 2.71,-7.3 h 0.88 l 2.71,7.3 c 0.08,0.22 0.2,0.26 0.42,0.26 h 0.14 v 0.73 h -0.38 c -0.59,0 -0.77,-0.12 -0.98,-0.68 l -0.72,-1.96 h -3.29 l -0.73,1.96 c -0.21,0.57 -0.38,0.68 -0.97,0.68 H 54.9 Z m 5.15,-2.63 -1.1,-2.96 c -0.14,-0.39 -0.32,-1.07 -0.32,-1.07 h -0.02 c 0,0 -0.18,0.68 -0.32,1.07 l -1.08,2.96 z"
   id="path40" /> <path
   d="m 63.31,42.81 c 0,0 0.66,0.9 1.83,0.9 0.66,0 1.25,-0.32 1.25,-0.94 0,-1.3 -3.33,-1.06 -3.33,-2.97 0,-1.07 0.92,-1.6 2.11,-1.6 0.6,0 1.8,0.24 1.8,1.07 v 0.51 H 66.22 V 39.5 c 0,-0.44 -0.64,-0.6 -1.03,-0.6 -0.83,0 -1.32,0.28 -1.32,0.86 0,1.33 3.33,1.03 3.33,3 0,0.99 -0.9,1.66 -2.08,1.66 -1.55,0 -2.28,-1.04 -2.28,-1.04 z"
   id="path42" /> <path
   d="m 68.5,42.81 c 0,0 0.66,0.9 1.83,0.9 0.66,0 1.25,-0.32 1.25,-0.94 0,-1.3 -3.33,-1.06 -3.33,-2.97 0,-1.07 0.92,-1.6 2.11,-1.6 0.6,0 1.8,0.24 1.8,1.07 v 0.51 H 71.41 V 39.5 c 0,-0.44 -0.64,-0.6 -1.03,-0.6 -0.83,0 -1.32,0.28 -1.32,0.86 0,1.33 3.33,1.03 3.33,3 0,0.99 -0.9,1.66 -2.08,1.66 -1.54,0 -2.28,-1.04 -2.28,-1.04 z"
   id="path44" /> <path
   d="m 76.49,38.18 c 1.73,0 3.14,1.32 3.14,3.08 0,1.79 -1.4,3.14 -3.13,3.14 -1.73,0 -3.14,-1.34 -3.14,-3.14 0,-1.76 1.41,-3.08 3.13,-3.08 z m 0.01,5.5 c 1.26,0 2.3,-1.04 2.3,-2.42 0,-1.34 -1.04,-2.35 -2.3,-2.35 -1.27,0 -2.31,1 -2.31,2.35 0,1.38 1.04,2.42 2.31,2.42 z"
   id="path46" /> <path
   d="m 83.7,38.18 c 0.67,0 2.11,0.28 2.11,1.26 v 0.53 h -0.75 v -0.34 c 0,-0.5 -0.86,-0.73 -1.36,-0.73 -1.27,0 -2.3,0.96 -2.3,2.39 0,1.46 1.07,2.37 2.32,2.37 1.21,0 1.91,-0.84 1.91,-0.84 l 0.38,0.6 c 0,0 -0.8,0.97 -2.32,0.97 -1.77,0 -3.11,-1.26 -3.11,-3.1 -0.01,-1.81 1.35,-3.11 3.12,-3.11 z"
   id="path48" /> <path
   d="m 87.42,39.28 c 0,-0.17 -0.09,-0.26 -0.26,-0.26 h -0.5 v -0.7 h 0.84 c 0.51,0 0.72,0.21 0.72,0.72 v 4.26 c 0,0.18 0.09,0.26 0.26,0.26 h 0.5 v 0.7 h -0.84 c -0.51,0 -0.72,-0.21 -0.72,-0.72 z m -0.03,-3.32 h 0.78 v 1.01 h -0.78 z"
   id="path50" /> <path
   d="m 93.4,40.6 h 0.33 v -0.07 c 0,-1.24 -0.45,-1.68 -1.53,-1.68 -0.29,0 -1.16,0.08 -1.16,0.52 v 0.38 h -0.77 v -0.57 c 0,-0.83 1.42,-1 1.93,-1 1.88,0 2.32,1 2.32,2.28 v 2.84 c 0,0.18 0.09,0.26 0.26,0.26 h 0.5 v 0.7 h -0.81 c -0.51,0 -0.71,-0.22 -0.71,-0.71 0,-0.26 0.01,-0.44 0.01,-0.44 h -0.02 c 0.01,0 -0.48,1.29 -1.97,1.29 -0.99,0 -2.02,-0.58 -2.02,-1.76 0.01,-1.97 2.61,-2.04 3.64,-2.04 z m -1.49,3.11 c 1.13,0 1.82,-1.18 1.82,-2.21 v -0.27 h -0.34 c -0.93,0 -2.8,0.02 -2.8,1.36 0,0.56 0.44,1.12 1.32,1.12 z"
   id="path52" /> <path
   d="m 96.63,39 h -0.78 v -0.67 h 0.79 v -1.64 h 0.79 v 1.64 h 1.49 V 39 h -1.49 v 3.02 c 0,1.39 0.88,1.57 1.33,1.57 0.17,0 0.27,-0.02 0.27,-0.02 v 0.72 c 0,0 -0.14,0.02 -0.34,0.02 -0.68,0 -2.06,-0.22 -2.06,-2.21 z"
   id="path54" /> <path
   d="m 100.57,39.28 c 0,-0.17 -0.09,-0.26 -0.26,-0.26 h -0.5 v -0.7 h 0.84 c 0.51,0 0.72,0.21 0.72,0.72 v 4.26 c 0,0.18 0.09,0.26 0.26,0.26 h 0.5 v 0.7 h -0.84 c -0.51,0 -0.72,-0.21 -0.72,-0.72 z m -0.02,-3.32 h 0.78 v 1.01 h -0.78 z"
   id="path56" /> <path
   d="m 106.05,38.18 c 1.73,0 3.14,1.32 3.14,3.08 0,1.79 -1.4,3.14 -3.13,3.14 -1.73,0 -3.14,-1.34 -3.14,-3.14 0,-1.76 1.41,-3.08 3.13,-3.08 z m 0.01,5.5 c 1.26,0 2.3,-1.04 2.3,-2.42 0,-1.34 -1.04,-2.35 -2.3,-2.35 -1.27,0 -2.31,1 -2.31,2.35 0,1.38 1.04,2.42 2.31,2.42 z"
   id="path58" /> <path
   d="m 110.69,39.28 c 0,-0.17 -0.09,-0.26 -0.26,-0.26 h -0.5 v -0.7 h 0.83 c 0.5,0 0.72,0.21 0.72,0.66 v 0.27 c 0,0.24 -0.02,0.42 -0.02,0.42 h 0.02 c 0.21,-0.54 0.97,-1.5 2.36,-1.5 1.47,0 1.99,0.84 1.99,2.3 v 2.82 c 0,0.18 0.09,0.26 0.26,0.26 h 0.5 v 0.7 h -0.84 c -0.51,0 -0.72,-0.21 -0.72,-0.72 v -2.84 c 0,-0.93 -0.14,-1.76 -1.29,-1.76 -1.01,0 -1.89,0.7 -2.16,1.67 -0.07,0.25 -0.09,0.52 -0.09,0.8 v 2.84 h -0.8 z"
   id="path60" /> </g></g> <g
   id="g8190"
   transform="matrix(0.70299321,0,0,0.70299321,9.3559018,22.922351)"
   inkscape:export-filename="C:\CNA\dev_soft\calypsonet-terminal-api-website\assets\images\g8190.png"
   inkscape:export-xdpi="106"
   inkscape:export-ydpi="106"><text
     xml:space="preserve"
     style="font-style:normal;font-variant:normal;font-weight:bold;font-stretch:normal;font-size:14.7494px;line-height:10.975px;font-family:'Courier New';-inkscape-font-specification:'Courier New, Bold';font-variant-ligatures:normal;font-variant-caps:normal;font-variant-numeric:normal;font-variant-east-asian:normal;letter-spacing:0px;word-spacing:0px;fill:#000000;fill-opacity:1;stroke:none;stroke-width:1.10621px;stroke-linecap:butt;stroke-linejoin:miter;stroke-opacity:1"
     x="-15.792993"
     y="48.274017"
     id="text1524"><tspan
       sodipodi:role="line"
       x="-15.792993"
       y="48.274017"
       style="font-style:normal;font-variant:normal;font-weight:bold;font-stretch:normal;font-size:14.7494px;font-family:'Courier New';-inkscape-font-specification:'Courier New, Bold';font-variant-ligatures:normal;font-variant-caps:normal;font-variant-numeric:normal;font-variant-east-asian:normal;stroke-width:1.10621px"
       id="tspan12437" /></text><text
     xml:space="preserve"
     style="font-style:normal;font-variant:normal;font-weight:bold;font-stretch:normal;font-size:16px;line-height:10px;font-family:'Open Sans';-inkscape-font-specification:'Open Sans, Bold';font-variant-ligatures:normal;font-variant-caps:normal;font-variant-numeric:normal;font-variant-east-asian:normal;letter-spacing:0px;word-spacing:0px;fill:#000000;fill-opacity:1;stroke:none;stroke-width:1px;stroke-linecap:butt;stroke-linejoin:miter;stroke-opacity:1"
     x="124.89288"
     y="39.222054"
     id="text1524-1"><tspan
       sodipodi:role="line"
       x="124.89288"
       y="39.222054"
       id="tspan1528-7"
       style="font-style:normal;font-variant:normal;font-weight:bold;font-stretch:normal;font-size:16px;font-family:'Open Sans';-inkscape-font-specification:'Open Sans, Bold';font-variant-ligatures:normal;font-variant-caps:normal;font-variant-numeric:normal;font-variant-east-asian:normal" /></text><g
     id="g3567"><g
       aria-label="TECHNICAL"
       id="text65104"
       style="font-weight:bold;font-size:16.906px;line-height:10.5662px;font-family:'Open Sans';-inkscape-font-specification:'Open Sans, Bold';letter-spacing:1.82079px;word-spacing:0px;opacity:1;vector-effect:none;fill:#00a0ff;stroke-width:0.313418;stop-color:#000000;stop-opacity:1"><path
         d="m 165.75359,-3.5717504 h -2.55902 v -9.9388786 h -3.27719 v -2.12976 h 9.11339 v 2.12976 h -3.27718 z"
         style="vector-effect:none;stop-color:#000000;stop-opacity:1"
         id="path2237" /><path
         d="m 179.65952,-3.5717504 h -6.95061 V -15.640389 h 6.95061 v 2.09674 h -4.39159 v 2.649817 h 4.08616 v 2.0967407 h -4.08616 v 3.1120909 h 4.39159 z"
         style="vector-effect:none;stop-color:#000000;stop-opacity:1"
         id="path2239" /><path
         d="m 189.12434,-13.683982 q -1.44461,0 -2.23708,1.089645 -0.79247,1.081389 -0.79247,3.0212867 0,4.0366378 3.02955,4.0366378 1.27125,0 3.07907,-0.635626 v 2.1462695 q -1.48588,0.6191163 -3.31847,0.6191163 -2.6333,0 -4.02838,-1.5931924 -1.39507,-1.6014473 -1.39507,-4.5897149 0,-1.882113 0.68515,-3.293698 0.68516,-1.41984 1.96466,-2.171034 1.28776,-0.75945 3.01304,-0.75945 1.75829,0 3.53309,0.850253 l -0.82549,2.080231 q -0.6769,-0.321941 -1.36206,-0.561332 -0.68515,-0.239392 -1.34554,-0.239392 z"
         style="vector-effect:none;stop-color:#000000;stop-opacity:1"
         id="path2241" /><path
         d="m 206.48082,-3.5717504 h -2.55076 v -5.2088311 h -4.77958 v 5.2088311 h -2.55901 V -15.640389 h 2.55901 v 4.730048 h 4.77958 v -4.730048 h 2.55076 z"
         style="vector-effect:none;stop-color:#000000;stop-opacity:1"
         id="path2243" /><path
         d="m 222.05424,-3.5717504 h -3.25242 l -5.25011,-9.1299006 h -0.0743 q 0.15684,2.418681 0.15684,3.4505412 v 5.6793594 h -2.2866 V -15.640389 h 3.22766 l 5.24185,9.0390966 h 0.0578 q -0.12382,-2.3526416 -0.12382,-3.3267178 v -5.7123788 h 2.30311 z"
         style="vector-effect:none;stop-color:#000000;stop-opacity:1"
         id="path2245" /><path
         d="M 226.91283,-3.5717504 V -15.640389 h 2.55901 v 12.0686386 z"
         style="vector-effect:none;stop-color:#000000;stop-opacity:1"
         id="path2247" /><path
         d="m 239.45671,-13.683982 q -1.4446,0 -2.23707,1.089645 -0.79247,1.081389 -0.79247,3.0212867 0,4.0366378 3.02954,4.0366378 1.27125,0 3.07907,-0.635626 v 2.1462695 q -1.48588,0.6191163 -3.31846,0.6191163 -2.63331,0 -4.02838,-1.5931924 -1.39508,-1.6014473 -1.39508,-4.5897149 0,-1.882113 0.68516,-3.293698 0.68515,-1.41984 1.96466,-2.171034 1.28776,-0.75945 3.01303,-0.75945 1.75829,0 3.53309,0.850253 l -0.82549,2.080231 q -0.6769,-0.321941 -1.36205,-0.561332 -0.68516,-0.239392 -1.34555,-0.239392 z"
         style="vector-effect:none;stop-color:#000000;stop-opacity:1"
         id="path2249" /><path
         d="m 254.31196,-3.5717504 -0.87501,-2.8726992 h -4.39986 l -0.87501,2.8726992 h -2.75713 l 4.25951,-12.1181676 h 3.12861 l 4.27602,12.1181676 z m -1.48587,-5.0189688 q -1.21347,-3.9045598 -1.37032,-4.4163628 -0.14858,-0.511802 -0.21462,-0.808978 -0.27241,1.056625 -1.56018,5.2253408 z"
         style="vector-effect:none;stop-color:#000000;stop-opacity:1"
         id="path2251" /><path
         d="M 260.40878,-3.5717504 V -15.640389 h 2.55902 v 9.9553886 h 4.89514 v 2.11325 z"
         style="vector-effect:none;stop-color:#000000;stop-opacity:1"
         id="path2253" /></g><g
       aria-label="RESOURCES"
       transform="translate(-17.645799,-3.2736607)"
       id="text65104-1"
       style="font-weight:bold;font-size:16.906px;line-height:10.5662px;font-family:'Open Sans';-inkscape-font-specification:'Open Sans, Bold';letter-spacing:1.65214px;word-spacing:0px;baseline-shift:baseline;opacity:1;vector-effect:none;fill:#00a0ff;stroke-width:0.313418;stop-color:#000000;stop-opacity:1"><path
         d="m 180.13634,9.8003883 h 0.82549 q 1.21346,0 1.79131,-0.4044892 0.57784,-0.4044893 0.57784,-1.271252 0,-0.8585078 -0.59435,-1.2217226 -0.5861,-0.3632149 -1.82433,-0.3632149 h -0.77596 z m 0,2.0802307 v 4.630989 h -2.55902 V 4.4429694 h 3.51658 q 2.45996,0 3.64041,0.8997822 1.18045,0.8915273 1.18045,2.7158565 0,1.0648798 -0.5861,1.898623 -0.5861,0.8254879 -1.65923,1.2960169 2.72411,4.069657 3.5496,5.25836 h -2.83968 l -2.88096,-4.630989 z"
         style="baseline-shift:baseline;vector-effect:none;stop-color:#000000;stop-opacity:1"
         id="path2274" /><path
         d="m 197.34068,16.511608 h -6.95061 V 4.4429694 h 6.95061 v 2.0967402 h -4.3916 V 9.189527 h 4.08617 v 2.09674 h -4.08617 v 3.112091 h 4.3916 z"
         style="baseline-shift:baseline;vector-effect:none;stop-color:#000000;stop-opacity:1"
         id="path2276" /><path
         d="m 208.63452,13.160126 q 0,1.634466 -1.18045,2.575523 -1.17219,0.941057 -3.26893,0.941057 -1.93164,0 -3.41752,-0.72643 V 13.57287 q 1.22172,0.544822 2.06372,0.767704 0.85025,0.222882 1.55191,0.222882 0.842,0 1.28777,-0.321941 0.45402,-0.32194 0.45402,-0.957566 0,-0.35496 -0.19812,-0.627371 -0.19812,-0.280666 -0.5861,-0.536568 -0.37972,-0.255901 -1.56017,-0.817233 -1.10616,-0.520058 -1.65923,-0.998841 -0.55308,-0.478783 -0.88328,-1.114409 -0.33019,-0.635626 -0.33019,-1.4858789 0,-1.6014473 1.08139,-2.5177393 1.08964,-0.916292 3.00478,-0.916292 0.94105,0 1.79131,0.2228819 0.8585,0.2228818 1.79131,0.627371 l -0.82549,1.9894268 q -0.96582,-0.3962344 -1.60145,-0.5530771 -0.62737,-0.1568428 -1.23823,-0.1568428 -0.72643,0 -1.11441,0.3384502 -0.38798,0.3384502 -0.38798,0.8832725 0,0.3384502 0.15684,0.5943515 0.15684,0.2476465 0.49529,0.4870381 0.34671,0.2311367 1.62622,0.8419981 1.69225,0.808978 2.31962,1.626212 0.62737,0.808978 0.62737,1.989427 z"
         style="baseline-shift:baseline;vector-effect:none;stop-color:#000000;stop-opacity:1"
         id="path2278" /><path
         d="m 223.42844,10.460779 q 0,2.996522 -1.48588,4.606225 -1.48588,1.609702 -4.25952,1.609702 -2.77364,0 -4.25952,-1.609702 -1.48588,-1.609703 -1.48588,-4.622735 0,-3.013032 1.48588,-4.5979696 1.49413,-1.5931924 4.27603,-1.5931924 2.78189,0 4.25126,1.6014473 1.47763,1.6014473 1.47763,4.6062247 z m -8.80796,0 q 0,2.022446 0.7677,3.046052 0.7677,1.023605 2.29486,1.023605 3.06256,0 3.06256,-4.069657 0,-4.0779122 -3.04605,-4.0779122 -1.52716,0 -2.30312,1.0318604 -0.77595,1.0236055 -0.77595,3.0460518 z"
         style="baseline-shift:baseline;vector-effect:none;stop-color:#000000;stop-opacity:1"
         id="path2280" /><path
         d="m 237.40511,4.4429694 v 7.8091196 q 0,1.337291 -0.6026,2.344386 -0.59435,1.007096 -1.72527,1.543663 -1.13092,0.536568 -2.67459,0.536568 -2.32787,0 -3.61563,-1.188703 -1.28777,-1.196958 -1.28777,-3.268934 V 4.4429694 h 2.55076 V 11.83109 q 0,1.395075 0.56133,2.04721 0.56134,0.652136 1.85735,0.652136 1.25475,0 1.81608,-0.652136 0.56958,-0.66039 0.56958,-2.06372 V 4.4429694 Z"
         style="baseline-shift:baseline;vector-effect:none;stop-color:#000000;stop-opacity:1"
         id="path2282" /><path
         d="m 244.57152,9.8003883 h 0.82549 q 1.21346,0 1.79131,-0.4044892 0.57784,-0.4044893 0.57784,-1.271252 0,-0.8585078 -0.59435,-1.2217226 -0.5861,-0.3632149 -1.82433,-0.3632149 h -0.77596 z m 0,2.0802307 v 4.630989 h -2.55901 V 4.4429694 h 3.51658 q 2.45995,0 3.6404,0.8997822 1.18045,0.8915273 1.18045,2.7158565 0,1.0648798 -0.5861,1.898623 -0.5861,0.8254879 -1.65923,1.2960169 2.72411,4.069657 3.5496,5.25836 h -2.83968 l -2.88096,-4.630989 z"
         style="baseline-shift:baseline;vector-effect:none;stop-color:#000000;stop-opacity:1"
         id="path2284" /><path
         d="m 259.95152,6.3993766 q -1.4446,0 -2.23707,1.0896445 -0.79247,1.0813897 -0.79247,3.0212869 0,4.036638 3.02954,4.036638 1.27126,0 3.07908,-0.635626 v 2.14627 q -1.48588,0.619116 -3.31847,0.619116 -2.63331,0 -4.02838,-1.593193 -1.39508,-1.601447 -1.39508,-4.589714 0,-1.8821138 0.68516,-3.2936988 0.68515,-1.4198398 1.96466,-2.1710342 1.28776,-0.7594492 3.01303,-0.7594492 1.75829,0 3.53309,0.8502529 l -0.82548,2.0802305 q -0.67691,-0.3219404 -1.36206,-0.561332 -0.68516,-0.2393916 -1.34555,-0.2393916 z"
         style="baseline-shift:baseline;vector-effect:none;stop-color:#000000;stop-opacity:1"
         id="path2286" /><path
         d="m 274.20062,16.511608 h -6.95061 V 4.4429694 h 6.95061 v 2.0967402 h -4.3916 V 9.189527 h 4.08617 v 2.09674 h -4.08617 v 3.112091 h 4.3916 z"
         style="baseline-shift:baseline;vector-effect:none;stop-color:#000000;stop-opacity:1"
         id="path2288" /><path
         d="m 285.49446,13.160126 q 0,1.634466 -1.18045,2.575523 -1.17219,0.941057 -3.26893,0.941057 -1.93164,0 -3.41752,-0.72643 V 13.57287 q 1.22172,0.544822 2.06372,0.767704 0.85025,0.222882 1.55192,0.222882 0.842,0 1.28776,-0.321941 0.45402,-0.32194 0.45402,-0.957566 0,-0.35496 -0.19812,-0.627371 -0.19812,-0.280666 -0.5861,-0.536568 -0.37972,-0.255901 -1.56017,-0.817233 -1.10615,-0.520058 -1.65923,-0.998841 -0.55308,-0.478783 -0.88327,-1.114409 -0.3302,-0.635626 -0.3302,-1.4858789 0,-1.6014473 1.08139,-2.5177393 1.08965,-0.916292 3.00478,-0.916292 0.94106,0 1.79131,0.2228819 0.85851,0.2228818 1.79131,0.627371 l -0.82549,1.9894268 q -0.96582,-0.3962344 -1.60145,-0.5530771 -0.62737,-0.1568428 -1.23823,-0.1568428 -0.72643,0 -1.11441,0.3384502 -0.38798,0.3384502 -0.38798,0.8832725 0,0.3384502 0.15684,0.5943515 0.15685,0.2476465 0.4953,0.4870381 0.3467,0.2311367 1.62621,0.8419981 1.69225,0.808978 2.31962,1.626212 0.62737,0.808978 0.62737,1.989427 z"
         style="baseline-shift:baseline;vector-effect:none;stop-color:#000000;stop-opacity:1"
         id="path2290" /></g><rect
       style="font-variation-settings:normal;opacity:1;vector-effect:none;fill:#00a0ff;fill-opacity:1;fill-rule:evenodd;stroke:none;stroke-width:0.313418;stroke-linecap:butt;stroke-linejoin:miter;stroke-miterlimit:4;stroke-dasharray:none;stroke-dashoffset:0;stroke-opacity:1;-inkscape-stroke:none;stop-color:#000000;stop-opacity:1"
       id="rect92030"
       width="107.94556"
       height="12.406948"
       x="159.91736"
       y="-32.606789" /><rect
       style="font-variation-settings:normal;opacity:1;vector-effect:none;fill:#00a0ff;fill-opacity:1;fill-rule:evenodd;stroke:none;stroke-width:0.313418;stroke-linecap:butt;stroke-linejoin:miter;stroke-miterlimit:4;stroke-dasharray:none;stroke-dashoffset:0;stroke-opacity:1;-inkscape-stroke:none;stop-color:#000000;stop-opacity:1"
       id="rect92030-8"
       width="107.94556"
       height="12.406948"
       x="159.91736"
       y="17.789143" /></g></g></svg>
