<?xml version="1.0" encoding="UTF-8" standalone="no"?><svg xmlns="http://www.w3.org/2000/svg" xmlns:xlink="http://www.w3.org/1999/xlink" contentScriptType="application/ecmascript" contentStyleType="text/css" height="465px" preserveAspectRatio="none" style="width:544px;height:465px;background:#FFFFFF;" version="1.1" viewBox="0 0 544 465" width="544px" zoomAndPan="magnify"><defs/><g><!--MD5=[57463d4f0d656587f620adfbe8cee83d]
cluster packCalypsonetPublic--><polygon fill="#F8F9F9" points="183.5,6,330.5,6,337.5,29.6094,524.5,29.6094,524.5,122,183.5,122,183.5,6" style="stroke:#000000;stroke-width:1.5;"/><line style="stroke:#000000;stroke-width:1.5;" x1="183.5" x2="337.5" y1="29.6094" y2="29.6094"/><text fill="#000000" font-family="sans-serif" font-size="14" font-weight="bold" lengthAdjust="spacing" textLength="141" x="187.5" y="22.5332">Terminal public APIs</text><!--MD5=[fa748c0050d71d88d66b284603ec55cc]
cluster packMain--><polygon fill="#F8F9F9" points="94.5,162,251.5,162,258.5,185.6094,527.5,185.6094,527.5,326,94.5,326,94.5,162" style="stroke:#000000;stroke-width:1.5;"/><line style="stroke:#000000;stroke-width:1.5;" x1="94.5" x2="258.5" y1="185.6094" y2="185.6094"/><text fill="#000000" font-family="sans-serif" font-size="14" font-weight="bold" lengthAdjust="spacing" textLength="151" x="98.5" y="178.5332">Certifiable framework</text><!--MD5=[29d756ef8ff9dbccebdbf9c7abb33baf]
cluster packCalypsonetPrivate--><polygon fill="#F8F9F9" points="225.5,358,375.5,358,382.5,381.6094,385.5,381.6094,385.5,458,225.5,458,225.5,358" style="stroke:#000000;stroke-width:1.5;"/><line style="stroke:#000000;stroke-width:1.5;" x1="225.5" x2="382.5" y1="381.6094" y2="381.6094"/><text fill="#000000" font-family="sans-serif" font-size="14" font-weight="bold" lengthAdjust="spacing" textLength="144" x="229.5" y="374.5332">Terminal internal API</text><!--MD5=[0fda63aba32982abbdb07b83db27d91d]
entity readerApi--><rect fill="#EBF5FB" height="47.6094" style="stroke:#3498DB;stroke-width:1.5;" width="117" x="227" y="50"/><rect fill="#EBF5FB" height="10" style="stroke:#3498DB;stroke-width:1.5;" width="15" x="324" y="55"/><rect fill="#EBF5FB" height="2" style="stroke:#3498DB;stroke-width:1.5;" width="4" x="322" y="57"/><rect fill="#EBF5FB" height="2" style="stroke:#3498DB;stroke-width:1.5;" width="4" x="322" y="61"/><text fill="#000000" font-family="sans-serif" font-size="14" font-weight="bold" lengthAdjust="spacing" textLength="77" x="242" y="84.5332">Reader API</text><!--MD5=[1ca801befaff286e049057b0f9cc4296]
entity calypsoApi--><rect fill="#EBF5FB" height="47.6094" style="stroke:#3498DB;stroke-width:1.5;" width="121" x="379" y="50"/><rect fill="#EBF5FB" height="10" style="stroke:#3498DB;stroke-width:1.5;" width="15" x="480" y="55"/><rect fill="#EBF5FB" height="2" style="stroke:#3498DB;stroke-width:1.5;" width="4" x="478" y="57"/><rect fill="#EBF5FB" height="2" style="stroke:#3498DB;stroke-width:1.5;" width="4" x="478" y="61"/><text fill="#000000" font-family="sans-serif" font-size="14" font-weight="bold" lengthAdjust="spacing" textLength="81" x="394" y="84.5332">Calypso API</text><!--MD5=[901342be69ba32ee86d18dc896cc3995]
entity cardLayer--><rect fill="#E9F7EF" height="47.6094" style="stroke:#27AE60;stroke-width:1.5;" width="166" x="313.5" y="230"/><rect fill="#E9F7EF" height="10" style="stroke:#27AE60;stroke-width:1.5;" width="15" x="459.5" y="235"/><rect fill="#E9F7EF" height="2" style="stroke:#27AE60;stroke-width:1.5;" width="4" x="457.5" y="237"/><rect fill="#E9F7EF" height="2" style="stroke:#27AE60;stroke-width:1.5;" width="4" x="457.5" y="241"/><text fill="#000000" font-family="sans-serif" font-size="14" lengthAdjust="spacing" textLength="126" x="328.5" y="264.5332">Calypso Card Layer</text><!--MD5=[f74b1a442023b6505c909249a2fe10a1]
entity readerLayer--><rect fill="#FDEDEC" height="47.6094" style="stroke:#E74C3C;stroke-width:1.5;" width="127" x="151" y="230"/><rect fill="#FDEDEC" height="10" style="stroke:#E74C3C;stroke-width:1.5;" width="15" x="258" y="235"/><rect fill="#FDEDEC" height="2" style="stroke:#E74C3C;stroke-width:1.5;" width="4" x="256" y="237"/><rect fill="#FDEDEC" height="2" style="stroke:#E74C3C;stroke-width:1.5;" width="4" x="256" y="241"/><text fill="#000000" font-family="sans-serif" font-size="14" lengthAdjust="spacing" textLength="87" x="166" y="264.5332">Reader Layer</text><!--MD5=[f74f7ef7641fa41957945dcfb119390e]
entity cardApi--><rect fill="#EBF5FB" height="47.6094" style="stroke:#3498DB;stroke-width:1.5;" width="99" x="256" y="394"/><rect fill="#EBF5FB" height="10" style="stroke:#3498DB;stroke-width:1.5;" width="15" x="335" y="399"/><rect fill="#EBF5FB" height="2" style="stroke:#3498DB;stroke-width:1.5;" width="4" x="333" y="401"/><rect fill="#EBF5FB" height="2" style="stroke:#3498DB;stroke-width:1.5;" width="4" x="333" y="405"/><text fill="#000000" font-family="sans-serif" font-size="14" font-weight="bold" lengthAdjust="spacing" textLength="59" x="271" y="428.5332">Card API</text><!--MD5=[37c33c71ce9550fe283f62c54b59719b]
entity application--><rect fill="#FEFECE" height="47.6094" style="stroke:#D4AC0D;stroke-width:1.5;" width="149" x="7" y="50"/><rect fill="#FEFECE" height="10" style="stroke:#D4AC0D;stroke-width:1.5;" width="15" x="136" y="55"/><rect fill="#FEFECE" height="2" style="stroke:#D4AC0D;stroke-width:1.5;" width="4" x="134" y="57"/><rect fill="#FEFECE" height="2" style="stroke:#D4AC0D;stroke-width:1.5;" width="4" x="134" y="61"/><text fill="#000000" font-family="sans-serif" font-size="14" lengthAdjust="spacing" textLength="109" x="22" y="84.5332">Client Application</text><!--MD5=[ff5ebf69d7e821c0dbbf77d5fe3170c5]
link application to packCalypsonetPublic--><path d="M156.266,74 C162.0465,74 167.827,74 173.6075,74 C176.4978,74 179.388,74 182.2783,74 C182.6395,74 183.0008,74 183.3621,74 C183.4073,74 183.4524,74 183.4976,74 " fill="none" id="application-to-packCalypsonetPublic" style="stroke:#D4AC0D;stroke-width:1.0;"/><polygon fill="#D4AC0D" points="183.4976,74,174.4976,70,178.4976,74,174.4976,78,183.4976,74" style="stroke:#D4AC0D;stroke-width:1.0;"/><!--MD5=[1488bd814bfce1c270d10cdde1d74a4f]
link application to packMain--><path d="M84.2454,98.27 C85.6462,110.144 87.4631,125.5446 89.4065,142.0168 C90.3781,150.253 91.3814,158.7571 92.3801,167.2222 C92.8795,171.4548 93.3777,175.6776 93.8702,179.8524 C93.9933,180.8961 94.1161,181.9367 94.2384,182.9738 C94.2996,183.4924 94.3607,184.01 94.4216,184.5267 " fill="none" id="application-to-packMain" style="stroke:#D4AC0D;stroke-width:1.0;"/><polygon fill="#D4AC0D" points="94.4216,184.5267,97.3396,175.12,93.8358,179.5611,89.3947,176.0573,94.4216,184.5267" style="stroke:#D4AC0D;stroke-width:1.0;"/><!--MD5=[a08aff7535dca6bf72dea2cf827cb92a]
reverse link readerApi to calypsoApi--><path d="M349.294,74 C359.126,74 368.958,74 378.79,74 " fill="none" id="readerApi-backto-calypsoApi" style="stroke:#3498DB;stroke-width:1.0;"/><polygon fill="#3498DB" points="344.152,74,353.152,78,349.152,74,353.152,70,344.152,74" style="stroke:#3498DB;stroke-width:1.0;"/><!--MD5=[1bcf969c5812968dbfcae3f05e881424]
link cardLayer to cardApi--><path d="M383.462,278.211 C366.974,307.563 338.619,358.042 321.028,389.3561 " fill="none" id="cardLayer-to-cardApi" style="stroke:#27AE60;stroke-width:1.0;"/><polygon fill="#27AE60" points="318.514,393.8324,326.4097,387.9454,320.9631,389.4733,319.4352,384.0267,318.514,393.8324" style="stroke:#27AE60;stroke-width:1.0;"/><!--MD5=[9b1f8b0a2b6c25635bc1fcfd47431c0d]
reverse link readerApi to cardLayer--><path d="M302.851,102.824 C324.639,137.763 361.624,197.073 381.985,229.724 " fill="none" id="readerApi-backto-cardLayer" style="stroke:#27AE60;stroke-width:1.0;"/><polygon fill="#27AE60" points="300.011,98.27,301.379,108.0234,302.6566,102.5127,308.1673,103.7904,300.011,98.27" style="stroke:#27AE60;stroke-width:1.0;"/><!--MD5=[0fdeed5ed41e149f16cbb29ed2e2518a]
reverse link calypsoApi to cardLayer--><path d="M432.675,103.253 C424.221,138.247 409.978,197.206 402.123,229.724 " fill="none" id="calypsoApi-backto-cardLayer" style="stroke:#27AE60;stroke-width:1.0;"/><polygon fill="#27AE60" points="433.879,98.27,427.8771,106.0788,432.7047,103.1301,435.6533,107.9577,433.879,98.27" style="stroke:#27AE60;stroke-width:1.0;"/><!--MD5=[f29669ca13d0c4ce7989d0227c0dcd24]
reverse link readerApi to readerLayer--><path d="M274.23,103.253 C260.272,138.247 236.755,197.206 223.784,229.724 " fill="none" id="readerApi-backto-readerLayer" style="stroke:#E74C3C;stroke-width:1.0;"/><polygon fill="#E74C3C" points="276.218,98.27,269.1678,105.1471,274.3652,102.9141,276.5983,108.1115,276.218,98.27" style="stroke:#E74C3C;stroke-width:1.0;"/><!--MD5=[ae7e5d72eec5294e0cc92bbe7dc7c995]
link readerLayer to cardApi--><path d="M227.538,278.211 C244.026,307.563 272.381,358.042 289.972,389.3561 " fill="none" id="readerLayer-to-cardApi" style="stroke:#E74C3C;stroke-width:1.0;"/><polygon fill="#E74C3C" points="292.486,393.8324,291.5648,384.0267,290.0369,389.4733,284.5903,387.9454,292.486,393.8324" style="stroke:#E74C3C;stroke-width:1.0;"/><!--MD5=[6b2338c2ddb0f0ce7a9dcffd25cc2e4d]
@startuml

' == THEME ==

'Couleurs issues de : https://htmlcolorcodes.com/fr/tableau-de-couleur/tableau-de-couleur-design-plat/
!define C_GREY1 F8F9F9
!define C_GREY2 F2F3F4
!define C_GREY3 E5E7E9
!define C_GREY4 D7DBDD
!define COLOR_YELLOW D4AC0D
!define COLOR_RED E74C3C
!define COLOR_PURPLE 8E44AD
!define COLOR_BLUE 3498DB
!define COLOR_GREEN 27AE60
!define COLOR_ORANGE E67E22
!define COLOR_GREY 2C3E50
skinparam Shadowing false
skinparam component {
    BorderColor #D4AC0D
    ' Red
    BackgroundColor<<red>> #FDEDEC
    BorderColor<<red>> #E74C3C
    ' Purple
    BackgroundColor<<purple>> #F4ECF7
    BorderColor<<purple>> #8E44AD
    ' blue
    BackgroundColor<<blue>> #EBF5FB
    BorderColor<<blue>> #3498DB
    ' Green
    BackgroundColor<<green>> #E9F7EF
    BorderColor<<green>> #27AE60
    ' Orange
    BackgroundColor<<orange>> #FDF2E9
    BorderColor<<orange>> #E67E22
    ' Grey
    BackgroundColor<<grey>> #EAECEE
    BorderColor<<grey>> #2C3E50
}
skinparam interface {
    BorderColor #D4AC0D
    ' Red
    BackgroundColor<<red>> #FDEDEC
    BorderColor<<red>> #E74C3C
    ' Purple
    BackgroundColor<<purple>> #F4ECF7
    BorderColor<<purple>> #8E44AD
    ' blue
    BackgroundColor<<blue>> #EBF5FB
    BorderColor<<blue>> #3498DB
    ' Green
    BackgroundColor<<green>> #E9F7EF
    BorderColor<<green>> #27AE60
    ' Orange
    BackgroundColor<<orange>> #FDF2E9
    BorderColor<<orange>> #E67E22
    ' Grey
    BackgroundColor<<grey>> #EAECEE
    BorderColor<<grey>> #2C3E50
}
hide <<red>> stereotype
hide <<purple>> stereotype
hide <<blue>> stereotype
hide <<green>> stereotype
hide <<orange>> stereotype
hide <<grey>> stereotype

' == COMPONENTS ==

[Client Application] as application
package "Terminal public APIs" as packCalypsonetPublic #C_GREY1 {
    [**Reader API**] as readerApi <<blue>>
    [**Calypso API**] as calypsoApi <<blue>>
}
package "Certifiable framework" as packMain #C_GREY1 {
    together {
        [Calypso Card Layer] as cardLayer <<green>>
        [Reader Layer] as readerLayer <<red>>
    }
}
package "Terminal internal API" as packCalypsonetPrivate #C_GREY1 {
    [**Card API**] as cardApi <<blue>>
}

' == ASSOCIATIONS ==

application -right-> packCalypsonetPublic #COLOR_YELLOW
application - -> packMain #COLOR_YELLOW

calypsoApi -left-> readerApi #COLOR_BLUE

cardLayer - -> cardApi #COLOR_GREEN
cardLayer -up-> readerApi #COLOR_GREEN
cardLayer -up-> calypsoApi #COLOR_GREEN

readerLayer -up-> readerApi #COLOR_RED
readerLayer - -> cardApi #COLOR_RED

' == LAYOUT ==

@enduml

@startuml


skinparam Shadowing false
skinparam component {
    BorderColor #D4AC0D
    BackgroundColor<<red>> #FDEDEC
    BorderColor<<red>> #E74C3C
    BackgroundColor<<purple>> #F4ECF7
    BorderColor<<purple>> #8E44AD
    BackgroundColor<<blue>> #EBF5FB
    BorderColor<<blue>> #3498DB
    BackgroundColor<<green>> #E9F7EF
    BorderColor<<green>> #27AE60
    BackgroundColor<<orange>> #FDF2E9
    BorderColor<<orange>> #E67E22
    BackgroundColor<<grey>> #EAECEE
    BorderColor<<grey>> #2C3E50
}
skinparam interface {
    BorderColor #D4AC0D
    BackgroundColor<<red>> #FDEDEC
    BorderColor<<red>> #E74C3C
    BackgroundColor<<purple>> #F4ECF7
    BorderColor<<purple>> #8E44AD
    BackgroundColor<<blue>> #EBF5FB
    BorderColor<<blue>> #3498DB
    BackgroundColor<<green>> #E9F7EF
    BorderColor<<green>> #27AE60
    BackgroundColor<<orange>> #FDF2E9
    BorderColor<<orange>> #E67E22
    BackgroundColor<<grey>> #EAECEE
    BorderColor<<grey>> #2C3E50
}
hide <<red>> stereotype
hide <<purple>> stereotype
hide <<blue>> stereotype
hide <<green>> stereotype
hide <<orange>> stereotype
hide <<grey>> stereotype


[Client Application] as application
package "Terminal public APIs" as packCalypsonetPublic #F8F9F9 {
    [**Reader API**] as readerApi <<blue>>
    [**Calypso API**] as calypsoApi <<blue>>
}
package "Certifiable framework" as packMain #F8F9F9 {
    together {
        [Calypso Card Layer] as cardLayer <<green>>
        [Reader Layer] as readerLayer <<red>>
    }
}
package "Terminal internal API" as packCalypsonetPrivate #F8F9F9 {
    [**Card API**] as cardApi <<blue>>
}


application -right-> packCalypsonetPublic #D4AC0D
application - -> packMain #D4AC0D

calypsoApi -left-> readerApi #3498DB

cardLayer - -> cardApi #27AE60
cardLayer -up-> readerApi #27AE60
cardLayer -up-> calypsoApi #27AE60

readerLayer -up-> readerApi #E74C3C
readerLayer - -> cardApi #E74C3C


@enduml

PlantUML version 1.2021.11(Sat Oct 02 15:26:11 CEST 2021)
(GPL source distribution)
Java Runtime: OpenJDK Runtime Environment
JVM: OpenJDK 64-Bit Server VM
Default Encoding: Cp1252
Language: fr
Country: FR
--></g></svg>