<?xml version="1.0" encoding="UTF-8" standalone="no"?><svg xmlns="http://www.w3.org/2000/svg" xmlns:xlink="http://www.w3.org/1999/xlink" contentStyleType="text/css" height="968px" preserveAspectRatio="none" style="width:1096px;height:968px;background:#FFFFFF;" version="1.1" viewBox="0 0 1096 968" width="1096px" zoomAndPan="magnify"><defs/><g><rect fill="#FFD700" height="782.7305" style="stroke:#181818;stroke-width:1.0;" width="10" x="68" y="93.6211"/><rect fill="#FFC0CB" height="14" style="stroke:#181818;stroke-width:1.0;" width="10" x="341" y="284.9492"/><rect fill="#FFC0CB" height="537.1113" style="stroke:#181818;stroke-width:1.0;" width="10" x="341" y="330.2402"/><rect fill="#ADD8E6" height="156.4551" style="stroke:#181818;stroke-width:1.0;" width="10" x="493" y="593.1504"/><rect fill="#ADD8E6" height="782.7305" style="stroke:#181818;stroke-width:1.0;" width="10" x="673" y="93.6211"/><rect fill="#90EE90" height="93.873" style="stroke:#181818;stroke-width:1.0;" width="10" x="761.5" y="433.4043"/><rect fill="#90EE90" height="782.7305" style="stroke:#181818;stroke-width:1.0;" width="10" x="1060.5" y="93.6211"/><line style="stroke:#181818;stroke-width:0.5;stroke-dasharray:5.0,5.0;" x1="73" x2="73" y1="83.6211" y2="885.3516"/><line style="stroke:#181818;stroke-width:0.5;stroke-dasharray:5.0,5.0;" x1="346" x2="346" y1="83.6211" y2="885.3516"/><line style="stroke:#181818;stroke-width:0.5;stroke-dasharray:5.0,5.0;" x1="498" x2="498" y1="83.6211" y2="885.3516"/><line style="stroke:#181818;stroke-width:0.5;stroke-dasharray:5.0,5.0;" x1="677.5" x2="677.5" y1="83.6211" y2="885.3516"/><line style="stroke:#181818;stroke-width:0.5;stroke-dasharray:5.0,5.0;" x1="766.5" x2="766.5" y1="83.6211" y2="885.3516"/><line style="stroke:#181818;stroke-width:0.5;stroke-dasharray:5.0,5.0;" x1="1065" x2="1065" y1="83.6211" y2="885.3516"/><text fill="#000000" font-family="sans-serif" font-size="14" lengthAdjust="spacing" textLength="130" x="5" y="80.1074">Ticketing Application</text><ellipse cx="73" cy="13.5" fill="#FFD700" rx="8" ry="8" style="stroke:#181818;stroke-width:0.5;"/><path d="M73,21.5 L73,48.5 M60,29.5 L86,29.5 M73,48.5 L60,63.5 M73,48.5 L86,63.5 " fill="none" style="stroke:#181818;stroke-width:0.5;"/><text fill="#000000" font-family="sans-serif" font-size="14" lengthAdjust="spacing" textLength="130" x="5" y="899.459">Ticketing Application</text><ellipse cx="73" cy="911.4727" fill="#FFD700" rx="8" ry="8" style="stroke:#181818;stroke-width:0.5;"/><path d="M73,919.4727 L73,946.4727 M60,927.4727 L86,927.4727 M73,946.4727 L60,961.4727 M73,946.4727 L86,961.4727 " fill="none" style="stroke:#181818;stroke-width:0.5;"/><rect fill="#FFC0CB" height="32.6211" rx="2.5" ry="2.5" style="stroke:#181818;stroke-width:0.5;" width="90" x="301" y="50"/><text fill="#000000" font-family="sans-serif" font-size="14" lengthAdjust="spacing" textLength="76" x="308" y="72.1074">Calypso API</text><rect fill="#FFC0CB" height="32.6211" rx="2.5" ry="2.5" style="stroke:#181818;stroke-width:0.5;" width="90" x="301" y="884.3516"/><text fill="#000000" font-family="sans-serif" font-size="14" lengthAdjust="spacing" textLength="76" x="308" y="906.459">Calypso API</text><rect fill="#ADD8E6" height="51.2422" rx="2.5" ry="2.5" style="stroke:#181818;stroke-width:0.5;" width="100" x="448" y="31.3789"/><text fill="#000000" font-family="sans-serif" font-size="14" lengthAdjust="spacing" textLength="86" x="455" y="53.4863">Calypso Card</text><text fill="#000000" font-family="sans-serif" font-size="14" lengthAdjust="spacing" textLength="47" x="474.5" y="72.1074">Reader</text><rect fill="#ADD8E6" height="51.2422" rx="2.5" ry="2.5" style="stroke:#181818;stroke-width:0.5;" width="100" x="448" y="884.3516"/><text fill="#000000" font-family="sans-serif" font-size="14" lengthAdjust="spacing" textLength="86" x="455" y="906.459">Calypso Card</text><text fill="#000000" font-family="sans-serif" font-size="14" lengthAdjust="spacing" textLength="47" x="474.5" y="925.0801">Reader</text><text fill="#000000" font-family="sans-serif" font-size="14" lengthAdjust="spacing" textLength="53" x="648.5" y="61.4863">selected</text><text fill="#000000" font-family="sans-serif" font-size="14" font-weight="bold" lengthAdjust="spacing" textLength="33" x="658.5" y="80.1074">Card</text><path d="M657.5,18.3789 L657.5,42.3789 M657.5,30.3789 L674.5,30.3789 " fill="none" style="stroke:#181818;stroke-width:0.5;"/><ellipse cx="686.5" cy="30.3789" fill="#ADD8E6" rx="12" ry="12" style="stroke:#181818;stroke-width:0.5;"/><text fill="#000000" font-family="sans-serif" font-size="14" lengthAdjust="spacing" textLength="53" x="648.5" y="899.459">selected</text><text fill="#000000" font-family="sans-serif" font-size="14" font-weight="bold" lengthAdjust="spacing" textLength="33" x="658.5" y="918.0801">Card</text><path d="M657.5,925.5938 L657.5,949.5938 M657.5,937.5938 L674.5,937.5938 " fill="none" style="stroke:#181818;stroke-width:0.5;"/><ellipse cx="686.5" cy="937.5938" fill="#ADD8E6" rx="12" ry="12" style="stroke:#181818;stroke-width:0.5;"/><rect fill="#90EE90" height="51.2422" rx="2.5" ry="2.5" style="stroke:#181818;stroke-width:0.5;" width="98" x="717.5" y="31.3789"/><text fill="#000000" font-family="sans-serif" font-size="14" lengthAdjust="spacing" textLength="84" x="724.5" y="53.4863">Calypso SAM</text><text fill="#000000" font-family="sans-serif" font-size="14" lengthAdjust="spacing" textLength="47" x="743" y="72.1074">Reader</text><rect fill="#90EE90" height="51.2422" rx="2.5" ry="2.5" style="stroke:#181818;stroke-width:0.5;" width="98" x="717.5" y="884.3516"/><text fill="#000000" font-family="sans-serif" font-size="14" lengthAdjust="spacing" textLength="84" x="724.5" y="906.459">Calypso SAM</text><text fill="#000000" font-family="sans-serif" font-size="14" lengthAdjust="spacing" textLength="47" x="743" y="925.0801">Reader</text><text fill="#000000" font-family="sans-serif" font-size="14" lengthAdjust="spacing" textLength="53" x="1036" y="61.4863">selected</text><text fill="#000000" font-family="sans-serif" font-size="14" font-weight="bold" lengthAdjust="spacing" textLength="31" x="1047" y="80.1074">SAM</text><path d="M1045,18.3789 L1045,42.3789 M1045,30.3789 L1062,30.3789 " fill="none" style="stroke:#181818;stroke-width:0.5;"/><ellipse cx="1074" cy="30.3789" fill="#90EE90" rx="12" ry="12" style="stroke:#181818;stroke-width:0.5;"/><text fill="#000000" font-family="sans-serif" font-size="14" lengthAdjust="spacing" textLength="53" x="1036" y="899.459">selected</text><text fill="#000000" font-family="sans-serif" font-size="14" font-weight="bold" lengthAdjust="spacing" textLength="31" x="1047" y="918.0801">SAM</text><path d="M1045,925.5938 L1045,949.5938 M1045,937.5938 L1062,937.5938 " fill="none" style="stroke:#181818;stroke-width:0.5;"/><ellipse cx="1074" cy="937.5938" fill="#90EE90" rx="12" ry="12" style="stroke:#181818;stroke-width:0.5;"/><rect fill="#FFD700" height="782.7305" style="stroke:#181818;stroke-width:1.0;" width="10" x="68" y="93.6211"/><rect fill="#FFC0CB" height="14" style="stroke:#181818;stroke-width:1.0;" width="10" x="341" y="284.9492"/><rect fill="#FFC0CB" height="537.1113" style="stroke:#181818;stroke-width:1.0;" width="10" x="341" y="330.2402"/><rect fill="#ADD8E6" height="156.4551" style="stroke:#181818;stroke-width:1.0;" width="10" x="493" y="593.1504"/><rect fill="#ADD8E6" height="782.7305" style="stroke:#181818;stroke-width:1.0;" width="10" x="673" y="93.6211"/><rect fill="#90EE90" height="93.873" style="stroke:#181818;stroke-width:1.0;" width="10" x="761.5" y="433.4043"/><rect fill="#90EE90" height="782.7305" style="stroke:#181818;stroke-width:1.0;" width="10" x="1060.5" y="93.6211"/><line style="stroke:#181818;stroke-width:1.0;" x1="78" x2="120" y1="151.4941" y2="151.4941"/><line style="stroke:#181818;stroke-width:1.0;" x1="120" x2="120" y1="151.4941" y2="164.4941"/><line style="stroke:#181818;stroke-width:1.0;" x1="79" x2="120" y1="164.4941" y2="164.4941"/><polygon fill="#181818" points="89,160.4941,79,164.4941,89,168.4941,85,164.4941" style="stroke:#181818;stroke-width:1.0;"/><text fill="#000000" font-family="sans-serif" font-size="13" font-weight="bold" lengthAdjust="spacing" textLength="66" x="85" y="111.6494">instantiate</text><text fill="#000000" font-family="sans-serif" font-size="13" lengthAdjust="spacing" textLength="148" x="155" y="111.6494">Calypso card transaction:</text><text fill="#000000" font-family="sans-serif" font-size="13" lengthAdjust="spacing" textLength="138" x="117" y="128.9404">- Calypso card resource</text><text fill="#000000" font-family="sans-serif" font-size="13" lengthAdjust="spacing" textLength="142" x="117" y="146.2314">- Calypso SAM resource</text><path d="M140,177.4941 L140,204.4941 L551,204.4941 L551,187.4941 L541,177.4941 L140,177.4941 " fill="#FEFFDD" style="stroke:#181818;stroke-width:0.5;"/><path d="M541,177.4941 L541,187.4941 L551,187.4941 L541,177.4941 " fill="#FEFFDD" style="stroke:#181818;stroke-width:0.5;"/><text fill="#000000" font-family="sans-serif" font-size="13" lengthAdjust="spacing" textLength="390" x="146" y="196.5225">Checks a signature of previously read data when selecting the card.</text><polygon fill="#181818" points="329,280.9492,339,284.9492,329,288.9492,333,284.9492" style="stroke:#181818;stroke-width:1.0;"/><line style="stroke:#181818;stroke-width:1.0;" x1="78" x2="335" y1="284.9492" y2="284.9492"/><text fill="#FF0000" font-family="sans-serif" font-size="13" font-weight="bold" lengthAdjust="spacing" textLength="50" x="85" y="227.8135">prepare</text><text fill="#000000" font-family="sans-serif" font-size="13" lengthAdjust="spacing" textLength="97" x="139" y="227.8135">card transaction:</text><text fill="#000000" font-family="sans-serif" font-size="13" lengthAdjust="spacing" textLength="126" x="117" y="245.1045">- read environment file</text><text fill="#000000" font-family="sans-serif" font-size="13" lengthAdjust="spacing" textLength="4" x="117" y="262.3955">-</text><text fill="#000000" font-family="sans-serif" font-size="13" font-weight="bold" lengthAdjust="spacing" textLength="35" x="125" y="262.3955">verify</text><text fill="#000000" font-family="sans-serif" font-size="13" lengthAdjust="spacing" textLength="98" x="164" y="262.3955">environment data</text><text fill="#000000" font-family="sans-serif" font-size="13" font-weight="bold" lengthAdjust="spacing" textLength="59" x="266" y="262.3955">signature</text><text fill="#000000" font-family="sans-serif" font-size="13" lengthAdjust="spacing" textLength="102" x="117" y="279.6865">- read contract #1</text><polygon fill="#181818" points="89,294.9492,79,298.9492,89,302.9492,85,298.9492" style="stroke:#181818;stroke-width:1.0;"/><line style="stroke:#181818;stroke-width:1.0;stroke-dasharray:2.0,2.0;" x1="83" x2="345" y1="298.9492" y2="298.9492"/><polygon fill="#181818" points="329,326.2402,339,330.2402,329,334.2402,333,330.2402" style="stroke:#181818;stroke-width:1.0;"/><line style="stroke:#181818;stroke-width:1.0;" x1="78" x2="335" y1="330.2402" y2="330.2402"/><text fill="#FF0000" font-family="sans-serif" font-size="13" font-weight="bold" lengthAdjust="spacing" textLength="48" x="85" y="324.9775">process</text><text fill="#000000" font-family="sans-serif" font-size="13" lengthAdjust="spacing" textLength="185" x="137" y="324.9775">commands (keep channel open)</text><path d="M598,343.2402 L598,370.2402 L935,370.2402 L935,353.2402 L925,343.2402 L598,343.2402 " fill="#FEFFDD" style="stroke:#181818;stroke-width:0.5;"/><path d="M925,343.2402 L925,353.2402 L935,353.2402 L925,343.2402 " fill="#FEFFDD" style="stroke:#181818;stroke-width:0.5;"/><text fill="#000000" font-family="sans-serif" font-size="13" lengthAdjust="spacing" textLength="316" x="604" y="362.2686">Data secure processing with the SAM is operated first.</text><polygon fill="#00FF00" points="749.5,429.4043,759.5,433.4043,749.5,437.4043,753.5,433.4043" style="stroke:#00FF00;stroke-width:1.0;"/><line style="stroke:#00FF00;stroke-width:1.0;" x1="351" x2="755.5" y1="433.4043" y2="433.4043"/><text fill="#008000" font-family="sans-serif" font-size="13" font-weight="bold" lengthAdjust="spacing" textLength="47" x="358" y="393.5596">SAM #1</text><text fill="#000000" font-family="sans-serif" font-size="13" lengthAdjust="spacing" textLength="123" x="358" y="410.8506">transmit card request</text><text fill="#000000" font-family="sans-serif" font-size="13" lengthAdjust="spacing" textLength="65" x="390" y="428.1416">- APDU list</text><polygon fill="#181818" points="1048.5,460.6953,1058.5,464.6953,1048.5,468.6953,1052.5,464.6953" style="stroke:#181818;stroke-width:1.0;"/><line style="stroke:#181818;stroke-width:1.0;" x1="771.5" x2="1054.5" y1="464.6953" y2="464.6953"/><text fill="#000000" font-family="sans-serif" font-size="13" font-weight="bold" lengthAdjust="spacing" textLength="98" x="778.5" y="459.4326">verify signature</text><text fill="#000000" font-family="sans-serif" font-size="13" lengthAdjust="spacing" textLength="163" x="880.5" y="459.4326">(environment data signature)</text><polygon fill="#181818" points="782.5,491.9863,772.5,495.9863,782.5,499.9863,778.5,495.9863" style="stroke:#181818;stroke-width:1.0;"/><line style="stroke:#181818;stroke-width:1.0;stroke-dasharray:2.0,2.0;" x1="776.5" x2="1059.5" y1="495.9863" y2="495.9863"/><text fill="#000000" font-family="sans-serif" font-size="13" lengthAdjust="spacing" textLength="93" x="788.5" y="490.7236">signature status</text><polygon fill="#00FF00" points="362,523.2773,352,527.2773,362,531.2773,358,527.2773" style="stroke:#00FF00;stroke-width:1.0;"/><line style="stroke:#00FF00;stroke-width:1.0;stroke-dasharray:2.0,2.0;" x1="356" x2="765.5" y1="527.2773" y2="527.2773"/><text fill="#000000" font-family="sans-serif" font-size="13" lengthAdjust="spacing" textLength="163" x="368" y="522.0146">[environment data signature]</text><polygon fill="#0000FF" points="481,589.1504,491,593.1504,481,597.1504,485,593.1504" style="stroke:#0000FF;stroke-width:1.0;"/><line style="stroke:#0000FF;stroke-width:1.0;" x1="351" x2="487" y1="593.1504" y2="593.1504"/><text fill="#0000FF" font-family="sans-serif" font-size="13" font-weight="bold" lengthAdjust="spacing" textLength="48" x="358" y="553.3057">Card #2</text><text fill="#000000" font-family="sans-serif" font-size="13" lengthAdjust="spacing" textLength="123" x="358" y="570.5967">transmit card request</text><text fill="#000000" font-family="sans-serif" font-size="13" lengthAdjust="spacing" textLength="65" x="390" y="587.8877">- APDU list</text><polygon fill="#181818" points="661,620.4414,671,624.4414,661,628.4414,665,624.4414" style="stroke:#181818;stroke-width:1.0;"/><line style="stroke:#181818;stroke-width:1.0;" x1="503" x2="667" y1="624.4414" y2="624.4414"/><text fill="#000000" font-family="sans-serif" font-size="13" lengthAdjust="spacing" textLength="146" x="510" y="619.1787">read record (environment)</text><polygon fill="#181818" points="514,651.7324,504,655.7324,514,659.7324,510,655.7324" style="stroke:#181818;stroke-width:1.0;"/><line style="stroke:#181818;stroke-width:1.0;stroke-dasharray:2.0,2.0;" x1="508" x2="672" y1="655.7324" y2="655.7324"/><text fill="#000000" font-family="sans-serif" font-size="13" lengthAdjust="spacing" textLength="106" x="520" y="650.4697">[environment data]</text><polygon fill="#181818" points="661,683.0234,671,687.0234,661,691.0234,665,687.0234" style="stroke:#181818;stroke-width:1.0;"/><line style="stroke:#181818;stroke-width:1.0;" x1="503" x2="667" y1="687.0234" y2="687.0234"/><text fill="#000000" font-family="sans-serif" font-size="13" lengthAdjust="spacing" textLength="142" x="510" y="681.7607">read record (contract #1)</text><polygon fill="#181818" points="514,714.3145,504,718.3145,514,722.3145,510,718.3145" style="stroke:#181818;stroke-width:1.0;"/><line style="stroke:#181818;stroke-width:1.0;stroke-dasharray:2.0,2.0;" x1="508" x2="672" y1="718.3145" y2="718.3145"/><text fill="#000000" font-family="sans-serif" font-size="13" lengthAdjust="spacing" textLength="102" x="520" y="713.0518">[contract #1 data]</text><polygon fill="#0000FF" points="362,745.6055,352,749.6055,362,753.6055,358,749.6055" style="stroke:#0000FF;stroke-width:1.0;"/><line style="stroke:#0000FF;stroke-width:1.0;stroke-dasharray:2.0,2.0;" x1="356" x2="497" y1="749.6055" y2="749.6055"/><text fill="#000000" font-family="sans-serif" font-size="13" lengthAdjust="spacing" textLength="92" x="368" y="744.3428">[card challenge]</text><polygon fill="#181818" points="89,863.3516,79,867.3516,89,871.3516,85,867.3516" style="stroke:#181818;stroke-width:1.0;"/><line style="stroke:#181818;stroke-width:1.0;stroke-dasharray:2.0,2.0;" x1="83" x2="345" y1="867.3516" y2="867.3516"/><text fill="#000000" font-family="sans-serif" font-size="13" lengthAdjust="spacing" textLength="123" x="95" y="775.6338">[Calypso card image:</text><text fill="#000000" font-family="sans-serif" font-size="13" lengthAdjust="spacing" textLength="109" x="127" y="792.9248">- identification data</text><text fill="#000000" font-family="sans-serif" font-size="13" lengthAdjust="spacing" textLength="164" x="127" y="810.2158">- environment data (updated)</text><text fill="#000000" font-family="sans-serif" font-size="13" lengthAdjust="spacing" textLength="106" x="127" y="827.5068">- contract #1 data]</text><text fill="#000000" font-family="sans-serif" font-size="13" lengthAdjust="spacing" textLength="145" x="95" y="844.7979">[Data secure processing:</text><text fill="#000000" font-family="sans-serif" font-size="13" lengthAdjust="spacing" textLength="207" x="127" y="862.0889">- environment data signature status]</text><!--SRC=[bLLDSo8t4BtFhr2PW-sf8W6Cmvfog1hc8xM7L5oxoSbmqCu8K358YYHmyU_JqdmWmHWsFhXiwNM_VgzRFVTgIvd04kzGN6AbvbmMHCQyv1Bric4y7cJ1DKWoZk91ua2K9f9mVHGaye3HIn8dMIVmgmUSZwD9-jm9ZFsCIJASZpg1gGTCvozFFlK65_o3iZLQuLAHmBdwhh4crnL6kQO7gezTgE0UVIF5XMCutwubtxF2ebzV9IbcC_0tIPCqlk9lYqmdu_Wf3ZQq8AWvFCa5rhUz52MvIImip7AFqpYRNEK-WR-aut6KDFJjkLV1Zt9_cz-0h9vvzfpDhx8tqAVnovTatd3Nfnxp7v8GTfDwRL2MEygYR7YLkyMEqZYU31lovjXX1_g_96RhszAvXLLjpqRfozK2Jk3qjqaw6ZKLjET-2U30yMSCE5RwqpXDR-ctq57yb3uF7Fd7CsgSQvZ-kxzflYNQFAX8Y9BcM5FExX1M20k1UcjU5W5mQPfJWPb6Tp4kZq9n5BrzjR0S2ufwWh9jDox6ibYmRmH3ZNM0BAf_KQ-awusUc_7xOUHYUKHtYfGarmI2mj04Xs4RvWPqadsF_lIu5DvvLDMyTND1R4q5KHxUU4KFi5qSJzgZyxhQYyiiGlHdy6kAmf0ofQ5o2i0mH4tvDfU6GL4c2sVJ1LleldyjYU9xcHF_2eflRuA0SU3d1v1jkXCW-8at9Dz2Kv6YQuRrNW9WXOGa1yhtgZn2D2vGWJL67nl2KEMCcGkzgKJ-4X1M89Ewbc9oJz7hYaC7SZDzlvlj5eQG59e3kbv_DNUppsHPHi8EL7As8v1aHSjQLXX2yNHr16zSW2ql35i9OUXaoe5B0W7g3Ttkm7JMusd-xjiE10Nn43S5yPmevGZYknrcXK8FMq84oZUOCL8YBWXxxEPsMjBEfErBOYGfafk6r3p6z0-gDzPvqrYgJ6e9EGlmI2hjjiAgUkyD1bas62ndRNPVIBN_x923Fw3aJEI2sVxig6wcxDyzKRgoDtfB_a4bLTeRxew7rPxsJHtJjet8wHXwkEXeU_jeClJxheZJkCA3qNiLE2IjwgPrxv-dNhezFxNWP9z9jPoTbfFld_ruLVi8Tcix2V_NjkxT5zoRRI_iggoYsW63FM4sk39ZmPcTc5EElYrtMes_93by1pnt7rjyl-yfk_1f-JEPdGVsUMO7L6U-XrarFhUvFRjjswnty8hAai0tSka_poOkS1umn7XBaUxmcjHh1Vo2nRggFsMsYEhYOZWUzg8mZ-gnkhyeVS7Ukv_dz9E4vyEwl5mqdLDuXleF]--></g></svg>