<svg xmlns="http://www.w3.org/2000/svg" xmlns:xlink="http://www.w3.org/1999/xlink" contentStyleType="text/css" height="904px" preserveAspectRatio="none" style="width:1193px;height:904px;background:#FFFFFF;" version="1.1" viewBox="0 0 1193 904" width="1193px" zoomAndPan="magnify"><defs/><g><rect fill="#FFD700" height="723.3164" style="stroke:#181818;stroke-width:1.0;" width="10" x="75.0166" y="91.4883"/><rect fill="#FFC0CB" height="14" style="stroke:#181818;stroke-width:1.0;" width="10" x="374.4629" y="266.9727"/><rect fill="#FFC0CB" height="495.5215" style="stroke:#181818;stroke-width:1.0;" width="10" x="374.4629" y="310.2832"/><rect fill="#ADD8E6" height="146.5527" style="stroke:#181818;stroke-width:1.0;" width="10" x="539.3853" y="553.3887"/><rect fill="#ADD8E6" height="723.3164" style="stroke:#181818;stroke-width:1.0;" width="10" x="738.1768" y="91.4883"/><rect fill="#90EE90" height="87.9316" style="stroke:#181818;stroke-width:1.0;" width="10" x="829.585" y="405.5254"/><rect fill="#90EE90" height="723.3164" style="stroke:#181818;stroke-width:1.0;" width="10" x="1156.8784" y="91.4883"/><line style="stroke:#181818;stroke-width:0.5;stroke-dasharray:5.0,5.0;" x1="80" x2="80" y1="81.4883" y2="823.8047"/><line style="stroke:#181818;stroke-width:0.5;stroke-dasharray:5.0,5.0;" x1="378.5537" x2="378.5537" y1="81.4883" y2="823.8047"/><line style="stroke:#181818;stroke-width:0.5;stroke-dasharray:5.0,5.0;" x1="543.5278" x2="543.5278" y1="81.4883" y2="823.8047"/><line style="stroke:#181818;stroke-width:0.5;stroke-dasharray:5.0,5.0;" x1="742.2759" x2="742.2759" y1="81.4883" y2="823.8047"/><line style="stroke:#181818;stroke-width:0.5;stroke-dasharray:5.0,5.0;" x1="834.0776" x2="834.0776" y1="81.4883" y2="823.8047"/><line style="stroke:#181818;stroke-width:0.5;stroke-dasharray:5.0,5.0;" x1="1160.9775" x2="1160.9775" y1="81.4883" y2="823.8047"/><text fill="#000000" font-family="sans-serif" font-size="14" lengthAdjust="spacing" textLength="144.0332" x="5" y="78.5352">Ticketing Application</text><ellipse cx="80.0166" cy="13.5" fill="#FFD700" rx="8" ry="8" style="stroke:#181818;stroke-width:0.5;"/><path d="M80.0166,21.5 L80.0166,48.5 M67.0166,29.5 L93.0166,29.5 M80.0166,48.5 L67.0166,63.5 M80.0166,48.5 L93.0166,63.5 " fill="none" style="stroke:#181818;stroke-width:0.5;"/><text fill="#000000" font-family="sans-serif" font-size="14" lengthAdjust="spacing" textLength="144.0332" x="5" y="836.3398">Ticketing Application</text><ellipse cx="80.0166" cy="847.793" fill="#FFD700" rx="8" ry="8" style="stroke:#181818;stroke-width:0.5;"/><path d="M80.0166,855.793 L80.0166,882.793 M67.0166,863.793 L93.0166,863.793 M80.0166,882.793 L67.0166,897.793 M80.0166,882.793 L93.0166,897.793 " fill="none" style="stroke:#181818;stroke-width:0.5;"/><rect fill="#FFC0CB" height="46.9766" rx="2.5" ry="2.5" style="stroke:#181818;stroke-width:0.5;" width="71.8184" x="343.5537" y="33.5117"/><text fill="#000000" font-family="sans-serif" font-size="14" lengthAdjust="spacing" textLength="53.3271" x="352.7993" y="54.0469">Calypso</text><text fill="#000000" font-family="sans-serif" font-size="14" lengthAdjust="spacing" textLength="57.8184" x="350.5537" y="70.5352">Card API</text><rect fill="#FFC0CB" height="46.9766" rx="2.5" ry="2.5" style="stroke:#181818;stroke-width:0.5;" width="71.8184" x="343.5537" y="822.8047"/><text fill="#000000" font-family="sans-serif" font-size="14" lengthAdjust="spacing" textLength="53.3271" x="352.7993" y="843.3398">Calypso</text><text fill="#000000" font-family="sans-serif" font-size="14" lengthAdjust="spacing" textLength="57.8184" x="350.5537" y="859.8281">Card API</text><rect fill="#ADD8E6" height="46.9766" rx="2.5" ry="2.5" style="stroke:#181818;stroke-width:0.5;" width="103.7148" x="492.5278" y="33.5117"/><text fill="#000000" font-family="sans-serif" font-size="14" lengthAdjust="spacing" textLength="89.7148" x="499.5278" y="54.0469">Calypso Card</text><text fill="#000000" font-family="sans-serif" font-size="14" lengthAdjust="spacing" textLength="46.7236" x="521.0234" y="70.5352">Reader</text><rect fill="#ADD8E6" height="46.9766" rx="2.5" ry="2.5" style="stroke:#181818;stroke-width:0.5;" width="103.7148" x="492.5278" y="822.8047"/><text fill="#000000" font-family="sans-serif" font-size="14" lengthAdjust="spacing" textLength="89.7148" x="499.5278" y="843.3398">Calypso Card</text><text fill="#000000" font-family="sans-serif" font-size="14" lengthAdjust="spacing" textLength="46.7236" x="521.0234" y="859.8281">Reader</text><text fill="#000000" font-family="sans-serif" font-size="14" lengthAdjust="spacing" textLength="55.8018" x="712.2759" y="62.0469">selected</text><text fill="#000000" font-family="sans-serif" font-size="14" font-weight="bold" lengthAdjust="spacing" textLength="33.8447" x="723.2544" y="78.5352">Card</text><path d="M722.6768,20.5117 L722.6768,44.5117 M722.6768,32.5117 L739.6768,32.5117 " fill="none" style="stroke:#181818;stroke-width:0.5;"/><ellipse cx="751.6768" cy="32.5117" fill="#ADD8E6" rx="12" ry="12" style="stroke:#181818;stroke-width:0.5;"/><text fill="#000000" font-family="sans-serif" font-size="14" lengthAdjust="spacing" textLength="55.8018" x="712.2759" y="836.3398">selected</text><text fill="#000000" font-family="sans-serif" font-size="14" font-weight="bold" lengthAdjust="spacing" textLength="33.8447" x="723.2544" y="852.8281">Card</text><path d="M722.6768,859.7813 L722.6768,883.7813 M722.6768,871.7813 L739.6768,871.7813 " fill="none" style="stroke:#181818;stroke-width:0.5;"/><ellipse cx="751.6768" cy="871.7813" fill="#ADD8E6" rx="12" ry="12" style="stroke:#181818;stroke-width:0.5;"/><rect fill="#90EE90" height="46.9766" rx="2.5" ry="2.5" style="stroke:#181818;stroke-width:0.5;" width="101.0146" x="784.0776" y="33.5117"/><text fill="#000000" font-family="sans-serif" font-size="14" lengthAdjust="spacing" textLength="87.0146" x="791.0776" y="54.0469">Calypso SAM</text><text fill="#000000" font-family="sans-serif" font-size="14" lengthAdjust="spacing" textLength="46.7236" x="811.2231" y="70.5352">Reader</text><rect fill="#90EE90" height="46.9766" rx="2.5" ry="2.5" style="stroke:#181818;stroke-width:0.5;" width="101.0146" x="784.0776" y="822.8047"/><text fill="#000000" font-family="sans-serif" font-size="14" lengthAdjust="spacing" textLength="87.0146" x="791.0776" y="843.3398">Calypso SAM</text><text fill="#000000" font-family="sans-serif" font-size="14" lengthAdjust="spacing" textLength="46.7236" x="811.2231" y="859.8281">Reader</text><text fill="#000000" font-family="sans-serif" font-size="14" lengthAdjust="spacing" textLength="55.8018" x="1130.9775" y="62.0469">selected</text><text fill="#000000" font-family="sans-serif" font-size="14" font-weight="bold" lengthAdjust="spacing" textLength="31.0146" x="1143.3711" y="78.5352">SAM</text><path d="M1141.3784,20.5117 L1141.3784,44.5117 M1141.3784,32.5117 L1158.3784,32.5117 " fill="none" style="stroke:#181818;stroke-width:0.5;"/><ellipse cx="1170.3784" cy="32.5117" fill="#90EE90" rx="12" ry="12" style="stroke:#181818;stroke-width:0.5;"/><text fill="#000000" font-family="sans-serif" font-size="14" lengthAdjust="spacing" textLength="55.8018" x="1130.9775" y="836.3398">selected</text><text fill="#000000" font-family="sans-serif" font-size="14" font-weight="bold" lengthAdjust="spacing" textLength="31.0146" x="1143.3711" y="852.8281">SAM</text><path d="M1141.3784,859.7813 L1141.3784,883.7813 M1141.3784,871.7813 L1158.3784,871.7813 " fill="none" style="stroke:#181818;stroke-width:0.5;"/><ellipse cx="1170.3784" cy="871.7813" fill="#90EE90" rx="12" ry="12" style="stroke:#181818;stroke-width:0.5;"/><rect fill="#FFD700" height="723.3164" style="stroke:#181818;stroke-width:1.0;" width="10" x="75.0166" y="91.4883"/><rect fill="#FFC0CB" height="14" style="stroke:#181818;stroke-width:1.0;" width="10" x="374.4629" y="266.9727"/><rect fill="#FFC0CB" height="495.5215" style="stroke:#181818;stroke-width:1.0;" width="10" x="374.4629" y="310.2832"/><rect fill="#ADD8E6" height="146.5527" style="stroke:#181818;stroke-width:1.0;" width="10" x="539.3853" y="553.3887"/><rect fill="#ADD8E6" height="723.3164" style="stroke:#181818;stroke-width:1.0;" width="10" x="738.1768" y="91.4883"/><rect fill="#90EE90" height="87.9316" style="stroke:#181818;stroke-width:1.0;" width="10" x="829.585" y="405.5254"/><rect fill="#90EE90" height="723.3164" style="stroke:#181818;stroke-width:1.0;" width="10" x="1156.8784" y="91.4883"/><line style="stroke:#181818;stroke-width:1.0;" x1="85.0166" x2="127.0166" y1="143.4199" y2="143.4199"/><line style="stroke:#181818;stroke-width:1.0;" x1="127.0166" x2="127.0166" y1="143.4199" y2="156.4199"/><line style="stroke:#181818;stroke-width:1.0;" x1="86.0166" x2="127.0166" y1="156.4199" y2="156.4199"/><polygon fill="#181818" points="96.0166,152.4199,86.0166,156.4199,96.0166,160.4199,92.0166,156.4199" style="stroke:#181818;stroke-width:1.0;"/><text fill="#000000" font-family="sans-serif" font-size="13" font-weight="bold" lengthAdjust="spacing" textLength="71.5889" x="92.0166" y="108.0566">instantiate</text><text fill="#000000" font-family="sans-serif" font-size="13" lengthAdjust="spacing" textLength="159.7642" x="167.7188" y="108.0566">Calypso card transaction:</text><text fill="#000000" font-family="sans-serif" font-size="13" lengthAdjust="spacing" textLength="151.1821" x="124.9229" y="123.3672">- Calypso card resource</text><text fill="#000000" font-family="sans-serif" font-size="13" lengthAdjust="spacing" textLength="151.0107" x="124.9229" y="138.6777">- Calypso SAM resource</text><path d="M155,169.4199 L155,194.4199 L602,194.4199 L602,179.4199 L592,169.4199 L155,169.4199 " fill="#FEFFDD" style="stroke:#181818;stroke-width:0.5;"/><path d="M592,169.4199 L592,179.4199 L602,179.4199 L592,169.4199 " fill="#FEFFDD" style="stroke:#181818;stroke-width:0.5;"/><text fill="#000000" font-family="sans-serif" font-size="13" lengthAdjust="spacing" textLength="426.626" x="161" y="186.9883">Checks a signature of previously read data when selecting the card.</text><polygon fill="#181818" points="362.4629,262.9727,372.4629,266.9727,362.4629,270.9727,366.4629,266.9727" style="stroke:#181818;stroke-width:1.0;"/><line style="stroke:#181818;stroke-width:1.0;" x1="85.0166" x2="368.4629" y1="266.9727" y2="266.9727"/><text fill="#FF0000" font-family="sans-serif" font-size="13" font-weight="bold" lengthAdjust="spacing" textLength="51.9238" x="92.0166" y="216.2988">prepare</text><text fill="#000000" font-family="sans-serif" font-size="13" lengthAdjust="spacing" textLength="106.1328" x="148.0537" y="216.2988">card transaction:</text><text fill="#000000" font-family="sans-serif" font-size="13" lengthAdjust="spacing" textLength="146.8022" x="124.9229" y="231.6094">- read environment file</text><text fill="#000000" font-family="sans-serif" font-size="13" lengthAdjust="spacing" textLength="7.522" x="124.9229" y="246.9199">-</text><text fill="#000000" font-family="sans-serif" font-size="13" font-weight="bold" lengthAdjust="spacing" textLength="38.4351" x="136.5581" y="246.9199">verify</text><text fill="#000000" font-family="sans-serif" font-size="13" lengthAdjust="spacing" textLength="110.9951" x="179.1064" y="246.9199">environment data</text><text fill="#000000" font-family="sans-serif" font-size="13" font-weight="bold" lengthAdjust="spacing" textLength="63.667" x="294.2148" y="246.9199">signature</text><text fill="#000000" font-family="sans-serif" font-size="13" lengthAdjust="spacing" textLength="115.8193" x="124.9229" y="262.2305">- read contract #1</text><polygon fill="#181818" points="96.0166,276.9727,86.0166,280.9727,96.0166,284.9727,92.0166,280.9727" style="stroke:#181818;stroke-width:1.0;"/><line style="stroke:#181818;stroke-width:1.0;stroke-dasharray:2.0,2.0;" x1="90.0166" x2="378.4629" y1="280.9727" y2="280.9727"/><polygon fill="#181818" points="362.4629,306.2832,372.4629,310.2832,362.4629,314.2832,366.4629,310.2832" style="stroke:#181818;stroke-width:1.0;"/><line style="stroke:#181818;stroke-width:1.0;" x1="85.0166" x2="368.4629" y1="310.2832" y2="310.2832"/><text fill="#FF0000" font-family="sans-serif" font-size="13" font-weight="bold" lengthAdjust="spacing" textLength="52.0635" x="92.0166" y="305.541">process</text><text fill="#000000" font-family="sans-serif" font-size="13" lengthAdjust="spacing" textLength="200.5542" x="148.1934" y="305.541">commands (keep channel open)</text><path d="M653,323.2832 L653,348.2832 L1015,348.2832 L1015,333.2832 L1005,323.2832 L653,323.2832 " fill="#FEFFDD" style="stroke:#181818;stroke-width:0.5;"/><path d="M1005,323.2832 L1005,333.2832 L1015,333.2832 L1005,323.2832 " fill="#FEFFDD" style="stroke:#181818;stroke-width:0.5;"/><text fill="#000000" font-family="sans-serif" font-size="13" lengthAdjust="spacing" textLength="341.6816" x="659" y="340.8516">Data secure processing with the SAM is operated first.</text><polygon fill="#00FF00" points="817.585,401.5254,827.585,405.5254,817.585,409.5254,821.585,405.5254" style="stroke:#00FF00;stroke-width:1.0;"/><line style="stroke:#00FF00;stroke-width:1.0;" x1="384.4629" x2="823.585" y1="405.5254" y2="405.5254"/><text fill="#008000" font-family="sans-serif" font-size="13" font-weight="bold" lengthAdjust="spacing" textLength="50.2354" x="391.4629" y="370.1621">SAM #1</text><text fill="#000000" font-family="sans-serif" font-size="13" lengthAdjust="spacing" textLength="135.9224" x="391.4629" y="385.4727">transmit card request</text><text fill="#000000" font-family="sans-serif" font-size="13" lengthAdjust="spacing" textLength="69.6528" x="424.3691" y="400.7832">- APDU list</text><polygon fill="#181818" points="1144.8784,430.8359,1154.8784,434.8359,1144.8784,438.8359,1148.8784,434.8359" style="stroke:#181818;stroke-width:1.0;"/><line style="stroke:#181818;stroke-width:1.0;" x1="839.585" x2="1150.8784" y1="434.8359" y2="434.8359"/><text fill="#000000" font-family="sans-serif" font-size="13" font-weight="bold" lengthAdjust="spacing" textLength="106.3867" x="846.585" y="430.0938">verify signature</text><text fill="#000000" font-family="sans-serif" font-size="13" lengthAdjust="spacing" textLength="182.7935" x="957.085" y="430.0938">(environment data signature)</text><polygon fill="#181818" points="850.585,460.1465,840.585,464.1465,850.585,468.1465,846.585,464.1465" style="stroke:#181818;stroke-width:1.0;"/><line style="stroke:#181818;stroke-width:1.0;stroke-dasharray:2.0,2.0;" x1="844.585" x2="1155.8784" y1="464.1465" y2="464.1465"/><text fill="#000000" font-family="sans-serif" font-size="13" lengthAdjust="spacing" textLength="101.5688" x="856.585" y="459.4043">signature status</text><polygon fill="#00FF00" points="395.4629,489.457,385.4629,493.457,395.4629,497.457,391.4629,493.457" style="stroke:#00FF00;stroke-width:1.0;"/><line style="stroke:#00FF00;stroke-width:1.0;stroke-dasharray:2.0,2.0;" x1="389.4629" x2="833.585" y1="493.457" y2="493.457"/><text fill="#000000" font-family="sans-serif" font-size="13" lengthAdjust="spacing" textLength="182.7935" x="401.4629" y="488.7148">[environment data signature]</text><polygon fill="#0000FF" points="527.3853,549.3887,537.3853,553.3887,527.3853,557.3887,531.3853,553.3887" style="stroke:#0000FF;stroke-width:1.0;"/><line style="stroke:#0000FF;stroke-width:1.0;" x1="384.4629" x2="533.3853" y1="553.3887" y2="553.3887"/><text fill="#0000FF" font-family="sans-serif" font-size="13" font-weight="bold" lengthAdjust="spacing" textLength="52.8633" x="391.4629" y="518.0254">Card #2</text><text fill="#000000" font-family="sans-serif" font-size="13" lengthAdjust="spacing" textLength="135.9224" x="391.4629" y="533.3359">transmit card request</text><text fill="#000000" font-family="sans-serif" font-size="13" lengthAdjust="spacing" textLength="69.6528" x="424.3691" y="548.6465">- APDU list</text><polygon fill="#181818" points="726.1768,578.6992,736.1768,582.6992,726.1768,586.6992,730.1768,582.6992" style="stroke:#181818;stroke-width:1.0;"/><line style="stroke:#181818;stroke-width:1.0;" x1="549.3853" x2="732.1768" y1="582.6992" y2="582.6992"/><text fill="#000000" font-family="sans-serif" font-size="13" lengthAdjust="spacing" textLength="164.7915" x="556.3853" y="577.957">read record (environment)</text><polygon fill="#181818" points="560.3853,608.0098,550.3853,612.0098,560.3853,616.0098,556.3853,612.0098" style="stroke:#181818;stroke-width:1.0;"/><line style="stroke:#181818;stroke-width:1.0;stroke-dasharray:2.0,2.0;" x1="554.3853" x2="737.1768" y1="612.0098" y2="612.0098"/><text fill="#000000" font-family="sans-serif" font-size="13" lengthAdjust="spacing" textLength="119.4502" x="566.3853" y="607.2676">[environment data]</text><polygon fill="#181818" points="726.1768,637.3203,736.1768,641.3203,726.1768,645.3203,730.1768,641.3203" style="stroke:#181818;stroke-width:1.0;"/><line style="stroke:#181818;stroke-width:1.0;" x1="549.3853" x2="732.1768" y1="641.3203" y2="641.3203"/><text fill="#000000" font-family="sans-serif" font-size="13" lengthAdjust="spacing" textLength="157.46" x="556.3853" y="636.5781">read record (contract #1)</text><polygon fill="#181818" points="560.3853,666.6309,550.3853,670.6309,560.3853,674.6309,556.3853,670.6309" style="stroke:#181818;stroke-width:1.0;"/><line style="stroke:#181818;stroke-width:1.0;stroke-dasharray:2.0,2.0;" x1="554.3853" x2="737.1768" y1="670.6309" y2="670.6309"/><text fill="#000000" font-family="sans-serif" font-size="13" lengthAdjust="spacing" textLength="112.1187" x="566.3853" y="665.8887">[contract #1 data]</text><polygon fill="#0000FF" points="395.4629,695.9414,385.4629,699.9414,395.4629,703.9414,391.4629,699.9414" style="stroke:#0000FF;stroke-width:1.0;"/><line style="stroke:#0000FF;stroke-width:1.0;stroke-dasharray:2.0,2.0;" x1="389.4629" x2="543.3853" y1="699.9414" y2="699.9414"/><text fill="#000000" font-family="sans-serif" font-size="13" lengthAdjust="spacing" textLength="99.9883" x="401.4629" y="695.1992">[card challenge]</text><polygon fill="#181818" points="96.0166,801.8047,86.0166,805.8047,96.0166,809.8047,92.0166,805.8047" style="stroke:#181818;stroke-width:1.0;"/><line style="stroke:#181818;stroke-width:1.0;stroke-dasharray:2.0,2.0;" x1="90.0166" x2="378.4629" y1="805.8047" y2="805.8047"/><text fill="#000000" font-family="sans-serif" font-size="13" lengthAdjust="spacing" textLength="131.8472" x="102.0166" y="724.5098">[Calypso card image:</text><text fill="#000000" font-family="sans-serif" font-size="13" lengthAdjust="spacing" textLength="126.0708" x="134.9229" y="739.8203">- identification data</text><text fill="#000000" font-family="sans-serif" font-size="13" lengthAdjust="spacing" textLength="187.0972" x="134.9229" y="755.1309">- environment data (updated)</text><text fill="#000000" font-family="sans-serif" font-size="13" lengthAdjust="spacing" textLength="119.5264" x="134.9229" y="770.4414">- contract #1 data]</text><text fill="#000000" font-family="sans-serif" font-size="13" lengthAdjust="spacing" textLength="155.2573" x="102.0166" y="785.752">[Data secure processing:</text><text fill="#000000" font-family="sans-serif" font-size="13" lengthAdjust="spacing" textLength="232.54" x="134.9229" y="801.0625">- environment data signature status]</text><!--SRC=[bLLDSo8t4BtFhr2PW-sf8W6Cmvfog1hc8xM7L5oxoSbmqCu8K358YYHmyU_JqdmWmHWsFhXiwNM_VgzRFVTgIvd04kzGN6AbvbmMHCQyv1Bric4y7cJ1DKWoZk91ua2K9f9mVHGaye3HIn8dMIVmgmUSZwD9-jm9ZFsCIJASZpg1gGTCvozFFlK65_o3iZLQuLAHmBdwhh4crnL6kQO7gezTgE0UVIF5XMCutwubtxF2ebzV9IbcC_0tIPCqlk9lYqmdu_Wf3ZQq8AWvFCa5rhUz52MvIImip7AFqpYRNEK-WR-aut6KDFJjkLV1Zt9_cz-0h9vvzfpDhx8tqAVnovTatd3Nfnxp7v8GTfDwRL2MEygYR7YLkyMEqZYU31lovjXX1_g_96RhszAvXLLjpqRfozK2Jk3qjqaw6ZKLjET-2U30yMSCE5RwqpXDR-ctq57yb3uF7Fd7CsgSQvZ-kxzflYNQFAX8Y9BcM5FExX1M20k1UcjU5W5mQPfJWPb6Tp4kZqBn1OknB53qzjM2SomewWdAjfrePC0BzerWgBGEa4NrB-gLTBtHSpE4FuneB8_eJf6Iv9f0K1YQu31imzo0JhBlqPyUby8xZwgQkcukYAsf8Ch36yVe0NQCuqnxT5vNUt6PHOZ-37vDKHXIfZHKJW4OXgWft-RIC2xAPE5ikc0BtVUl9L5yBtFYNq7nxKqGC0xy_02oJNS213_nXkHRQ2rITCsmtai0h92Gv43vNfL7YCO5Ah36w6D36AgSCTEXDvN8NmB22cHIrr9CxYbwNN7eG6vcy7Upuy8Gaa9pGDVhh-PkzfaioqZOWKhETWIIh6XPomf3A9wkZk2D2x3bXM4h8GoTJ3bmII10lQ7R7PZEUZpDtttRWQ0W7kAc89uJfHn1VBV3h53eOKk8GFa6CqPAn0LXZztSJalQcRHzIOmaHNBJa9h7cFv1zSOwRnfBbKaj8MS17acbtLPOLU-zmI3B1eFbhCtk2wcse1roy0UKd8bSCDkV7TNDbFsx9qfNzaPloJ-ef4fxmztniDhJlgbZshOHEHr33nSTRMyVJOP-tnLn6bTuC7gl0eUaLTsqxltpr4ktvwSMdEmpgPQpqtBo_REVi6eVmOPj9-7_sjQz-u9xi_C5glSgHBK31dl2x75bne8pEp6d77rRxhGQVqbo-1fuxZws-7xVKtRXq_9dCZiFxFFC3gZEV0-pQdnkStjssxPPx-0LbIM1B-NIVvvDNE0yO8ZnbYBTuJMfrmhu1OjrLN_GR17LnSLmFEn5OHxLOtL_KVg2lNS_p-ad2S-7TNcvQ3gdy0pr7m00]--></g></svg>