<?xml version="1.0" encoding="UTF-8" standalone="no"?><svg xmlns="http://www.w3.org/2000/svg" xmlns:xlink="http://www.w3.org/1999/xlink" contentStyleType="text/css" height="2587px" preserveAspectRatio="none" style="width:1423px;height:2587px;background:#FFFFFF;" version="1.1" viewBox="0 0 1423 2587" width="1423px" zoomAndPan="magnify"><defs/><g><rect fill="#FFD700" height="2402.0273" style="stroke:#181818;stroke-width:1.0;" width="10" x="68" y="93.6211"/><rect fill="#FFC0CB" height="51.291" style="stroke:#181818;stroke-width:1.0;" width="10" x="374" y="196.7852"/><rect fill="#FFC0CB" height="100.4551" style="stroke:#181818;stroke-width:1.0;" width="10" x="374" y="671.1504"/><rect fill="#FFC0CB" height="14" style="stroke:#181818;stroke-width:1.0;" width="10" x="374" y="944.3516"/><rect fill="#FFC0CB" height="687.5664" style="stroke:#181818;stroke-width:1.0;" width="10" x="374" y="989.6426"/><rect fill="#FFC0CB" height="14" style="stroke:#181818;stroke-width:1.0;" width="10" x="374" y="1708.5"/><rect fill="#FFC0CB" height="732.8574" style="stroke:#181818;stroke-width:1.0;" width="10" x="374" y="1753.791"/><rect fill="#FFC0CB" height="360.4922" style="stroke:#181818;stroke-width:1.0;" width="10" x="472" y="279.3672"/><rect fill="#ADD8E6" height="246.0371" style="stroke:#181818;stroke-width:1.0;" width="10" x="659" y="362.5313"/><rect fill="#ADD8E6" height="93.873" style="stroke:#181818;stroke-width:1.0;" width="10" x="659" y="1055.5156"/><rect fill="#ADD8E6" height="93.873" style="stroke:#181818;stroke-width:1.0;" width="10" x="659" y="1482.8809"/><rect fill="#ADD8E6" height="93.873" style="stroke:#181818;stroke-width:1.0;" width="10" x="659" y="1819.6641"/><rect fill="#ADD8E6" height="139.1641" style="stroke:#181818;stroke-width:1.0;" width="10" x="659" y="2247.0293"/><rect fill="#ADD8E6" height="1961.0801" style="stroke:#181818;stroke-width:1.0;" width="10" x="868" y="393.8223"/><rect fill="#90EE90" height="201.7461" style="stroke:#181818;stroke-width:1.0;" width="10" x="951.5" y="1215.2617"/><rect fill="#90EE90" height="201.7461" style="stroke:#181818;stroke-width:1.0;" width="10" x="951.5" y="1979.4102"/><rect fill="#90EE90" height="2402.0273" style="stroke:#181818;stroke-width:1.0;" width="10" x="1376.5" y="93.6211"/><line style="stroke:#181818;stroke-width:0.5;stroke-dasharray:5.0,5.0;" x1="73" x2="73" y1="83.6211" y2="2504.6484"/><line style="stroke:#181818;stroke-width:0.5;stroke-dasharray:5.0,5.0;" x1="379" x2="379" y1="83.6211" y2="2504.6484"/><line style="stroke:#181818;stroke-width:0.5;stroke-dasharray:5.0,5.0;" x1="477" x2="477" y1="83.6211" y2="2504.6484"/><line style="stroke:#181818;stroke-width:0.5;stroke-dasharray:5.0,5.0;" x1="664" x2="664" y1="83.6211" y2="2504.6484"/><line style="stroke:#181818;stroke-width:0.5;stroke-dasharray:5.0,5.0;" x1="872.5" x2="872.5" y1="83.6211" y2="2504.6484"/><line style="stroke:#181818;stroke-width:0.5;stroke-dasharray:5.0,5.0;" x1="956.5" x2="956.5" y1="83.6211" y2="2504.6484"/><line style="stroke:#181818;stroke-width:0.5;stroke-dasharray:5.0,5.0;" x1="1381" x2="1381" y1="83.6211" y2="2504.6484"/><text fill="#000000" font-family="sans-serif" font-size="14" lengthAdjust="spacing" textLength="130" x="5" y="80.1074">Ticketing Application</text><ellipse cx="73" cy="13.5" fill="#FFD700" rx="8" ry="8" style="stroke:#181818;stroke-width:0.5;"/><path d="M73,21.5 L73,48.5 M60,29.5 L86,29.5 M73,48.5 L60,63.5 M73,48.5 L86,63.5 " fill="none" style="stroke:#181818;stroke-width:0.5;"/><text fill="#000000" font-family="sans-serif" font-size="14" lengthAdjust="spacing" textLength="130" x="5" y="2518.7559">Ticketing Application</text><ellipse cx="73" cy="2530.7695" fill="#FFD700" rx="8" ry="8" style="stroke:#181818;stroke-width:0.5;"/><path d="M73,2538.7695 L73,2565.7695 M60,2546.7695 L86,2546.7695 M73,2565.7695 L60,2580.7695 M73,2565.7695 L86,2580.7695 " fill="none" style="stroke:#181818;stroke-width:0.5;"/><rect fill="#FFC0CB" height="32.6211" rx="2.5" ry="2.5" style="stroke:#181818;stroke-width:0.5;" width="90" x="334" y="50"/><text fill="#000000" font-family="sans-serif" font-size="14" lengthAdjust="spacing" textLength="76" x="341" y="72.1074">Calypso API</text><rect fill="#FFC0CB" height="32.6211" rx="2.5" ry="2.5" style="stroke:#181818;stroke-width:0.5;" width="90" x="334" y="2503.6484"/><text fill="#000000" font-family="sans-serif" font-size="14" lengthAdjust="spacing" textLength="76" x="341" y="2525.7559">Calypso API</text><rect fill="#FFC0CB" height="32.6211" rx="2.5" ry="2.5" style="stroke:#181818;stroke-width:0.5;" width="86" x="434" y="50"/><text fill="#000000" font-family="sans-serif" font-size="14" lengthAdjust="spacing" textLength="72" x="441" y="72.1074">Reader API</text><rect fill="#FFC0CB" height="32.6211" rx="2.5" ry="2.5" style="stroke:#181818;stroke-width:0.5;" width="86" x="434" y="2503.6484"/><text fill="#000000" font-family="sans-serif" font-size="14" lengthAdjust="spacing" textLength="72" x="441" y="2525.7559">Reader API</text><rect fill="#ADD8E6" height="51.2422" rx="2.5" ry="2.5" style="stroke:#181818;stroke-width:0.5;" width="100" x="614" y="31.3789"/><text fill="#000000" font-family="sans-serif" font-size="14" lengthAdjust="spacing" textLength="86" x="621" y="53.4863">Calypso Card</text><text fill="#000000" font-family="sans-serif" font-size="14" lengthAdjust="spacing" textLength="47" x="640.5" y="72.1074">Reader</text><rect fill="#ADD8E6" height="51.2422" rx="2.5" ry="2.5" style="stroke:#181818;stroke-width:0.5;" width="100" x="614" y="2503.6484"/><text fill="#000000" font-family="sans-serif" font-size="14" lengthAdjust="spacing" textLength="86" x="621" y="2525.7559">Calypso Card</text><text fill="#000000" font-family="sans-serif" font-size="14" lengthAdjust="spacing" textLength="47" x="640.5" y="2544.377">Reader</text><text fill="#000000" font-family="sans-serif" font-size="14" font-weight="bold" lengthAdjust="spacing" textLength="33" x="853.5" y="80.1074">Card</text><path d="M852.5,37 L852.5,61 M852.5,49 L869.5,49 " fill="none" style="stroke:#181818;stroke-width:0.5;"/><ellipse cx="881.5" cy="49" fill="#ADD8E6" rx="12" ry="12" style="stroke:#181818;stroke-width:0.5;"/><text fill="#000000" font-family="sans-serif" font-size="14" font-weight="bold" lengthAdjust="spacing" textLength="33" x="853.5" y="2518.7559">Card</text><path d="M852.5,2526.2695 L852.5,2550.2695 M852.5,2538.2695 L869.5,2538.2695 " fill="none" style="stroke:#181818;stroke-width:0.5;"/><ellipse cx="881.5" cy="2538.2695" fill="#ADD8E6" rx="12" ry="12" style="stroke:#181818;stroke-width:0.5;"/><rect fill="#90EE90" height="51.2422" rx="2.5" ry="2.5" style="stroke:#181818;stroke-width:0.5;" width="98" x="907.5" y="31.3789"/><text fill="#000000" font-family="sans-serif" font-size="14" lengthAdjust="spacing" textLength="84" x="914.5" y="53.4863">Calypso SAM</text><text fill="#000000" font-family="sans-serif" font-size="14" lengthAdjust="spacing" textLength="47" x="933" y="72.1074">Reader</text><rect fill="#90EE90" height="51.2422" rx="2.5" ry="2.5" style="stroke:#181818;stroke-width:0.5;" width="98" x="907.5" y="2503.6484"/><text fill="#000000" font-family="sans-serif" font-size="14" lengthAdjust="spacing" textLength="84" x="914.5" y="2525.7559">Calypso SAM</text><text fill="#000000" font-family="sans-serif" font-size="14" lengthAdjust="spacing" textLength="47" x="933" y="2544.377">Reader</text><text fill="#000000" font-family="sans-serif" font-size="14" lengthAdjust="spacing" textLength="53" x="1352" y="61.4863">selected</text><text fill="#000000" font-family="sans-serif" font-size="14" font-weight="bold" lengthAdjust="spacing" textLength="31" x="1363" y="80.1074">SAM</text><path d="M1361,18.3789 L1361,42.3789 M1361,30.3789 L1378,30.3789 " fill="none" style="stroke:#181818;stroke-width:0.5;"/><ellipse cx="1390" cy="30.3789" fill="#90EE90" rx="12" ry="12" style="stroke:#181818;stroke-width:0.5;"/><text fill="#000000" font-family="sans-serif" font-size="14" lengthAdjust="spacing" textLength="53" x="1352" y="2518.7559">selected</text><text fill="#000000" font-family="sans-serif" font-size="14" font-weight="bold" lengthAdjust="spacing" textLength="31" x="1363" y="2537.377">SAM</text><path d="M1361,2544.8906 L1361,2568.8906 M1361,2556.8906 L1378,2556.8906 " fill="none" style="stroke:#181818;stroke-width:0.5;"/><ellipse cx="1390" cy="2556.8906" fill="#90EE90" rx="12" ry="12" style="stroke:#181818;stroke-width:0.5;"/><rect fill="#FFD700" height="2402.0273" style="stroke:#181818;stroke-width:1.0;" width="10" x="68" y="93.6211"/><rect fill="#FFC0CB" height="51.291" style="stroke:#181818;stroke-width:1.0;" width="10" x="374" y="196.7852"/><rect fill="#FFC0CB" height="100.4551" style="stroke:#181818;stroke-width:1.0;" width="10" x="374" y="671.1504"/><rect fill="#FFC0CB" height="14" style="stroke:#181818;stroke-width:1.0;" width="10" x="374" y="944.3516"/><rect fill="#FFC0CB" height="687.5664" style="stroke:#181818;stroke-width:1.0;" width="10" x="374" y="989.6426"/><rect fill="#FFC0CB" height="14" style="stroke:#181818;stroke-width:1.0;" width="10" x="374" y="1708.5"/><rect fill="#FFC0CB" height="732.8574" style="stroke:#181818;stroke-width:1.0;" width="10" x="374" y="1753.791"/><rect fill="#FFC0CB" height="360.4922" style="stroke:#181818;stroke-width:1.0;" width="10" x="472" y="279.3672"/><rect fill="#ADD8E6" height="246.0371" style="stroke:#181818;stroke-width:1.0;" width="10" x="659" y="362.5313"/><rect fill="#ADD8E6" height="93.873" style="stroke:#181818;stroke-width:1.0;" width="10" x="659" y="1055.5156"/><rect fill="#ADD8E6" height="93.873" style="stroke:#181818;stroke-width:1.0;" width="10" x="659" y="1482.8809"/><rect fill="#ADD8E6" height="93.873" style="stroke:#181818;stroke-width:1.0;" width="10" x="659" y="1819.6641"/><rect fill="#ADD8E6" height="139.1641" style="stroke:#181818;stroke-width:1.0;" width="10" x="659" y="2247.0293"/><rect fill="#ADD8E6" height="1961.0801" style="stroke:#181818;stroke-width:1.0;" width="10" x="868" y="393.8223"/><rect fill="#90EE90" height="201.7461" style="stroke:#181818;stroke-width:1.0;" width="10" x="951.5" y="1215.2617"/><rect fill="#90EE90" height="201.7461" style="stroke:#181818;stroke-width:1.0;" width="10" x="951.5" y="1979.4102"/><rect fill="#90EE90" height="2402.0273" style="stroke:#181818;stroke-width:1.0;" width="10" x="1376.5" y="93.6211"/><rect fill="#EEEEEE" height="3" style="stroke:#EEEEEE;stroke-width:1.0;" width="1416" x="0" y="115.2666"/><line style="stroke:#000000;stroke-width:1.0;" x1="0" x2="1416" y1="115.2666" y2="115.2666"/><line style="stroke:#000000;stroke-width:1.0;" x1="0" x2="1416" y1="118.2666" y2="118.2666"/><rect fill="#EEEEEE" height="25.291" style="stroke:#000000;stroke-width:2.0;" width="209" x="603.5" y="103.6211"/><text fill="#000000" font-family="sans-serif" font-size="13" font-weight="bold" lengthAdjust="spacing" textLength="191" x="609.5" y="121.6494">Card selection &amp; identification</text><polygon fill="#181818" points="362,192.7852,372,196.7852,362,200.7852,366,196.7852" style="stroke:#181818;stroke-width:1.0;"/><line style="stroke:#181818;stroke-width:1.0;" x1="78" x2="368" y1="196.7852" y2="196.7852"/><text fill="#FF0000" font-family="sans-serif" font-size="13" font-weight="bold" lengthAdjust="spacing" textLength="50" x="85" y="156.9404">prepare</text><text fill="#000000" font-family="sans-serif" font-size="13" lengthAdjust="spacing" textLength="138" x="139" y="156.9404">card selection scenario:</text><text fill="#000000" font-family="sans-serif" font-size="13" lengthAdjust="spacing" textLength="123" x="117" y="174.2314">- filter by specific AID</text><text fill="#000000" font-family="sans-serif" font-size="13" lengthAdjust="spacing" textLength="135" x="117" y="191.5225">- Select File current DF</text><path d="M190,209.7852 L190,236.7852 L568,236.7852 L568,219.7852 L558,209.7852 L190,209.7852 " fill="#FEFFDD" style="stroke:#181818;stroke-width:0.5;"/><path d="M558,209.7852 L558,219.7852 L568,219.7852 L558,209.7852 " fill="#FEFFDD" style="stroke:#181818;stroke-width:0.5;"/><text fill="#000000" font-family="sans-serif" font-size="13" lengthAdjust="spacing" textLength="357" x="196" y="228.8135">Recover the card keyset information through the DF selection.</text><polygon fill="#181818" points="89,244.0762,79,248.0762,89,252.0762,85,248.0762" style="stroke:#181818;stroke-width:1.0;"/><line style="stroke:#181818;stroke-width:1.0;stroke-dasharray:2.0,2.0;" x1="83" x2="378" y1="248.0762" y2="248.0762"/><polygon fill="#181818" points="460,275.3672,470,279.3672,460,283.3672,464,279.3672" style="stroke:#181818;stroke-width:1.0;"/><line style="stroke:#181818;stroke-width:1.0;" x1="78" x2="466" y1="279.3672" y2="279.3672"/><text fill="#FF0000" font-family="sans-serif" font-size="13" font-weight="bold" lengthAdjust="spacing" textLength="48" x="85" y="274.1045">process</text><text fill="#000000" font-family="sans-serif" font-size="13" lengthAdjust="spacing" textLength="179" x="137" y="274.1045">explicit card selection scenario</text><polygon fill="#0000FF" points="647,358.5313,657,362.5313,647,366.5313,651,362.5313" style="stroke:#0000FF;stroke-width:1.0;"/><line style="stroke:#0000FF;stroke-width:1.0;" x1="482" x2="653" y1="362.5313" y2="362.5313"/><text fill="#0000FF" font-family="sans-serif" font-size="13" font-weight="bold" lengthAdjust="spacing" textLength="48" x="489" y="305.3955">Card #1</text><text fill="#000000" font-family="sans-serif" font-size="13" lengthAdjust="spacing" textLength="150" x="489" y="322.6865">transmit selection request</text><text fill="#000000" font-family="sans-serif" font-size="13" lengthAdjust="spacing" textLength="83" x="521" y="339.9775">- card selector</text><text fill="#000000" font-family="sans-serif" font-size="13" lengthAdjust="spacing" textLength="65" x="521" y="357.2686">- APDU list</text><polygon fill="#181818" points="856,389.8223,866,393.8223,856,397.8223,860,393.8223" style="stroke:#181818;stroke-width:1.0;"/><line style="stroke:#181818;stroke-width:1.0;" x1="669" x2="862" y1="393.8223" y2="393.8223"/><text fill="#000000" font-family="sans-serif" font-size="13" lengthAdjust="spacing" textLength="106" x="676" y="388.5596">open card channel</text><polygon fill="#181818" points="680,403.8223,670,407.8223,680,411.8223,676,407.8223" style="stroke:#181818;stroke-width:1.0;"/><line style="stroke:#181818;stroke-width:1.0;stroke-dasharray:2.0,2.0;" x1="674" x2="867" y1="407.8223" y2="407.8223"/><polygon fill="#181818" points="856,435.1133,866,439.1133,856,443.1133,860,439.1133" style="stroke:#181818;stroke-width:1.0;"/><line style="stroke:#181818;stroke-width:1.0;" x1="669" x2="862" y1="439.1133" y2="439.1133"/><text fill="#000000" font-family="sans-serif" font-size="13" lengthAdjust="spacing" textLength="130" x="676" y="433.8506">select application (aid)</text><polygon fill="#181818" points="680,466.4043,670,470.4043,680,474.4043,676,470.4043" style="stroke:#181818;stroke-width:1.0;"/><line style="stroke:#181818;stroke-width:1.0;stroke-dasharray:2.0,2.0;" x1="674" x2="867" y1="470.4043" y2="470.4043"/><text fill="#000000" font-family="sans-serif" font-size="13" lengthAdjust="spacing" textLength="57" x="686" y="465.1416">[card FCI]</text><line style="stroke:#181818;stroke-width:1.0;" x1="669" x2="711" y1="501.6953" y2="501.6953"/><line style="stroke:#181818;stroke-width:1.0;" x1="711" x2="711" y1="501.6953" y2="514.6953"/><line style="stroke:#181818;stroke-width:1.0;" x1="670" x2="711" y1="514.6953" y2="514.6953"/><polygon fill="#181818" points="680,510.6953,670,514.6953,680,518.6953,676,514.6953" style="stroke:#181818;stroke-width:1.0;"/><text fill="#000000" font-family="sans-serif" font-size="13" lengthAdjust="spacing" textLength="149" x="676" y="496.4326">checks invalidation status</text><polygon fill="#181818" points="856,541.9863,866,545.9863,856,549.9863,860,545.9863" style="stroke:#181818;stroke-width:1.0;"/><line style="stroke:#181818;stroke-width:1.0;" x1="669" x2="862" y1="545.9863" y2="545.9863"/><text fill="#000000" font-family="sans-serif" font-size="13" lengthAdjust="spacing" textLength="135" x="676" y="540.7236">Select File (current DF)</text><polygon fill="#181818" points="680,573.2773,670,577.2773,680,581.2773,676,577.2773" style="stroke:#181818;stroke-width:1.0;"/><line style="stroke:#181818;stroke-width:1.0;stroke-dasharray:2.0,2.0;" x1="674" x2="867" y1="577.2773" y2="577.2773"/><text fill="#000000" font-family="sans-serif" font-size="13" lengthAdjust="spacing" textLength="156" x="686" y="572.0146">[KIF/KVC for key #1 #2 #3]</text><polygon fill="#0000FF" points="493,604.5684,483,608.5684,493,612.5684,489,608.5684" style="stroke:#0000FF;stroke-width:1.0;"/><line style="stroke:#0000FF;stroke-width:1.0;stroke-dasharray:2.0,2.0;" x1="487" x2="663" y1="608.5684" y2="608.5684"/><text fill="#000000" font-family="sans-serif" font-size="13" lengthAdjust="spacing" textLength="153" x="499" y="603.3057">receive selection response</text><polygon fill="#181818" points="89,635.8594,79,639.8594,89,643.8594,85,639.8594" style="stroke:#181818;stroke-width:1.0;"/><line style="stroke:#181818;stroke-width:1.0;stroke-dasharray:2.0,2.0;" x1="83" x2="476" y1="639.8594" y2="639.8594"/><text fill="#000000" font-family="sans-serif" font-size="13" lengthAdjust="spacing" textLength="191" x="95" y="634.5967">selected active SmartCard image</text><polygon fill="#181818" points="362,667.1504,372,671.1504,362,675.1504,366,671.1504" style="stroke:#181818;stroke-width:1.0;"/><line style="stroke:#181818;stroke-width:1.0;" x1="78" x2="368" y1="671.1504" y2="671.1504"/><text fill="#000000" font-family="sans-serif" font-size="13" font-weight="bold" lengthAdjust="spacing" textLength="25" x="85" y="665.8877">cast</text><text fill="#000000" font-family="sans-serif" font-size="13" lengthAdjust="spacing" textLength="76" x="114" y="665.8877">Calypso card</text><polygon fill="#181818" points="89,767.6055,79,771.6055,89,775.6055,85,771.6055" style="stroke:#181818;stroke-width:1.0;"/><line style="stroke:#181818;stroke-width:1.0;stroke-dasharray:2.0,2.0;" x1="83" x2="378" y1="771.6055" y2="771.6055"/><text fill="#000000" font-family="sans-serif" font-size="13" lengthAdjust="spacing" textLength="123" x="95" y="697.1787">[Calypso card image:</text><text fill="#000000" font-family="sans-serif" font-size="13" lengthAdjust="spacing" textLength="208" x="127" y="714.4697">- identification data with PIN support</text><text fill="#000000" font-family="sans-serif" font-size="13" lengthAdjust="spacing" textLength="104" x="127" y="731.7607">- key #1 reference</text><text fill="#000000" font-family="sans-serif" font-size="13" lengthAdjust="spacing" textLength="104" x="127" y="749.0518">- key #2 reference</text><text fill="#000000" font-family="sans-serif" font-size="13" lengthAdjust="spacing" textLength="108" x="127" y="766.3428">- key #3 reference]</text><rect fill="#EEEEEE" height="3" style="stroke:#EEEEEE;stroke-width:1.0;" width="1416" x="0" y="801.251"/><line style="stroke:#000000;stroke-width:1.0;" x1="0" x2="1416" y1="801.251" y2="801.251"/><line style="stroke:#000000;stroke-width:1.0;" x1="0" x2="1416" y1="804.251" y2="804.251"/><rect fill="#EEEEEE" height="25.291" style="stroke:#000000;stroke-width:2.0;" width="168" x="624" y="789.6055"/><text fill="#000000" font-family="sans-serif" font-size="13" font-weight="bold" lengthAdjust="spacing" textLength="150" x="630" y="807.6338">Card secure transaction</text><line style="stroke:#181818;stroke-width:1.0;" x1="78" x2="120" y1="882.7695" y2="882.7695"/><line style="stroke:#181818;stroke-width:1.0;" x1="120" x2="120" y1="882.7695" y2="895.7695"/><line style="stroke:#181818;stroke-width:1.0;" x1="79" x2="120" y1="895.7695" y2="895.7695"/><polygon fill="#181818" points="89,891.7695,79,895.7695,89,899.7695,85,895.7695" style="stroke:#181818;stroke-width:1.0;"/><text fill="#000000" font-family="sans-serif" font-size="13" font-weight="bold" lengthAdjust="spacing" textLength="66" x="85" y="842.9248">instantiate</text><text fill="#000000" font-family="sans-serif" font-size="13" lengthAdjust="spacing" textLength="148" x="155" y="842.9248">Calypso card transaction:</text><text fill="#000000" font-family="sans-serif" font-size="13" lengthAdjust="spacing" textLength="138" x="117" y="860.2158">- Calypso card resource</text><text fill="#000000" font-family="sans-serif" font-size="13" lengthAdjust="spacing" textLength="142" x="117" y="877.5068">- Calypso SAM resource</text><polygon fill="#181818" points="362,940.3516,372,944.3516,362,948.3516,366,944.3516" style="stroke:#181818;stroke-width:1.0;"/><line style="stroke:#181818;stroke-width:1.0;" x1="78" x2="368" y1="944.3516" y2="944.3516"/><text fill="#FF0000" font-family="sans-serif" font-size="13" font-weight="bold" lengthAdjust="spacing" textLength="50" x="85" y="921.7979">prepare</text><text fill="#000000" font-family="sans-serif" font-size="13" lengthAdjust="spacing" textLength="223" x="139" y="921.7979">Change Key (current key #x reference,</text><text fill="#000000" font-family="sans-serif" font-size="13" lengthAdjust="spacing" textLength="127" x="213" y="939.0889">new key #x reference)</text><polygon fill="#181818" points="89,954.3516,79,958.3516,89,962.3516,85,958.3516" style="stroke:#181818;stroke-width:1.0;"/><line style="stroke:#181818;stroke-width:1.0;stroke-dasharray:2.0,2.0;" x1="83" x2="378" y1="958.3516" y2="958.3516"/><polygon fill="#181818" points="362,985.6426,372,989.6426,362,993.6426,366,989.6426" style="stroke:#181818;stroke-width:1.0;"/><line style="stroke:#181818;stroke-width:1.0;" x1="78" x2="368" y1="989.6426" y2="989.6426"/><text fill="#FF0000" font-family="sans-serif" font-size="13" font-weight="bold" lengthAdjust="spacing" textLength="48" x="85" y="984.3799">process</text><text fill="#000000" font-family="sans-serif" font-size="13" lengthAdjust="spacing" textLength="185" x="137" y="984.3799">commands (keep channel open)</text><polygon fill="#0000FF" points="647,1051.5156,657,1055.5156,647,1059.5156,651,1055.5156" style="stroke:#0000FF;stroke-width:1.0;"/><line style="stroke:#0000FF;stroke-width:1.0;" x1="384" x2="653" y1="1055.5156" y2="1055.5156"/><text fill="#0000FF" font-family="sans-serif" font-size="13" font-weight="bold" lengthAdjust="spacing" textLength="48" x="391" y="1015.6709">Card #2</text><text fill="#000000" font-family="sans-serif" font-size="13" lengthAdjust="spacing" textLength="123" x="391" y="1032.9619">transmit card request</text><text fill="#000000" font-family="sans-serif" font-size="13" lengthAdjust="spacing" textLength="65" x="423" y="1050.2529">- APDU list</text><polygon fill="#181818" points="856,1082.8066,866,1086.8066,856,1090.8066,860,1086.8066" style="stroke:#181818;stroke-width:1.0;"/><line style="stroke:#181818;stroke-width:1.0;" x1="669" x2="862" y1="1086.8066" y2="1086.8066"/><text fill="#000000" font-family="sans-serif" font-size="13" lengthAdjust="spacing" textLength="82" x="676" y="1081.5439">Get Challenge</text><polygon fill="#181818" points="680,1114.0977,670,1118.0977,680,1122.0977,676,1118.0977" style="stroke:#181818;stroke-width:1.0;"/><line style="stroke:#181818;stroke-width:1.0;stroke-dasharray:2.0,2.0;" x1="674" x2="867" y1="1118.0977" y2="1118.0977"/><text fill="#000000" font-family="sans-serif" font-size="13" lengthAdjust="spacing" textLength="94" x="686" y="1112.835">[Card challenge]</text><polygon fill="#0000FF" points="395,1145.3887,385,1149.3887,395,1153.3887,391,1149.3887" style="stroke:#0000FF;stroke-width:1.0;"/><line style="stroke:#0000FF;stroke-width:1.0;stroke-dasharray:2.0,2.0;" x1="389" x2="663" y1="1149.3887" y2="1149.3887"/><text fill="#000000" font-family="sans-serif" font-size="13" lengthAdjust="spacing" textLength="94" x="401" y="1144.126">[Card challenge]</text><polygon fill="#00FF00" points="939.5,1211.2617,949.5,1215.2617,939.5,1219.2617,943.5,1215.2617" style="stroke:#00FF00;stroke-width:1.0;"/><line style="stroke:#00FF00;stroke-width:1.0;" x1="384" x2="945.5" y1="1215.2617" y2="1215.2617"/><text fill="#008000" font-family="sans-serif" font-size="13" font-weight="bold" lengthAdjust="spacing" textLength="47" x="391" y="1175.417">SAM #1</text><text fill="#000000" font-family="sans-serif" font-size="13" lengthAdjust="spacing" textLength="123" x="391" y="1192.708">transmit card request</text><text fill="#000000" font-family="sans-serif" font-size="13" lengthAdjust="spacing" textLength="65" x="423" y="1209.999">- APDU list</text><polygon fill="#181818" points="1364.5,1242.5527,1374.5,1246.5527,1364.5,1250.5527,1368.5,1246.5527" style="stroke:#181818;stroke-width:1.0;"/><line style="stroke:#181818;stroke-width:1.0;" x1="961.5" x2="1370.5" y1="1246.5527" y2="1246.5527"/><text fill="#000000" font-family="sans-serif" font-size="13" lengthAdjust="spacing" textLength="164" x="968.5" y="1241.29">select diversifier (card serial)</text><polygon fill="#181818" points="972.5,1256.5527,962.5,1260.5527,972.5,1264.5527,968.5,1260.5527" style="stroke:#181818;stroke-width:1.0;"/><line style="stroke:#181818;stroke-width:1.0;stroke-dasharray:2.0,2.0;" x1="966.5" x2="1375.5" y1="1260.5527" y2="1260.5527"/><polygon fill="#181818" points="1364.5,1287.8438,1374.5,1291.8438,1364.5,1295.8438,1368.5,1291.8438" style="stroke:#181818;stroke-width:1.0;"/><line style="stroke:#181818;stroke-width:1.0;" x1="961.5" x2="1370.5" y1="1291.8438" y2="1291.8438"/><text fill="#000000" font-family="sans-serif" font-size="13" lengthAdjust="spacing" textLength="173" x="968.5" y="1286.5811">Give Random (card challenge)</text><polygon fill="#181818" points="972.5,1319.1348,962.5,1323.1348,972.5,1327.1348,968.5,1323.1348" style="stroke:#181818;stroke-width:1.0;"/><line style="stroke:#181818;stroke-width:1.0;stroke-dasharray:2.0,2.0;" x1="966.5" x2="1375.5" y1="1323.1348" y2="1323.1348"/><text fill="#000000" font-family="sans-serif" font-size="13" lengthAdjust="spacing" textLength="21" x="978.5" y="1317.8721">ack</text><polygon fill="#181818" points="1364.5,1350.4258,1374.5,1354.4258,1364.5,1358.4258,1368.5,1354.4258" style="stroke:#181818;stroke-width:1.0;"/><line style="stroke:#181818;stroke-width:1.0;" x1="961.5" x2="1370.5" y1="1354.4258" y2="1354.4258"/><text fill="#000000" font-family="sans-serif" font-size="13" lengthAdjust="spacing" textLength="391" x="968.5" y="1349.1631">Card Generate Key (new key reference, old ciphering key reference)</text><polygon fill="#181818" points="972.5,1381.7168,962.5,1385.7168,972.5,1389.7168,968.5,1385.7168" style="stroke:#181818;stroke-width:1.0;"/><line style="stroke:#181818;stroke-width:1.0;stroke-dasharray:2.0,2.0;" x1="966.5" x2="1375.5" y1="1385.7168" y2="1385.7168"/><text fill="#000000" font-family="sans-serif" font-size="13" lengthAdjust="spacing" textLength="100" x="978.5" y="1380.4541">[ciphered key #x]</text><polygon fill="#00FF00" points="395,1413.0078,385,1417.0078,395,1421.0078,391,1417.0078" style="stroke:#00FF00;stroke-width:1.0;"/><line style="stroke:#00FF00;stroke-width:1.0;stroke-dasharray:2.0,2.0;" x1="389" x2="955.5" y1="1417.0078" y2="1417.0078"/><text fill="#000000" font-family="sans-serif" font-size="13" lengthAdjust="spacing" textLength="100" x="401" y="1411.7451">[ciphered key #x]</text><polygon fill="#0000FF" points="647,1478.8809,657,1482.8809,647,1486.8809,651,1482.8809" style="stroke:#0000FF;stroke-width:1.0;"/><line style="stroke:#0000FF;stroke-width:1.0;" x1="384" x2="653" y1="1482.8809" y2="1482.8809"/><text fill="#0000FF" font-family="sans-serif" font-size="13" font-weight="bold" lengthAdjust="spacing" textLength="48" x="391" y="1443.0361">Card #3</text><text fill="#000000" font-family="sans-serif" font-size="13" lengthAdjust="spacing" textLength="123" x="391" y="1460.3271">transmit card request</text><text fill="#000000" font-family="sans-serif" font-size="13" lengthAdjust="spacing" textLength="65" x="423" y="1477.6182">- APDU list</text><polygon fill="#181818" points="856,1510.1719,866,1514.1719,856,1518.1719,860,1514.1719" style="stroke:#181818;stroke-width:1.0;"/><line style="stroke:#181818;stroke-width:1.0;" x1="669" x2="862" y1="1514.1719" y2="1514.1719"/><text fill="#000000" font-family="sans-serif" font-size="13" lengthAdjust="spacing" textLength="175" x="676" y="1508.9092">Change Key (ciphered key #x)</text><polygon fill="#181818" points="680,1541.4629,670,1545.4629,680,1549.4629,676,1545.4629" style="stroke:#181818;stroke-width:1.0;"/><line style="stroke:#181818;stroke-width:1.0;stroke-dasharray:2.0,2.0;" x1="674" x2="867" y1="1545.4629" y2="1545.4629"/><text fill="#000000" font-family="sans-serif" font-size="13" lengthAdjust="spacing" textLength="21" x="686" y="1540.2002">ack</text><polygon fill="#0000FF" points="395,1572.7539,385,1576.7539,395,1580.7539,391,1576.7539" style="stroke:#0000FF;stroke-width:1.0;"/><line style="stroke:#0000FF;stroke-width:1.0;stroke-dasharray:2.0,2.0;" x1="389" x2="663" y1="1576.7539" y2="1576.7539"/><text fill="#000000" font-family="sans-serif" font-size="13" lengthAdjust="spacing" textLength="21" x="401" y="1571.4912">ack</text><polygon fill="#181818" points="89,1673.209,79,1677.209,89,1681.209,85,1677.209" style="stroke:#181818;stroke-width:1.0;"/><line style="stroke:#181818;stroke-width:1.0;stroke-dasharray:2.0,2.0;" x1="83" x2="378" y1="1677.209" y2="1677.209"/><text fill="#000000" font-family="sans-serif" font-size="13" lengthAdjust="spacing" textLength="123" x="95" y="1602.7822">[Calypso card image:</text><text fill="#000000" font-family="sans-serif" font-size="13" lengthAdjust="spacing" textLength="208" x="127" y="1620.0732">- identification data with PIN support</text><text fill="#000000" font-family="sans-serif" font-size="13" lengthAdjust="spacing" textLength="162" x="127" y="1637.3643">- key #1 reference (updated)</text><text fill="#000000" font-family="sans-serif" font-size="13" lengthAdjust="spacing" textLength="104" x="127" y="1654.6553">- key #2 reference</text><text fill="#000000" font-family="sans-serif" font-size="13" lengthAdjust="spacing" textLength="108" x="127" y="1671.9463">- key #3 reference]</text><polygon fill="#181818" points="362,1704.5,372,1708.5,362,1712.5,366,1708.5" style="stroke:#181818;stroke-width:1.0;"/><line style="stroke:#181818;stroke-width:1.0;" x1="78" x2="368" y1="1708.5" y2="1708.5"/><text fill="#FF0000" font-family="sans-serif" font-size="13" font-weight="bold" lengthAdjust="spacing" textLength="50" x="85" y="1703.2373">prepare</text><text fill="#000000" font-family="sans-serif" font-size="13" lengthAdjust="spacing" textLength="162" x="139" y="1703.2373">Change PIN (new PIN value)</text><polygon fill="#181818" points="89,1718.5,79,1722.5,89,1726.5,85,1722.5" style="stroke:#181818;stroke-width:1.0;"/><line style="stroke:#181818;stroke-width:1.0;stroke-dasharray:2.0,2.0;" x1="83" x2="378" y1="1722.5" y2="1722.5"/><polygon fill="#181818" points="362,1749.791,372,1753.791,362,1757.791,366,1753.791" style="stroke:#181818;stroke-width:1.0;"/><line style="stroke:#181818;stroke-width:1.0;" x1="78" x2="368" y1="1753.791" y2="1753.791"/><text fill="#FF0000" font-family="sans-serif" font-size="13" font-weight="bold" lengthAdjust="spacing" textLength="48" x="85" y="1748.5283">process</text><text fill="#000000" font-family="sans-serif" font-size="13" lengthAdjust="spacing" textLength="185" x="137" y="1748.5283">commands (close channel after)</text><polygon fill="#0000FF" points="647,1815.6641,657,1819.6641,647,1823.6641,651,1819.6641" style="stroke:#0000FF;stroke-width:1.0;"/><line style="stroke:#0000FF;stroke-width:1.0;" x1="384" x2="653" y1="1819.6641" y2="1819.6641"/><text fill="#0000FF" font-family="sans-serif" font-size="13" font-weight="bold" lengthAdjust="spacing" textLength="48" x="391" y="1779.8193">Card #4</text><text fill="#000000" font-family="sans-serif" font-size="13" lengthAdjust="spacing" textLength="123" x="391" y="1797.1104">transmit card request</text><text fill="#000000" font-family="sans-serif" font-size="13" lengthAdjust="spacing" textLength="65" x="423" y="1814.4014">- APDU list</text><polygon fill="#181818" points="856,1846.9551,866,1850.9551,856,1854.9551,860,1850.9551" style="stroke:#181818;stroke-width:1.0;"/><line style="stroke:#181818;stroke-width:1.0;" x1="669" x2="862" y1="1850.9551" y2="1850.9551"/><text fill="#000000" font-family="sans-serif" font-size="13" lengthAdjust="spacing" textLength="82" x="676" y="1845.6924">Get Challenge</text><polygon fill="#181818" points="680,1878.2461,670,1882.2461,680,1886.2461,676,1882.2461" style="stroke:#181818;stroke-width:1.0;"/><line style="stroke:#181818;stroke-width:1.0;stroke-dasharray:2.0,2.0;" x1="674" x2="867" y1="1882.2461" y2="1882.2461"/><text fill="#000000" font-family="sans-serif" font-size="13" lengthAdjust="spacing" textLength="94" x="686" y="1876.9834">[Card challenge]</text><polygon fill="#0000FF" points="395,1909.5371,385,1913.5371,395,1917.5371,391,1913.5371" style="stroke:#0000FF;stroke-width:1.0;"/><line style="stroke:#0000FF;stroke-width:1.0;stroke-dasharray:2.0,2.0;" x1="389" x2="663" y1="1913.5371" y2="1913.5371"/><text fill="#000000" font-family="sans-serif" font-size="13" lengthAdjust="spacing" textLength="94" x="401" y="1908.2744">[Card challenge]</text><polygon fill="#00FF00" points="939.5,1975.4102,949.5,1979.4102,939.5,1983.4102,943.5,1979.4102" style="stroke:#00FF00;stroke-width:1.0;"/><line style="stroke:#00FF00;stroke-width:1.0;" x1="384" x2="945.5" y1="1979.4102" y2="1979.4102"/><text fill="#008000" font-family="sans-serif" font-size="13" font-weight="bold" lengthAdjust="spacing" textLength="47" x="391" y="1939.5654">SAM #2</text><text fill="#000000" font-family="sans-serif" font-size="13" lengthAdjust="spacing" textLength="123" x="391" y="1956.8564">transmit card request</text><text fill="#000000" font-family="sans-serif" font-size="13" lengthAdjust="spacing" textLength="65" x="423" y="1974.1475">- APDU list</text><polygon fill="#181818" points="1364.5,2006.7012,1374.5,2010.7012,1364.5,2014.7012,1368.5,2010.7012" style="stroke:#181818;stroke-width:1.0;"/><line style="stroke:#181818;stroke-width:1.0;" x1="961.5" x2="1370.5" y1="2010.7012" y2="2010.7012"/><text fill="#000000" font-family="sans-serif" font-size="13" lengthAdjust="spacing" textLength="164" x="968.5" y="2005.4385">select diversifier (card serial)</text><polygon fill="#181818" points="972.5,2020.7012,962.5,2024.7012,972.5,2028.7012,968.5,2024.7012" style="stroke:#181818;stroke-width:1.0;"/><line style="stroke:#181818;stroke-width:1.0;stroke-dasharray:2.0,2.0;" x1="966.5" x2="1375.5" y1="2024.7012" y2="2024.7012"/><polygon fill="#181818" points="1364.5,2051.9922,1374.5,2055.9922,1364.5,2059.9922,1368.5,2055.9922" style="stroke:#181818;stroke-width:1.0;"/><line style="stroke:#181818;stroke-width:1.0;" x1="961.5" x2="1370.5" y1="2055.9922" y2="2055.9922"/><text fill="#000000" font-family="sans-serif" font-size="13" lengthAdjust="spacing" textLength="173" x="968.5" y="2050.7295">Give Random (card challenge)</text><polygon fill="#181818" points="972.5,2083.2832,962.5,2087.2832,972.5,2091.2832,968.5,2087.2832" style="stroke:#181818;stroke-width:1.0;"/><line style="stroke:#181818;stroke-width:1.0;stroke-dasharray:2.0,2.0;" x1="966.5" x2="1375.5" y1="2087.2832" y2="2087.2832"/><text fill="#000000" font-family="sans-serif" font-size="13" lengthAdjust="spacing" textLength="21" x="978.5" y="2082.0205">ack</text><polygon fill="#181818" points="1364.5,2114.5742,1374.5,2118.5742,1364.5,2122.5742,1368.5,2118.5742" style="stroke:#181818;stroke-width:1.0;"/><line style="stroke:#181818;stroke-width:1.0;" x1="961.5" x2="1370.5" y1="2118.5742" y2="2118.5742"/><text fill="#000000" font-family="sans-serif" font-size="13" lengthAdjust="spacing" textLength="326" x="968.5" y="2113.3115">Card Cipher PIN (new plain PIN, ciphering key reference)</text><polygon fill="#181818" points="972.5,2145.8652,962.5,2149.8652,972.5,2153.8652,968.5,2149.8652" style="stroke:#181818;stroke-width:1.0;"/><line style="stroke:#181818;stroke-width:1.0;stroke-dasharray:2.0,2.0;" x1="966.5" x2="1375.5" y1="2149.8652" y2="2149.8652"/><text fill="#000000" font-family="sans-serif" font-size="13" lengthAdjust="spacing" textLength="82" x="978.5" y="2144.6025">[ciphered PIN]</text><polygon fill="#00FF00" points="395,2177.1563,385,2181.1563,395,2185.1563,391,2181.1563" style="stroke:#00FF00;stroke-width:1.0;"/><line style="stroke:#00FF00;stroke-width:1.0;stroke-dasharray:2.0,2.0;" x1="389" x2="955.5" y1="2181.1563" y2="2181.1563"/><text fill="#000000" font-family="sans-serif" font-size="13" lengthAdjust="spacing" textLength="82" x="401" y="2175.8936">[ciphered PIN]</text><polygon fill="#0000FF" points="647,2243.0293,657,2247.0293,647,2251.0293,651,2247.0293" style="stroke:#0000FF;stroke-width:1.0;"/><line style="stroke:#0000FF;stroke-width:1.0;" x1="384" x2="653" y1="2247.0293" y2="2247.0293"/><text fill="#0000FF" font-family="sans-serif" font-size="13" font-weight="bold" lengthAdjust="spacing" textLength="48" x="391" y="2207.1846">Card #5</text><text fill="#000000" font-family="sans-serif" font-size="13" lengthAdjust="spacing" textLength="123" x="391" y="2224.4756">transmit card request</text><text fill="#000000" font-family="sans-serif" font-size="13" lengthAdjust="spacing" textLength="65" x="423" y="2241.7666">- APDU list</text><polygon fill="#181818" points="856,2274.3203,866,2278.3203,856,2282.3203,860,2278.3203" style="stroke:#181818;stroke-width:1.0;"/><line style="stroke:#181818;stroke-width:1.0;" x1="669" x2="862" y1="2278.3203" y2="2278.3203"/><text fill="#000000" font-family="sans-serif" font-size="13" lengthAdjust="spacing" textLength="155" x="676" y="2273.0576">Change PIN (ciphered PIN)</text><polygon fill="#181818" points="680,2305.6113,670,2309.6113,680,2313.6113,676,2309.6113" style="stroke:#181818;stroke-width:1.0;"/><line style="stroke:#181818;stroke-width:1.0;stroke-dasharray:2.0,2.0;" x1="674" x2="867" y1="2309.6113" y2="2309.6113"/><text fill="#000000" font-family="sans-serif" font-size="13" lengthAdjust="spacing" textLength="21" x="686" y="2304.3486">ack</text><polygon fill="#181818" points="856,2336.9023,866,2340.9023,856,2344.9023,860,2340.9023" style="stroke:#181818;stroke-width:1.0;"/><line style="stroke:#181818;stroke-width:1.0;" x1="669" x2="862" y1="2340.9023" y2="2340.9023"/><text fill="#000000" font-family="sans-serif" font-size="13" lengthAdjust="spacing" textLength="109" x="676" y="2335.6396">close card channel</text><polygon fill="#181818" points="680,2350.9023,670,2354.9023,680,2358.9023,676,2354.9023" style="stroke:#181818;stroke-width:1.0;"/><line style="stroke:#181818;stroke-width:1.0;stroke-dasharray:2.0,2.0;" x1="674" x2="872" y1="2354.9023" y2="2354.9023"/><polygon fill="#0000FF" points="395,2382.1934,385,2386.1934,395,2390.1934,391,2386.1934" style="stroke:#0000FF;stroke-width:1.0;"/><line style="stroke:#0000FF;stroke-width:1.0;stroke-dasharray:2.0,2.0;" x1="389" x2="663" y1="2386.1934" y2="2386.1934"/><text fill="#000000" font-family="sans-serif" font-size="13" lengthAdjust="spacing" textLength="21" x="401" y="2380.9307">ack</text><polygon fill="#181818" points="89,2482.6484,79,2486.6484,89,2490.6484,85,2486.6484" style="stroke:#181818;stroke-width:1.0;"/><line style="stroke:#181818;stroke-width:1.0;stroke-dasharray:2.0,2.0;" x1="83" x2="378" y1="2486.6484" y2="2486.6484"/><text fill="#000000" font-family="sans-serif" font-size="13" lengthAdjust="spacing" textLength="123" x="95" y="2412.2217">[Calypso card image:</text><text fill="#000000" font-family="sans-serif" font-size="13" lengthAdjust="spacing" textLength="208" x="127" y="2429.5127">- identification data with PIN support</text><text fill="#000000" font-family="sans-serif" font-size="13" lengthAdjust="spacing" textLength="162" x="127" y="2446.8037">- key #1 reference (updated)</text><text fill="#000000" font-family="sans-serif" font-size="13" lengthAdjust="spacing" textLength="104" x="127" y="2464.0947">- key #2 reference</text><text fill="#000000" font-family="sans-serif" font-size="13" lengthAdjust="spacing" textLength="108" x="127" y="2481.3857">- key #3 reference]</text><!--SRC=[xLTRJoCt57wVNs61r8NHfWiXb0L1fCbS45grHT3s1NZmpfmaLYQUMTjXD_- -n_PScKc0xRPQjGqF4Flp-SxritaZ5updLD0byLCgvIGJ2GW_IpD1TgD3VtGGETiWmSZp3u86H2eGaAbr3buBw9q6VX3r0gzQmCd8EmcFUu5-ss8G74w6lS2m1GmdfqTjwZbDii-CpyYKfXASnjQjeWgsH-Z5YZqojUv3EM_83IITZD5uCHFPYYS6VNuk81cFCRz168J-blnMoF1av1_vpfmbGCh5EbnalLw9F8LdYNC3CzoZq8zEjdBNuFVXQEG59NsrtlBWOxfwdb-3J3oJw3YQR6KleKUZq_V1fEGkLblCbmA0FqizqoZ3xKLUTBYLky8EGzy_EIp9o-K6EzB_AYYVFHzwPc2sxD4mFDtgG0qEVpe9XyFIWsgzxG9cOFsI1Anj_A4VXi_5Rw13_oWyFcY4ltv2JME5tR_p6uiNeFH0UNcUifWgbl4TGYMXUKvsPrcQECYbMCnooXNPyMcwpcL6lEih0ujfpiXkplYYZRi1YbvLCB41LfhpgKZkkJrKs1L9OMCtPREvckWk_QYpGiMQxBYkFkAw5RW9wwMuzNvkCKYwR17OPgmP9AGGAq2tN1VF5bHugeNNYMIFA3sDX5LB7V35XOcKMDkOQl83mH9nnQP5xid51ThCyy5OP_QCd4yp32BMrRtGwk6wkG2C3rpt_9tU6zleQuio1au5oyxk-RqQa2bBiUpauvh876BDGxohmExTcaCaOYcGU2K4Ea9GRol_JN6Bil4C5x97DALN7OAV6uZDWfg3TM81QmcAC3xDnDA6e-ROoREvmGHHxUQF3l24QAEEemqE1cECsacWHLwaGcnCHHQ3b7Kgu8jkOgOsvQGEJJH2qtyFxdOFy1D53-EwzTgSHi5itv7TmuhqdYkSRRb4rffGmASLI6NJt70c4tR9kmv-9ocJgfdilevtwkM1yUoCP3bmQpEUKyuXRTjedjRV1uD6H3tch6EwVSlv9tkK9VlTmsVapX14_jL3nr09YUSGBoJsm2DDMMBjIRoRLnBrJijQRaV0P23EbalA4qcobP9QgoHW7-fVKk91qsLTZvjjkrVtxNu5V-hrXwletOS_V89jgNiKguSAYHVKW_C6kx2LuqOVsAuJ40DxX5PjPPvnV7sqchNAi6qdqyvbSY4X1WdaTedIPE9dIpfhcH1rlzlHTzsOIkMwf5GmJT8_d763ygu9jpI553nH6YmE9P-PcfFhgr-8NELv9egEBP8aO8et1e-XiJhiNJsgLn-SxXJNkcVAQmQ6ncszCywxBkFOBUWc7duIUlDO4L5h6-kIhKJfLaFsgntdjTBgp_MjJJvWY5MZcNY_rF6-rNpsXyFdplR-SnNRe7dnIpMlcg6z1K1UQe9HYGtSbloLWZVi4xmYxmsjUxcmRHO3R06h1Tj4u18l6YnFce9-mssQVB-GIGlRFkysuvqZ6wQyoc4K7HmyZAlNH3k5zk5f7X0RxemNfR3_hU9KomFDNqbvWaeZ90uwulUAoqSmckxh0uD1xMl7mANMg1iiGhOiJbQ9w1m-GqrRT2oOx5q21w7zDeDJJaKzCGHVIGJVPtDq2v-UhSqUdZiBXQGOheTcv5K9of7feXiLh4F_gY4u-iw6eALFxR0tteQwQdOCcdDG9Q9CeuPjQ_s_yROXUwiSuP3il-xUUQsGzekzTi_qhFu37p6hVrB2upIJK6audUBJ_LkA-EX_4V-h8ZxyhuYuR_Ia7eSyfOphhs-_Ihhnu4jrsq2_dMWVVv-YRHBRZFa5YjqrLWX6yx_1xZzzJxh_to_yJnR-1000]--></g></svg>