<svg xmlns="http://www.w3.org/2000/svg" xmlns:xlink="http://www.w3.org/1999/xlink" contentStyleType="text/css" height="2202px" preserveAspectRatio="none" style="width:1488px;height:2202px;background:#FFFFFF;" version="1.1" viewBox="0 0 1488 2202" width="1488px" zoomAndPan="magnify"><defs/><g><rect fill="#FFD700" height="2021.2227" style="stroke:#181818;stroke-width:1.0;" width="10" x="75.0166" y="91.4883"/><rect fill="#FFC0CB" height="14" style="stroke:#181818;stroke-width:1.0;" width="10" x="371.7651" y="237.3516"/><rect fill="#FFC0CB" height="90.5527" style="stroke:#181818;stroke-width:1.0;" width="10" x="371.7651" y="705.3203"/><rect fill="#FFC0CB" height="49.3105" style="stroke:#181818;stroke-width:1.0;" width="10" x="371.7651" y="992.0469"/><rect fill="#FFC0CB" height="238.416" style="stroke:#181818;stroke-width:1.0;" width="10" x="371.7651" y="1070.668"/><rect fill="#FFC0CB" height="49.3105" style="stroke:#181818;stroke-width:1.0;" width="10" x="371.7651" y="1353.7051"/><rect fill="#FFC0CB" height="671.3848" style="stroke:#181818;stroke-width:1.0;" width="10" x="371.7651" y="1432.3262"/><rect fill="#FFC0CB" height="395.3477" style="stroke:#181818;stroke-width:1.0;" width="10" x="460.9663" y="280.6621"/><rect fill="#ADD8E6" height="290.7949" style="stroke:#181818;stroke-width:1.0;" width="10" x="660.8813" y="355.9043"/><rect fill="#ADD8E6" height="87.9316" style="stroke:#181818;stroke-width:1.0;" width="10" x="660.8813" y="1130.5996"/><rect fill="#ADD8E6" height="166.5527" style="stroke:#181818;stroke-width:1.0;" width="10" x="660.8813" y="1683.4316"/><rect fill="#ADD8E6" height="1435.459" style="stroke:#181818;stroke-width:1.0;" width="10" x="1007.0591" y="385.2148"/><rect fill="#90EE90" height="131.2422" style="stroke:#181818;stroke-width:1.0;" width="10" x="1092.0664" y="1492.2578"/><rect fill="#90EE90" height="87.9316" style="stroke:#181818;stroke-width:1.0;" width="10" x="1092.0664" y="1909.916"/><rect fill="#90EE90" height="2021.2227" style="stroke:#181818;stroke-width:1.0;" width="10" x="1440.1992" y="91.4883"/><line style="stroke:#181818;stroke-width:0.5;stroke-dasharray:5.0,5.0;" x1="80" x2="80" y1="81.4883" y2="2121.7109"/><line style="stroke:#181818;stroke-width:0.5;stroke-dasharray:5.0,5.0;" x1="375.856" x2="375.856" y1="81.4883" y2="2121.7109"/><line style="stroke:#181818;stroke-width:0.5;stroke-dasharray:5.0,5.0;" x1="465.6743" x2="465.6743" y1="81.4883" y2="2121.7109"/><line style="stroke:#181818;stroke-width:0.5;stroke-dasharray:5.0,5.0;" x1="665.0239" x2="665.0239" y1="81.4883" y2="2121.7109"/><line style="stroke:#181818;stroke-width:0.5;stroke-dasharray:5.0,5.0;" x1="1011.5591" x2="1011.5591" y1="81.4883" y2="2121.7109"/><line style="stroke:#181818;stroke-width:0.5;stroke-dasharray:5.0,5.0;" x1="1096.5591" x2="1096.5591" y1="81.4883" y2="2121.7109"/><line style="stroke:#181818;stroke-width:0.5;stroke-dasharray:5.0,5.0;" x1="1444.2983" x2="1444.2983" y1="81.4883" y2="2121.7109"/><text fill="#000000" font-family="sans-serif" font-size="14" lengthAdjust="spacing" textLength="144.0332" x="5" y="78.5352">Ticketing Application</text><ellipse cx="80.0166" cy="13.5" fill="#FFD700" rx="8" ry="8" style="stroke:#181818;stroke-width:0.5;"/><path d="M80.0166,21.5 L80.0166,48.5 M67.0166,29.5 L93.0166,29.5 M80.0166,48.5 L67.0166,63.5 M80.0166,48.5 L93.0166,63.5 " fill="none" style="stroke:#181818;stroke-width:0.5;"/><text fill="#000000" font-family="sans-serif" font-size="14" lengthAdjust="spacing" textLength="144.0332" x="5" y="2134.2461">Ticketing Application</text><ellipse cx="80.0166" cy="2145.6992" fill="#FFD700" rx="8" ry="8" style="stroke:#181818;stroke-width:0.5;"/><path d="M80.0166,2153.6992 L80.0166,2180.6992 M67.0166,2161.6992 L93.0166,2161.6992 M80.0166,2180.6992 L67.0166,2195.6992 M80.0166,2180.6992 L93.0166,2195.6992 " fill="none" style="stroke:#181818;stroke-width:0.5;"/><rect fill="#FFC0CB" height="46.9766" rx="2.5" ry="2.5" style="stroke:#181818;stroke-width:0.5;" width="71.8184" x="340.856" y="33.5117"/><text fill="#000000" font-family="sans-serif" font-size="14" lengthAdjust="spacing" textLength="53.3271" x="350.1016" y="54.0469">Calypso</text><text fill="#000000" font-family="sans-serif" font-size="14" lengthAdjust="spacing" textLength="57.8184" x="347.856" y="70.5352">Card API</text><rect fill="#FFC0CB" height="46.9766" rx="2.5" ry="2.5" style="stroke:#181818;stroke-width:0.5;" width="71.8184" x="340.856" y="2120.7109"/><text fill="#000000" font-family="sans-serif" font-size="14" lengthAdjust="spacing" textLength="53.3271" x="350.1016" y="2141.2461">Calypso</text><text fill="#000000" font-family="sans-serif" font-size="14" lengthAdjust="spacing" textLength="57.8184" x="347.856" y="2157.7344">Card API</text><rect fill="#FFC0CB" height="30.4883" rx="2.5" ry="2.5" style="stroke:#181818;stroke-width:0.5;" width="86.584" x="422.6743" y="50"/><text fill="#000000" font-family="sans-serif" font-size="14" lengthAdjust="spacing" textLength="72.584" x="429.6743" y="70.5352">Reader API</text><rect fill="#FFC0CB" height="30.4883" rx="2.5" ry="2.5" style="stroke:#181818;stroke-width:0.5;" width="86.584" x="422.6743" y="2120.7109"/><text fill="#000000" font-family="sans-serif" font-size="14" lengthAdjust="spacing" textLength="72.584" x="429.6743" y="2141.2461">Reader API</text><rect fill="#ADD8E6" height="46.9766" rx="2.5" ry="2.5" style="stroke:#181818;stroke-width:0.5;" width="103.7148" x="614.0239" y="33.5117"/><text fill="#000000" font-family="sans-serif" font-size="14" lengthAdjust="spacing" textLength="89.7148" x="621.0239" y="54.0469">Calypso Card</text><text fill="#000000" font-family="sans-serif" font-size="14" lengthAdjust="spacing" textLength="46.7236" x="642.5195" y="70.5352">Reader</text><rect fill="#ADD8E6" height="46.9766" rx="2.5" ry="2.5" style="stroke:#181818;stroke-width:0.5;" width="103.7148" x="614.0239" y="2120.7109"/><text fill="#000000" font-family="sans-serif" font-size="14" lengthAdjust="spacing" textLength="89.7148" x="621.0239" y="2141.2461">Calypso Card</text><text fill="#000000" font-family="sans-serif" font-size="14" lengthAdjust="spacing" textLength="46.7236" x="642.5195" y="2157.7344">Reader</text><text fill="#000000" font-family="sans-serif" font-size="14" font-weight="bold" lengthAdjust="spacing" textLength="33.8447" x="992.1367" y="78.5352">Card</text><path d="M991.5591,37 L991.5591,61 M991.5591,49 L1008.5591,49 " fill="none" style="stroke:#181818;stroke-width:0.5;"/><ellipse cx="1020.5591" cy="49" fill="#ADD8E6" rx="12" ry="12" style="stroke:#181818;stroke-width:0.5;"/><text fill="#000000" font-family="sans-serif" font-size="14" font-weight="bold" lengthAdjust="spacing" textLength="33.8447" x="992.1367" y="2134.2461">Card</text><path d="M991.5591,2141.1992 L991.5591,2165.1992 M991.5591,2153.1992 L1008.5591,2153.1992 " fill="none" style="stroke:#181818;stroke-width:0.5;"/><ellipse cx="1020.5591" cy="2153.1992" fill="#ADD8E6" rx="12" ry="12" style="stroke:#181818;stroke-width:0.5;"/><rect fill="#90EE90" height="46.9766" rx="2.5" ry="2.5" style="stroke:#181818;stroke-width:0.5;" width="101.0146" x="1046.5591" y="33.5117"/><text fill="#000000" font-family="sans-serif" font-size="14" lengthAdjust="spacing" textLength="87.0146" x="1053.5591" y="54.0469">Calypso SAM</text><text fill="#000000" font-family="sans-serif" font-size="14" lengthAdjust="spacing" textLength="46.7236" x="1073.7046" y="70.5352">Reader</text><rect fill="#90EE90" height="46.9766" rx="2.5" ry="2.5" style="stroke:#181818;stroke-width:0.5;" width="101.0146" x="1046.5591" y="2120.7109"/><text fill="#000000" font-family="sans-serif" font-size="14" lengthAdjust="spacing" textLength="87.0146" x="1053.5591" y="2141.2461">Calypso SAM</text><text fill="#000000" font-family="sans-serif" font-size="14" lengthAdjust="spacing" textLength="46.7236" x="1073.7046" y="2157.7344">Reader</text><text fill="#000000" font-family="sans-serif" font-size="14" lengthAdjust="spacing" textLength="55.8018" x="1414.2983" y="62.0469">selected</text><text fill="#000000" font-family="sans-serif" font-size="14" font-weight="bold" lengthAdjust="spacing" textLength="31.0146" x="1426.6919" y="78.5352">SAM</text><path d="M1424.6992,20.5117 L1424.6992,44.5117 M1424.6992,32.5117 L1441.6992,32.5117 " fill="none" style="stroke:#181818;stroke-width:0.5;"/><ellipse cx="1453.6992" cy="32.5117" fill="#90EE90" rx="12" ry="12" style="stroke:#181818;stroke-width:0.5;"/><text fill="#000000" font-family="sans-serif" font-size="14" lengthAdjust="spacing" textLength="55.8018" x="1414.2983" y="2134.2461">selected</text><text fill="#000000" font-family="sans-serif" font-size="14" font-weight="bold" lengthAdjust="spacing" textLength="31.0146" x="1426.6919" y="2150.7344">SAM</text><path d="M1424.6992,2157.6875 L1424.6992,2181.6875 M1424.6992,2169.6875 L1441.6992,2169.6875 " fill="none" style="stroke:#181818;stroke-width:0.5;"/><ellipse cx="1453.6992" cy="2169.6875" fill="#90EE90" rx="12" ry="12" style="stroke:#181818;stroke-width:0.5;"/><rect fill="#FFD700" height="2021.2227" style="stroke:#181818;stroke-width:1.0;" width="10" x="75.0166" y="91.4883"/><rect fill="#FFC0CB" height="14" style="stroke:#181818;stroke-width:1.0;" width="10" x="371.7651" y="237.3516"/><rect fill="#FFC0CB" height="90.5527" style="stroke:#181818;stroke-width:1.0;" width="10" x="371.7651" y="705.3203"/><rect fill="#FFC0CB" height="49.3105" style="stroke:#181818;stroke-width:1.0;" width="10" x="371.7651" y="992.0469"/><rect fill="#FFC0CB" height="238.416" style="stroke:#181818;stroke-width:1.0;" width="10" x="371.7651" y="1070.668"/><rect fill="#FFC0CB" height="49.3105" style="stroke:#181818;stroke-width:1.0;" width="10" x="371.7651" y="1353.7051"/><rect fill="#FFC0CB" height="671.3848" style="stroke:#181818;stroke-width:1.0;" width="10" x="371.7651" y="1432.3262"/><rect fill="#FFC0CB" height="395.3477" style="stroke:#181818;stroke-width:1.0;" width="10" x="460.9663" y="280.6621"/><rect fill="#ADD8E6" height="290.7949" style="stroke:#181818;stroke-width:1.0;" width="10" x="660.8813" y="355.9043"/><rect fill="#ADD8E6" height="87.9316" style="stroke:#181818;stroke-width:1.0;" width="10" x="660.8813" y="1130.5996"/><rect fill="#ADD8E6" height="166.5527" style="stroke:#181818;stroke-width:1.0;" width="10" x="660.8813" y="1683.4316"/><rect fill="#ADD8E6" height="1435.459" style="stroke:#181818;stroke-width:1.0;" width="10" x="1007.0591" y="385.2148"/><rect fill="#90EE90" height="131.2422" style="stroke:#181818;stroke-width:1.0;" width="10" x="1092.0664" y="1492.2578"/><rect fill="#90EE90" height="87.9316" style="stroke:#181818;stroke-width:1.0;" width="10" x="1092.0664" y="1909.916"/><rect fill="#90EE90" height="2021.2227" style="stroke:#181818;stroke-width:1.0;" width="10" x="1440.1992" y="91.4883"/><rect fill="#EEEEEE" height="3" style="stroke:#EEEEEE;stroke-width:1.0;" width="1481.1001" x="0" y="112.1436"/><line style="stroke:#000000;stroke-width:1.0;" x1="0" x2="1481.1001" y1="112.1436" y2="112.1436"/><line style="stroke:#000000;stroke-width:1.0;" x1="0" x2="1481.1001" y1="115.1436" y2="115.1436"/><rect fill="#EEEEEE" height="23.3105" style="stroke:#000000;stroke-width:2.0;" width="221.3208" x="629.8896" y="101.4883"/><text fill="#000000" font-family="sans-serif" font-size="13" font-weight="bold" lengthAdjust="spacing" textLength="203.0361" x="635.8896" y="118.0566">Card selection &amp; identification</text><path d="M131,139.7988 L131,164.7988 L621,164.7988 L621,149.7988 L611,139.7988 L131,139.7988 " fill="#FEFFDD" style="stroke:#181818;stroke-width:0.5;"/><path d="M611,139.7988 L611,149.7988 L621,149.7988 L611,139.7988 " fill="#FEFFDD" style="stroke:#181818;stroke-width:0.5;"/><text fill="#000000" font-family="sans-serif" font-size="13" lengthAdjust="spacing" textLength="469.3521" x="137" y="157.3672">Reads the environment data present in all the cards targeted for selection.</text><polygon fill="#181818" points="359.7651,233.3516,369.7651,237.3516,359.7651,241.3516,363.7651,237.3516" style="stroke:#181818;stroke-width:1.0;"/><line style="stroke:#181818;stroke-width:1.0;" x1="85.0166" x2="365.7651" y1="237.3516" y2="237.3516"/><text fill="#FF0000" font-family="sans-serif" font-size="13" font-weight="bold" lengthAdjust="spacing" textLength="51.9238" x="92.0166" y="186.6777">prepare</text><text fill="#000000" font-family="sans-serif" font-size="13" lengthAdjust="spacing" textLength="148.7192" x="148.0537" y="186.6777">card selection scenario:</text><text fill="#000000" font-family="sans-serif" font-size="13" lengthAdjust="spacing" textLength="138.7852" x="124.9229" y="201.9883">- filter by specific AID</text><text fill="#000000" font-family="sans-serif" font-size="13" lengthAdjust="spacing" textLength="138.3853" x="124.9229" y="217.2988">- read SV Load record</text><text fill="#000000" font-family="sans-serif" font-size="13" lengthAdjust="spacing" textLength="148.5161" x="124.9229" y="232.6094">- read SV Debit records</text><polygon fill="#181818" points="96.0166,247.3516,86.0166,251.3516,96.0166,255.3516,92.0166,251.3516" style="stroke:#181818;stroke-width:1.0;"/><line style="stroke:#181818;stroke-width:1.0;stroke-dasharray:2.0,2.0;" x1="90.0166" x2="375.7651" y1="251.3516" y2="251.3516"/><polygon fill="#181818" points="448.9663,276.6621,458.9663,280.6621,448.9663,284.6621,452.9663,280.6621" style="stroke:#181818;stroke-width:1.0;"/><line style="stroke:#181818;stroke-width:1.0;" x1="85.0166" x2="454.9663" y1="280.6621" y2="280.6621"/><text fill="#FF0000" font-family="sans-serif" font-size="13" font-weight="bold" lengthAdjust="spacing" textLength="52.0635" x="92.0166" y="275.9199">process</text><text fill="#000000" font-family="sans-serif" font-size="13" lengthAdjust="spacing" textLength="194.9111" x="148.1934" y="275.9199">explicit card selection scenario</text><polygon fill="#0000FF" points="648.8813,351.9043,658.8813,355.9043,648.8813,359.9043,652.8813,355.9043" style="stroke:#0000FF;stroke-width:1.0;"/><line style="stroke:#0000FF;stroke-width:1.0;" x1="470.9663" x2="654.8813" y1="355.9043" y2="355.9043"/><text fill="#0000FF" font-family="sans-serif" font-size="13" font-weight="bold" lengthAdjust="spacing" textLength="52.8633" x="477.9663" y="305.2305">Card #1</text><text fill="#000000" font-family="sans-serif" font-size="13" lengthAdjust="spacing" textLength="164.7852" x="477.9663" y="320.541">transmit selection request</text><text fill="#000000" font-family="sans-serif" font-size="13" lengthAdjust="spacing" textLength="92.7837" x="510.8726" y="335.8516">- card selector</text><text fill="#000000" font-family="sans-serif" font-size="13" lengthAdjust="spacing" textLength="69.6528" x="510.8726" y="351.1621">- APDU list</text><polygon fill="#181818" points="995.0591,381.2148,1005.0591,385.2148,995.0591,389.2148,999.0591,385.2148" style="stroke:#181818;stroke-width:1.0;"/><line style="stroke:#181818;stroke-width:1.0;" x1="670.8813" x2="1001.0591" y1="385.2148" y2="385.2148"/><text fill="#000000" font-family="sans-serif" font-size="13" lengthAdjust="spacing" textLength="116.0859" x="677.8813" y="380.4727">open card channel</text><polygon fill="#181818" points="681.8813,395.2148,671.8813,399.2148,681.8813,403.2148,677.8813,399.2148" style="stroke:#181818;stroke-width:1.0;"/><line style="stroke:#181818;stroke-width:1.0;stroke-dasharray:2.0,2.0;" x1="675.8813" x2="1006.0591" y1="399.2148" y2="399.2148"/><polygon fill="#181818" points="995.0591,424.5254,1005.0591,428.5254,995.0591,432.5254,999.0591,428.5254" style="stroke:#181818;stroke-width:1.0;"/><line style="stroke:#181818;stroke-width:1.0;" x1="670.8813" x2="1001.0591" y1="428.5254" y2="428.5254"/><text fill="#000000" font-family="sans-serif" font-size="13" lengthAdjust="spacing" textLength="141.7622" x="677.8813" y="423.7832">select application (aid)</text><polygon fill="#181818" points="681.8813,453.8359,671.8813,457.8359,681.8813,461.8359,677.8813,457.8359" style="stroke:#181818;stroke-width:1.0;"/><line style="stroke:#181818;stroke-width:1.0;stroke-dasharray:2.0,2.0;" x1="675.8813" x2="1006.0591" y1="457.8359" y2="457.8359"/><text fill="#000000" font-family="sans-serif" font-size="13" lengthAdjust="spacing" textLength="59.6172" x="687.8813" y="453.0938">[card FCI]</text><line style="stroke:#181818;stroke-width:1.0;" x1="670.8813" x2="712.8813" y1="487.1465" y2="487.1465"/><line style="stroke:#181818;stroke-width:1.0;" x1="712.8813" x2="712.8813" y1="487.1465" y2="500.1465"/><line style="stroke:#181818;stroke-width:1.0;" x1="671.8813" x2="712.8813" y1="500.1465" y2="500.1465"/><polygon fill="#181818" points="681.8813,496.1465,671.8813,500.1465,681.8813,504.1465,677.8813,500.1465" style="stroke:#181818;stroke-width:1.0;"/><text fill="#000000" font-family="sans-serif" font-size="13" lengthAdjust="spacing" textLength="162.5889" x="677.8813" y="482.4043">checks invalidation status</text><polygon fill="#181818" points="995.0591,525.457,1005.0591,529.457,995.0591,533.457,999.0591,529.457" style="stroke:#181818;stroke-width:1.0;"/><line style="stroke:#181818;stroke-width:1.0;" x1="670.8813" x2="1001.0591" y1="529.457" y2="529.457"/><text fill="#000000" font-family="sans-serif" font-size="13" lengthAdjust="spacing" textLength="180.0259" x="677.8813" y="524.7148">read record (SV Load record)</text><polygon fill="#181818" points="681.8813,554.7676,671.8813,558.7676,681.8813,562.7676,677.8813,558.7676" style="stroke:#181818;stroke-width:1.0;"/><line style="stroke:#181818;stroke-width:1.0;stroke-dasharray:2.0,2.0;" x1="675.8813" x2="1006.0591" y1="558.7676" y2="558.7676"/><text fill="#000000" font-family="sans-serif" font-size="13" lengthAdjust="spacing" textLength="103.1685" x="687.8813" y="554.0254">[SV Load record]</text><polygon fill="#181818" points="995.0591,584.0781,1005.0591,588.0781,995.0591,592.0781,999.0591,588.0781" style="stroke:#181818;stroke-width:1.0;"/><line style="stroke:#181818;stroke-width:1.0;" x1="670.8813" x2="1001.0591" y1="588.0781" y2="588.0781"/><text fill="#000000" font-family="sans-serif" font-size="13" lengthAdjust="spacing" textLength="190.1567" x="677.8813" y="583.3359">read record (SV Debit records)</text><polygon fill="#181818" points="681.8813,613.3887,671.8813,617.3887,681.8813,621.3887,677.8813,617.3887" style="stroke:#181818;stroke-width:1.0;"/><line style="stroke:#181818;stroke-width:1.0;stroke-dasharray:2.0,2.0;" x1="675.8813" x2="1006.0591" y1="617.3887" y2="617.3887"/><text fill="#000000" font-family="sans-serif" font-size="13" lengthAdjust="spacing" textLength="109.7954" x="687.8813" y="612.6465">[SV Load records]</text><polygon fill="#0000FF" points="481.9663,642.6992,471.9663,646.6992,481.9663,650.6992,477.9663,646.6992" style="stroke:#0000FF;stroke-width:1.0;"/><line style="stroke:#0000FF;stroke-width:1.0;stroke-dasharray:2.0,2.0;" x1="475.9663" x2="664.8813" y1="646.6992" y2="646.6992"/><text fill="#000000" font-family="sans-serif" font-size="13" lengthAdjust="spacing" textLength="165.915" x="487.9663" y="641.957">receive selection response</text><polygon fill="#181818" points="96.0166,672.0098,86.0166,676.0098,96.0166,680.0098,92.0166,676.0098" style="stroke:#181818;stroke-width:1.0;"/><line style="stroke:#181818;stroke-width:1.0;stroke-dasharray:2.0,2.0;" x1="90.0166" x2="464.9663" y1="676.0098" y2="676.0098"/><text fill="#000000" font-family="sans-serif" font-size="13" lengthAdjust="spacing" textLength="205.1816" x="102.0166" y="671.2676">selected active SmartCard image</text><polygon fill="#181818" points="359.7651,701.3203,369.7651,705.3203,359.7651,709.3203,363.7651,705.3203" style="stroke:#181818;stroke-width:1.0;"/><line style="stroke:#181818;stroke-width:1.0;" x1="85.0166" x2="365.7651" y1="705.3203" y2="705.3203"/><text fill="#000000" font-family="sans-serif" font-size="13" font-weight="bold" lengthAdjust="spacing" textLength="27.1807" x="92.0166" y="700.5781">cast</text><text fill="#000000" font-family="sans-serif" font-size="13" lengthAdjust="spacing" textLength="80.9707" x="123.3105" y="700.5781">Calypso card</text><polygon fill="#181818" points="96.0166,791.873,86.0166,795.873,96.0166,799.873,92.0166,795.873" style="stroke:#181818;stroke-width:1.0;"/><line style="stroke:#181818;stroke-width:1.0;stroke-dasharray:2.0,2.0;" x1="90.0166" x2="375.7651" y1="795.873" y2="795.873"/><text fill="#000000" font-family="sans-serif" font-size="13" lengthAdjust="spacing" textLength="131.8472" x="102.0166" y="729.8887">[Calypso card image:</text><text fill="#000000" font-family="sans-serif" font-size="13" lengthAdjust="spacing" textLength="229.8423" x="134.9229" y="745.1992">- identification data with SV support</text><text fill="#000000" font-family="sans-serif" font-size="13" lengthAdjust="spacing" textLength="93.0439" x="134.9229" y="760.5098">- SV Load data</text><text fill="#000000" font-family="sans-serif" font-size="13" lengthAdjust="spacing" textLength="96.5479" x="134.9229" y="775.8203">- SV Debit data</text><text fill="#000000" font-family="sans-serif" font-size="13" lengthAdjust="spacing" textLength="83.7446" x="134.9229" y="791.1309">- SV balance]</text><rect fill="#EEEEEE" height="3" style="stroke:#EEEEEE;stroke-width:1.0;" width="1481.1001" x="0" y="824.5283"/><line style="stroke:#000000;stroke-width:1.0;" x1="0" x2="1481.1001" y1="824.5283" y2="824.5283"/><line style="stroke:#000000;stroke-width:1.0;" x1="0" x2="1481.1001" y1="827.5283" y2="827.5283"/><rect fill="#EEEEEE" height="23.3105" style="stroke:#000000;stroke-width:2.0;" width="177.8394" x="651.6304" y="813.873"/><text fill="#000000" font-family="sans-serif" font-size="13" font-weight="bold" lengthAdjust="spacing" textLength="159.5547" x="657.6304" y="830.4414">Card secure transaction</text><line style="stroke:#181818;stroke-width:1.0;" x1="85.0166" x2="127.0166" y1="899.1152" y2="899.1152"/><line style="stroke:#181818;stroke-width:1.0;" x1="127.0166" x2="127.0166" y1="899.1152" y2="912.1152"/><line style="stroke:#181818;stroke-width:1.0;" x1="86.0166" x2="127.0166" y1="912.1152" y2="912.1152"/><polygon fill="#181818" points="96.0166,908.1152,86.0166,912.1152,96.0166,916.1152,92.0166,912.1152" style="stroke:#181818;stroke-width:1.0;"/><text fill="#000000" font-family="sans-serif" font-size="13" font-weight="bold" lengthAdjust="spacing" textLength="71.5889" x="92.0166" y="863.752">instantiate</text><text fill="#000000" font-family="sans-serif" font-size="13" lengthAdjust="spacing" textLength="159.7642" x="167.7188" y="863.752">Calypso card transaction:</text><text fill="#000000" font-family="sans-serif" font-size="13" lengthAdjust="spacing" textLength="151.1821" x="124.9229" y="879.0625">- Calypso card resource</text><text fill="#000000" font-family="sans-serif" font-size="13" lengthAdjust="spacing" textLength="151.0107" x="124.9229" y="894.373">- Calypso SAM resource</text><path d="M115,925.1152 L115,950.1152 L637,950.1152 L637,935.1152 L627,925.1152 L115,925.1152 " fill="#FEFFDD" style="stroke:#181818;stroke-width:0.5;"/><path d="M627,925.1152 L627,935.1152 L637,935.1152 L627,925.1152 " fill="#FEFFDD" style="stroke:#181818;stroke-width:0.5;"/><text fill="#000000" font-family="sans-serif" font-size="13" lengthAdjust="spacing" textLength="501.1348" x="121" y="942.6836">Reads again the Stored Value Load record to initiate a Stored Value transaction.</text><polygon fill="#181818" points="359.7651,988.0469,369.7651,992.0469,359.7651,996.0469,363.7651,992.0469" style="stroke:#181818;stroke-width:1.0;"/><line style="stroke:#181818;stroke-width:1.0;" x1="85.0166" x2="365.7651" y1="992.0469" y2="992.0469"/><text fill="#FF0000" font-family="sans-serif" font-size="13" font-weight="bold" lengthAdjust="spacing" textLength="51.9238" x="92.0166" y="971.9941">prepare</text><text fill="#000000" font-family="sans-serif" font-size="13" lengthAdjust="spacing" textLength="106.1328" x="148.0537" y="971.9941">card transaction:</text><text fill="#000000" font-family="sans-serif" font-size="13" lengthAdjust="spacing" textLength="109.3384" x="124.9229" y="987.3047">- SV Get for Load</text><path d="M125,1005.0469 L125,1030.0469 L627,1030.0469 L627,1015.0469 L617,1005.0469 L125,1005.0469 " fill="#FEFFDD" style="stroke:#181818;stroke-width:0.5;"/><path d="M617,1005.0469 L617,1015.0469 L627,1015.0469 L617,1005.0469 " fill="#FEFFDD" style="stroke:#181818;stroke-width:0.5;"/><text fill="#000000" font-family="sans-serif" font-size="13" lengthAdjust="spacing" textLength="174.605" x="131" y="1022.6152">SV Get for Load prepared in</text><text fill="#000000" font-family="sans-serif" font-size="13" font-weight="bold" lengthAdjust="spacing" textLength="24.4893" x="309.7183" y="1022.6152">last</text><text fill="#000000" font-family="sans-serif" font-size="13" lengthAdjust="spacing" textLength="273.9839" x="338.3208" y="1022.6152">position of a card command set to process.</text><polygon fill="#181818" points="96.0166,1037.3574,86.0166,1041.3574,96.0166,1045.3574,92.0166,1041.3574" style="stroke:#181818;stroke-width:1.0;"/><line style="stroke:#181818;stroke-width:1.0;stroke-dasharray:2.0,2.0;" x1="90.0166" x2="375.7651" y1="1041.3574" y2="1041.3574"/><polygon fill="#181818" points="359.7651,1066.668,369.7651,1070.668,359.7651,1074.668,363.7651,1070.668" style="stroke:#181818;stroke-width:1.0;"/><line style="stroke:#181818;stroke-width:1.0;" x1="85.0166" x2="365.7651" y1="1070.668" y2="1070.668"/><text fill="#FF0000" font-family="sans-serif" font-size="13" font-weight="bold" lengthAdjust="spacing" textLength="52.0635" x="92.0166" y="1065.9258">process</text><text fill="#000000" font-family="sans-serif" font-size="13" lengthAdjust="spacing" textLength="200.5542" x="148.1934" y="1065.9258">commands (keep channel open)</text><polygon fill="#0000FF" points="648.8813,1126.5996,658.8813,1130.5996,648.8813,1134.5996,652.8813,1130.5996" style="stroke:#0000FF;stroke-width:1.0;"/><line style="stroke:#0000FF;stroke-width:1.0;" x1="381.7651" x2="654.8813" y1="1130.5996" y2="1130.5996"/><text fill="#0000FF" font-family="sans-serif" font-size="13" font-weight="bold" lengthAdjust="spacing" textLength="52.8633" x="388.7651" y="1095.2363">Card #2</text><text fill="#000000" font-family="sans-serif" font-size="13" lengthAdjust="spacing" textLength="135.9224" x="388.7651" y="1110.5469">transmit card request</text><text fill="#000000" font-family="sans-serif" font-size="13" lengthAdjust="spacing" textLength="69.6528" x="421.6714" y="1125.8574">- APDU list</text><polygon fill="#181818" points="995.0591,1155.9102,1005.0591,1159.9102,995.0591,1163.9102,999.0591,1159.9102" style="stroke:#181818;stroke-width:1.0;"/><line style="stroke:#181818;stroke-width:1.0;" x1="670.8813" x2="1001.0591" y1="1159.9102" y2="1159.9102"/><text fill="#000000" font-family="sans-serif" font-size="13" lengthAdjust="spacing" textLength="106.1582" x="677.8813" y="1155.168">SV Get (for Load)</text><polygon fill="#181818" points="681.8813,1185.2207,671.8813,1189.2207,681.8813,1193.2207,677.8813,1189.2207" style="stroke:#181818;stroke-width:1.0;"/><line style="stroke:#181818;stroke-width:1.0;stroke-dasharray:2.0,2.0;" x1="675.8813" x2="1006.0591" y1="1189.2207" y2="1189.2207"/><text fill="#000000" font-family="sans-serif" font-size="13" lengthAdjust="spacing" textLength="224.8784" x="687.8813" y="1184.4785">[SV Load record, SV Card challenge]</text><polygon fill="#0000FF" points="392.7651,1214.5313,382.7651,1218.5313,392.7651,1222.5313,388.7651,1218.5313" style="stroke:#0000FF;stroke-width:1.0;"/><line style="stroke:#0000FF;stroke-width:1.0;stroke-dasharray:2.0,2.0;" x1="386.7651" x2="664.8813" y1="1218.5313" y2="1218.5313"/><text fill="#000000" font-family="sans-serif" font-size="13" lengthAdjust="spacing" textLength="121.9385" x="398.7651" y="1213.7891">[SV Card challenge]</text><polygon fill="#181818" points="96.0166,1305.084,86.0166,1309.084,96.0166,1313.084,92.0166,1309.084" style="stroke:#181818;stroke-width:1.0;"/><line style="stroke:#181818;stroke-width:1.0;stroke-dasharray:2.0,2.0;" x1="90.0166" x2="375.7651" y1="1309.084" y2="1309.084"/><text fill="#000000" font-family="sans-serif" font-size="13" lengthAdjust="spacing" textLength="131.8472" x="102.0166" y="1243.0996">[Calypso card image:</text><text fill="#000000" font-family="sans-serif" font-size="13" lengthAdjust="spacing" textLength="229.8423" x="134.9229" y="1258.4102">- identification data with SV support</text><text fill="#000000" font-family="sans-serif" font-size="13" lengthAdjust="spacing" textLength="157.5107" x="134.9229" y="1273.7207">- SV Load data (updated)</text><text fill="#000000" font-family="sans-serif" font-size="13" lengthAdjust="spacing" textLength="96.5479" x="134.9229" y="1289.0313">- SV Debit data</text><text fill="#000000" font-family="sans-serif" font-size="13" lengthAdjust="spacing" textLength="148.2114" x="134.9229" y="1304.3418">- SV balance (updated)]</text><polygon fill="#181818" points="359.7651,1349.7051,369.7651,1353.7051,359.7651,1357.7051,363.7651,1353.7051" style="stroke:#181818;stroke-width:1.0;"/><line style="stroke:#181818;stroke-width:1.0;" x1="85.0166" x2="365.7651" y1="1353.7051" y2="1353.7051"/><text fill="#FF0000" font-family="sans-serif" font-size="13" font-weight="bold" lengthAdjust="spacing" textLength="51.9238" x="92.0166" y="1333.6523">prepare</text><text fill="#000000" font-family="sans-serif" font-size="13" lengthAdjust="spacing" textLength="106.1328" x="148.0537" y="1333.6523">card transaction:</text><text fill="#000000" font-family="sans-serif" font-size="13" lengthAdjust="spacing" textLength="174.1733" x="124.9229" y="1348.9629">- SV Load (specific amount)</text><path d="M147,1366.7051 L147,1391.7051 L605,1391.7051 L605,1376.7051 L595,1366.7051 L147,1366.7051 " fill="#FEFFDD" style="stroke:#181818;stroke-width:0.5;"/><path d="M595,1366.7051 L595,1376.7051 L605,1376.7051 L595,1366.7051 " fill="#FEFFDD" style="stroke:#181818;stroke-width:0.5;"/><text fill="#000000" font-family="sans-serif" font-size="13" lengthAdjust="spacing" textLength="126.7944" x="153" y="1384.2734">SV Load prepared in</text><text fill="#000000" font-family="sans-serif" font-size="13" font-weight="bold" lengthAdjust="spacing" textLength="28.1455" x="283.9077" y="1384.2734">first</text><text fill="#000000" font-family="sans-serif" font-size="13" lengthAdjust="spacing" textLength="273.9839" x="316.1665" y="1384.2734">position of a card command set to process.</text><polygon fill="#181818" points="96.0166,1399.0156,86.0166,1403.0156,96.0166,1407.0156,92.0166,1403.0156" style="stroke:#181818;stroke-width:1.0;"/><line style="stroke:#181818;stroke-width:1.0;stroke-dasharray:2.0,2.0;" x1="90.0166" x2="375.7651" y1="1403.0156" y2="1403.0156"/><polygon fill="#181818" points="359.7651,1428.3262,369.7651,1432.3262,359.7651,1436.3262,363.7651,1432.3262" style="stroke:#181818;stroke-width:1.0;"/><line style="stroke:#181818;stroke-width:1.0;" x1="85.0166" x2="365.7651" y1="1432.3262" y2="1432.3262"/><text fill="#FF0000" font-family="sans-serif" font-size="13" font-weight="bold" lengthAdjust="spacing" textLength="52.0635" x="92.0166" y="1427.584">process</text><text fill="#000000" font-family="sans-serif" font-size="13" lengthAdjust="spacing" textLength="200.4653" x="148.1934" y="1427.584">commands (close channel after)</text><polygon fill="#00FF00" points="1080.0664,1488.2578,1090.0664,1492.2578,1080.0664,1496.2578,1084.0664,1492.2578" style="stroke:#00FF00;stroke-width:1.0;"/><line style="stroke:#00FF00;stroke-width:1.0;" x1="381.7651" x2="1086.0664" y1="1492.2578" y2="1492.2578"/><text fill="#008000" font-family="sans-serif" font-size="13" font-weight="bold" lengthAdjust="spacing" textLength="50.2354" x="388.7651" y="1456.8945">SAM #1</text><text fill="#000000" font-family="sans-serif" font-size="13" lengthAdjust="spacing" textLength="135.9224" x="388.7651" y="1472.2051">transmit card request</text><text fill="#000000" font-family="sans-serif" font-size="13" lengthAdjust="spacing" textLength="69.6528" x="421.6714" y="1487.5156">- APDU list</text><polygon fill="#181818" points="1428.1992,1517.5684,1438.1992,1521.5684,1428.1992,1525.5684,1432.1992,1521.5684" style="stroke:#181818;stroke-width:1.0;"/><line style="stroke:#181818;stroke-width:1.0;" x1="1102.0664" x2="1434.1992" y1="1521.5684" y2="1521.5684"/><text fill="#000000" font-family="sans-serif" font-size="13" lengthAdjust="spacing" textLength="181.124" x="1109.0664" y="1516.8262">select diversifier (card serial)</text><polygon fill="#181818" points="1113.0664,1531.5684,1103.0664,1535.5684,1113.0664,1539.5684,1109.0664,1535.5684" style="stroke:#181818;stroke-width:1.0;"/><line style="stroke:#181818;stroke-width:1.0;stroke-dasharray:2.0,2.0;" x1="1107.0664" x2="1439.1992" y1="1535.5684" y2="1535.5684"/><polygon fill="#181818" points="1428.1992,1560.8789,1438.1992,1564.8789,1428.1992,1568.8789,1432.1992,1564.8789" style="stroke:#181818;stroke-width:1.0;"/><line style="stroke:#181818;stroke-width:1.0;" x1="1102.0664" x2="1434.1992" y1="1564.8789" y2="1564.8789"/><text fill="#000000" font-family="sans-serif" font-size="13" lengthAdjust="spacing" textLength="314.1328" x="1109.0664" y="1560.1367">SV prepare Load (SV card challenge, load amount)</text><polygon fill="#181818" points="1113.0664,1590.1895,1103.0664,1594.1895,1113.0664,1598.1895,1109.0664,1594.1895" style="stroke:#181818;stroke-width:1.0;"/><line style="stroke:#181818;stroke-width:1.0;stroke-dasharray:2.0,2.0;" x1="1107.0664" x2="1439.1992" y1="1594.1895" y2="1594.1895"/><text fill="#000000" font-family="sans-serif" font-size="13" lengthAdjust="spacing" textLength="240.8745" x="1119.0664" y="1589.4473">[SV SAM challenge, SV SAM certificate]</text><polygon fill="#00FF00" points="392.7651,1619.5,382.7651,1623.5,392.7651,1627.5,388.7651,1623.5" style="stroke:#00FF00;stroke-width:1.0;"/><line style="stroke:#00FF00;stroke-width:1.0;stroke-dasharray:2.0,2.0;" x1="386.7651" x2="1096.0664" y1="1623.5" y2="1623.5"/><text fill="#000000" font-family="sans-serif" font-size="13" lengthAdjust="spacing" textLength="201.646" x="398.7651" y="1618.7578">[SAM challenge, SAM certificate]</text><polygon fill="#0000FF" points="648.8813,1679.4316,658.8813,1683.4316,648.8813,1687.4316,652.8813,1683.4316" style="stroke:#0000FF;stroke-width:1.0;"/><line style="stroke:#0000FF;stroke-width:1.0;" x1="381.7651" x2="654.8813" y1="1683.4316" y2="1683.4316"/><text fill="#0000FF" font-family="sans-serif" font-size="13" font-weight="bold" lengthAdjust="spacing" textLength="52.8633" x="388.7651" y="1648.0684">Card #3</text><text fill="#000000" font-family="sans-serif" font-size="13" lengthAdjust="spacing" textLength="135.9224" x="388.7651" y="1663.3789">transmit card request</text><text fill="#000000" font-family="sans-serif" font-size="13" lengthAdjust="spacing" textLength="69.6528" x="421.6714" y="1678.6895">- APDU list</text><path d="M394,1696.4316 L394,1721.4316 L936,1721.4316 L936,1706.4316 L926,1696.4316 L394,1696.4316 " fill="#FEFFDD" style="stroke:#181818;stroke-width:0.5;"/><path d="M926,1696.4316 L926,1706.4316 L936,1706.4316 L926,1696.4316 " fill="#FEFFDD" style="stroke:#181818;stroke-width:0.5;"/><text fill="#000000" font-family="sans-serif" font-size="13" lengthAdjust="spacing" textLength="98.9155" x="400" y="1714">SV Load follows</text><text fill="#000000" font-family="sans-serif" font-size="13" font-weight="bold" lengthAdjust="spacing" textLength="57.9795" x="503.0288" y="1714">directely</text><text fill="#000000" font-family="sans-serif" font-size="13" lengthAdjust="spacing" textLength="356.8081" x="565.1216" y="1714">a previously transmitted SV Get for Load card command.</text><polygon fill="#181818" points="995.0591,1744.0527,1005.0591,1748.0527,995.0591,1752.0527,999.0591,1748.0527" style="stroke:#181818;stroke-width:1.0;"/><line style="stroke:#181818;stroke-width:1.0;" x1="670.8813" x2="1001.0591" y1="1748.0527" y2="1748.0527"/><text fill="#000000" font-family="sans-serif" font-size="13" lengthAdjust="spacing" textLength="312.1777" x="677.8813" y="1743.3105">SV Load (amount, SAM challenge, SAM certificate)</text><polygon fill="#181818" points="681.8813,1773.3633,671.8813,1777.3633,681.8813,1781.3633,677.8813,1777.3633" style="stroke:#181818;stroke-width:1.0;"/><line style="stroke:#181818;stroke-width:1.0;stroke-dasharray:2.0,2.0;" x1="675.8813" x2="1006.0591" y1="1777.3633" y2="1777.3633"/><text fill="#000000" font-family="sans-serif" font-size="13" lengthAdjust="spacing" textLength="210.1138" x="687.8813" y="1772.6211">[new balance, SV Card certificate]</text><polygon fill="#181818" points="995.0591,1802.6738,1005.0591,1806.6738,995.0591,1810.6738,999.0591,1806.6738" style="stroke:#181818;stroke-width:1.0;"/><line style="stroke:#181818;stroke-width:1.0;" x1="670.8813" x2="1001.0591" y1="1806.6738" y2="1806.6738"/><text fill="#000000" font-family="sans-serif" font-size="13" lengthAdjust="spacing" textLength="116.8794" x="677.8813" y="1801.9316">close card channel</text><polygon fill="#181818" points="681.8813,1816.6738,671.8813,1820.6738,681.8813,1824.6738,677.8813,1820.6738" style="stroke:#181818;stroke-width:1.0;"/><line style="stroke:#181818;stroke-width:1.0;stroke-dasharray:2.0,2.0;" x1="675.8813" x2="1011.0591" y1="1820.6738" y2="1820.6738"/><polygon fill="#0000FF" points="392.7651,1845.9844,382.7651,1849.9844,392.7651,1853.9844,388.7651,1849.9844" style="stroke:#0000FF;stroke-width:1.0;"/><line style="stroke:#0000FF;stroke-width:1.0;stroke-dasharray:2.0,2.0;" x1="386.7651" x2="664.8813" y1="1849.9844" y2="1849.9844"/><text fill="#000000" font-family="sans-serif" font-size="13" lengthAdjust="spacing" textLength="102.229" x="398.7651" y="1845.2422">[card certificate]</text><polygon fill="#00FF00" points="1080.0664,1905.916,1090.0664,1909.916,1080.0664,1913.916,1084.0664,1909.916" style="stroke:#00FF00;stroke-width:1.0;"/><line style="stroke:#00FF00;stroke-width:1.0;" x1="381.7651" x2="1086.0664" y1="1909.916" y2="1909.916"/><text fill="#008000" font-family="sans-serif" font-size="13" font-weight="bold" lengthAdjust="spacing" textLength="50.2354" x="388.7651" y="1874.5527">SAM #2</text><text fill="#000000" font-family="sans-serif" font-size="13" lengthAdjust="spacing" textLength="135.9224" x="388.7651" y="1889.8633">transmit card request</text><text fill="#000000" font-family="sans-serif" font-size="13" lengthAdjust="spacing" textLength="69.6528" x="421.6714" y="1905.1738">- APDU list</text><polygon fill="#181818" points="1428.1992,1935.2266,1438.1992,1939.2266,1428.1992,1943.2266,1432.1992,1939.2266" style="stroke:#181818;stroke-width:1.0;"/><line style="stroke:#181818;stroke-width:1.0;" x1="1102.0664" x2="1434.1992" y1="1939.2266" y2="1939.2266"/><text fill="#000000" font-family="sans-serif" font-size="13" lengthAdjust="spacing" textLength="164.5186" x="1109.0664" y="1934.4844">SV Check (card certificate)</text><polygon fill="#181818" points="1113.0664,1964.5371,1103.0664,1968.5371,1113.0664,1972.5371,1109.0664,1968.5371" style="stroke:#181818;stroke-width:1.0;"/><line style="stroke:#181818;stroke-width:1.0;stroke-dasharray:2.0,2.0;" x1="1107.0664" x2="1439.1992" y1="1968.5371" y2="1968.5371"/><text fill="#000000" font-family="sans-serif" font-size="13" lengthAdjust="spacing" textLength="141.4131" x="1119.0664" y="1963.7949">[authentication status]</text><polygon fill="#00FF00" points="392.7651,1993.8477,382.7651,1997.8477,392.7651,2001.8477,388.7651,1997.8477" style="stroke:#00FF00;stroke-width:1.0;"/><line style="stroke:#00FF00;stroke-width:1.0;stroke-dasharray:2.0,2.0;" x1="386.7651" x2="1096.0664" y1="1997.8477" y2="1997.8477"/><text fill="#000000" font-family="sans-serif" font-size="13" lengthAdjust="spacing" textLength="149.9507" x="398.7651" y="1993.1055">[authentification status]</text><polygon fill="#181818" points="96.0166,2099.7109,86.0166,2103.7109,96.0166,2107.7109,92.0166,2103.7109" style="stroke:#181818;stroke-width:1.0;"/><line style="stroke:#181818;stroke-width:1.0;stroke-dasharray:2.0,2.0;" x1="90.0166" x2="375.7651" y1="2103.7109" y2="2103.7109"/><text fill="#000000" font-family="sans-serif" font-size="13" lengthAdjust="spacing" textLength="131.8472" x="102.0166" y="2022.416">[Calypso card image:</text><text fill="#000000" font-family="sans-serif" font-size="13" lengthAdjust="spacing" textLength="229.8423" x="134.9229" y="2037.7266">- identification data with SV support</text><text fill="#000000" font-family="sans-serif" font-size="13" lengthAdjust="spacing" textLength="157.5107" x="134.9229" y="2053.0371">- SV Load data (updated)</text><text fill="#000000" font-family="sans-serif" font-size="13" lengthAdjust="spacing" textLength="96.5479" x="134.9229" y="2068.3477">- SV Debit data</text><text fill="#000000" font-family="sans-serif" font-size="13" lengthAdjust="spacing" textLength="148.2114" x="134.9229" y="2083.6582">- SV balance (updated)]</text><text fill="#000000" font-family="sans-serif" font-size="13" lengthAdjust="spacing" textLength="141.4956" x="102.0166" y="2098.9688">authentification status</text><!--SRC=[pLTRRo8t57wVNs4bKfUCbZOXfDb42H8CCwj8hRhQjFkouS6PCM1biAUs8Sk_xx4z5nk6ItfHDoy4-nn_v_PzDk_a2sK55dY1eXnBEU8Y8oBYEHVeDBc8-kT9iCzat1z6vsF7H2eY25VhWWmzm-7DE1edhOOFdk6eFxoEhreD8__4yVXYr6irZ3t3U7HpwKFFSSPVAPkXASub2PojHuKLsP_XC5LqHTMwpIfuXpwJRAjYE7sP2RvacR6-knCa6moWlkDu74TxwbjRnjVzw38AvZGZg5fiqWNKJqjHvEGWS67C37O_ZfBhlTYDyOUutn-EA_XwtOlWELyUnjT69fzHSfMCzg9NffVzcm_ZKOLThdh87mKXx23qJ5iPx64oJ2xsOjUslJYAhYygy6hPGGVutmHciyEfSsDcsvxqufkz0JJ6yS_NSQzNHL2l-o501TR7561jyu-ZE3wKlp7jHPVnrRcJ_de36gSAfl_aTvg-4AK9DIoAdAPOKSvE49O85mKwdV4y2m1BqPGMc2bq4k5yNKZ-n28iCZJyz62CKrnGT5fGzk9RVoOOOglDn0wpyb2aptnYrgayLsJb6QSvdStLIC_giwuD5cjq4eRQ9GnhOzUi5U9n-Ak78F720x0ZsI18afDK4GWh3C6tX08lprwNawv0W9oorKjRnlVt9bDapuQ2enyGD8efEYqxWExlWu1nSEOh24sNDq3mfqELICq98cn51MSBy48PLXWLWaZzXJA4yzpOw8A0DHOp0XcWAJIyXlmn82n36WA2BuhkG6FSehifXpDIFKptMgp24Cw5Gf8mlFj9xmricPlGPKeO5fJVFh4drKLJciEKeUSraWL9TK9e-32sUmAYHuzVq2ySFWL9kUwskp4cprILEx8fe9ckScxq_ztk048ECk9Pb7c8dNdmb4ZPv46-wO47l1q9DVZ2mTV_Tx-UdiDVaam6pO3wc4Rjx7IYquiQz8afq06v0DG6K90_bqGgMmed62xiql3J-0-KKwdSYhJn8cYMkoQoMyGBmkoPwHmpHdB_3DTRV-zsdOnQZhE1wI6lj09rCCtEjfrlqLS3a4GFaws3AfDqJj8N2IExmZdDx7aIxl6b16tK4bYWKcQW0YbVB323WUPB9RMkIP8kXVwG4XmDFxOZDgDb9mfr_Daxgrqs8_Vj9aSUxKtliOVBIV0EcEZrpfalEyrWIkYAU3CZ2yxW1UIHeEwS7LD3awff8036ag371GYZgIjTu9btX6XuPFKW35CiLHYYIZyro25cGfAkkOKfzM53vunqlL8rr_INowBWeYH2LIPjKQ_O4djBppZ7B2MJO5iF6fqrWsAeXzDQNqsQ9jmmf0pc3W83vuraNRSo1syREi6N8YN-5bmLzSuU9SSp37gjjVeHw0uj-eA1Ykvy8CM17zH4Xh1lvaJs3-LyEqUex4UYp9sXesblUKjU6twenClqlHI6kHscWajgsi2da9EL9yjkw9NIAPTgxQHrKFZJOuM_5fBE2o559On6Ai_QyxJWRrJzNflgboFZ2FxnwhvR4M5whI3kKyAoCvsgDSSgr7lj6PLNI9uJUCRkropRYAyjNZl4wZzK3jHP5l19ihCZDAGndhnvnevcbGcjKp-Ey0AUckhiBVnguTMKYk-AM6dE9QcPXQVm93n8hIGvFvyCwlUuZsX_m9ad-8xtr57CQd_j1_LoL-FNpvmCRaiXeKrWtoaVPeBY_4mxTBjDh5i7G9VA1fNzXeNK8yDxbEkDglqR1rhww6GTXsg5Y986-j9haEiQTci6RlXlEZljRbBvMrft-RzfdKkHMb5SeanvdlDN2IJ9gD3le7mDH36_brQKBsM-HbN4-esqUN-v7798irDYRRjjMz-Z_HtOhS2Cl5QYvCYlsxij0Iv3A9ddllYt7_OREkoTKtU-7gDq2toVZh-Dohr_cSejH8pqZuoIlrxnjpc7b_0KWqicTN-A721PvJFTzDh3hk_hhdjYEtBOl0_-0W00]--></g></svg>