<?xml version="1.0" encoding="UTF-8" standalone="no"?><svg xmlns="http://www.w3.org/2000/svg" xmlns:xlink="http://www.w3.org/1999/xlink" contentStyleType="text/css" height="2361px" preserveAspectRatio="none" style="width:1414px;height:2361px;background:#FFFFFF;" version="1.1" viewBox="0 0 1414 2361" width="1414px" zoomAndPan="magnify"><defs/><g><rect fill="#FFD700" height="2175.6992" style="stroke:#181818;stroke-width:1.0;" width="10" x="68" y="93.6211"/><rect fill="#FFC0CB" height="14" style="stroke:#181818;stroke-width:1.0;" width="10" x="339" y="251.3672"/><rect fill="#FFC0CB" height="100.4551" style="stroke:#181818;stroke-width:1.0;" width="10" x="339" y="751.0234"/><rect fill="#FFC0CB" height="51.291" style="stroke:#181818;stroke-width:1.0;" width="10" x="339" y="1061.5156"/><rect fill="#FFC0CB" height="260.2012" style="stroke:#181818;stroke-width:1.0;" width="10" x="339" y="1144.0977"/><rect fill="#FFC0CB" height="51.291" style="stroke:#181818;stroke-width:1.0;" width="10" x="339" y="1452.8809"/><rect fill="#FFC0CB" height="724.8574" style="stroke:#181818;stroke-width:1.0;" width="10" x="339" y="1535.4629"/><rect fill="#FFC0CB" height="423.0742" style="stroke:#181818;stroke-width:1.0;" width="10" x="437" y="296.6582"/><rect fill="#ADD8E6" height="308.6191" style="stroke:#181818;stroke-width:1.0;" width="10" x="624" y="379.8223"/><rect fill="#ADD8E6" height="93.873" style="stroke:#181818;stroke-width:1.0;" width="10" x="624" y="1209.9707"/><rect fill="#ADD8E6" height="176.4551" style="stroke:#181818;stroke-width:1.0;" width="10" x="624" y="1806.373"/><rect fill="#ADD8E6" height="1540.4238" style="stroke:#181818;stroke-width:1.0;" width="10" x="956" y="411.1133"/><rect fill="#90EE90" height="139.1641" style="stroke:#181818;stroke-width:1.0;" width="10" x="1039.5" y="1601.3359"/><rect fill="#90EE90" height="93.873" style="stroke:#181818;stroke-width:1.0;" width="10" x="1039.5" y="2048.7012"/><rect fill="#90EE90" height="2175.6992" style="stroke:#181818;stroke-width:1.0;" width="10" x="1367.5" y="93.6211"/><line style="stroke:#181818;stroke-width:0.5;stroke-dasharray:5.0,5.0;" x1="73" x2="73" y1="83.6211" y2="2278.3203"/><line style="stroke:#181818;stroke-width:0.5;stroke-dasharray:5.0,5.0;" x1="344" x2="344" y1="83.6211" y2="2278.3203"/><line style="stroke:#181818;stroke-width:0.5;stroke-dasharray:5.0,5.0;" x1="442" x2="442" y1="83.6211" y2="2278.3203"/><line style="stroke:#181818;stroke-width:0.5;stroke-dasharray:5.0,5.0;" x1="629" x2="629" y1="83.6211" y2="2278.3203"/><line style="stroke:#181818;stroke-width:0.5;stroke-dasharray:5.0,5.0;" x1="960.5" x2="960.5" y1="83.6211" y2="2278.3203"/><line style="stroke:#181818;stroke-width:0.5;stroke-dasharray:5.0,5.0;" x1="1044.5" x2="1044.5" y1="83.6211" y2="2278.3203"/><line style="stroke:#181818;stroke-width:0.5;stroke-dasharray:5.0,5.0;" x1="1372" x2="1372" y1="83.6211" y2="2278.3203"/><text fill="#000000" font-family="sans-serif" font-size="14" lengthAdjust="spacing" textLength="130" x="5" y="80.1074">Ticketing Application</text><ellipse cx="73" cy="13.5" fill="#FFD700" rx="8" ry="8" style="stroke:#181818;stroke-width:0.5;"/><path d="M73,21.5 L73,48.5 M60,29.5 L86,29.5 M73,48.5 L60,63.5 M73,48.5 L86,63.5 " fill="none" style="stroke:#181818;stroke-width:0.5;"/><text fill="#000000" font-family="sans-serif" font-size="14" lengthAdjust="spacing" textLength="130" x="5" y="2292.4277">Ticketing Application</text><ellipse cx="73" cy="2304.4414" fill="#FFD700" rx="8" ry="8" style="stroke:#181818;stroke-width:0.5;"/><path d="M73,2312.4414 L73,2339.4414 M60,2320.4414 L86,2320.4414 M73,2339.4414 L60,2354.4414 M73,2339.4414 L86,2354.4414 " fill="none" style="stroke:#181818;stroke-width:0.5;"/><rect fill="#FFC0CB" height="32.6211" rx="2.5" ry="2.5" style="stroke:#181818;stroke-width:0.5;" width="90" x="299" y="50"/><text fill="#000000" font-family="sans-serif" font-size="14" lengthAdjust="spacing" textLength="76" x="306" y="72.1074">Calypso API</text><rect fill="#FFC0CB" height="32.6211" rx="2.5" ry="2.5" style="stroke:#181818;stroke-width:0.5;" width="90" x="299" y="2277.3203"/><text fill="#000000" font-family="sans-serif" font-size="14" lengthAdjust="spacing" textLength="76" x="306" y="2299.4277">Calypso API</text><rect fill="#FFC0CB" height="32.6211" rx="2.5" ry="2.5" style="stroke:#181818;stroke-width:0.5;" width="86" x="399" y="50"/><text fill="#000000" font-family="sans-serif" font-size="14" lengthAdjust="spacing" textLength="72" x="406" y="72.1074">Reader API</text><rect fill="#FFC0CB" height="32.6211" rx="2.5" ry="2.5" style="stroke:#181818;stroke-width:0.5;" width="86" x="399" y="2277.3203"/><text fill="#000000" font-family="sans-serif" font-size="14" lengthAdjust="spacing" textLength="72" x="406" y="2299.4277">Reader API</text><rect fill="#ADD8E6" height="51.2422" rx="2.5" ry="2.5" style="stroke:#181818;stroke-width:0.5;" width="100" x="579" y="31.3789"/><text fill="#000000" font-family="sans-serif" font-size="14" lengthAdjust="spacing" textLength="86" x="586" y="53.4863">Calypso Card</text><text fill="#000000" font-family="sans-serif" font-size="14" lengthAdjust="spacing" textLength="47" x="605.5" y="72.1074">Reader</text><rect fill="#ADD8E6" height="51.2422" rx="2.5" ry="2.5" style="stroke:#181818;stroke-width:0.5;" width="100" x="579" y="2277.3203"/><text fill="#000000" font-family="sans-serif" font-size="14" lengthAdjust="spacing" textLength="86" x="586" y="2299.4277">Calypso Card</text><text fill="#000000" font-family="sans-serif" font-size="14" lengthAdjust="spacing" textLength="47" x="605.5" y="2318.0488">Reader</text><text fill="#000000" font-family="sans-serif" font-size="14" font-weight="bold" lengthAdjust="spacing" textLength="33" x="941.5" y="80.1074">Card</text><path d="M940.5,37 L940.5,61 M940.5,49 L957.5,49 " fill="none" style="stroke:#181818;stroke-width:0.5;"/><ellipse cx="969.5" cy="49" fill="#ADD8E6" rx="12" ry="12" style="stroke:#181818;stroke-width:0.5;"/><text fill="#000000" font-family="sans-serif" font-size="14" font-weight="bold" lengthAdjust="spacing" textLength="33" x="941.5" y="2292.4277">Card</text><path d="M940.5,2299.9414 L940.5,2323.9414 M940.5,2311.9414 L957.5,2311.9414 " fill="none" style="stroke:#181818;stroke-width:0.5;"/><ellipse cx="969.5" cy="2311.9414" fill="#ADD8E6" rx="12" ry="12" style="stroke:#181818;stroke-width:0.5;"/><rect fill="#90EE90" height="51.2422" rx="2.5" ry="2.5" style="stroke:#181818;stroke-width:0.5;" width="98" x="995.5" y="31.3789"/><text fill="#000000" font-family="sans-serif" font-size="14" lengthAdjust="spacing" textLength="84" x="1002.5" y="53.4863">Calypso SAM</text><text fill="#000000" font-family="sans-serif" font-size="14" lengthAdjust="spacing" textLength="47" x="1021" y="72.1074">Reader</text><rect fill="#90EE90" height="51.2422" rx="2.5" ry="2.5" style="stroke:#181818;stroke-width:0.5;" width="98" x="995.5" y="2277.3203"/><text fill="#000000" font-family="sans-serif" font-size="14" lengthAdjust="spacing" textLength="84" x="1002.5" y="2299.4277">Calypso SAM</text><text fill="#000000" font-family="sans-serif" font-size="14" lengthAdjust="spacing" textLength="47" x="1021" y="2318.0488">Reader</text><text fill="#000000" font-family="sans-serif" font-size="14" lengthAdjust="spacing" textLength="53" x="1343" y="61.4863">selected</text><text fill="#000000" font-family="sans-serif" font-size="14" font-weight="bold" lengthAdjust="spacing" textLength="31" x="1354" y="80.1074">SAM</text><path d="M1352,18.3789 L1352,42.3789 M1352,30.3789 L1369,30.3789 " fill="none" style="stroke:#181818;stroke-width:0.5;"/><ellipse cx="1381" cy="30.3789" fill="#90EE90" rx="12" ry="12" style="stroke:#181818;stroke-width:0.5;"/><text fill="#000000" font-family="sans-serif" font-size="14" lengthAdjust="spacing" textLength="53" x="1343" y="2292.4277">selected</text><text fill="#000000" font-family="sans-serif" font-size="14" font-weight="bold" lengthAdjust="spacing" textLength="31" x="1354" y="2311.0488">SAM</text><path d="M1352,2318.5625 L1352,2342.5625 M1352,2330.5625 L1369,2330.5625 " fill="none" style="stroke:#181818;stroke-width:0.5;"/><ellipse cx="1381" cy="2330.5625" fill="#90EE90" rx="12" ry="12" style="stroke:#181818;stroke-width:0.5;"/><rect fill="#FFD700" height="2175.6992" style="stroke:#181818;stroke-width:1.0;" width="10" x="68" y="93.6211"/><rect fill="#FFC0CB" height="14" style="stroke:#181818;stroke-width:1.0;" width="10" x="339" y="251.3672"/><rect fill="#FFC0CB" height="100.4551" style="stroke:#181818;stroke-width:1.0;" width="10" x="339" y="751.0234"/><rect fill="#FFC0CB" height="51.291" style="stroke:#181818;stroke-width:1.0;" width="10" x="339" y="1061.5156"/><rect fill="#FFC0CB" height="260.2012" style="stroke:#181818;stroke-width:1.0;" width="10" x="339" y="1144.0977"/><rect fill="#FFC0CB" height="51.291" style="stroke:#181818;stroke-width:1.0;" width="10" x="339" y="1452.8809"/><rect fill="#FFC0CB" height="724.8574" style="stroke:#181818;stroke-width:1.0;" width="10" x="339" y="1535.4629"/><rect fill="#FFC0CB" height="423.0742" style="stroke:#181818;stroke-width:1.0;" width="10" x="437" y="296.6582"/><rect fill="#ADD8E6" height="308.6191" style="stroke:#181818;stroke-width:1.0;" width="10" x="624" y="379.8223"/><rect fill="#ADD8E6" height="93.873" style="stroke:#181818;stroke-width:1.0;" width="10" x="624" y="1209.9707"/><rect fill="#ADD8E6" height="176.4551" style="stroke:#181818;stroke-width:1.0;" width="10" x="624" y="1806.373"/><rect fill="#ADD8E6" height="1540.4238" style="stroke:#181818;stroke-width:1.0;" width="10" x="956" y="411.1133"/><rect fill="#90EE90" height="139.1641" style="stroke:#181818;stroke-width:1.0;" width="10" x="1039.5" y="1601.3359"/><rect fill="#90EE90" height="93.873" style="stroke:#181818;stroke-width:1.0;" width="10" x="1039.5" y="2048.7012"/><rect fill="#90EE90" height="2175.6992" style="stroke:#181818;stroke-width:1.0;" width="10" x="1367.5" y="93.6211"/><rect fill="#EEEEEE" height="3" style="stroke:#EEEEEE;stroke-width:1.0;" width="1407" x="0" y="115.2666"/><line style="stroke:#000000;stroke-width:1.0;" x1="0" x2="1407" y1="115.2666" y2="115.2666"/><line style="stroke:#000000;stroke-width:1.0;" x1="0" x2="1407" y1="118.2666" y2="118.2666"/><rect fill="#EEEEEE" height="25.291" style="stroke:#000000;stroke-width:2.0;" width="209" x="599" y="103.6211"/><text fill="#000000" font-family="sans-serif" font-size="13" font-weight="bold" lengthAdjust="spacing" textLength="191" x="605" y="121.6494">Card selection &amp; identification</text><path d="M120,143.9121 L120,170.9121 L567,170.9121 L567,153.9121 L557,143.9121 L120,143.9121 " fill="#FEFFDD" style="stroke:#181818;stroke-width:0.5;"/><path d="M557,143.9121 L557,153.9121 L567,153.9121 L557,143.9121 " fill="#FEFFDD" style="stroke:#181818;stroke-width:0.5;"/><text fill="#000000" font-family="sans-serif" font-size="13" lengthAdjust="spacing" textLength="426" x="126" y="162.9404">Reads the environment data present in all the cards targeted for selection.</text><polygon fill="#181818" points="327,247.3672,337,251.3672,327,255.3672,331,251.3672" style="stroke:#181818;stroke-width:1.0;"/><line style="stroke:#181818;stroke-width:1.0;" x1="78" x2="333" y1="251.3672" y2="251.3672"/><text fill="#FF0000" font-family="sans-serif" font-size="13" font-weight="bold" lengthAdjust="spacing" textLength="50" x="85" y="194.2314">prepare</text><text fill="#000000" font-family="sans-serif" font-size="13" lengthAdjust="spacing" textLength="138" x="139" y="194.2314">card selection scenario:</text><text fill="#000000" font-family="sans-serif" font-size="13" lengthAdjust="spacing" textLength="123" x="117" y="211.5225">- filter by specific AID</text><text fill="#000000" font-family="sans-serif" font-size="13" lengthAdjust="spacing" textLength="127" x="117" y="228.8135">- read SV Load record</text><text fill="#000000" font-family="sans-serif" font-size="13" lengthAdjust="spacing" textLength="136" x="117" y="246.1045">- read SV Debit records</text><polygon fill="#181818" points="89,261.3672,79,265.3672,89,269.3672,85,265.3672" style="stroke:#181818;stroke-width:1.0;"/><line style="stroke:#181818;stroke-width:1.0;stroke-dasharray:2.0,2.0;" x1="83" x2="343" y1="265.3672" y2="265.3672"/><polygon fill="#181818" points="425,292.6582,435,296.6582,425,300.6582,429,296.6582" style="stroke:#181818;stroke-width:1.0;"/><line style="stroke:#181818;stroke-width:1.0;" x1="78" x2="431" y1="296.6582" y2="296.6582"/><text fill="#FF0000" font-family="sans-serif" font-size="13" font-weight="bold" lengthAdjust="spacing" textLength="48" x="85" y="291.3955">process</text><text fill="#000000" font-family="sans-serif" font-size="13" lengthAdjust="spacing" textLength="179" x="137" y="291.3955">explicit card selection scenario</text><polygon fill="#0000FF" points="612,375.8223,622,379.8223,612,383.8223,616,379.8223" style="stroke:#0000FF;stroke-width:1.0;"/><line style="stroke:#0000FF;stroke-width:1.0;" x1="447" x2="618" y1="379.8223" y2="379.8223"/><text fill="#0000FF" font-family="sans-serif" font-size="13" font-weight="bold" lengthAdjust="spacing" textLength="48" x="454" y="322.6865">Card #1</text><text fill="#000000" font-family="sans-serif" font-size="13" lengthAdjust="spacing" textLength="150" x="454" y="339.9775">transmit selection request</text><text fill="#000000" font-family="sans-serif" font-size="13" lengthAdjust="spacing" textLength="83" x="486" y="357.2686">- card selector</text><text fill="#000000" font-family="sans-serif" font-size="13" lengthAdjust="spacing" textLength="65" x="486" y="374.5596">- APDU list</text><polygon fill="#181818" points="944,407.1133,954,411.1133,944,415.1133,948,411.1133" style="stroke:#181818;stroke-width:1.0;"/><line style="stroke:#181818;stroke-width:1.0;" x1="634" x2="950" y1="411.1133" y2="411.1133"/><text fill="#000000" font-family="sans-serif" font-size="13" lengthAdjust="spacing" textLength="106" x="641" y="405.8506">open card channel</text><polygon fill="#181818" points="645,421.1133,635,425.1133,645,429.1133,641,425.1133" style="stroke:#181818;stroke-width:1.0;"/><line style="stroke:#181818;stroke-width:1.0;stroke-dasharray:2.0,2.0;" x1="639" x2="955" y1="425.1133" y2="425.1133"/><polygon fill="#181818" points="944,452.4043,954,456.4043,944,460.4043,948,456.4043" style="stroke:#181818;stroke-width:1.0;"/><line style="stroke:#181818;stroke-width:1.0;" x1="634" x2="950" y1="456.4043" y2="456.4043"/><text fill="#000000" font-family="sans-serif" font-size="13" lengthAdjust="spacing" textLength="130" x="641" y="451.1416">select application (aid)</text><polygon fill="#181818" points="645,483.6953,635,487.6953,645,491.6953,641,487.6953" style="stroke:#181818;stroke-width:1.0;"/><line style="stroke:#181818;stroke-width:1.0;stroke-dasharray:2.0,2.0;" x1="639" x2="955" y1="487.6953" y2="487.6953"/><text fill="#000000" font-family="sans-serif" font-size="13" lengthAdjust="spacing" textLength="57" x="651" y="482.4326">[card FCI]</text><line style="stroke:#181818;stroke-width:1.0;" x1="634" x2="676" y1="518.9863" y2="518.9863"/><line style="stroke:#181818;stroke-width:1.0;" x1="676" x2="676" y1="518.9863" y2="531.9863"/><line style="stroke:#181818;stroke-width:1.0;" x1="635" x2="676" y1="531.9863" y2="531.9863"/><polygon fill="#181818" points="645,527.9863,635,531.9863,645,535.9863,641,531.9863" style="stroke:#181818;stroke-width:1.0;"/><text fill="#000000" font-family="sans-serif" font-size="13" lengthAdjust="spacing" textLength="149" x="641" y="513.7236">checks invalidation status</text><polygon fill="#181818" points="944,559.2773,954,563.2773,944,567.2773,948,563.2773" style="stroke:#181818;stroke-width:1.0;"/><line style="stroke:#181818;stroke-width:1.0;" x1="634" x2="950" y1="563.2773" y2="563.2773"/><text fill="#000000" font-family="sans-serif" font-size="13" lengthAdjust="spacing" textLength="167" x="641" y="558.0146">read record (SV Load record)</text><polygon fill="#181818" points="645,590.5684,635,594.5684,645,598.5684,641,594.5684" style="stroke:#181818;stroke-width:1.0;"/><line style="stroke:#181818;stroke-width:1.0;stroke-dasharray:2.0,2.0;" x1="639" x2="955" y1="594.5684" y2="594.5684"/><text fill="#000000" font-family="sans-serif" font-size="13" lengthAdjust="spacing" textLength="98" x="651" y="589.3057">[SV Load record]</text><polygon fill="#181818" points="944,621.8594,954,625.8594,944,629.8594,948,625.8594" style="stroke:#181818;stroke-width:1.0;"/><line style="stroke:#181818;stroke-width:1.0;" x1="634" x2="950" y1="625.8594" y2="625.8594"/><text fill="#000000" font-family="sans-serif" font-size="13" lengthAdjust="spacing" textLength="176" x="641" y="620.5967">read record (SV Debit records)</text><polygon fill="#181818" points="645,653.1504,635,657.1504,645,661.1504,641,657.1504" style="stroke:#181818;stroke-width:1.0;"/><line style="stroke:#181818;stroke-width:1.0;stroke-dasharray:2.0,2.0;" x1="639" x2="955" y1="657.1504" y2="657.1504"/><text fill="#000000" font-family="sans-serif" font-size="13" lengthAdjust="spacing" textLength="105" x="651" y="651.8877">[SV Load records]</text><polygon fill="#0000FF" points="458,684.4414,448,688.4414,458,692.4414,454,688.4414" style="stroke:#0000FF;stroke-width:1.0;"/><line style="stroke:#0000FF;stroke-width:1.0;stroke-dasharray:2.0,2.0;" x1="452" x2="628" y1="688.4414" y2="688.4414"/><text fill="#000000" font-family="sans-serif" font-size="13" lengthAdjust="spacing" textLength="153" x="464" y="683.1787">receive selection response</text><polygon fill="#181818" points="89,715.7324,79,719.7324,89,723.7324,85,719.7324" style="stroke:#181818;stroke-width:1.0;"/><line style="stroke:#181818;stroke-width:1.0;stroke-dasharray:2.0,2.0;" x1="83" x2="441" y1="719.7324" y2="719.7324"/><text fill="#000000" font-family="sans-serif" font-size="13" lengthAdjust="spacing" textLength="191" x="95" y="714.4697">selected active SmartCard image</text><polygon fill="#181818" points="327,747.0234,337,751.0234,327,755.0234,331,751.0234" style="stroke:#181818;stroke-width:1.0;"/><line style="stroke:#181818;stroke-width:1.0;" x1="78" x2="333" y1="751.0234" y2="751.0234"/><text fill="#000000" font-family="sans-serif" font-size="13" font-weight="bold" lengthAdjust="spacing" textLength="25" x="85" y="745.7607">cast</text><text fill="#000000" font-family="sans-serif" font-size="13" lengthAdjust="spacing" textLength="76" x="114" y="745.7607">Calypso card</text><polygon fill="#181818" points="89,847.4785,79,851.4785,89,855.4785,85,851.4785" style="stroke:#181818;stroke-width:1.0;"/><line style="stroke:#181818;stroke-width:1.0;stroke-dasharray:2.0,2.0;" x1="83" x2="343" y1="851.4785" y2="851.4785"/><text fill="#000000" font-family="sans-serif" font-size="13" lengthAdjust="spacing" textLength="123" x="95" y="777.0518">[Calypso card image:</text><text fill="#000000" font-family="sans-serif" font-size="13" lengthAdjust="spacing" textLength="205" x="127" y="794.3428">- identification data with SV support</text><text fill="#000000" font-family="sans-serif" font-size="13" lengthAdjust="spacing" textLength="87" x="127" y="811.6338">- SV Load data</text><text fill="#000000" font-family="sans-serif" font-size="13" lengthAdjust="spacing" textLength="89" x="127" y="828.9248">- SV Debit data</text><text fill="#000000" font-family="sans-serif" font-size="13" lengthAdjust="spacing" textLength="79" x="127" y="846.2158">- SV balance]</text><rect fill="#EEEEEE" height="3" style="stroke:#EEEEEE;stroke-width:1.0;" width="1407" x="0" y="881.124"/><line style="stroke:#000000;stroke-width:1.0;" x1="0" x2="1407" y1="881.124" y2="881.124"/><line style="stroke:#000000;stroke-width:1.0;" x1="0" x2="1407" y1="884.124" y2="884.124"/><rect fill="#EEEEEE" height="25.291" style="stroke:#000000;stroke-width:2.0;" width="168" x="619.5" y="869.4785"/><text fill="#000000" font-family="sans-serif" font-size="13" font-weight="bold" lengthAdjust="spacing" textLength="150" x="625.5" y="887.5068">Card secure transaction</text><line style="stroke:#181818;stroke-width:1.0;" x1="78" x2="120" y1="962.6426" y2="962.6426"/><line style="stroke:#181818;stroke-width:1.0;" x1="120" x2="120" y1="962.6426" y2="975.6426"/><line style="stroke:#181818;stroke-width:1.0;" x1="79" x2="120" y1="975.6426" y2="975.6426"/><polygon fill="#181818" points="89,971.6426,79,975.6426,89,979.6426,85,975.6426" style="stroke:#181818;stroke-width:1.0;"/><text fill="#000000" font-family="sans-serif" font-size="13" font-weight="bold" lengthAdjust="spacing" textLength="66" x="85" y="922.7979">instantiate</text><text fill="#000000" font-family="sans-serif" font-size="13" lengthAdjust="spacing" textLength="148" x="155" y="922.7979">Calypso card transaction:</text><text fill="#000000" font-family="sans-serif" font-size="13" lengthAdjust="spacing" textLength="138" x="117" y="940.0889">- Calypso card resource</text><text fill="#000000" font-family="sans-serif" font-size="13" lengthAdjust="spacing" textLength="142" x="117" y="957.3799">- Calypso SAM resource</text><path d="M101,988.6426 L101,1015.6426 L586,1015.6426 L586,998.6426 L576,988.6426 L101,988.6426 " fill="#FEFFDD" style="stroke:#181818;stroke-width:0.5;"/><path d="M576,988.6426 L576,998.6426 L586,998.6426 L576,988.6426 " fill="#FEFFDD" style="stroke:#181818;stroke-width:0.5;"/><text fill="#000000" font-family="sans-serif" font-size="13" lengthAdjust="spacing" textLength="464" x="107" y="1007.6709">Reads again the Stored Value Load record to initiate a Stored Value transaction.</text><polygon fill="#181818" points="327,1057.5156,337,1061.5156,327,1065.5156,331,1061.5156" style="stroke:#181818;stroke-width:1.0;"/><line style="stroke:#181818;stroke-width:1.0;" x1="78" x2="333" y1="1061.5156" y2="1061.5156"/><text fill="#FF0000" font-family="sans-serif" font-size="13" font-weight="bold" lengthAdjust="spacing" textLength="50" x="85" y="1038.9619">prepare</text><text fill="#000000" font-family="sans-serif" font-size="13" lengthAdjust="spacing" textLength="97" x="139" y="1038.9619">card transaction:</text><text fill="#000000" font-family="sans-serif" font-size="13" lengthAdjust="spacing" textLength="101" x="117" y="1056.2529">- SV Get for Load</text><path d="M112,1074.5156 L112,1101.5156 L575,1101.5156 L575,1084.5156 L565,1074.5156 L112,1074.5156 " fill="#FEFFDD" style="stroke:#181818;stroke-width:0.5;"/><path d="M565,1074.5156 L565,1084.5156 L575,1084.5156 L565,1074.5156 " fill="#FEFFDD" style="stroke:#181818;stroke-width:0.5;"/><text fill="#000000" font-family="sans-serif" font-size="13" lengthAdjust="spacing" textLength="161" x="118" y="1093.5439">SV Get for Load prepared in</text><text fill="#000000" font-family="sans-serif" font-size="13" font-weight="bold" lengthAdjust="spacing" textLength="22" x="283" y="1093.5439">last</text><text fill="#000000" font-family="sans-serif" font-size="13" lengthAdjust="spacing" textLength="251" x="309" y="1093.5439">position of a card command set to process.</text><polygon fill="#181818" points="89,1108.8066,79,1112.8066,89,1116.8066,85,1112.8066" style="stroke:#181818;stroke-width:1.0;"/><line style="stroke:#181818;stroke-width:1.0;stroke-dasharray:2.0,2.0;" x1="83" x2="343" y1="1112.8066" y2="1112.8066"/><polygon fill="#181818" points="327,1140.0977,337,1144.0977,327,1148.0977,331,1144.0977" style="stroke:#181818;stroke-width:1.0;"/><line style="stroke:#181818;stroke-width:1.0;" x1="78" x2="333" y1="1144.0977" y2="1144.0977"/><text fill="#FF0000" font-family="sans-serif" font-size="13" font-weight="bold" lengthAdjust="spacing" textLength="48" x="85" y="1138.835">process</text><text fill="#000000" font-family="sans-serif" font-size="13" lengthAdjust="spacing" textLength="185" x="137" y="1138.835">commands (keep channel open)</text><polygon fill="#0000FF" points="612,1205.9707,622,1209.9707,612,1213.9707,616,1209.9707" style="stroke:#0000FF;stroke-width:1.0;"/><line style="stroke:#0000FF;stroke-width:1.0;" x1="349" x2="618" y1="1209.9707" y2="1209.9707"/><text fill="#0000FF" font-family="sans-serif" font-size="13" font-weight="bold" lengthAdjust="spacing" textLength="48" x="356" y="1170.126">Card #2</text><text fill="#000000" font-family="sans-serif" font-size="13" lengthAdjust="spacing" textLength="123" x="356" y="1187.417">transmit card request</text><text fill="#000000" font-family="sans-serif" font-size="13" lengthAdjust="spacing" textLength="65" x="388" y="1204.708">- APDU list</text><polygon fill="#181818" points="944,1237.2617,954,1241.2617,944,1245.2617,948,1241.2617" style="stroke:#181818;stroke-width:1.0;"/><line style="stroke:#181818;stroke-width:1.0;" x1="634" x2="950" y1="1241.2617" y2="1241.2617"/><text fill="#000000" font-family="sans-serif" font-size="13" lengthAdjust="spacing" textLength="101" x="641" y="1235.999">SV Get (for Load)</text><polygon fill="#181818" points="645,1268.5527,635,1272.5527,645,1276.5527,641,1272.5527" style="stroke:#181818;stroke-width:1.0;"/><line style="stroke:#181818;stroke-width:1.0;stroke-dasharray:2.0,2.0;" x1="639" x2="955" y1="1272.5527" y2="1272.5527"/><text fill="#000000" font-family="sans-serif" font-size="13" lengthAdjust="spacing" textLength="214" x="651" y="1267.29">[SV Load record, SV Card challenge]</text><polygon fill="#0000FF" points="360,1299.8438,350,1303.8438,360,1307.8438,356,1303.8438" style="stroke:#0000FF;stroke-width:1.0;"/><line style="stroke:#0000FF;stroke-width:1.0;stroke-dasharray:2.0,2.0;" x1="354" x2="628" y1="1303.8438" y2="1303.8438"/><text fill="#000000" font-family="sans-serif" font-size="13" lengthAdjust="spacing" textLength="116" x="366" y="1298.5811">[SV Card challenge]</text><polygon fill="#181818" points="89,1400.2988,79,1404.2988,89,1408.2988,85,1404.2988" style="stroke:#181818;stroke-width:1.0;"/><line style="stroke:#181818;stroke-width:1.0;stroke-dasharray:2.0,2.0;" x1="83" x2="343" y1="1404.2988" y2="1404.2988"/><text fill="#000000" font-family="sans-serif" font-size="13" lengthAdjust="spacing" textLength="123" x="95" y="1329.8721">[Calypso card image:</text><text fill="#000000" font-family="sans-serif" font-size="13" lengthAdjust="spacing" textLength="205" x="127" y="1347.1631">- identification data with SV support</text><text fill="#000000" font-family="sans-serif" font-size="13" lengthAdjust="spacing" textLength="145" x="127" y="1364.4541">- SV Load data (updated)</text><text fill="#000000" font-family="sans-serif" font-size="13" lengthAdjust="spacing" textLength="89" x="127" y="1381.7451">- SV Debit data</text><text fill="#000000" font-family="sans-serif" font-size="13" lengthAdjust="spacing" textLength="137" x="127" y="1399.0361">- SV balance (updated)]</text><polygon fill="#181818" points="327,1448.8809,337,1452.8809,327,1456.8809,331,1452.8809" style="stroke:#181818;stroke-width:1.0;"/><line style="stroke:#181818;stroke-width:1.0;" x1="78" x2="333" y1="1452.8809" y2="1452.8809"/><text fill="#FF0000" font-family="sans-serif" font-size="13" font-weight="bold" lengthAdjust="spacing" textLength="50" x="85" y="1430.3271">prepare</text><text fill="#000000" font-family="sans-serif" font-size="13" lengthAdjust="spacing" textLength="97" x="139" y="1430.3271">card transaction:</text><text fill="#000000" font-family="sans-serif" font-size="13" lengthAdjust="spacing" textLength="161" x="117" y="1447.6182">- SV Load (specific amount)</text><path d="M133,1465.8809 L133,1492.8809 L554,1492.8809 L554,1475.8809 L544,1465.8809 L133,1465.8809 " fill="#FEFFDD" style="stroke:#181818;stroke-width:0.5;"/><path d="M544,1465.8809 L544,1475.8809 L554,1475.8809 L544,1465.8809 " fill="#FEFFDD" style="stroke:#181818;stroke-width:0.5;"/><text fill="#000000" font-family="sans-serif" font-size="13" lengthAdjust="spacing" textLength="118" x="139" y="1484.9092">SV Load prepared in</text><text fill="#000000" font-family="sans-serif" font-size="13" font-weight="bold" lengthAdjust="spacing" textLength="23" x="261" y="1484.9092">first</text><text fill="#000000" font-family="sans-serif" font-size="13" lengthAdjust="spacing" textLength="251" x="288" y="1484.9092">position of a card command set to process.</text><polygon fill="#181818" points="89,1500.1719,79,1504.1719,89,1508.1719,85,1504.1719" style="stroke:#181818;stroke-width:1.0;"/><line style="stroke:#181818;stroke-width:1.0;stroke-dasharray:2.0,2.0;" x1="83" x2="343" y1="1504.1719" y2="1504.1719"/><polygon fill="#181818" points="327,1531.4629,337,1535.4629,327,1539.4629,331,1535.4629" style="stroke:#181818;stroke-width:1.0;"/><line style="stroke:#181818;stroke-width:1.0;" x1="78" x2="333" y1="1535.4629" y2="1535.4629"/><text fill="#FF0000" font-family="sans-serif" font-size="13" font-weight="bold" lengthAdjust="spacing" textLength="48" x="85" y="1530.2002">process</text><text fill="#000000" font-family="sans-serif" font-size="13" lengthAdjust="spacing" textLength="185" x="137" y="1530.2002">commands (close channel after)</text><polygon fill="#00FF00" points="1027.5,1597.3359,1037.5,1601.3359,1027.5,1605.3359,1031.5,1601.3359" style="stroke:#00FF00;stroke-width:1.0;"/><line style="stroke:#00FF00;stroke-width:1.0;" x1="349" x2="1033.5" y1="1601.3359" y2="1601.3359"/><text fill="#008000" font-family="sans-serif" font-size="13" font-weight="bold" lengthAdjust="spacing" textLength="47" x="356" y="1561.4912">SAM #1</text><text fill="#000000" font-family="sans-serif" font-size="13" lengthAdjust="spacing" textLength="123" x="356" y="1578.7822">transmit card request</text><text fill="#000000" font-family="sans-serif" font-size="13" lengthAdjust="spacing" textLength="65" x="388" y="1596.0732">- APDU list</text><polygon fill="#181818" points="1355.5,1628.627,1365.5,1632.627,1355.5,1636.627,1359.5,1632.627" style="stroke:#181818;stroke-width:1.0;"/><line style="stroke:#181818;stroke-width:1.0;" x1="1049.5" x2="1361.5" y1="1632.627" y2="1632.627"/><text fill="#000000" font-family="sans-serif" font-size="13" lengthAdjust="spacing" textLength="164" x="1056.5" y="1627.3643">select diversifier (card serial)</text><polygon fill="#181818" points="1060.5,1642.627,1050.5,1646.627,1060.5,1650.627,1056.5,1646.627" style="stroke:#181818;stroke-width:1.0;"/><line style="stroke:#181818;stroke-width:1.0;stroke-dasharray:2.0,2.0;" x1="1054.5" x2="1366.5" y1="1646.627" y2="1646.627"/><polygon fill="#181818" points="1355.5,1673.918,1365.5,1677.918,1355.5,1681.918,1359.5,1677.918" style="stroke:#181818;stroke-width:1.0;"/><line style="stroke:#181818;stroke-width:1.0;" x1="1049.5" x2="1361.5" y1="1677.918" y2="1677.918"/><text fill="#000000" font-family="sans-serif" font-size="13" lengthAdjust="spacing" textLength="294" x="1056.5" y="1672.6553">SV prepare Load (SV card challenge, load amount)</text><polygon fill="#181818" points="1060.5,1705.209,1050.5,1709.209,1060.5,1713.209,1056.5,1709.209" style="stroke:#181818;stroke-width:1.0;"/><line style="stroke:#181818;stroke-width:1.0;stroke-dasharray:2.0,2.0;" x1="1054.5" x2="1366.5" y1="1709.209" y2="1709.209"/><text fill="#000000" font-family="sans-serif" font-size="13" lengthAdjust="spacing" textLength="237" x="1066.5" y="1703.9463">[SV SAM challenge, SV SAM certificate]</text><polygon fill="#00FF00" points="360,1736.5,350,1740.5,360,1744.5,356,1740.5" style="stroke:#00FF00;stroke-width:1.0;"/><line style="stroke:#00FF00;stroke-width:1.0;stroke-dasharray:2.0,2.0;" x1="354" x2="1043.5" y1="1740.5" y2="1740.5"/><text fill="#000000" font-family="sans-serif" font-size="13" lengthAdjust="spacing" textLength="193" x="366" y="1735.2373">[SAM challenge, SAM certificate]</text><polygon fill="#0000FF" points="612,1802.373,622,1806.373,612,1810.373,616,1806.373" style="stroke:#0000FF;stroke-width:1.0;"/><line style="stroke:#0000FF;stroke-width:1.0;" x1="349" x2="618" y1="1806.373" y2="1806.373"/><text fill="#0000FF" font-family="sans-serif" font-size="13" font-weight="bold" lengthAdjust="spacing" textLength="48" x="356" y="1766.5283">Card #3</text><text fill="#000000" font-family="sans-serif" font-size="13" lengthAdjust="spacing" textLength="123" x="356" y="1783.8193">transmit card request</text><text fill="#000000" font-family="sans-serif" font-size="13" lengthAdjust="spacing" textLength="65" x="388" y="1801.1104">- APDU list</text><path d="M376,1819.373 L376,1846.373 L881,1846.373 L881,1829.373 L871,1819.373 L376,1819.373 " fill="#FEFFDD" style="stroke:#181818;stroke-width:0.5;"/><path d="M871,1819.373 L871,1829.373 L881,1829.373 L871,1819.373 " fill="#FEFFDD" style="stroke:#181818;stroke-width:0.5;"/><text fill="#000000" font-family="sans-serif" font-size="13" lengthAdjust="spacing" textLength="93" x="382" y="1838.4014">SV Load follows</text><text fill="#000000" font-family="sans-serif" font-size="13" font-weight="bold" lengthAdjust="spacing" textLength="55" x="479" y="1838.4014">directely</text><text fill="#000000" font-family="sans-serif" font-size="13" lengthAdjust="spacing" textLength="328" x="538" y="1838.4014">a previously transmitted SV Get for Load card command.</text><polygon fill="#181818" points="944,1870.9551,954,1874.9551,944,1878.9551,948,1874.9551" style="stroke:#181818;stroke-width:1.0;"/><line style="stroke:#181818;stroke-width:1.0;" x1="634" x2="950" y1="1874.9551" y2="1874.9551"/><text fill="#000000" font-family="sans-serif" font-size="13" lengthAdjust="spacing" textLength="298" x="641" y="1869.6924">SV Load (amount, SAM challenge, SAM certificate)</text><polygon fill="#181818" points="645,1902.2461,635,1906.2461,645,1910.2461,641,1906.2461" style="stroke:#181818;stroke-width:1.0;"/><line style="stroke:#181818;stroke-width:1.0;stroke-dasharray:2.0,2.0;" x1="639" x2="955" y1="1906.2461" y2="1906.2461"/><text fill="#000000" font-family="sans-serif" font-size="13" lengthAdjust="spacing" textLength="197" x="651" y="1900.9834">[new balance, SV Card certificate]</text><polygon fill="#181818" points="944,1933.5371,954,1937.5371,944,1941.5371,948,1937.5371" style="stroke:#181818;stroke-width:1.0;"/><line style="stroke:#181818;stroke-width:1.0;" x1="634" x2="950" y1="1937.5371" y2="1937.5371"/><text fill="#000000" font-family="sans-serif" font-size="13" lengthAdjust="spacing" textLength="109" x="641" y="1932.2744">close card channel</text><polygon fill="#181818" points="645,1947.5371,635,1951.5371,645,1955.5371,641,1951.5371" style="stroke:#181818;stroke-width:1.0;"/><line style="stroke:#181818;stroke-width:1.0;stroke-dasharray:2.0,2.0;" x1="639" x2="960" y1="1951.5371" y2="1951.5371"/><polygon fill="#0000FF" points="360,1978.8281,350,1982.8281,360,1986.8281,356,1982.8281" style="stroke:#0000FF;stroke-width:1.0;"/><line style="stroke:#0000FF;stroke-width:1.0;stroke-dasharray:2.0,2.0;" x1="354" x2="628" y1="1982.8281" y2="1982.8281"/><text fill="#000000" font-family="sans-serif" font-size="13" lengthAdjust="spacing" textLength="93" x="366" y="1977.5654">[card certificate]</text><polygon fill="#00FF00" points="1027.5,2044.7012,1037.5,2048.7012,1027.5,2052.7012,1031.5,2048.7012" style="stroke:#00FF00;stroke-width:1.0;"/><line style="stroke:#00FF00;stroke-width:1.0;" x1="349" x2="1033.5" y1="2048.7012" y2="2048.7012"/><text fill="#008000" font-family="sans-serif" font-size="13" font-weight="bold" lengthAdjust="spacing" textLength="47" x="356" y="2008.8564">SAM #2</text><text fill="#000000" font-family="sans-serif" font-size="13" lengthAdjust="spacing" textLength="123" x="356" y="2026.1475">transmit card request</text><text fill="#000000" font-family="sans-serif" font-size="13" lengthAdjust="spacing" textLength="65" x="388" y="2043.4385">- APDU list</text><polygon fill="#181818" points="1355.5,2075.9922,1365.5,2079.9922,1355.5,2083.9922,1359.5,2079.9922" style="stroke:#181818;stroke-width:1.0;"/><line style="stroke:#181818;stroke-width:1.0;" x1="1049.5" x2="1361.5" y1="2079.9922" y2="2079.9922"/><text fill="#000000" font-family="sans-serif" font-size="13" lengthAdjust="spacing" textLength="156" x="1056.5" y="2074.7295">SV Check (card certificate)</text><polygon fill="#181818" points="1060.5,2107.2832,1050.5,2111.2832,1060.5,2115.2832,1056.5,2111.2832" style="stroke:#181818;stroke-width:1.0;"/><line style="stroke:#181818;stroke-width:1.0;stroke-dasharray:2.0,2.0;" x1="1054.5" x2="1366.5" y1="2111.2832" y2="2111.2832"/><text fill="#000000" font-family="sans-serif" font-size="13" lengthAdjust="spacing" textLength="129" x="1066.5" y="2106.0205">[authentication status]</text><polygon fill="#00FF00" points="360,2138.5742,350,2142.5742,360,2146.5742,356,2142.5742" style="stroke:#00FF00;stroke-width:1.0;"/><line style="stroke:#00FF00;stroke-width:1.0;stroke-dasharray:2.0,2.0;" x1="354" x2="1043.5" y1="2142.5742" y2="2142.5742"/><text fill="#000000" font-family="sans-serif" font-size="13" lengthAdjust="spacing" textLength="135" x="366" y="2137.3115">[authentification status]</text><polygon fill="#181818" points="89,2256.3203,79,2260.3203,89,2264.3203,85,2260.3203" style="stroke:#181818;stroke-width:1.0;"/><line style="stroke:#181818;stroke-width:1.0;stroke-dasharray:2.0,2.0;" x1="83" x2="343" y1="2260.3203" y2="2260.3203"/><text fill="#000000" font-family="sans-serif" font-size="13" lengthAdjust="spacing" textLength="123" x="95" y="2168.6025">[Calypso card image:</text><text fill="#000000" font-family="sans-serif" font-size="13" lengthAdjust="spacing" textLength="205" x="127" y="2185.8936">- identification data with SV support</text><text fill="#000000" font-family="sans-serif" font-size="13" lengthAdjust="spacing" textLength="145" x="127" y="2203.1846">- SV Load data (updated)</text><text fill="#000000" font-family="sans-serif" font-size="13" lengthAdjust="spacing" textLength="89" x="127" y="2220.4756">- SV Debit data</text><text fill="#000000" font-family="sans-serif" font-size="13" lengthAdjust="spacing" textLength="137" x="127" y="2237.7666">- SV balance (updated)]</text><text fill="#000000" font-family="sans-serif" font-size="13" lengthAdjust="spacing" textLength="127" x="95" y="2255.0576">authentification status</text><!--SRC=[pLTRRo8t57wVNs4bKfUCbZOXfDb42H8CCwj8hRhQjFkouS7n6B0oZAUs8Sk_xx4z5nk6ItfHDoy4-nn_v_PzDk_a2yiBBF02HHcMSiH5IaN4CoxGQN8HzS-JO9_9k3-CpiUEYLHKKAxM1HrwXiERSJHEMWqVFCDHVtWTNxKQHlw9u_75gDTg67k6yUZcqeUUuvI_ido6fZYJD72s7XLMT7-6GwBOYgbrcrNm3dscwLR5C7cP2RxCKsDzToTeEXX0VSVnE8xsrBUsZA_xqMKKp5bAKRNOf0kedvQYoEX1uCAO6Un-72NNUx4RumznlpySL_3rkXV1SxOyZA-DJ3wZv2ePxKMlJ2_xDn_6emgxNFMGFmfAyuFGCsrbi8V9CBdOYrtRzk8ekhwemAjb1ntWVnCudnrEdHips_Qa5z_i3Q0nZd- -ZdkzAe9wtGy1Ah0-fW1hctySnV6X_8rfBxgChywTzDSRq9WecFwJtnbveKeJQbWK6IDOCPwV82mHBWfqEkDP6W2MOeGLE5Ve9CBPkf0S3Jyz63E22uPE2vQ_-7QVAOQeQZEnmwmwBi8YVSgjKtckICipJZCscwkHdj9dNHKirkWa3BLB6DR6hbahnEFmLmz1ueK7O8UnGP0qeqHH22iCmRU40Y_FNXUIhK1wd8BLIrl6z_ScKsJFXbAZ7n2qA5TiMjOUtTy7GSx1cQyWD5tU0C6V3bKYDQU8vYicUBu0BvHYXL4XgDHVM8vmbXaRNH2mnc968GCqXLRNa3y6D4-HXe3WYw8xq1Ytw6xAuGoYn-XUorGOmhbGI1g6Tp_flO4jSnEw93J7Wl7Rf_n9TT6KPJ1Vw7cDP469JWWD7yPsJq3qwF4B-eN3fw24wswx6sFwp5Iv8vi2ckagvqR_t-qE8EGWfPv5cOVOcGSdLCec3_fDZphWxKYemHSEllw_-_Nq7FwIP39e1jJ7D3fdfnETNjIWJxa21P0BG6q01VrpIQMofN22uS8k3J-D_q0PaygjI1ilWcQvQoAxHRoWkJsJp76Uqym_m_NMtxjT9wEMusnWUiWhbK0TpDApRUTRzDK09D73PEkWoeJCANcHCB8hdB7KdYVX1bzAK4KjVeKbYga0uOi5pc6W-L99hMYIagNG7rA2e-77TiHcjEn4eOu_UsUrosRaljtaoAEzwJtsS3a9tW4JlTuvysMd6KmfMr5lPcJ1StZxU2IeEsV7rD2aQXe8WB6aw741mcZgoXPuvXqX6XvPFGX3WgKAGrJffmOvn4n8qZMtCAK-REYSaQvNfkQQ_d9P55oKHAZAf2tg5LjYR-aPPpWdT19iwq6ZisPG3FKmgVNLf6d23KEMmzn1OE2yaQphLkRWRKCd-58Gwc_1LL7lx55oFCEWrrgh7u7kqA8l6AZepWTI7FZ1J6G8-sPEPFzGphTpXCf-fChS6JgQzfQtvBNXXqgyLDzBOPZPOIguPAODV0evMNcox8PUAProgTPEMWU5dnmh_BMGT5ueBIfXD59vrfwd1N-ZwlVQLByS6KVmZrVttOe8qsi5SPyIbftfLAqvLg7UQy-el4AoZC83ThzcsKPyRV7Q8LR_eNAWphA0JvgU7Q4XZV7apJDsDAjCQ9twSOGNyDHKPs_XLmklfanyLyGY6PUqPXQUmfFm8BMIvFnyCgZVupwY_Ubcdk0xtbD7CQlzjH_KorsDNpzpKhWjXOGsWNsdV9W9XhCpxT3jDh5k7G1TAXjKzXiMY4U6zoZJ6rNxDmwqzD79EWxL2XKb3VIbro3NDUpM3DpmttHssjsayhUqxl9_qpgN8hMYk4IPyYpZhn98aZAXtq7P6eXYVY-j65_AR8sgYFKRQVF-SZdaa6QdnDfssxQ-H_ixi5k1S_fQYP8ZlsxljWIu3A5adllYttxOR-YmTqxT-NgCo1RuFXr_6vLx_pALMuWOwHyP9N-zuczp3Y_XAGQN375_YXmWMUKptVJQmwxlwwvxodVai7aV_0K0]--></g></svg>